<?xml version="1.0" encoding="utf-8"?>
<!-- Generator: Adobe Illustrator 23.0.0, SVG Export Plug-In . SVG Version: 6.00 Build 0)  -->
<svg version="1.1" id="Ñëîé_1" xmlns="http://www.w3.org/2000/svg" xmlns:xlink="http://www.w3.org/1999/xlink" x="0px" y="0px"
	 viewBox="0 0 2612.4 1230.1" style="enable-background:new 0 0 2612.4 1230.1;" xml:space="preserve">
<style type="text/css">
	.st0{fill:#F0E6FF;}
	.st1{fill:#FFFFFF;}
	.st2{fill:#2A0055;}
	.st3{fill:#FF5C5C;}
	.st4{fill:#00C9B9;}
	.st5{fill:#771572;}
	.st6{fill:#D3C5ED;}
	.st7{enable-background:new    ;}
	.st8{fill:#FFBFAA;}
	.st9{fill:#9960F4;}
	.st10{fill:#AA5FFF;}
</style>
<g>
	<ellipse class="st0" cx="329.1" cy="147.3" rx="114.7" ry="114.7"/>
	<path class="st0" d="M329.1,264.6c-64.7,0-117.3-52.6-117.3-117.3S264.4,30,329.1,30s117.4,52.6,117.4,117.3
		S393.8,264.6,329.1,264.6z M329.1,35.2C267.3,35.2,217,85.5,217,147.3s50.3,112.1,112.1,112.1s112.1-50.3,112.1-112.1
		C441.2,85.4,390.9,35.2,329.1,35.2z"/>
</g>
<g>
	<path class="st0" d="M392.7,271H2.6c9.9-20.9,31.1-35.3,55.7-35.3c0.8,0,1.6,0,2.4,0.1c13.1-18.7,34.8-30.9,59.3-30.9
		c3.3,0,6.5,0.2,9.7,0.7c15.5-37.2,52.2-63.3,94.9-63.3c42.5,0,79,25.8,94.7,62.7c0.4,0,0.8,0,1.3,0
		C358.4,204.9,389.5,233.9,392.7,271z"/>
	<path class="st1" d="M392.7,273.6H2.6c-0.9,0-1.7-0.5-2.2-1.2c-0.5-0.8-0.5-1.7-0.2-2.5c10.6-22.3,33.4-36.8,58.1-36.8
		c0.4,0,0.7,0,1,0c14.1-19.3,36.7-30.8,60.6-30.8c2.7,0,5.4,0.1,8,0.4c16.8-38.4,54.5-63.1,96.6-63.1c41.8,0,79.5,24.5,96.4,62.7
		c18.7,0.1,36.6,7.1,50.4,19.8c13.8,12.7,22.3,30,23.9,48.6c0.1,0.7-0.2,1.5-0.7,2C394.1,273.3,393.4,273.6,392.7,273.6z M6.9,268.4
		h382.9c-4.4-34.4-34.3-60.9-69.2-60.9c-0.4,0-0.7,0-1.1,0c-1.1,0-2.1-0.6-2.5-1.6c-15.7-37.1-52-61.1-92.3-61.1
		c-40.6,0-76.9,24.2-92.5,61.7c-0.5,1.1-1.6,1.8-2.8,1.6c-3-0.4-6.1-0.6-9.3-0.6c-22.7,0-44.1,11.1-57.2,29.8
		c-0.5,0.7-1.4,1.2-2.3,1.1c-0.7,0-1.5-0.1-2.2-0.1C37,238.3,17.3,250,6.9,268.4z"/>
</g>
<g>
	<path class="st0" d="M810.5,847.7c-14.6-25.2-24.6-54.5-20.5-83.9c6.1-43.7,38.2-60.5,64.4-90.3c-11,4.9-49.4-56.3-54.8-63.7
		c-21.7-30.1-53.1-62.3-54.1-101.8c-1-38.1,31-75.2,71.2-67.1c0,0-104.5-26.7-37.4-119.9c-10.9-39.6-65.7-247.5,30.6-214.7
		c26.4,9,44.1,34.8,58.4,59.7c4.3,7.5,38.8,96.2,32.7,96.6c0,0,107.2-5.9,85.3,113.9c0,0,202.4,92.5,74.6,248.5
		c0,0,169.9,178.1,51.3,264.5c-38.2,27.8-75.3,42.1-108,48.8C927.8,953.9,851.9,918.9,810.5,847.7z"/>
</g>
<path class="st0" d="M892.2,968.9c-27.7,38.3-75.3,59.8-121.1,66.4c-39.8,5.7-90.1,4.2-111.7-36.1c-17.5-32.7-6.2-72.4,7-104.4
	c0,0-70.9,44.5-106.5,34.4c-76.8-21.9-43.6-117.3-43.6-117.3s-21.2,5.2-32.1,6.4c-27.3,2.9-57.9-12.8-71.7-36.6
	c-25-43.3,8.2-82.7,38.3-111.9c0,0-35.5-35.5-33.6-74.6c1.9-39.2,39.3-80.1,124.3-37.9c2.8,1.4,5.7,2.9,8.6,4.5c3.4,1.6,6,3,9,5.5
	c-14.2-36.5,28.3-74.2,61.6-76.8c15.3-1.2,31.1,3.8,43,13.6c14.4,11.8,20.8,29.9,25.9,47.2c0.3,1,0.6,2,0.9,3.1
	c0,0,132.2-80.9,201.3,70.1c26.1,57.1,35,120.6,33.4,182.9c-0.9,36-4.3,74.6-11,109.9C910.5,937.2,902.8,954.3,892.2,968.9z"/>
<g>
	<path class="st1" d="M739.4,1040.2c-11.5,0-22.1-1.1-31.5-3.3c-23.6-5.5-40.6-17.8-50.6-36.5c-17.3-32.3-7-71.1,4.1-99.6
		c-16.1,9.4-59,32.4-89.6,32.4c-4.5,0-8.7-0.5-12.5-1.6c-20.3-5.8-35-17.1-43.6-33.7c-15.9-30.6-6.8-69.7-3-82.6
		c-6.8,1.6-20.1,4.6-28.2,5.4c-28.1,3-59.9-13.3-74.1-37.8c-11.5-20-12.1-41.4-1.6-63.5c9.1-19.2,25.1-36.5,38.6-49.7
		c-7.3-7.9-34.3-39.5-32.6-74.7c1-21.1,11.7-39.7,28.6-49.5c16.8-9.8,47.6-16.2,99.3,9.5c2.8,1.4,5.7,2.9,8.7,4.5
		c1.3,0.6,2.4,1.2,3.5,1.8c-2.6-11.9,0-24.4,7.6-36.5c12.4-19.7,36.8-35.2,58.2-36.8c16-1.2,32.4,3.9,44.8,14.1
		c15,12.3,21.4,30.7,26.8,48.4c0,0,0,0,0,0.1c12.2-6.6,62.3-30.9,113.4-15.2c37.3,11.4,67.1,41,88.6,88c0.6,1.3,0,2.7-1.2,3.3
		c-1.3,0.6-2.7,0-3.3-1.2c-20.9-45.7-49.7-74.4-85.5-85.3c-56.5-17.2-111.6,16-112.2,16.3c-0.7,0.4-1.5,0.5-2.2,0.2
		s-1.3-0.9-1.5-1.6c-0.3-1-0.6-2-0.9-3c-5.1-17-11.2-34.6-25.1-46c-11.5-9.4-26.5-14.1-41.2-13c-19.9,1.5-42.8,16-54.4,34.5
		c-5.7,9.1-11.3,23.2-5.1,38.9c0.4,1.1,0.1,2.3-0.9,2.9c-0.9,0.7-2.2,0.6-3.1-0.1c-2.7-2.2-5.1-3.5-8.5-5.2c0,0-0.1,0-0.1-0.1
		c-2.9-1.6-5.8-3.1-8.6-4.5c-49.7-24.7-78.9-18.9-94.6-9.7c-15.4,9-25.1,26-26.1,45.5c-1.8,37.5,32.6,72.4,32.9,72.7
		c0.5,0.5,0.7,1.1,0.7,1.8s-0.3,1.3-0.8,1.8c-31.9,31-61.4,68.2-37.9,108.9c13.3,23,43,38.2,69.2,35.4c10.6-1.1,31.6-6.3,31.8-6.3
		c0.9-0.2,1.8,0.1,2.4,0.7c0.6,0.7,0.8,1.6,0.5,2.5c-0.2,0.5-16.5,48.5,1.4,82.9c8,15.3,21.6,25.8,40.5,31.2
		c33.9,9.7,103.8-33.7,104.5-34.1c0.8-0.5,1.7-0.5,2.5-0.1c1.1,0.6,1.6,2,1.1,3.1c-11.5,28-24.8,69.1-7.1,102.3
		c16.6,31.1,53.3,42.8,109.1,34.8c1.4-0.2,2.6,0.8,2.8,2.1c0.2,1.4-0.8,2.6-2.1,2.8C760.1,1039.4,749.4,1040.2,739.4,1040.2z"/>
</g>
<g>
	<path class="st1" d="M659.4,1001.8c-0.9,0-1.8-0.5-2.2-1.3c-17.3-32.3-7-71.1,4.1-99.6c-16.1,9.4-59,32.4-89.6,32.4
		c-4.5,0-8.7-0.5-12.5-1.6c-20.3-5.8-35-17.1-43.6-33.7c-15.9-30.6-6.8-69.7-3-82.6c-6.8,1.6-20.1,4.6-28.2,5.4
		c-28.1,3-59.9-13.3-74.1-37.8c-11.5-20-12.1-41.4-1.6-63.5c9.1-19.2,25.1-36.5,38.6-49.7c-7.3-7.9-34.3-39.5-32.6-74.7
		c1-21.1,11.7-39.7,28.6-49.5c16.8-9.8,47.6-16.2,99.3,9.5c2.8,1.4,5.7,2.9,8.7,4.5c1.3,0.6,2.4,1.2,3.5,1.8
		c-2.6-11.9,0-24.4,7.6-36.5c12.4-19.7,36.8-35.2,58.2-36.8c16-1.2,32.4,3.9,44.8,14.1c15,12.3,21.4,30.7,26.8,48.4c0,0,0,0,0,0.1
		c12.2-6.6,62.3-30.8,113.4-15.2c37.3,11.4,67.1,41,88.6,88c13.5,29.5,23,63,28.2,99.6c0.2,1.4-0.8,2.6-2.1,2.8
		c-1.4,0.2-2.6-0.8-2.8-2.1c-5.1-36.1-14.5-69.1-27.8-98.2c-20.9-45.7-49.6-74.4-85.5-85.3c-56.4-17.2-111.7,15.9-112.2,16.3
		c-0.7,0.4-1.5,0.5-2.2,0.2s-1.3-0.9-1.5-1.6c-0.3-1-0.6-2-0.9-3c-5.1-17-11.2-34.6-25.1-46c-11.5-9.4-26.5-14.1-41.2-13
		c-19.9,1.5-42.8,16-54.4,34.5c-5.7,9.1-11.3,23.2-5.1,38.9c0.4,1.1,0.1,2.3-0.9,2.9c-0.9,0.7-2.2,0.6-3.1-0.1
		c-2.7-2.2-5.1-3.5-8.5-5.2c0,0-0.1,0-0.1-0.1c-2.9-1.6-5.8-3.1-8.6-4.5c-49.7-24.7-78.8-18.9-94.6-9.7c-15.4,9-25.1,26-26.1,45.5
		c-1.8,37.6,32.6,72.4,32.9,72.7c0.5,0.5,0.7,1.1,0.7,1.8s-0.3,1.3-0.8,1.8c-31.9,31-61.4,68.2-37.9,108.9
		c13.3,23,43,38.2,69.2,35.4c10.6-1.1,31.6-6.3,31.8-6.3c0.9-0.2,1.8,0.1,2.4,0.7c0.6,0.7,0.8,1.6,0.5,2.5
		c-0.2,0.5-16.5,48.5,1.4,82.9c8,15.3,21.6,25.8,40.5,31.2c33.9,9.7,103.8-33.7,104.5-34.1c0.8-0.5,1.7-0.5,2.5-0.1
		c1.1,0.6,1.6,2,1.1,3.1c-11.5,28-24.8,69.1-7.1,102.3c0.7,1.2,0.2,2.7-1,3.4C660.2,1001.7,659.8,1001.8,659.4,1001.8z"/>
</g>
<g>
	<path class="st0" d="M1015.5,1205c27.5-14,51.9-34.1,69.6-59.2c11.3-16,23.4-13.4,28-33.3c1.4-6,2.1-13.8,2.3-22.4l-48.3-118.9
		c-18.4-9.6-40.9-12.2-64.9-7.8c0,0-0.7-80.8-76.4-61.6l-17.6-33c-22.6-42.3-79.8-51.9-113.9-18.1c-0.5,0.5-1,1-1.5,1.5
		c-19.9,20.8-26,50.3-17.7,76.3c3,9.3,7.7,18.2,14.4,26l34.3,40.8c0,0-60.9-20.7-88.2,16.5c-4,5.5-7.3,12.2-9.6,20.4
		c-13.1,48,44.5,64.5,74.3,69.8c10.1,1.8,17,2.3,17,2.3s-6,2.2-13.3,7c-15.3,10-36,31-17.7,65.8c2.7,5.1,6.2,10.4,10.6,16.1
		c2.7,3.5,5.8,6.6,9.2,9.4c2.4,2.1,5,4,7.7,5.7c33.6,21.7,87.4,21.5,122.4,18.9C963.6,1225.3,990.8,1217.6,1015.5,1205z"/>
</g>
<g>
	<path class="st1" d="M1015.5,1207.5c-0.9,0-1.7-0.4-2.2-1.3L804.6,843.8c-0.7-1.2-0.3-2.7,0.9-3.4c1.2-0.7,2.7-0.3,3.4,0.9
		l208.7,362.4c0.7,1.2,0.3,2.7-0.9,3.4C1016.4,1207.4,1016,1207.5,1015.5,1207.5z"/>
</g>
<g>
	<path class="st1" d="M781,1049.6c-1.4,0-2.5-1.1-2.5-2.5s1.1-2.5,2.5-2.5l142.9-1.4c1.4,0,2.5,1.1,2.5,2.5s-1.1,2.5-2.5,2.5
		L781,1049.6L781,1049.6z"/>
</g>
<g>
	<g>
		<path class="st1" d="M1014.2,901.4c-1.1,0-2.1-0.7-2.4-1.8L787.6,133.3c-0.4-1.3,0.4-2.7,1.7-3.1c1.3-0.4,2.7,0.4,3.1,1.7
			l224.2,766.4c0.4,1.3-0.4,2.7-1.7,3.1C1014.6,901.4,1014.4,901.4,1014.2,901.4z"/>
	</g>
	<g>
		<path class="st1" d="M879.8,442.2c-0.5,0-1-0.2-1.5-0.5c-1.1-0.8-1.3-2.4-0.5-3.5l88.7-120.4c0.8-1.1,2.4-1.3,3.5-0.5
			s1.3,2.4,0.5,3.5l-88.7,120.4C881.4,441.9,880.6,442.2,879.8,442.2z"/>
	</g>
	<g>
		<path class="st1" d="M860.4,375.8L860.4,375.8l-70.5-2.9c-1.4-0.1-2.5-1.2-2.4-2.6c0.1-1.4,1.2-2.5,2.6-2.4l70.4,2.9
			c1.4,0.1,2.5,1.2,2.4,2.6C862.9,374.8,861.7,375.8,860.4,375.8z"/>
	</g>
</g>
<path class="st0" d="M1563.9,724.8c0,0-255.8-247.2,56.1-281.6c0,0-100.1-174.6,69.3-185.1c0,0-5.4-179.5,147.2-100.1
	c0,0,15.2-44.5,58.7-59.1c58.4-19.5,143.5,4.8,78.4,165.6c0,0,118.4-0.6,94.8,86.7c-5.6,20.6-26.3,43.4-58,62.3
	c0,0,58.1,13.2,76.9,46.6c25.2,44.8-53.5,271.4-194.8,328.3C1713.5,860.6,1563.9,724.8,1563.9,724.8z"/>
<g>
	<path class="st0" d="M2217.8,1141.9c-1.4,12.5-11.8,22.5-23.6,27.2c-11.7,4.6-24.6,4.9-37.2,5.1c12.1,3.5,19.9,16.8,19.1,29.4
		c0,0.1,0,0.2,0,0.3c-0.9,13-12,23-25.1,23h-229.5c-27-18.7,59.9-47.5,58.8-81.5c-0.2-6.1,0.3-12.3,1.4-18.7
		c1.6-8.9,4.4-17.6,8.2-25.8c6.7-14.1-6.3-32-7.3-46.3c-0.6-8.9,2.3-16.4,9.7-21.7c4.6-3.4,10.6-6.3,16.5-7.8
		c6.6-1.7,15.6,0.5,21.6-1.7c5.6-2.1,5.4-9.2,7.4-13.8c2.7-6.3,6.6-11.5,12.4-15.3c10.1-6.6,6-38.5,17-33.4
		c6.3-12.6-29.5,12.1,34.6-8.4c124.9-40,119.6,82.3,88.4,124.6c-4.7,6.3-21.6,27.8-29.7,29.2c12.9-2.2,26.7-1.9,38.3,4
		C2210.5,1116.3,2219.3,1128.9,2217.8,1141.9z"/>
</g>
<g>
	<path class="st0" d="M1977.4,1226.8h-450.1c-39-175,273.4-432.6,273.4-432.6c-15.6-174.4,138.5-141.4,138.5-141.4
		c-8.8-1.9,52.9-119.3,60.1-129c24-31.9,53-64.4,92.4-71c143.5-24.2,36.7,257.2,15.6,310.6c84.5,147.3-70.1,160.9-70.1,160.9
		C2193.5,1068.5,2045.1,1185,1977.4,1226.8z"/>
</g>
<g>
	<g>
		<path class="st1" d="M1977.4,1229.3h-450.1c-1.2,0-2.2-0.8-2.4-2c-9-40.5-0.1-88.6,26.5-143.1c21.2-43.3,53.5-90.8,96.2-141
			c68.1-80.2,141.2-142.3,150.6-150.2c-4.6-54.8,6.9-94.9,34.5-119.3c21.9-19.4,49.9-24.7,69.5-25.8c15.3-0.8,27.8,0.7,33.9,1.6
			c0.7-5.5,5.3-19.9,26.8-63c15.2-30.5,31.1-59.7,34.6-64.4c23.9-31.8,53.8-65.2,94-72c26.8-4.5,47,1.2,59.8,17.1
			c20.9,25.8,22.3,78.1,4,155.5c-13.2,56.1-33.7,111.6-45,140.3c26.2,46.1,31.8,84,16.8,112.8c-19.6,37.5-67.8,47.7-84.1,50.1
			c47.9,45.5,69.8,92.4,65.3,139.3c-7.4,77.2-84.3,135.6-129.5,163.5C1978.3,1229.2,1977.9,1229.3,1977.4,1229.3z M1529.3,1224.3
			h447.4c44.5-27.6,119.4-84.6,126.6-159.4c4.5-46.5-18.3-93.2-67.6-138.8c-0.7-0.7-1-1.7-0.7-2.6s1.2-1.6,2.1-1.7
			c0.6-0.1,63.5-6.1,85.5-48.2c14.3-27.4,8.5-64.1-17.3-109c-0.4-0.7-0.4-1.5-0.2-2.2c21.4-54.3,87.8-235.7,42.2-292
			c-11.6-14.3-30.1-19.5-55.1-15.3c-38.5,6.5-67.5,39.1-90.8,70c-3.3,4.4-19.1,33.4-33.8,62.9c-20,40.1-26.9,58.6-26.7,62.7
			c0.7,0.6,1,1.5,0.8,2.4c-0.3,1.4-1.6,2.2-3,1.9l0,0c-0.7-0.2-63-12.9-102.9,22.4c-26.5,23.4-37.4,62.6-32.7,116.4
			c0.1,0.8-0.3,1.6-0.9,2.2c-0.8,0.6-78.8,65.3-151.1,150.4c-42.4,49.9-74.5,97-95.4,140C1530.2,1139.1,1521.3,1185.4,1529.3,1224.3
			z"/>
	</g>
</g>
<g>
	<path class="st1" d="M1797.2,1092.5c-0.4,0-0.8-0.1-1.2-0.3c-1.2-0.7-1.6-2.2-1-3.4l291.7-529.6c0.7-1.2,2.2-1.7,3.4-1
		s1.6,2.2,1,3.4l-291.7,529.6C1798.9,1092.1,1798,1092.5,1797.2,1092.5z"/>
</g>
<g>
	<path class="st1" d="M2015.8,1049.3c-0.3,0-0.6-0.1-0.9-0.2l-161.4-60.8c-1.3-0.5-1.9-1.9-1.5-3.2c0.5-1.3,1.9-1.9,3.2-1.5
		l161.4,60.8c1.3,0.5,1.9,1.9,1.5,3.2C2017.8,1048.7,2016.8,1049.3,2015.8,1049.3z"/>
</g>
<g>
	<path class="st1" d="M1778.6,622.3c-0.3,0-0.5,0-0.8-0.1c-1.3-0.4-2-1.8-1.6-3.1L1943.4,94c0.4-1.3,1.8-2,3.1-1.6s2,1.8,1.6,3.1
		l-167.2,525.1C1780.7,621.6,1779.7,622.3,1778.6,622.3z"/>
</g>
<g>
	<path class="st1" d="M1884.4,290.2c-0.5,0-1-0.1-1.4-0.4l-166.9-115.5c-1.1-0.8-1.4-2.3-0.6-3.5c0.8-1.1,2.3-1.4,3.5-0.6
		l166.9,115.5c1.1,0.8,1.4,2.3,0.6,3.5C1886,289.8,1885.2,290.2,1884.4,290.2z"/>
</g>
<g>
	<path class="st1" d="M1866,350.2c-1.3,0-2.3-1-2.5-2.2c-0.1-1.4,0.9-2.6,2.2-2.7l201.2-21.1c1.4-0.1,2.6,0.9,2.7,2.2
		c0.1,1.4-0.9,2.6-2.2,2.7l-201.2,21.1C1866.1,350.2,1866,350.2,1866,350.2z"/>
</g>
<g>
	<path class="st1" d="M1976.7,495.2c-0.1,0-0.1,0-0.2,0L1822.2,485c-1.4-0.1-2.4-1.3-2.3-2.7c0.1-1.4,1.3-2.4,2.7-2.3l154.3,10.2
		c1.4,0.1,2.4,1.3,2.3,2.7C1979.1,494.2,1978,495.2,1976.7,495.2z"/>
</g>
<g>
	<path class="st1" d="M785.5,809.7c-0.5,0-0.9-0.1-1.4-0.4L489.9,616.6c-1.2-0.8-1.5-2.3-0.7-3.5s2.3-1.5,3.5-0.7L787,805
		c1.2,0.8,1.5,2.3,0.7,3.5C787.1,809.3,786.3,809.7,785.5,809.7z"/>
</g>
<g>
	<path class="st1" d="M760.7,793.4c-0.1,0-0.2,0-0.3,0c-1.4-0.1-2.4-1.4-2.2-2.7l13.7-132.5c0.1-1.4,1.4-2.4,2.7-2.2
		c1.4,0.1,2.4,1.4,2.2,2.7l-13.7,132.5C763.1,792.5,762,793.4,760.7,793.4z"/>
</g>
<g>
	<path class="st1" d="M619.1,700.7c-0.1,0-0.2,0-0.3,0c-1.4-0.2-2.3-1.5-2.1-2.8l12.9-92.9c0.2-1.4,1.4-2.3,2.8-2.1
		c1.4,0.2,2.3,1.5,2.1,2.8l-12.9,92.9C621.4,699.8,620.3,700.7,619.1,700.7z"/>
</g>
<g>
	<path class="st1" d="M590.1,829.3c-0.7,0-1.5-0.3-2-1c-0.8-1.1-0.6-2.7,0.5-3.5L692.1,745c1.1-0.8,2.7-0.6,3.5,0.5s0.6,2.7-0.5,3.5
		l-103.5,79.8C591.2,829.1,590.6,829.3,590.1,829.3z"/>
</g>
<g>
	<path class="st1" d="M1823.3,1045.1c-1.1,0-2.2-0.8-2.4-1.9l-26.1-113.9c-0.3-1.3,0.5-2.7,1.9-3c1.3-0.3,2.7,0.5,3,1.9l26.1,113.9
		c0.3,1.3-0.5,2.7-1.9,3C1823.7,1045,1823.5,1045.1,1823.3,1045.1z"/>
</g>
<g>
	<g>
		
			<rect x="588" y="387.8" transform="matrix(0.781 -0.6246 0.6246 0.781 -135.9968 473.4516)" class="st2" width="38.1" height="85.7"/>
	</g>
	<g>
		
			<rect x="658.5" y="411.1" transform="matrix(0.781 -0.6246 0.6246 0.781 -184.223 550.4986)" class="st2" width="68.6" height="253.6"/>
	</g>
	<g>
		<path class="st3" d="M470.4,447.8c-10.3,0-20.7-0.9-31.1-2.7c-46.4-8.1-87-33.8-114.3-72.3s-38.1-85.2-30.5-131.6
			c0.1-0.6,0.2-1.3,0.3-1.9C311.7,142.7,404,77.9,500.6,94.8c16.9,3,33.1,8.3,48.1,15.7c0.4,0.2,0.7,0.4,1.1,0.5h0.1
			c0.4,0.2,0.8,0.4,1.2,0.6l0,0c25.1,12.9,47,31.7,63.8,55.4c21.6,30.4,32.9,66,32.9,102.6c0,9.6-0.8,19.4-2.4,29.1
			c-0.1,0.6-0.2,1.3-0.3,1.9l0,0c-8.2,46.8-34.1,87.6-73,114.9C541.9,436.8,506.6,447.8,470.4,447.8z M469.9,111
			c-75.7,0-143,54.5-156.5,131.6c-0.1,0.6-0.2,1.1-0.3,1.7c-14.1,85.6,44,167.4,129.5,182.4c41.8,7.3,84-2.1,118.8-26.5
			s57.9-60.9,65.3-102.7c0.1-0.6,0.2-1.1,0.3-1.7l0,0c0-0.1,0-0.2,0-0.2c13.9-85.5-44.1-167.2-129.5-182.1
			C488.2,111.7,479,111,469.9,111z"/>
	</g>
	<g>
		<path class="st4" d="M594.7,293.4c-0.2,0-0.3,0-0.5,0c-1.6-0.3-2.7-1.8-2.5-3.4c0.6-3.4,1-6.9,1.3-10.3l0,0
			c1.4-17.8-1-35.4-7.2-52.2c-0.6-1.6,0.2-3.3,1.8-3.9s3.3,0.2,3.9,1.8c6.5,17.6,9,36,7.6,54.7l0,0c-0.3,3.6-0.7,7.2-1.3,10.8
			C597.4,292.4,596.2,293.4,594.7,293.4z M567.4,192.6c-0.9,0-1.7-0.4-2.3-1.1c-18.7-22.7-44.9-37.9-73.8-43
			c-1.6-0.3-2.7-1.8-2.4-3.5c0.3-1.6,1.8-2.7,3.5-2.4c30.3,5.3,57.8,21.3,77.4,45.1c1.1,1.3,0.9,3.2-0.4,4.2
			C568.8,192.3,568.1,192.6,567.4,192.6z"/>
	</g>
</g>
<rect x="1003.8" y="225.5" class="st5" width="767.1" height="1001.7"/>
<g>
	<path class="st1" d="M1445.4,343.2h-68.1v39.3h65.3v39.6h-65.3v39.8h68.1v39.6h-113.2V303.6h113.2V343.2z"/>
</g>
<g>
	<path class="st1" d="M1338.8,617.3h-63v35.8h58.2v36h-58.2v72.2h-41v-180h104V617.3z"/>
</g>
<g>
	<path class="st1" d="M1505.3,581.3c35.1,0,61.5,18.1,61.5,55.4c0,37.1-26.4,57.8-61.5,57.8h-24.6v66.7h-41V581.3H1505.3z
		 M1492.2,661.7c16.1,0,31.4-5.5,31.4-23.8c0-18.5-15.3-24-31.4-24h-11.6v47.7L1492.2,661.7L1492.2,661.7z"/>
</g>
<g>
	<path class="st1" d="M1129.3,835.4h92.6v26.3h-31.3V967h-30V861.7h-31.3L1129.3,835.4L1129.3,835.4z"/>
</g>
<g>
	<path class="st1" d="M1609,945.4h61v26.3h-113.3l65.1-105.3h-55.9v-26.3h108.4L1609,945.4z"/>
</g>
<g>
	<path class="st1" d="M1411.2,837.7c36.5,0,66.2,29.7,66.2,68.1c0,38.5-28.4,68.3-66.2,68.3c-38.9,0-66.4-29.8-66.4-68.3
		S1374.9,837.7,1411.2,837.7z M1411.2,945.1c23.9,0,33.8-19.6,33.8-39.3s-10.5-39.3-33.8-39.3c-23.1,0-34,19.6-34,39.3
		S1386.6,945.1,1411.2,945.1z"/>
</g>
<g>
	<path class="st1" d="M1130.9,1139.3h35.2v20.5h-58.5v-102.3h23.3V1139.3z"/>
</g>
<g>
	<path class="st1" d="M1501.2,1077.9H1466v20.3h33.7v20.5H1466v20.6h35.2v20.5h-58.5v-102.3h58.5V1077.9z"/>
</g>
<g>
	<path class="st2" d="M1770.9,311c-1.7,0-3-1.3-3-3v-79.5h-455.5c-1.7,0-3-1.3-3-3s1.3-3,3-3H1771c1.7,0,3,1.3,3,3V308
		C1773.9,309.6,1772.6,311,1770.9,311z"/>
</g>
<g>
	<path class="st2" d="M1250.4,223.8h-38c-1.7,0-3-1.3-3-3s1.3-3,3-3h38c1.7,0,3,1.3,3,3S1252,223.8,1250.4,223.8z"/>
</g>
<g>
	<path class="st2" d="M1003.8,635c-1.7,0-3-1.3-3-3V220.8c0-1.7,1.3-3,3-3h151.6c1.7,0,3,1.3,3,3s-1.3,3-3,3h-148.6V632
		C1006.8,633.7,1005.5,635,1003.8,635z"/>
</g>
<g>
	<path class="st2" d="M1003.8,1032.4c-1.7,0-3-1.3-3-3V732.6c0-1.7,1.3-3,3-3s3,1.3,3,3v296.8
		C1006.8,1031,1005.5,1032.4,1003.8,1032.4z"/>
</g>
<g>
	<path class="st2" d="M1770.9,1230.1h-767.1c-1.7,0-3-1.3-3-3v-131.6c0-1.7,1.3-3,3-3s3,1.3,3,3v128.6h761.1V367c0-1.7,1.3-3,3-3
		s3,1.3,3,3v860.2C1773.9,1228.8,1772.6,1230.1,1770.9,1230.1z"/>
</g>
<g>
	<path class="st1" d="M1639.8,1057.4c28,0,51.6,21.3,51.6,51.1c0,29.9-23.4,51.2-51.6,51.2h-29.6v-102.3L1639.8,1057.4
		L1639.8,1057.4z M1637.1,1138.9c17.2,0,29-13.1,29.1-30.3c0-17.1-11.8-30.4-29.1-30.4h-3.6v60.6h3.6V1138.9z"/>
</g>
<g>
	<path class="st1" d="M1312.4,1057.4c20,0,35,10.3,35,31.5c0,21.1-15,32.9-35,32.9h-14v38h-23.3v-102.3L1312.4,1057.4L1312.4,1057.4
		z M1305,1103.2c9.2,0,17.9-3.1,17.9-13.5c0-10.5-8.7-13.6-17.9-13.6h-6.6v27.2L1305,1103.2L1305,1103.2z"/>
</g>
<g>
	<polygon class="st1" points="1681.2,17.2 1688.4,30.4 1701.6,37.7 1688.4,44.9 1681.2,58.1 1674,44.9 1660.8,37.7 1674,30.4 	"/>
	<path class="st0" d="M1681.2,60.6c-0.9,0-1.8-0.5-2.2-1.3l-6.9-12.6l-12.6-6.9c-0.8-0.4-1.3-1.3-1.3-2.2c0-0.9,0.5-1.8,1.3-2.2
		l12.6-6.9l6.9-12.6c0.4-0.8,1.3-1.3,2.2-1.3s1.8,0.5,2.2,1.3l6.9,12.6l12.6,6.9c0.8,0.4,1.3,1.3,1.3,2.2c0,0.9-0.5,1.8-1.3,2.2
		l-12.6,6.9l-6.9,12.6C1682.9,60.1,1682.1,60.6,1681.2,60.6z M1666,37.7l9.2,5c0.4,0.2,0.8,0.6,1,1l5,9.2l5-9.2c0.2-0.4,0.6-0.8,1-1
		l9.2-5l-9.2-5c-0.4-0.2-0.8-0.6-1-1l-5-9.2l-5,9.2c-0.2,0.4-0.6,0.8-1,1L1666,37.7z"/>
</g>
<g>
	<path class="st2" d="M2514.9,1230.1h-51.8c-1.7,0-3-1.3-3-3s1.3-3,3-3h51.8c1.7,0,3,1.3,3,3S2516.6,1230.1,2514.9,1230.1z"/>
</g>
<g>
	<path class="st2" d="M1310.8,1230.1H1270c-1.7,0-3-1.3-3-3s1.3-3,3-3h40.8c1.7,0,3,1.3,3,3S1312.5,1230.1,1310.8,1230.1z"/>
</g>
<g>
	<path class="st2" d="M256.2,1230.1h-92.7c-1.7,0-3-1.3-3-3s1.3-3,3-3h92.7c1.7,0,3,1.3,3,3S257.9,1230.1,256.2,1230.1z"/>
</g>
<g>
	<path class="st2" d="M127.4,1230.1h-65c-1.7,0-3-1.3-3-3s1.3-3,3-3h65c1.7,0,3,1.3,3,3S129.1,1230.1,127.4,1230.1z"/>
</g>
<g>
	<g>
		<polygon class="st0" points="226.6,463.1 226.6,420.2 134.6,420.2 134.6,491.9 62.9,491.9 62.9,584 134.6,584 134.6,655.7 
			226.6,655.7 226.6,584 298.3,584 298.3,491.9 226.6,491.9 		"/>
	</g>
	<g>
		<g>
			<path class="st6" d="M196.7,658.7h-92.1c-1.7,0-3-1.3-3-3V587H32.9c-1.7,0-3-1.3-3-3v-92.1c0-1.7,1.3-3,3-3h68.7v-68.7
				c0-1.7,1.3-3,3-3h92.1c1.7,0,3,1.3,3,3v68.7h68.7c1.7,0,3,1.3,3,3V584c0,1.7-1.3,3-3,3h-68.7v68.7
				C199.7,657.3,198.4,658.7,196.7,658.7z M107.7,652.7h86.1V584c0-1.7,1.3-3,3-3h68.6v-86.1h-68.7c-1.7,0-3-1.3-3-3v-68.7h-86.1
				v68.7c0,1.7-1.3,3-3,3H35.9V581h68.7c1.7,0,3,1.3,3,3L107.7,652.7L107.7,652.7z"/>
		</g>
	</g>
</g>
<g>
	<g>
		<path class="st0" d="M2430.5,293.7c-0.7,0-1.4-0.2-1.9-0.7l-56-46.9c-1.3-1.1-1.4-3-0.4-4.2c1.1-1.3,3-1.4,4.2-0.4l56,46.9
			c1.3,1.1,1.4,3,0.4,4.2C2432.2,293.3,2431.4,293.7,2430.5,293.7z"/>
	</g>
	<g>
		<path class="st0" d="M2400.3,334.5c-0.7,0-1.4-0.2-1.9-0.7l-56.7-47.5c-1.3-1.1-1.4-3-0.4-4.2c1.1-1.3,3-1.4,4.2-0.4l56.7,47.5
			c1.3,1.1,1.4,3,0.4,4.2C2402.1,334.2,2401.2,334.5,2400.3,334.5z"/>
	</g>
	<g>
		<path class="st6" d="M2410.1,337.5c-4.1,0-8-1.1-11.4-3.5c-10.6-7.3-11.9-23.7-3-36.6c8.9-12.9,24.7-17.5,35.3-10.2
			s11.9,23.7,3,36.6C2427.9,332.5,2418.7,337.5,2410.1,337.5z M2419.4,289.7c-6.6,0-14,4-18.8,11.1c-7,10.2-6.3,22.9,1.5,28.3
			c7.8,5.4,19.9,1.5,27-8.7c7-10.2,6.3-22.9-1.5-28.3C2425.1,290.5,2422.3,289.7,2419.4,289.7z"/>
	</g>
	<g>
		<path class="st0" d="M2414.8,313.6c-0.7,0-1.4-0.2-1.9-0.7l-38.5-32.3c-1.3-1.1-1.4-3-0.4-4.2c1.1-1.3,3-1.4,4.2-0.4l38.5,32.3
			c1.3,1.1,1.4,3,0.4,4.2C2416.5,313.2,2415.6,313.6,2414.8,313.6z"/>
	</g>
	<g>
		<path class="st0" d="M2355.4,291.6c-4.1,0-8-1.1-11.4-3.5c-10.6-7.3-11.9-23.7-3-36.6c8.9-12.9,24.7-17.5,35.3-10.2
			s11.9,23.7,3,36.6l0,0C2373.3,286.7,2364,291.6,2355.4,291.6z M2364.7,243.8c-6.6,0-14,4-18.8,11.1c-7,10.2-6.3,22.9,1.5,28.3
			s19.9,1.5,27-8.7c7-10.2,6.3-22.9-1.5-28.3C2370.4,244.6,2367.7,243.8,2364.7,243.8z M2376.8,276.2L2376.8,276.2L2376.8,276.2z"/>
	</g>
</g>
<g>
	<g class="st7">
		<g>
			<g>
				<path class="st0" d="M633.1,96.9c-0.5,0-1.1-0.1-1.6-0.5c-1.1-0.7-1.6-1.9-1.3-3.2l18.7-85.6c0.3-1.2,1.3-2.2,2.5-2.3
					c1.3-0.2,2.5,0.5,3.1,1.6l25.9,49.9c0.7,1.3,0.3,2.8-0.8,3.7l-44.7,35.8C634.4,96.7,633.7,96.9,633.1,96.9z M652.9,17
					l-15.1,69.3l36.1-28.9L652.9,17z"/>
			</g>
		</g>
		<g>
			<g>
				<path class="st0" d="M677.7,61.2c-1.1,0-2.1-0.6-2.7-1.6L649.1,9.7c-0.6-1.2-0.4-2.7,0.6-3.6c1-0.9,2.5-1.1,3.6-0.4l70.9,43.5
					c1.1,0.7,1.6,1.9,1.4,3.2c-0.3,1.2-1.3,2.2-2.5,2.4l-45,6.4C678,61.2,677.9,61.2,677.7,61.2z M659.4,16.5l20,38.4L714,50
					L659.4,16.5z"/>
			</g>
		</g>
		<g>
			<g>
				<path class="st6" d="M633.1,96.9c-1.2,0-2.3-0.7-2.8-1.9c-0.5-1.2-0.1-2.7,0.9-3.5l44.7-35.7c0.4-0.3,0.9-0.6,1.5-0.6l45-6.4
					c1.3-0.2,2.5,0.5,3.1,1.6c0.6,1.2,0.3,2.6-0.6,3.5l-37.3,36.5c-0.5,0.5-1.1,0.8-1.8,0.8l-52.3,5.6
					C633.3,96.9,633.2,96.9,633.1,96.9z M678.9,61.1l-36,28.8l41.1-4.4l30-29.4L678.9,61.1z"/>
			</g>
		</g>
	</g>
</g>
<g>
	<g>
		<g>
			<g class="st7">
				<g>
					<polygon class="st6" points="181.2,868.3 178.9,901.7 131.2,923.4 133.5,890 					"/>
				</g>
				<g>
					<polygon class="st0" points="133.5,890 131.2,923.4 104.8,882.1 107.1,848.7 					"/>
				</g>
				<g>
					<polygon class="st0" points="107.1,848.7 154.8,827 181.2,868.3 133.5,890 					"/>
				</g>
			</g>
		</g>
		<g>
			<path class="st1" d="M132.4,893.9l-27.8-43.5c-0.9-1.4-0.5-3.3,0.9-4.1c1.4-0.9,3.3-0.5,4.1,0.9l25,39.1l45.3-20.6
				c1.5-0.7,3.3,0,4,1.5s0,3.3-1.5,4L132.4,893.9z"/>
		</g>
		<g>
			<path class="st1" d="M131.2,926.4c-0.1,0-0.1,0-0.2,0c-1.7-0.1-2.9-1.5-2.8-3.2l2.3-33.3c0.1-1.7,1.5-2.9,3.2-2.8
				s2.9,1.5,2.8,3.2l-2.3,33.3C134.1,925.2,132.8,926.4,131.2,926.4z"/>
		</g>
	</g>
	<g>
		<path class="st6" d="M75.9,856.2c-1.6,0-2.9-1.3-3-2.9c-0.1-1.7,1.2-3.1,2.9-3.1l18.5-0.9c1.7-0.1,3.1,1.2,3.1,2.9
			c0.1,1.7-1.2,3.1-2.9,3.1L76,856.2C76,856.2,76,856.2,75.9,856.2z"/>
	</g>
	<g>
		<path class="st6" d="M103.5,839.3c-1.4,0-2.7-1-2.9-2.4l-2.2-11.6c-0.3-1.6,0.8-3.2,2.4-3.5s3.2,0.8,3.5,2.4l2.2,11.6
			c0.3,1.6-0.8,3.2-2.4,3.5C103.9,839.3,103.7,839.3,103.5,839.3z"/>
	</g>
</g>
<g>
	<path class="st0" d="M2499,643.7c-1.1,0-2.1-0.6-2.6-1.6l-9.6-17.6l-17.6-9.6c-1-0.5-1.6-1.5-1.6-2.6s0.6-2.1,1.6-2.6l17.6-9.6
		l9.6-17.6c0.5-1,1.5-1.6,2.6-1.6s2.1,0.6,2.6,1.6l9.6,17.6l17.6,9.6c1,0.5,1.6,1.5,1.6,2.6s-0.6,2.1-1.6,2.6l-17.6,9.6l-9.6,17.6
		C2501.1,643.1,2500.1,643.7,2499,643.7z M2476.8,612.2l13.6,7.4c0.5,0.3,0.9,0.7,1.2,1.2l7.4,13.6l7.4-13.6
		c0.3-0.5,0.7-0.9,1.2-1.2l13.6-7.4l-13.6-7.4c-0.5-0.3-0.9-0.7-1.2-1.2L2499,590l-7.4,13.6c-0.3,0.5-0.7,0.9-1.2,1.2L2476.8,612.2z
		"/>
</g>
<g>
	<g>
		<path class="st0" d="M1008.4,159.2c-0.9,0-1.8-0.4-2.4-1.2l-32.4-42.1c-1-1.3-0.8-3.2,0.5-4.2s3.2-0.8,4.2,0.5l32.4,42.1
			c1,1.3,0.8,3.2-0.5,4.2C1009.7,159,1009,159.2,1008.4,159.2z"/>
	</g>
	<g>
		<path class="st0" d="M971.1,154.4c-0.9,0-1.8-0.4-2.4-1.2c-1-1.3-0.8-3.2,0.5-4.2l42.1-32.4c1.3-1,3.2-0.8,4.2,0.5
			s0.8,3.2-0.5,4.2l-42.1,32.4C972.4,154.2,971.7,154.4,971.1,154.4z"/>
	</g>
</g>
<g>
	<path class="st2" d="M485.3,1230.1H229.7c-1.7,0-3-1.3-3-3s1.3-3,3-3h255.5c1.7,0,3,1.3,3,3S486.9,1230.1,485.3,1230.1z"/>
</g>
<g>
	<path class="st3" d="M1471,65.7c0,0,25.4-20.6,35.5,13.7c-0.6-2.1,14.3-4.6,16-4.6c9.7-0.1,18.5,6,23.5,14.5
		c6.5,10.9,14.6,33.3,1.5,42.6c-1.5,1.1-13,2.7-12.7,1.9c0,0-11.8,34-49.1,8.5c0,0-37.8,1.5-33.4-23
		C1452.4,119.3,1434.4,73,1471,65.7z"/>
	<path class="st2" d="M1471,65.7c0,0,25.4-20.6,35.5,13.7c-0.6-2.1,14.3-4.6,16-4.6c9.7-0.1,18.5,6,23.5,14.5
		c6.5,10.9,14.6,33.3,1.5,42.6c-1.5,1.1-13,2.7-12.7,1.9c0,0-11.8,34-49.1,8.5c0,0-37.8,1.5-33.4-23
		C1452.4,119.3,1434.4,73,1471,65.7z"/>
	<path class="st8" d="M1421.3,212.6l-3.1,2c-7,4.5-15.1,6.9-23.4,6.9l0,0c-9.8,0-19.3-3.3-27.1-9.5l-61.9-49.3l16.6-23.9l51.1,31.2
		l0,0h43.6L1421.3,212.6z"/>
	<path class="st2" d="M1421.2,83.2c-1.7-0.2-3.4-0.2-5-0.3c-12.7-0.2-27.8,2.6-35.7,13.9c-4.7,6.8-5.9,16.9-1.4,24
		c4.9,7.9,15.2,9.9,23.6,10.4c20.1,1.2,39.7-6.7,53.7-21.6c1.2-1.3,4.2-3.8,4.7-5.6c1-4.1-6.7-8.3-10-10.5
		C1442.1,87.7,1431.8,84.2,1421.2,83.2z"/>
	<polygon class="st4" points="1465.8,117.3 1425.5,156.3 1434.3,117.3 1434.3,67.7 1465.8,67.7 	"/>
	<rect x="1434.3" y="42.6" class="st8" width="31.6" height="58.7"/>
	<path class="st8" d="M1470.4,43.6v12.8c0,20.8-16.4,37.6-36.6,37.6l0,0c-14,0-25.3-11.7-25.3-26V48.7c0-16.5,13-29.9,29.1-29.9h8.8
		C1459.6,18.8,1470.4,29.9,1470.4,43.6z"/>
	<g>
		<path class="st2" d="M1434.1,97.7c-1.7,0-3-1.3-3-3s1.3-3,3-3c5,0,9.8-1.1,14.3-3.3c1.5-0.7,3.3-0.1,4,1.4s0.1,3.3-1.4,4
			C1445.7,96.3,1440,97.7,1434.1,97.7z"/>
	</g>
	<path class="st2" d="M1476.1,43.8v25.6c-24.2-9.2-38.2-21.6-43.2-36.8c-5.3,11.5-16,17.9-30.1,21.1v-3.8c0-14.9,9.3-26.9,22.6-32.2
		c12.8-5.2,31.1-5.5,41.7,4.7C1472.8,28,1476.1,35.8,1476.1,43.8z"/>
	<ellipse class="st2" cx="1448" cy="18.8" rx="18.3" ry="18.8"/>
	<g>
		<path class="st1" d="M1466.3,24.8c-0.7,0-1.4-0.2-2-0.8c-9.2-8.2-23.9-7.8-33.7-5c-1.6,0.5-3.3-0.5-3.7-2c-0.5-1.6,0.5-3.3,2-3.7
			c11.8-3.4,28.3-3.6,39.3,6.2c1.2,1.1,1.3,3,0.2,4.2C1468,24.4,1467.1,24.8,1466.3,24.8z"/>
	</g>
	<g>
		<path class="st1" d="M1403.9,179.4c-8.1,0-14.5-2.2-17.9-3.7c-1.5-0.7-2.2-2.4-1.5-4c0.7-1.5,2.4-2.2,4-1.5
			c6.4,2.8,19.2,6.3,33.6-1.5c1.5-0.8,3.3-0.3,4.1,1.2c0.8,1.5,0.3,3.3-1.2,4.1C1417.4,178.1,1410.1,179.4,1403.9,179.4z"/>
	</g>
	<g>
		<path class="st1" d="M1454.1,179.5c-12.3,0-20.9-5.3-21.4-5.6c-1.4-0.9-1.8-2.7-0.9-4.1s2.7-1.8,4.1-0.9
			c0.7,0.5,17.2,10.4,36.4-0.1c1.5-0.8,3.3-0.3,4.1,1.2c0.8,1.5,0.3,3.3-1.2,4.1C1467.6,178.1,1460.3,179.5,1454.1,179.5z"/>
	</g>
	<path class="st2" d="M1417.1,170.5h-43.6c0.3-7,0.9-14.1,1-21.1c0.1-9.9,0.1-21.1,6.1-29.4c5.5-7.6,14.1-12.2,23.2-12.3l7.2-0.1
		L1417.1,170.5z"/>
	<path class="st8" d="M1469.5,75.7L1469.5,75.7c-6.1,0-11.1-5.1-11.1-11.4v-4.1c0-6.3,5-11.4,11.1-11.4l0,0
		c6.1,0,11.1,5.1,11.1,11.4v4.1C1480.6,70.6,1475.7,75.7,1469.5,75.7z"/>
	<g>
		<path class="st2" d="M1466.3,68.8c-0.7,0-1.4-0.2-2-0.7c-1.3-1.1-1.4-3-0.3-4.2l6.4-7.4c1.1-1.3,3-1.4,4.2-0.3
			c1.3,1.1,1.4,3,0.3,4.2l-6.4,7.4C1468,68.4,1467.2,68.8,1466.3,68.8z"/>
	</g>
	<path class="st8" d="M1329.1,144.2v-33.7c0-1.6-1.7-2.6-3.1-1.7l0,0c-4.7,3.2-7.8,8.5-8.3,14.3l-0.4,5.6l-11.7-19.1
		c-5.3-8.7-17-10.2-24.2-3.2l0,0c-7.2,6.9-8.2,18.3-2.4,26.5l11.1,15.6c5.8,8.2,13.4,14.8,22.1,19.5l0.3,0.2L1329.1,144.2z"/>
	<path class="st1" d="M1502,205.1l11-1.3L1502,205.1z"/>
	<g>
		<path class="st1" d="M1452.8,227.4c-0.4,0-0.8-0.1-1.1-0.2l-50.2-20.7c-1.5-0.6-2.3-2.4-1.6-3.9c0.6-1.5,2.4-2.3,3.9-1.6
			l50.2,20.7c1.5,0.6,2.3,2.4,1.6,3.9C1455.1,226.7,1454,227.4,1452.8,227.4z"/>
	</g>
	<g>
		<path class="st1" d="M1384.6,163.9c-1.4,0-2.7-1.1-3-2.5c-3.5-21.9,0.4-47.2,17.1-54.7c1.5-0.7,3.3,0,4,1.5s0,3.3-1.5,4
			c-13.7,6.1-16.6,29.3-13.6,48.2c0.3,1.6-0.9,3.2-2.5,3.4C1384.9,163.9,1384.7,163.9,1384.6,163.9z"/>
	</g>
	<path class="st1" d="M1399.9,239.8l-92.2-63.4l27.8-37.6l34.4,17.5l5.9-32.9c0.4-2.2,1.1-4.3,2.2-6.3l0,0c3.4-6.2,9.9-10.2,17-10.5
		l39.2-1.6l0.2,12.1l-8.8,39l35.7-34.6l4.6-16.1l24-2c12.5-1.1,25,3,34.5,11.1l0,0c6.9,5.9,11.6,13.9,13.4,22.7l4.3,20.9l-53,8
		l4.9,34.5L1399.9,239.8z"/>
	<g>
		<path class="st2" d="M1406.9,238.7c-13.5,0-27-4.3-38.3-12.8l-62.8-47.1c-1.3-1-1.6-2.9-0.6-4.2c1-1.3,2.9-1.6,4.2-0.6l62.8,47.1
			c17.2,12.9,40,15.2,59.5,6l60.8-28.9c1.5-0.7,3.3-0.1,4,1.4s0.1,3.3-1.4,4l-60.8,28.9C1425.6,236.6,1416.3,238.7,1406.9,238.7z"/>
	</g>
	<g>
		<path class="st8" d="M1420.3,239.1l-7.6-27.9l78.9-10.8l-6.3-35.5l48.8-8.6l10.7,60.4c1.2,6.6-0.4,13.3-4.2,18.7
			c-3.9,5.4-9.8,9-16.4,10.1L1420.3,239.1z"/>
	</g>
	<path class="st8" d="M1456.3,212.9l-15.3,0.2c-4.6-3-9.7-5.1-15.1-6.1l-5-0.9l-8.7-2.1c-3.1-0.7-6.1-1.7-9.2-2.7
		c-2.8-0.9-5.9-0.3-8.2,1.8l0,0c-1.1,1-2,2.3-2.4,3.8l-0.8,2.8l0,0l0,0c-2-0.6-4.2,0.1-5.5,1.8l-1.6,2.2c-2.2,3-3,6.9-2.1,10.5l0,0
		l-2,0.4c-2.6,0.5-3.8,3.5-2.4,5.7l0,0c2.9,4.6,7.7,7.7,13,8.4c0,0,23.2,3.7,29.1,1.7l0,0l31.4-0.8L1456.3,212.9z"/>
	<path class="st8" d="M1428.3,219.6L1417,206c-0.7-0.8-0.6-2,0.2-2.8l0,0c5-4.8,12.7-5.2,18.2-1.1l12.1,8.9L1428.3,219.6z"/>
	<g>
		<path class="st1" d="M1485.6,173.1c-1.3,0-2.5-0.9-2.9-2.2l-5-18.3c-0.4-1.6,0.5-3.2,2.1-3.7s3.2,0.5,3.7,2.1l5,18.3
			c0.4,1.6-0.5,3.2-2.1,3.7C1486.1,173,1485.8,173.1,1485.6,173.1z"/>
	</g>
	<path class="st1" d="M1445.7,203.8l-11.4,43.6c15.2,1.1,30.3,2.3,45.5,3.4c29,2.2,73.9,13.1,73.7-31c0-3-9.4-65.7-12.3-65.5
		l-58.5,6.7l8.9,39.5L1445.7,203.8z"/>
	<g>
		<path class="st2" d="M1515.2,256.6c-8.1,0-16.5-0.9-24.4-1.7c-4-0.4-7.7-0.8-11.2-1.1l-49.1-3.7l12.9-49.1l44.6-3.2l-8.2-36.1
			c-0.4-1.6,0.6-3.2,2.3-3.6c1.6-0.4,3.2,0.6,3.6,2.3l9.7,42.9l-47.3,3.4l-9.9,38l41.9,3.2c3.6,0.3,7.4,0.7,11.4,1.1
			c18.7,2,39.9,4.2,51-5.9c5.5-5,8.1-12.6,8.1-23.2c0-1.7,1.3-3,3-3l0,0c1.7,0,3,1.3,3,3c0.1,12.3-3.3,21.6-10.1,27.7
			C1538.5,254.6,1527.3,256.6,1515.2,256.6z"/>
	</g>
	<g>
		<path class="st2" d="M1536.6,253.1c-1.2,0-2.3-0.7-2.8-1.8c-0.6-1.5,0.1-3.3,1.6-3.9c10.2-4.2,15.1-13.3,15.1-27.5
			c-0.1-22.5-6-44.5-11.6-65.9c-1.6-5.9-3.2-12.1-4.7-18.1c-0.4-1.6,0.6-3.2,2.2-3.6s3.2,0.6,3.6,2.2c1.5,6,3.1,12.1,4.6,18
			c5.8,21.7,11.7,44.2,11.8,67.4c0.1,16.8-6.2,27.9-18.8,33.1C1537.3,253,1536.9,253.1,1536.6,253.1z"/>
	</g>
	<g>
		<path class="st2" d="M1445.7,206.8c-1.6,0-2.9-1.2-3-2.8c-0.1-1.7,1.1-3.1,2.8-3.2l42.5-3.1l-8.2-36.1c-0.4-1.6,0.6-3.2,2.3-3.6
			c1.6-0.4,3.2,0.6,3.6,2.3l9.7,42.9l-49.4,3.6C1445.8,206.8,1445.7,206.8,1445.7,206.8z"/>
	</g>
	<g>
		<path class="st1" d="M1465.8,104.3h-31.6c-1.7,0-3-1.3-3-3s1.3-3,3-3h31.6c1.7,0,3,1.3,3,3S1467.5,104.3,1465.8,104.3z"/>
	</g>
	<g>
		<path class="st2" d="M1373.6,163l-36.6-20.1c-1.5-0.8-2-2.6-1.2-4.1s2.6-2,4.1-1.2l29.1,16l4-25.1c0.3-1.6,1.8-2.7,3.4-2.5
			c1.6,0.3,2.8,1.8,2.5,3.4L1373.6,163z"/>
	</g>
	<g>
		<path class="st9" d="M1416.5,176.9c-0.2,0-0.3,0-0.5,0c-1.6-0.2-2.8-1.8-2.5-3.4l4.6-30.2l-9.9-25.5l15.8-8.5
			c1.5-0.8,3.3-0.2,4.1,1.2c0.8,1.5,0.2,3.3-1.2,4.1l-11.1,6l8.5,22.1l-4.8,31.8C1419.3,175.8,1418,176.9,1416.5,176.9z"/>
	</g>
	<g>
		<path class="st9" d="M1436,183.2c-0.4,0-0.8-0.1-1.1-0.2c-1.5-0.6-2.3-2.4-1.6-3.9l14.4-34.8l37.6-25.7l-15.9-6.3
			c-1.5-0.6-2.3-2.4-1.7-3.9c0.6-1.5,2.4-2.3,3.9-1.7l26.5,10.5l-45.5,31.1l-13.7,33.1C1438.3,182.5,1437.2,183.2,1436,183.2z"/>
	</g>
</g>
<g>
	<g>
		<path class="st6" d="M1300.4,69.2c-0.4,0-0.7-0.1-1.1-0.2c-1.5-0.6-2.3-2.3-1.7-3.9l9-23.1c0.6-1.5,2.3-2.3,3.9-1.7
			c1.5,0.6,2.3,2.3,1.7,3.9l-9,23.1C1302.7,68.4,1301.6,69.2,1300.4,69.2z"/>
	</g>
	<g>
		<path class="st6" d="M1252.4,62.2c-1,0-2-0.5-2.5-1.4l-14-21.9c-0.9-1.4-0.5-3.3,0.9-4.1c1.4-0.9,3.3-0.5,4.1,0.9l14,21.9
			c0.9,1.4,0.5,3.3-0.9,4.1C1253.5,62,1253,62.2,1252.4,62.2z"/>
	</g>
	<g>
		<path class="st6" d="M1225.9,104.7c-1.3,0-2.6-0.9-2.9-2.3c-0.4-1.6,0.6-3.2,2.2-3.7l19.5-5c1.6-0.4,3.2,0.6,3.7,2.2
			c0.4,1.6-0.6,3.2-2.2,3.7l-19.5,5C1226.4,104.6,1226.1,104.7,1225.9,104.7z"/>
	</g>
</g>
<g>
	<path class="st2" d="M1225.7,1230.1H440.8c-1.7,0-3-1.3-3-3s1.3-3,3-3h784.9c1.7,0,3,1.3,3,3S1227.4,1230.1,1225.7,1230.1z"/>
</g>
<g>
	<path class="st2" d="M2421.9,1230.1h-88.5c-1.7,0-3-1.3-3-3s1.3-3,3-3h88.5c1.7,0,3,1.3,3,3S2423.6,1230.1,2421.9,1230.1z"/>
</g>
<g>
	<g>
		<path class="st1" d="M2183.5,443.1c29.4,17.1,56.2,36.2,79.6,55L2183.5,443.1z"/>
		<path class="st2" d="M2263.2,501.1c-0.7,0-1.3-0.2-1.9-0.7c-26.1-20.9-52.7-39.3-79.3-54.8c-1.4-0.8-1.9-2.7-1.1-4.1
			c0.8-1.4,2.7-1.9,4.1-1.1c26.8,15.6,53.7,34.2,80,55.3c1.3,1,1.5,2.9,0.5,4.2C2264.9,500.7,2264,501.1,2263.2,501.1z"/>
	</g>
	<g>
		<path class="st1" d="M2304.5,533.8c38.9,36.1,61.5,64.4,61.5,64.4s-171.7,215.1-383.4,215.1c-211.8,0-383.4-215.1-383.4-215.1
			s171.7-215.1,383.4-215.1c31.6,0,62.4,4.8,91.8,13L2304.5,533.8z"/>
		<path class="st2" d="M1982.6,816.3c-48.7,0-99.3-11.4-150.5-33.9c-40.8-17.9-82-42.9-122.5-74.3
			c-68.9-53.4-112.4-107.5-112.8-108.1l-1.5-1.9l1.5-1.9c0.4-0.5,43.9-54.7,112.8-108.1c40.5-31.4,81.7-56.4,122.5-74.3
			c51.1-22.5,101.7-33.9,150.5-33.9c30.2,0,61.4,4.4,92.6,13.1c1.6,0.4,2.5,2.1,2.1,3.7c-0.4,1.6-2.1,2.5-3.7,2.1
			c-30.7-8.5-61.3-12.9-91-12.9c-108.5,0-206.4,58.1-269.3,106.9c-61.1,47.4-102,95.2-110.3,105.2c8.3,9.9,49.2,57.9,110.4,105.3
			c62.9,48.7,160.7,106.8,269.2,106.8s206.3-58.1,269.2-106.8c61.2-47.4,102.1-95.3,110.4-105.3c-5.7-6.9-27-31.9-59.6-62.2
			c-1.2-1.1-1.3-3-0.2-4.2s3-1.3,4.2-0.2c38.6,35.8,61.6,64.4,61.8,64.7l1.5,1.9l-1.5,1.9c-0.4,0.5-43.9,54.7-112.8,108.1
			c-40.5,31.4-81.7,56.4-122.5,74.3C2081.9,804.9,2031.3,816.3,1982.6,816.3z"/>
	</g>
	<g>
		<path class="st4" d="M2134.7,598v0.2c0,2.4-0.1,4.8-0.2,7.1c-0.8,17.8-4.7,34.9-11.2,50.6c-0.5,1.4-1.1,2.7-1.7,4
			c-0.4,0.8-0.7,1.7-1.1,2.5c-6.6,14.1-15.2,27-25.5,38.3c-1.5,1.6-3,3.2-4.5,4.7c-11.7,11.8-25.2,21.6-40.2,29.1
			c-0.1,0-0.1,0.1-0.2,0.1c-1.9,0.9-3.8,1.8-5.8,2.7c-13.9,6.2-28.9,10.4-44.7,12.1h-0.1c-2.8,0.3-5.6,0.5-8.5,0.7l0,0
			c-2.8,0.2-5.7,0.2-8.5,0.2c-13.3,0-26.3-1.7-38.6-4.9c-2.1-0.5-4.1-1.1-6.1-1.7c-19.9-6.1-38-16.2-53.5-29.3
			c-1.6-1.3-3.1-2.7-4.6-4.1c-13-11.9-23.9-26.1-32.1-41.9c-0.8-1.6-1.6-3.1-2.4-4.7c-2.8-5.9-5.3-12.1-7.4-18.4
			c-3.1-9.5-5.3-19.3-6.4-29.5c-0.2-1.9-0.4-3.8-0.6-5.7c-0.3-3.9-0.5-7.9-0.5-11.9c0-1,0-2,0-2.9c0-1.3,0.1-2.6,0.1-3.8
			c0-1,0.1-2.1,0.2-3.1c0.1-1.1,0.2-2.3,0.3-3.4c0.1-0.9,0.2-1.8,0.3-2.7c0-0.2,0-0.5,0.1-0.7c0.1-0.8,0.2-1.6,0.3-2.4
			c0.2-1.3,0.3-2.6,0.5-3.9c0.3-1.9,0.6-3.8,1-5.7c0.6-3.3,1.4-6.6,2.2-9.9c0.2-0.6,0.3-1.2,0.5-1.8c0.4-1.4,0.8-2.8,1.2-4.2
			c0.2-0.7,0.4-1.4,0.6-2c0.1-0.3,0.2-0.6,0.3-0.8c0.3-0.9,0.6-1.8,0.9-2.7c0.9-2.6,1.9-5.3,3-7.8c0.3-0.6,0.5-1.3,0.8-1.9
			c0.5-1.2,1.1-2.4,1.6-3.6c0.9-1.9,1.8-3.8,2.7-5.7c0.3-0.5,0.5-1,0.8-1.5c0.4-0.7,0.7-1.4,1.1-2.1c0.4-0.7,0.8-1.4,1.2-2.1
			c0.4-0.7,0.8-1.5,1.3-2.2c0.1-0.1,0.2-0.3,0.2-0.4c0.4-0.7,0.9-1.5,1.3-2.2c0.4-0.7,0.8-1.3,1.2-2c0.6-0.9,1.2-1.9,1.8-2.8
			c0.5-0.8,1-1.5,1.5-2.3c0.5-0.7,0.9-1.3,1.4-2c0.6-0.8,1.2-1.7,1.8-2.5s1.2-1.6,1.9-2.4c0.5-0.7,1.1-1.4,1.6-2
			c1.3-1.7,2.7-3.4,4.2-5c12-13.7,26.4-25.1,42.6-33.8c2.1-1.1,4.3-2.2,6.5-3.3c15-7.1,31.3-11.8,48.5-13.7c2.8-0.3,5.6-0.5,8.5-0.7
			c2.7-0.2,5.4-0.2,8.2-0.2c1.3,0,2.6,0,3.9,0.1c1.3,0,2.6,0.1,3.9,0.1c0.8,0,1.7,0.1,2.5,0.2c0.1,0,0.1,0,0.2,0
			c0.7,0,1.4,0.1,2,0.2l0,0c1,0.1,1.9,0.2,2.9,0.3h0.1c1.3,0.1,2.5,0.3,3.8,0.4c1.1,0.1,2.2,0.3,3.2,0.4c0.5,0.1,0.9,0.1,1.3,0.2
			c1,0.2,2,0.3,3,0.5c2.5,0.5,5,1,7.5,1.5c1.1,0.2,2.2,0.5,3.2,0.8c1.3,0.3,2.7,0.7,4,1.1c1.7,0.5,3.4,1,5.1,1.5
			c0.9,0.3,1.7,0.6,2.6,0.9c1,0.4,2.1,0.7,3.1,1.1c1.1,0.4,2.2,0.8,3.3,1.3c0.2,0.1,0.4,0.2,0.6,0.2c0.9,0.4,1.9,0.8,2.8,1.2l0,0
			c1.1,0.5,2.3,1,3.4,1.5c0.9,0.4,1.7,0.8,2.6,1.2c0.4,0.2,0.7,0.3,1.1,0.5c0.8,0.4,1.6,0.8,2.4,1.2c0.3,0.2,0.6,0.3,0.9,0.5
			c0.8,0.4,1.5,0.8,2.3,1.2c0.5,0.2,0.9,0.5,1.3,0.7c0.5,0.3,1.1,0.6,1.6,0.9c0.6,0.3,1.2,0.7,1.8,1c0.7,0.4,1.4,0.8,2.1,1.2
			c0.3,0.1,0.5,0.3,0.8,0.5c0.7,0.4,1.3,0.8,2,1.2c1,0.6,1.9,1.2,2.8,1.8l0.1,0.1c1.1,0.7,2.2,1.5,3.2,2.2c1.1,0.8,2.1,1.5,3.2,2.3
			c2.2,1.6,4.3,3.3,6.4,5.1c0.9,0.8,1.9,1.6,2.8,2.4c1.8,1.6,3.6,3.3,5.4,5c0.1,0.1,0.3,0.3,0.4,0.4c0.8,0.8,1.7,1.6,2.5,2.5
			c0.2,0.2,0.4,0.4,0.6,0.6c0.2,0.2,0.4,0.4,0.6,0.6c0.2,0.2,0.4,0.4,0.6,0.6c0.2,0.2,0.4,0.4,0.6,0.6c0.2,0.2,0.4,0.4,0.6,0.6
			c0.9,1,1.8,1.9,2.6,2.9c0.7,0.8,1.4,1.6,2.1,2.4c0.1,0.1,0.2,0.2,0.2,0.3c0.7,0.8,1.4,1.6,2,2.4l0,0c0.7,0.8,1.4,1.7,2,2.5
			c0.1,0.1,0.2,0.3,0.3,0.4c0.6,0.8,1.2,1.5,1.7,2.3c0.1,0.1,0.1,0.2,0.2,0.2c0.6,0.8,1.3,1.7,1.9,2.6c0.6,0.9,1.3,1.8,1.9,2.8
			c1.1,1.6,2.2,3.3,3.2,4.9c0.8,1.2,1.5,2.4,2.2,3.6c0.6,1,1.1,2,1.7,2.9c0.4,0.7,0.8,1.5,1.2,2.3c0.2,0.4,0.4,0.7,0.6,1.1
			c0.3,0.5,0.6,1.1,0.8,1.7c0.3,0.5,0.5,1.1,0.8,1.6c0.3,0.6,0.5,1.1,0.8,1.7c0.2,0.5,0.4,0.9,0.6,1.4c0.4,0.8,0.7,1.5,1,2.3
			c0.1,0.1,0.1,0.3,0.2,0.4c0.4,0.9,0.8,1.9,1.2,2.8c0,0.1,0.1,0.2,0.1,0.3c0.4,1,0.8,2,1.2,3c0.2,0.4,0.3,0.8,0.5,1.3
			c0.1,0.2,0.2,0.4,0.2,0.6c0.1,0.2,0.2,0.4,0.2,0.6c0.1,0.2,0.2,0.5,0.2,0.7c0.4,1.1,0.8,2.1,1.1,3.2c0.3,0.8,0.5,1.5,0.7,2.3
			c0.8,2.5,1.5,5,2.2,7.6c0.2,0.8,0.4,1.6,0.6,2.5c0.4,1.5,0.7,2.9,1,4.4c0.2,0.8,0.3,1.6,0.5,2.4c0.1,0.6,0.2,1.2,0.3,1.7
			c0.2,1,0.4,2,0.5,3.1c0.2,0.9,0.3,1.9,0.4,2.8c0,0.2,0.1,0.3,0.1,0.5c0.1,0.9,0.2,1.8,0.3,2.7c0.1,1.1,0.3,2.2,0.4,3.3
			c0.1,0.6,0.1,1.3,0.2,1.9c0.1,0.8,0.1,1.6,0.2,2.4c0.1,1.1,0.2,2.2,0.2,3.4c0.1,1.2,0.1,2.3,0.1,3.5
			C2134.7,595.5,2134.7,596.8,2134.7,598z"/>
		<path class="st2" d="M2043.2,598.2c0,33.5-27.1,60.6-60.6,60.6s-60.6-27.1-60.6-60.6c0-5.8,0.8-11.4,2.3-16.8
			c7.3-25.3,30.6-43.8,58.3-43.8c9.8,0,19,2.3,27.2,6.4C2029.6,554,2043.2,574.5,2043.2,598.2z"/>
		<ellipse class="st1" cx="1962.9" cy="588.5" rx="22.5" ry="22.5"/>
	</g>
	<g>
		<path class="st2" d="M1982.6,490.7c-1.7,0-3-1.3-3-3V446c0-1.7,1.3-3,3-3s3,1.3,3,3v41.7C1985.6,489.4,1984.2,490.7,1982.6,490.7z
			"/>
	</g>
	<g>
		<path class="st2" d="M2030,501.1c-0.4,0-0.9-0.1-1.3-0.3c-1.5-0.7-2.1-2.5-1.4-4l17.9-37.6c0.7-1.5,2.5-2.1,4-1.4
			c1.5,0.7,2.1,2.5,1.4,4l-17.9,37.6C2032.2,500.5,2031.1,501.1,2030,501.1z"/>
	</g>
	<g>
		<path class="st2" d="M2068.4,530.9c-0.9,0-1.7-0.4-2.3-1.1c-1-1.3-0.8-3.2,0.4-4.2l32.4-26.2c1.3-1,3.2-0.8,4.2,0.4
			c1,1.3,0.8,3.2-0.4,4.2l-32.4,26.2C2069.7,530.7,2069,530.9,2068.4,530.9z"/>
	</g>
	<g>
		<path class="st2" d="M2090.2,574.3c-1.4,0-2.6-0.9-2.9-2.3c-0.4-1.6,0.6-3.2,2.2-3.6l40.5-9.7c1.6-0.4,3.2,0.6,3.6,2.2
			c0.4,1.6-0.6,3.2-2.2,3.6l-40.5,9.7C2090.6,574.3,2090.4,574.3,2090.2,574.3z"/>
	</g>
	<g>
		<path class="st2" d="M2131.9,631.5c-0.2,0-0.4,0-0.6-0.1l-40.8-8.6c-1.6-0.3-2.7-1.9-2.3-3.6c0.3-1.6,1.9-2.7,3.6-2.3l40.8,8.6
			c1.6,0.3,2.7,1.9,2.3,3.6C2134.6,630.6,2133.3,631.5,2131.9,631.5z"/>
	</g>
	<g>
		<path class="st2" d="M2104.2,692.5c-0.6,0-1.3-0.2-1.8-0.6l-33.1-25.4c-1.3-1-1.6-2.9-0.6-4.2s2.9-1.6,4.2-0.6l33.1,25.4
			c1.3,1,1.6,2.9,0.6,4.2C2106,692.1,2105.1,692.5,2104.2,692.5z"/>
	</g>
	<g>
		<path class="st2" d="M2053,735.6c-1.1,0-2.1-0.6-2.7-1.6l-19-37.1c-0.8-1.5-0.2-3.3,1.3-4c1.5-0.8,3.3-0.2,4,1.3l19,37.1
			c0.8,1.5,0.2,3.3-1.3,4C2053.9,735.5,2053.5,735.6,2053,735.6z"/>
	</g>
	<g>
		<path class="st2" d="M1988.2,752.5c-1.6,0-3-1.3-3-2.9l-1.1-41.7c0-1.7,1.3-3,2.9-3.1h0.1c1.6,0,3,1.3,3,2.9l1.1,41.7
			C1991.2,751.1,1989.9,752.4,1988.2,752.5L1988.2,752.5z"/>
	</g>
	<g>
		<path class="st2" d="M1922.4,739.8c-0.4,0-0.8-0.1-1.2-0.3c-1.5-0.7-2.2-2.4-1.5-4l16.9-38.1c0.7-1.5,2.4-2.2,4-1.5
			c1.5,0.7,2.2,2.4,1.5,4l-16.9,38.1C1924.7,739.1,1923.6,739.8,1922.4,739.8z"/>
	</g>
	<g>
		<path class="st2" d="M1868.5,700.1c-0.8,0-1.7-0.4-2.3-1c-1.1-1.3-0.9-3.2,0.3-4.2l31.7-27.1c1.3-1.1,3.2-0.9,4.2,0.3
			c1.1,1.3,0.9,3.2-0.3,4.2l-31.7,27.1C1869.9,699.8,1869.2,700.1,1868.5,700.1z"/>
	</g>
	<g>
		<path class="st2" d="M1837,641c-1.3,0-2.5-0.9-2.9-2.2c-0.4-1.6,0.5-3.2,2.1-3.7l40.2-10.8c1.6-0.4,3.2,0.5,3.7,2.1
			c0.4,1.6-0.5,3.2-2.1,3.7l-40.2,10.8C1837.5,641,1837.2,641,1837,641z"/>
	</g>
	<g>
		<path class="st2" d="M1874.9,581.6c-0.2,0-0.4,0-0.5,0l-41-7.5c-1.6-0.3-2.7-1.9-2.4-3.5s1.9-2.7,3.5-2.4l41,7.5
			c1.6,0.3,2.7,1.9,2.4,3.5C1877.6,580.6,1876.3,581.6,1874.9,581.6z"/>
	</g>
	<g>
		<path class="st2" d="M1893.7,536.8c-0.6,0-1.2-0.2-1.8-0.6l-33.8-24.4c-1.3-1-1.6-2.8-0.7-4.2s2.8-1.6,4.2-0.7l33.8,24.4
			c1.3,1,1.6,2.8,0.7,4.2C1895.6,536.4,1894.7,536.8,1893.7,536.8z"/>
	</g>
	<g>
		<path class="st2" d="M1930,504.5c-1.1,0-2.1-0.6-2.6-1.6l-20-36.6c-0.8-1.5-0.3-3.3,1.2-4.1s3.3-0.3,4.1,1.2l20,36.6
			c0.8,1.5,0.3,3.3-1.2,4.1C1931,504.4,1930.5,504.5,1930,504.5z"/>
	</g>
	<g>
		<path class="st2" d="M2255.1,437.1c-0.8,0-1.6-0.3-2.2-1c-1.1-1.2-1-3.1,0.2-4.2l44.2-40.5c1.2-1.1,3.1-1,4.2,0.2
			c1.1,1.2,1,3.1-0.2,4.2l-44.2,40.5C2256.6,436.8,2255.9,437.1,2255.1,437.1z"/>
	</g>
	<g>
		<path class="st2" d="M2338.8,521.4c-1.1,0-2.2-0.6-2.7-1.7c-0.7-1.5,0-3.3,1.5-4l54.4-25.3c1.5-0.7,3.3,0,4,1.5s0,3.3-1.5,4
			l-54.4,25.3C2339.7,521.3,2339.2,521.4,2338.8,521.4z"/>
	</g>
	<g>
		<path class="st2" d="M1622.4,537.9c-0.4,0-0.9-0.1-1.3-0.3l-53.8-26.6c-1.5-0.7-2.1-2.5-1.4-4s2.5-2.1,4-1.4l53.8,26.6
			c1.5,0.7,2.1,2.5,1.4,4C1624.6,537.3,1623.5,537.9,1622.4,537.9z"/>
	</g>
	<g>
		<path class="st2" d="M1693.8,454.2c-0.7,0-1.4-0.3-2-0.8l-44.5-40.2c-1.2-1.1-1.3-3-0.2-4.2c1.1-1.2,3-1.3,4.2-0.2l44.5,40.2
			c1.2,1.1,1.3,3,0.2,4.2C1695.4,453.9,1694.6,454.2,1693.8,454.2z"/>
	</g>
	<g>
		<path class="st2" d="M1828.9,379.2c-1,0-1.9-0.5-2.5-1.4l-33-50.1c-0.9-1.4-0.5-3.2,0.9-4.2c1.4-0.9,3.2-0.5,4.2,0.9l33,50.1
			c0.9,1.4,0.5,3.2-0.9,4.2C1830.1,379.1,1829.5,379.2,1828.9,379.2z"/>
	</g>
</g>
<g>
	<g>
		<path class="st2" d="M445.2,1225.3h-42.8c-73.9,0-134.1-60.2-134.1-134.1s60.2-134.1,134.1-134.1h42.8
			c73.9,0,134.1,60.2,134.1,134.1S519.1,1225.3,445.2,1225.3z M402.4,977.1c-62.9,0-114.1,51.2-114.1,114.1s51.2,114.1,114.1,114.1
			h42.8c62.9,0,114.1-51.2,114.1-114.1s-51.2-114.1-114.1-114.1H402.4z"/>
	</g>
	<g>
		<path class="st2" d="M802.7,1225.3h-42.8c-73.9,0-134.1-60.2-134.1-134.1S686,957.1,759.9,957.1h42.8
			c73.9,0,134.1,60.2,134.1,134.1S876.7,1225.3,802.7,1225.3z M759.9,977.1c-62.9,0-114.1,51.2-114.1,114.1s51.2,114.1,114.1,114.1
			h42.8c62.9,0,114.1-51.2,114.1-114.1s-51.2-114.1-114.1-114.1H759.9z"/>
	</g>
	<g>
		<path class="st4" d="M867.7,1039.9c-0.9,0-1.8-0.4-2.4-1.2c-12.4-16.1-30.1-27.4-49.8-31.8c-1.6-0.4-2.6-2-2.3-3.6
			c0.4-1.6,2-2.6,3.6-2.3c21.1,4.7,40,16.8,53.3,34c1,1.3,0.8,3.2-0.6,4.2C869,1039.7,868.3,1039.9,867.7,1039.9z"/>
	</g>
	<g>
		<path class="st4" d="M882.8,1118.1c-0.3,0-0.5,0-0.8-0.1c-1.6-0.4-2.5-2.1-2.1-3.7c2.1-7.5,3.1-15.3,3.1-23.1c0-3-0.2-5.9-0.4-8.9
			c-0.2-1.6,1-3.1,2.7-3.3c1.6-0.2,3.1,1,3.3,2.7c0.3,3.1,0.5,6.3,0.5,9.5c0,8.4-1.1,16.7-3.3,24.7
			C885.4,1117.2,884.2,1118.1,882.8,1118.1z"/>
	</g>
	<g>
		<path class="st3" d="M569.3,1106.2c-5.3,0-10.4-2.8-13.2-7.8c-4-7.3-1.3-16.4,5.9-20.4c1.9-1,46.5-25,82.5,1
			c6.7,4.8,8.2,14.2,3.4,20.9c-4.8,6.7-14.2,8.2-20.9,3.4c-20.5-14.8-50.3,0.8-50.6,1C574.2,1105.6,571.7,1106.2,569.3,1106.2z"/>
	</g>
	<g>
		<g>
			<path class="st2" d="M926.8,1101.2c-5.5,0-10-4.5-10-10v-330c0-5.5,4.5-10,10-10s10,4.5,10,10v330
				C936.8,1096.7,932.4,1101.2,926.8,1101.2z"/>
		</g>
		<g>
			<path class="st10" d="M127.4,1096.2H28.6c-2.8,0-5-2.2-5-5s2.2-5,5-5h98.8c2.8,0,5,2.2,5,5S130.2,1096.2,127.4,1096.2z"/>
		</g>
		<g>
			<path class="st10" d="M278.3,1096.2h-87.8c-2.8,0-5-2.2-5-5s2.2-5,5-5h87.8c2.8,0,5,2.2,5,5S281.1,1096.2,278.3,1096.2z"/>
		</g>
		<g>
			<path class="st2" d="M278.3,1101.2c-5.5,0-10-4.5-10-10v-330c0-5.5,4.5-10,10-10s10,4.5,10,10v330
				C288.3,1096.7,283.8,1101.2,278.3,1101.2z"/>
		</g>
		<g>
			<path class="st3" d="M926.8,776.2c-8.3,0-15-6.7-15-15v-72.1c0-8.3,6.7-15,15-15h116.3c8.3,0,15,6.7,15,15s-6.7,15-15,15H941.8
				v57.1C941.8,769.5,935.1,776.2,926.8,776.2z"/>
		</g>
		<g>
			<path class="st3" d="M278.3,776.2c-8.3,0-15-6.7-15-15v-72.1c0-8.3,6.7-15,15-15h116.3c8.3,0,15,6.7,15,15s-6.7,15-15,15H293.3
				v57.1C293.3,769.5,286.6,776.2,278.3,776.2z"/>
		</g>
	</g>
</g>
<circle class="st10" cx="278.3" cy="1091.2" r="37"/>
<g>
	<rect x="2203.6" y="1056.6" class="st6" width="205.4" height="169.8"/>
	<polygon class="st8" points="2206.6,1147.6 2186.4,1186.8 2135.1,1186.8 2160.6,1134.1 	"/>
	<polygon class="st2" points="2192.8,1172.4 2187.5,1223.5 2099.7,1223.8 2110,1202.9 2136.4,1182.6 2135.6,1163 2154.5,1162.9 
		2162.8,1176.6 	"/>
	<g>
		<path class="st1" d="M2104.6,1216.9c-1.7,0-3-1.3-3-3s1.3-3,3-3l54.9-0.1c0.5-2.7,1.9-6.8,5.5-10.4c5-5.1,12.5-7.7,22.4-7.7l0,0
			c1.7,0,3,1.3,3,3s-1.3,3-3,3c-8.3,0-14.4,2-18.2,5.9c-4.1,4.1-4.1,9.1-4.1,9.2c0,0.8-0.3,1.6-0.9,2.1c-0.6,0.6-1.3,0.9-2.1,0.9
			L2104.6,1216.9L2104.6,1216.9z"/>
	</g>
	<g>
		<path class="st1" d="M2130.1,1192.8c-1.7,0-3-1.3-3-3s1.3-3,3-3h13.6l0,0c1.7,0,3,1.3,3,3s-1.3,3-3,3H2130.1L2130.1,1192.8z"/>
	</g>
	<polygon class="st8" points="2239.5,1150.6 2243.3,1185.8 2284.2,1185.8 2283.4,1142.7 	"/>
	<path class="st4" d="M2266.3,969.7l60.4,83.9h-46.6l10.7,101.6h-81.3l-28.4-149.7c-2.1-11.1,5.3-21.7,16-23L2266.3,969.7z"/>
	<polygon class="st8" points="2367,796.7 2324,841.3 2331.4,796.8 2340.3,734.5 2372.8,734.5 	"/>
	<polygon class="st8" points="2302.2,929.4 2342.8,920.1 2352.9,955.8 2323.1,955.8 	"/>
	<path class="st8" d="M2346.4,792.8h-15.9c-8.7,0-15.8-7.1-15.8-15.8v-42.5h47.5V777C2362.2,785.7,2355.1,792.8,2346.4,792.8z"/>
	<path class="st2" d="M2367.3,741.1c-6,4.9-13,8.1-20.4,9.6c-5.9,1.2-11.8,2-17.8,2.5c-5,0.4-10.3,0.8-15.2-0.5
		c-3.4-0.8-6.5-2.6-7.2-6.5c-0.8-4.3,2.6-8.7,6.1-10.6c0,0-12.2-4.2-3.1-12.2c0.3-0.2-1-6.4-1-7c-0.5-8.9,6.4-15.2,14.7-13.2
		c16,3.7,23.9,23.2,40.6,25C2378,729.6,2373.8,735.9,2367.3,741.1z"/>
	<path class="st2" d="M2336,717c0,0,32.2-14.2,40.3,2.5s-6.4,47.3-10.8,51.6c-4.4,4.3-13.2-29.9-13.2-29.9L2336,717z"/>
	<path class="st8" d="M2363.2,776.8L2363.2,776.8c-5.2,0-9.4-4.4-9.4-9.8v-3.5c0-5.4,4.2-9.8,9.4-9.8l0,0c5.2,0,9.4,4.4,9.4,9.8v3.5
		C2372.5,772.4,2368.3,776.8,2363.2,776.8z"/>
	<g>
		<path class="st2" d="M2360.4,771.3c-0.7,0-1.4-0.2-1.9-0.7c-1.3-1.1-1.4-3-0.3-4.2l5.4-6.4c1.1-1.3,3-1.4,4.2-0.3
			c1.3,1.1,1.4,3,0.3,4.2l-5.4,6.4C2362.1,770.9,2361.3,771.3,2360.4,771.3z"/>
	</g>
	<g>
		<path class="st2" d="M2328.4,922.1L2328.4,922.1c-1.7,0-3-1.4-3-3.1l0.5-24.5c0-1.7,1.4-3,3.1-2.9c1.7,0,3,1.4,2.9,3.1l-0.5,24.5
			C2331.4,920.8,2330,922.1,2328.4,922.1z"/>
	</g>
	<polygon class="st2" points="2234.1,1183.8 2234.1,1223.8 2291.9,1223.8 2291.9,1183.3 2274.3,1178.5 2270.3,1163.1 2245.6,1163.1 
		2240.9,1178.2 	"/>
	<g>
		<path class="st1" d="M2234.1,1216.9c-0.5,0-1.1-0.2-1.6-0.5c-1.4-0.9-1.8-2.7-0.9-4.1l3.4-5.3c4.8-7.7,13-12.2,21.8-12.2
			c10,0,18.9,5.8,23.4,15.1l0.5,1h11.4c1.7,0,3,1.3,3,3s-1.3,3-3,3h-13.3c-1.2,0-2.2-0.7-2.7-1.7l-1.3-2.7
			c-3.4-7.2-10.3-11.7-18-11.7c-6.7,0-13,3.5-16.7,9.4l-3.4,5.3C2236,1216.4,2235.1,1216.9,2234.1,1216.9z"/>
	</g>
	<g>
		<path class="st1" d="M2266.6,1187.5h-19.8c-1.7,0-3-1.3-3-3s1.3-3,3-3h19.8c1.7,0,3,1.3,3,3S2268.3,1187.5,2266.6,1187.5z"/>
	</g>
	<g>
		<path class="st2" d="M2328.9,897.7c-0.1,0-0.1,0-0.2,0c-1.7-0.1-2.9-1.5-2.8-3.2c0.1-2.1,0.3-4.1,0.4-6.2c0.1-1.7,1.6-2.9,3.2-2.8
			c1.7,0.1,2.9,1.6,2.8,3.2c-0.2,2-0.3,4-0.4,6.1C2331.8,896.4,2330.4,897.7,2328.9,897.7z"/>
	</g>
	<g>
		<path class="st1" d="M2431.6,894.4c-2.3,0-5.1-0.4-8.2-1.6c-1.5-0.6-2.3-2.3-1.7-3.9c0.6-1.5,2.3-2.3,3.9-1.7
			c6.8,2.6,10.7,0.3,10.7,0.3c1.4-0.9,3.3-0.5,4.1,0.9s0.5,3.3-0.9,4.1C2439.3,892.6,2436.4,894.4,2431.6,894.4z"/>
	</g>
	<g>
		<path class="st2" d="M2335.2,795.9c-0.8,0-1.7,0-2.5-0.1c-1.7-0.1-2.9-1.5-2.8-3.2c0.1-1.7,1.5-2.9,3.2-2.8
			c5.8,0.4,11.1-0.8,15.6-3.6c1.4-0.9,3.3-0.4,4.1,1c0.9,1.4,0.4,3.3-1,4.1C2346.9,794.3,2341.3,795.9,2335.2,795.9z"/>
	</g>
	<g>
		<path class="st1" d="M2326.7,921.3c-1.5,0-2.9-1.2-3-2.7c-0.1-1.7,1.1-3.1,2.7-3.2l65-5.5l-8.6-16.3c-2.3-2.3-13.3-14-15.2-34.8
			c-0.2-1.7,1.1-3.1,2.7-3.3c1.6-0.2,3.1,1.1,3.3,2.7c1.8,20.3,13.5,31.1,13.6,31.2c0.3,0.2,0.5,0.5,0.6,0.8l9.1,17.3l18.8,0.2
			c1.6,0,2.9,1.3,3,2.9s-1.1,3-2.7,3.1l-89.1,7.6C2326.9,921.3,2326.8,921.3,2326.7,921.3z"/>
	</g>
	<g>
		<path class="st1" d="M2406.4,960.6h-70c-1.7,0-3-1.3-3-3s1.3-3,3-3h70.1c1.7,0,3,1.3,3,3S2408.1,960.6,2406.4,960.6z"/>
	</g>
	<g>
		<path class="st1" d="M2291,901.5h-0.1c-1.7-0.1-3-1.4-2.9-3.1l0.5-13.9c-4.2-13.1-5.6-26.7-4.4-40.4l1.2-13.3
			c0.2-1.7,1.6-2.9,3.3-2.7c1.6,0.2,2.9,1.6,2.7,3.3l-1.2,13.3c-1.2,13.1,0.2,26.1,4.3,38.5c0.1,0.3,0.2,0.7,0.1,1l-0.5,14.5
			C2294,900.2,2292.6,901.5,2291,901.5z"/>
	</g>
	<path class="st4" d="M2407.2,967.2v27.6c0,32.5-25.1,58.8-56.1,58.8h-71l-62.9,101.6h-81.3l55.3-96.9l45.9-80.5l29.2-8.1
		L2407.2,967.2z"/>
	<g>
		<path class="st4" d="M2376.8,995.8L2376.8,995.8c-1.1,0-26.7-0.3-33.2-15.5c-0.7-1.5,0-3.3,1.6-3.9c1.5-0.7,3.3,0,3.9,1.6
			c5,11.5,27.5,11.9,27.7,11.9c1.7,0,3,1.4,3,3S2378.5,995.8,2376.8,995.8z"/>
	</g>
	<path class="st1" d="M2329.2,809.5l2.4-14.5c-0.1,0.8-19.1,2.6-21,2.7c-7.4,0.4-15,1.1-22.1,3.5c-15,5-25.3,18.9-25.3,34.9V877
		l-56.4,26.3l5.9,46.6l64.5-18.2l0.7,31.9l-75.9,11.8c-0.5,0.1-1.1,0.2-1.6,0.3c-18.4,3.7-29.2,23-23.6,40.9l9,53.9l103.9,2
		l12.4-15.7l72.8-8.4l24.1-15.6c10.7-9.9,16.8-23.9,16.8-38.5v-27.7l10.8-1.7c22.4-3.5,36.7-25.9,30.5-47.8l-25.3-88.6
		c-4.5-15.8-17.7-27.7-33.9-30.7l-30.6-4.9l-43.7,49.9L2329.2,809.5L2329.2,809.5z"/>
	<g>
		<path class="st1" d="M2329.2,809.5l2.4-14.5c-0.1,0.8-19.1,2.6-21,2.7c-7.4,0.4-15,1.1-22.1,3.5c-15,5-25.3,18.9-25.3,34.9V877
			l-56.4,26.3l5.9,46.6l64.5-18.2l0.7,31.9l-75.9,11.8c-0.5,0.1-1.1,0.2-1.6,0.3c-18.4,3.7-29.2,23-23.6,40.9l9,53.9l103.9,2
			l12.4-15.7l72.8-8.4l24.1-15.6c10.7-9.9,16.8-23.9,16.8-38.5v-27.7l10.8-1.7c22.4-3.5,36.7-25.9,30.5-47.8l-25.3-88.6
			c-4.5-15.8-17.7-27.7-33.9-30.7l-30.6-4.9l-43.7,49.9L2329.2,809.5L2329.2,809.5z"/>
		<path class="st2" d="M2289.7,1074.8L2289.7,1074.8l-104-2c-1.2,0-2.2-0.9-2.3-2l-9-53.8c-2.9-9.4-1.6-19.6,3.4-28
			c4.9-8.3,12.8-13.9,22.1-15.8c0.6-0.1,1.1-0.2,1.7-0.3l73.8-11.5l-0.5-26.6l-61.5,17.4c-0.7,0.2-1.4,0.1-2-0.3s-1-1-1.1-1.7
			l-5.9-46.6c-0.1-1,0.4-2.1,1.4-2.5l55-25.6v-39.3c0-16.8,10.8-31.8,27-37.2c7.5-2.5,15.4-3.3,22.7-3.6c2.1-0.1,17.3-1.6,19.9-2.3
			c0.5-0.3,1.1-0.4,1.7-0.3c1.3,0.2,2.2,1.5,2,2.8l0,0l0,0l-2.4,14.4l-2.4-0.4l2.4,0.4l-4.1,24.9l38-43.5c0.5-0.6,1.4-0.9,2.2-0.8
			l30.6,4.9c17,3.1,31.1,15.8,35.8,32.4l25.3,88.6c3.2,11.1,1.4,23-4.8,32.7s-16.3,16.3-27.7,18.1l-8.7,1.4v25.6
			c0,15.2-6.4,29.9-17.5,40.2c-0.1,0.1-0.2,0.2-0.3,0.3l-24.1,15.6c-0.3,0.2-0.7,0.3-1,0.4l-71.8,8.3l-11.8,14.9
			C2291.2,1074.5,2290.5,1074.8,2289.7,1074.8z M2187.9,1068l100.7,1.9l11.7-14.8c0.4-0.5,1-0.8,1.6-0.9l72.2-8.3l23.4-15.2
			c10.1-9.4,15.8-22.7,15.8-36.5v-27.7c0-1.2,0.9-2.2,2-2.4l10.8-1.7c10-1.6,18.9-7.4,24.3-15.9c5.5-8.5,7-19,4.2-28.8l-25.3-88.6
			c-4.2-14.8-16.8-26.2-32-29l-29.2-4.7l-42.8,48.9c-0.7,0.8-1.9,1.1-2.9,0.6s-1.5-1.5-1.4-2.6l5.5-33.3l0,0l1.8-10.9
			c-1.6,0.2-3.8,0.5-6.6,0.8c-5.1,0.6-10.3,1-11.3,1.1c-7,0.4-14.4,1-21.4,3.4c-14.1,4.8-23.7,17.8-23.7,32.6v40.9
			c0,0.9-0.5,1.8-1.4,2.2l-54.7,25.6l5.3,42l61.8-17.4c0.7-0.2,1.5-0.1,2.1,0.4c0.6,0.4,1,1.1,1,1.9l0.7,31.9c0,1.2-0.9,2.3-2.1,2.4
			l-75.9,11.8c-0.5,0.1-1,0.2-1.5,0.3c-8,1.6-14.7,6.4-18.9,13.6c-4.3,7.3-5.4,16.1-2.9,24.2c0,0.1,0.1,0.2,0.1,0.3L2187.9,1068z
			 M2329.3,794.6L2329.3,794.6L2329.3,794.6z M2329.3,794.6L2329.3,794.6L2329.3,794.6z"/>
	</g>
	<g>
		<path class="st1" d="M2196.9,976.5c-16.2,5.4-25.2,23.2-20,39.9l6.7,40.2L2196.9,976.5z"/>
		<path class="st2" d="M2183.5,1059.1c-1.2,0-2.2-0.8-2.4-2l-6.7-40c-5.4-17.9,4.2-37,21.6-42.8c1.3-0.4,2.6,0.3,3.1,1.5
			c0.4,1.3-0.3,2.6-1.5,3.1c-15,5-23.3,21.5-18.5,36.9c0,0.1,0.1,0.2,0.1,0.3l6.7,40.2c0.2,1.3-0.7,2.6-2,2.8
			C2183.8,1059.1,2183.7,1059.1,2183.5,1059.1z"/>
	</g>
	<g>
		<path class="st1" d="M2273.3,810.9c-6.3,6.6-10,15.5-10,25.1v17.8L2273.3,810.9z"/>
		<path class="st2" d="M2263.2,856.3c-1.3,0-2.4-1.1-2.4-2.4v-17.8c0-10,3.8-19.5,10.7-26.8c0.9-1,2.5-1,3.4-0.1
			c1,0.9,1,2.5,0.1,3.4c-6,6.4-9.4,14.7-9.4,23.5v17.8C2265.7,855.2,2264.6,856.3,2263.2,856.3z"/>
	</g>
	<g>
		<path class="st1" d="M2415.8,987.5v-21l10.8-1.7c10.4-1.6,19-7.3,24.6-15L2415.8,987.5z"/>
		<path class="st2" d="M2415.8,989.9c-1.3,0-2.4-1.1-2.4-2.4v-21c0-1.2,0.9-2.2,2-2.4l10.8-1.7c9.3-1.5,17.5-6.5,23.1-14.1
			c0.8-1.1,2.3-1.3,3.4-0.5c1.1,0.8,1.3,2.3,0.5,3.4c-6.3,8.6-15.6,14.3-26.2,16l-8.7,1.4v18.9
			C2418.2,988.8,2417.2,989.9,2415.8,989.9z"/>
	</g>
	<g>
		<path class="st1" d="M2273.3,810.9c-6.3,6.6-10,15.5-10,25.1v17.8L2273.3,810.9z"/>
		<path class="st2" d="M2263.2,856.3c-1.3,0-2.4-1.1-2.4-2.4v-17.8c0-10,3.8-19.5,10.7-26.8c0.9-1,2.5-1,3.4-0.1
			c1,0.9,1,2.5,0.1,3.4c-6,6.4-9.4,14.7-9.4,23.5v17.8C2265.7,855.2,2264.6,856.3,2263.2,856.3z"/>
	</g>
	<g>
		<path class="st1" d="M2415.8,966.5l-39,5.4L2415.8,966.5z"/>
		<path class="st2" d="M2376.8,974.4c-1.2,0-2.2-0.9-2.4-2.1c-0.2-1.3,0.7-2.6,2.1-2.7l39-5.4c1.3-0.2,2.6,0.7,2.7,2.1
			s-0.7,2.6-2.1,2.7l-39,5.4C2377.1,974.3,2377,974.4,2376.8,974.4z"/>
	</g>
	<g>
		<path class="st1" d="M2398.9,912.9l-40.2,8.7L2398.9,912.9z"/>
		<path class="st2" d="M2358.7,924c-1.1,0-2.1-0.8-2.4-1.9c0-0.2-0.1-0.3-0.1-0.5c0-1.1,0.8-2.1,1.9-2.4l40.2-8.7
			c1.3-0.3,2.6,0.5,2.9,1.9c0,0.2,0.1,0.3,0.1,0.5c0,1.1-0.8,2.1-1.9,2.4l-40.2,8.7C2359.1,924,2358.9,924,2358.7,924z"/>
	</g>
	<g>
		<path class="st1" d="M2402.3,913l-9.9-28.1L2402.3,913z"/>
		<path class="st2" d="M2402.3,915.4c-1,0-1.9-0.6-2.3-1.6l-9.9-28.1c-0.4-1.3,0.2-2.6,1.5-3.1c1.3-0.4,2.6,0.2,3.1,1.5l9.9,28.1
			c0.4,1.3-0.2,2.6-1.5,3.1C2402.9,915.4,2402.6,915.4,2402.3,915.4z"/>
	</g>
	<g>
		<path class="st1" d="M2277.3,931.6l24.9-6.5L2277.3,931.6z"/>
		<path class="st2" d="M2277.3,934c-1.1,0-2.1-0.7-2.3-1.8c-0.3-1.3,0.4-2.6,1.7-3l24.9-6.5c1.3-0.3,2.6,0.4,3,1.7
			c0.3,1.3-0.4,2.6-1.7,3l-24.9,6.5C2277.7,934,2277.5,934,2277.3,934z"/>
	</g>
	<g>
		<polygon class="st1" points="2358.6,974.6 2377.3,974.6 2340.8,863.6 2322.1,863.6 		"/>
		<path class="st10" d="M2377.3,977h-18.7c-1,0-2-0.7-2.3-1.7l-36.5-111c-0.2-0.7-0.1-1.5,0.3-2.2c0.5-0.6,1.2-1,2-1h18.7
			c1,0,2,0.7,2.3,1.7l36.5,111c0.2,0.7,0.1,1.5-0.3,2.2C2378.8,976.7,2378,977,2377.3,977z M2360.3,972.2h13.6L2339,866.1h-13.6
			L2360.3,972.2z"/>
	</g>
	<g>
		<polygon class="st1" points="2358.4,974.6 2321.9,863.6 2177.3,863.6 2213.8,974.6 		"/>
		<path class="st10" d="M2358.4,977c-1,0-2-0.6-2.3-1.7L2320.2,866h-139.5l35.4,107.8c0.4,1.3-0.3,2.6-1.5,3.1
			c-1.3,0.4-2.6-0.3-3.1-1.5l-36.5-111c-0.2-0.7-0.1-1.5,0.3-2.2c0.5-0.6,1.2-1,2-1h144.6c1,0,2,0.7,2.3,1.7l36.5,111
			c0.4,1.3-0.3,2.6-1.5,3.1C2358.9,977,2358.6,977,2358.4,977z"/>
	</g>
	<g>
		<path class="st10" d="M2377.3,977.6h-163.5c-1.7,0-3-1.3-3-3s1.3-3,3-3h163.5c1.7,0,3,1.3,3,3S2378.9,977.6,2377.3,977.6z"/>
	</g>
	<g>
		<path class="st1" d="M2250.6,926c4.5,8.7,13.9,15.2,22.8,15.2c10.6,0,16.7-9,13.6-20.1s-14.2-20.1-24.8-20.1
			c-3.6,0-6.7,1.1-9.1,2.9L2250.6,926z"/>
		<path class="st10" d="M2273.5,943.6c-9.7,0-19.9-6.8-25-16.5c-0.6-1.2-0.2-2.7,1-3.3c1.2-0.6,2.7-0.2,3.3,1
			c4.2,8.2,12.7,13.9,20.7,13.9c4,0,7.4-1.5,9.6-4.3c2.4-3.2,3-7.8,1.7-12.7c-2.8-10.1-12.9-18.4-22.5-18.4c-3,0-5.6,0.8-7.6,2.4
			c-1.1,0.8-2.6,0.6-3.4-0.4c-0.8-1.1-0.6-2.6,0.4-3.4c2.9-2.2,6.5-3.4,10.6-3.4c11.6,0,23.8,9.8,27.1,21.9
			c1.8,6.4,0.9,12.5-2.5,16.9C2283.8,941.4,2279.1,943.6,2273.5,943.6z"/>
	</g>
	<g>
		<path class="st1" d="M2269.2,987.5l-47.3,9.7l-36.2,73.2l103.9,2l0,0c7.9-10,19.7-16.1,32.5-16.6l24.3-1.1
			c19.6-0.9,38.2-8.7,52.5-22l0,0c10.7-9.9,16.8-23.9,16.8-38.5v-6.7H2269.2z"/>
		<path class="st2" d="M2289.7,1074.8L2289.7,1074.8l-104-2c-0.8,0-1.6-0.5-2-1.2s-0.5-1.6-0.1-2.3l36.2-73.2c0.3-0.7,1-1.2,1.7-1.3
			l47.3-9.7c1.3-0.3,2.6,0.6,2.9,1.9c0.3,1.3-0.6,2.6-1.9,2.9l-46.1,9.5l-33.9,68.7l98.9,1.9c8.3-10,20.5-16,33.5-16.6l24.3-1.1
			c19-0.8,37.1-8.4,51-21.4c10.2-9.4,16-22.8,16-36.7v-6.7c0-1.3,1.1-2.4,2.4-2.4s2.4,1.1,2.4,2.4v6.7c0,15.2-6.4,29.9-17.5,40.2
			c-14.7,13.7-34,21.8-54.1,22.7l-24.3,1.1c-12,0.5-23.2,6.3-30.7,15.7C2291.2,1074.5,2290.5,1074.8,2289.7,1074.8z"/>
	</g>
	<g>
		<path class="st9" d="M2352.7,859.5c-0.5,0-0.9-0.1-1.4-0.3c-1.5-0.8-2-2.6-1.3-4.1c6.6-12.4,12.7-22.2,18.6-29.8l-9-3.5
			c-1.2-0.5-1.9-1.6-1.9-2.9s0.8-2.4,2-2.8l10.1-3.4l-0.9-6.8c-0.2-1.6,0.9-3.1,2.6-3.4c1.6-0.2,3.1,0.9,3.4,2.6l1.2,9.2
			c0.2,1.4-0.7,2.8-2,3.2l-4.6,1.5l5.2,2c0.9,0.4,1.6,1.1,1.8,2.1c0.2,0.9,0,1.9-0.6,2.7c-6.5,7.6-13.2,18-20.5,31.9
			C2354.8,858.9,2353.8,859.5,2352.7,859.5z"/>
	</g>
	<g>
		<path class="st9" d="M2313.1,858c-1.3,0-2.5-0.9-2.9-2.2c-1.6-6-3-11.9-4.3-17.6c-0.9-3.6-1.7-7-2.5-10.2
			c-0.3-1.1,0.1-2.2,0.9-2.9l8.8-8.1l-7.8-2.9c-1.1-0.4-1.9-1.4-1.9-2.6c-0.1-1.2,0.5-2.3,1.5-2.8l12.4-6.9c1.5-0.8,3.3-0.3,4.1,1.2
			c0.8,1.4,0.3,3.3-1.2,4.1l-6.7,3.7l6.3,2.4c1,0.4,1.7,1.2,1.9,2.2s-0.1,2.1-0.9,2.8l-11.1,10.2c0.7,2.7,1.3,5.6,2.1,8.5
			c1.4,5.7,2.8,11.6,4.3,17.5c0.4,1.6-0.5,3.2-2.1,3.7C2313.6,857.9,2313.3,858,2313.1,858z"/>
	</g>
	<g>
		<path class="st1" d="M2373.6,685.7l13.9-48L2373.6,685.7z"/>
		<path class="st4" d="M2373.6,688.1c-0.2,0-0.4,0-0.7-0.1c-1.3-0.4-2-1.7-1.7-3l13.9-48c0.4-1.3,1.7-2,3-1.7c1.3,0.4,2,1.7,1.7,3
			l-13.9,48C2375.6,687.4,2374.6,688.1,2373.6,688.1z"/>
	</g>
	<g>
		<path class="st1" d="M2407.2,714.9l36.4,3.8L2407.2,714.9z"/>
		<path class="st4" d="M2443.6,721.1c-0.1,0-0.2,0-0.3,0l-36.4-3.8c-1.3-0.1-2.3-1.3-2.2-2.7c0.1-1.3,1.3-2.3,2.7-2.2l36.4,3.8
			c1.3,0.1,2.3,1.3,2.2,2.7C2445.8,720.2,2444.8,721.1,2443.6,721.1z"/>
	</g>
</g>
<g>
	<path class="st2" d="M1895.4,1230.1h-531.2c-1.7,0-3-1.3-3-3s1.3-3,3-3h531.2c1.7,0,3,1.3,3,3S1897.1,1230.1,1895.4,1230.1z"/>
</g>
<g>
	<path class="st2" d="M2424.6,1230.1h-493.2c-1.7,0-3-1.3-3-3s1.3-3,3-3h493.2c1.7,0,3,1.3,3,3S2426.2,1230.1,2424.6,1230.1z"/>
</g>
<g>
	<path class="st4" d="M2562.4,115.6h-195.5c-27.6,0-50-22.4-50-50s22.4-50,50-50h195.5c27.6,0,50,22.4,50,50
		S2590,115.6,2562.4,115.6z"/>
</g>
<g>
	<path class="st10" d="M2366.9,90.6h-235c-13.8,0-25-11.2-25-25s11.2-25,25-25h235c13.8,0,25,11.2,25,25S2380.7,90.6,2366.9,90.6z"
		/>
</g>
<g>
	<path class="st1" d="M2341.6,70.6h-42.2c-2.8,0-5-2.2-5-5s2.2-5,5-5h42.2c2.8,0,5,2.2,5,5S2344.4,70.6,2341.6,70.6z"/>
</g>
<g>
	<path class="st1" d="M2236.8,70.6H2132c-2.8,0-5-2.2-5-5s2.2-5,5-5h104.8c2.8,0,5,2.2,5,5S2239.5,70.6,2236.8,70.6z"/>
</g>
<g>
	<path class="st3" d="M2124.7,186.8c-2.8,0-5-2.2-5-5v-37.3c0-2.8,2.2-5,5-5s5,2.2,5,5v37.3C2129.7,184.6,2127.5,186.8,2124.7,186.8
		z"/>
</g>
<g>
	<path class="st3" d="M2124.7,267.2c-2.8,0-5-2.2-5-5v-37.3c0-2.8,2.2-5,5-5s5,2.2,5,5v37.3C2129.7,264.9,2127.5,267.2,2124.7,267.2
		z"/>
</g>
<g>
	<path class="st3" d="M2124.7,343.9c-2.8,0-5-2.2-5-5v-37.3c0-2.8,2.2-5,5-5s5,2.2,5,5v37.3C2129.7,341.6,2127.5,343.9,2124.7,343.9
		z"/>
</g>
<path class="st3" d="M2153.9,457.7c0,16.1-13.1,29.2-29.2,29.2c-16.1,0-29.2-13.1-29.2-29.2c0-16.1,13.1-64.1,29.2-64.1
	C2140.9,393.5,2153.9,441.5,2153.9,457.7z"/>
<g>
	<path class="st2" d="M1982.6,341.9c-1.7,0-3-1.3-3-3v-98c0-1.7,1.3-3,3-3s3,1.3,3,3v98C1985.6,340.5,1984.2,341.9,1982.6,341.9z"/>
</g>
<g>
	<polygon class="st8" points="734.9,879 734.9,912 696.8,912 696.8,876.5 	"/>
	<polygon class="st4" points="678.7,956.3 739.5,956.3 739.5,896 691.5,896 678.7,933.9 	"/>
	<path class="st8" d="M768.9,440.2L768.9,440.2c-9.1,14-27.1,15.5-37.8,3l-2.6-3v-54.6h40.4V440.2z"/>
	<g>
		<path class="st1" d="M748.8,454.7c-7.5,0-14.8-3.4-20.1-9.5l-2.6-3c-1.1-1.3-0.9-3.1,0.3-4.2c1.3-1.1,3.1-0.9,4.2,0.3l2.6,3
			c4.4,5.1,10.6,7.8,16.8,7.4c6.4-0.4,12.4-4.1,16.3-10.1c0.9-1.4,2.8-1.8,4.2-0.9c1.4,0.9,1.8,2.8,0.9,4.2
			c-4.9,7.6-12.6,12.2-20.9,12.8C750,454.6,749.4,454.7,748.8,454.7z"/>
	</g>
	<path class="st8" d="M783.3,408.4l-47.7,11.9l-14.3-57.2l54.4-13.6l12.6,50.5C789.3,403.7,787,407.5,783.3,408.4z"/>
	<path class="st2" d="M774.2,337c0,0-12.5-14-17.9-4.8c0,0-20.2-3.7-23.6,7.5c0,0-19.5-5.7-25.5,12.3c0,0-7.9,14.8,5.2,22.6
		c0,0-5.8,13.4,6.8,15.7c0,0,1,13.6,12,11.8c0,0,11.8-0.4,16.7-5.8c0,0,8.4-0.8,3-8.6c0,0,0.6-0.1,1.4-0.4
		c3.1-0.9,10.2-3.9,9.4-11.7c0,0,14.8-8.6,9.2-14.5c0,0,10.1-1.9,9-9.2C779.9,351.9,785.4,335.8,774.2,337z"/>
	<path class="st8" d="M770.6,393.7L770.6,393.7c-4.7,1.2-9.6-2.2-10.9-7.6l-0.9-3.5c-1.3-5.4,1.4-10.7,6.1-11.8l0,0
		c4.7-1.2,9.6,2.2,10.9,7.6l0.9,3.5C778,387.3,775.3,392.6,770.6,393.7z"/>
	<path class="st8" d="M831.8,625.5l-2.8,25.1c0.4,3.4,3.2,5.9,6.4,5.9h2.1l6,17.2c1.5,4.2,5.4,7.1,9.7,7.1h14.1
		c5.3,0,9.3-4.9,8.4-10.2l-7.3-41.9L831.8,625.5z"/>
	<g>
		<path class="st2" d="M771.2,387.2c-0.5,0-1.1-0.1-1.6-0.4l-7-4.2c-1.4-0.9-1.9-2.7-1-4.1c0.9-1.4,2.7-1.9,4.1-1l7,4.2
			c1.4,0.9,1.9,2.7,1,4.1C773.2,386.7,772.2,387.2,771.2,387.2z"/>
	</g>
	<g>
		<polygon class="st4" points="892.2,956.3 812.8,956.3 803.6,897.2 849.4,897.6 892.4,933.9 		"/>
		<g>
			<path class="st2" d="M892.4,936.9L892.4,936.9l-42.6-0.1l-11.7-10.3c-1.2-1.1-1.4-3-0.3-4.2s3-1.4,4.2-0.3l10,8.8l40.4,0.1
				c1.7,0,3,1.3,3,3S894,936.9,892.4,936.9z"/>
		</g>
		<g>
			<path class="st2" d="M870.6,919.2L870.6,919.2l-14-0.1c-1.7,0-3-1.4-3-3c0-1.7,1.4-3,3-3l0,0l14,0.1c1.7,0,3,1.4,3,3
				S872.3,919.2,870.6,919.2z"/>
		</g>
	</g>
	<g>
		<path class="st8" d="M794.2,596.6l-116.5-0.4c-12.7-1.8-22.1-13.1-21.8-26.3l1.5-74.8l55.1,1.2l-5.7,51.6l91.8,22L794.2,596.6z"/>
	</g>
	<g>
		<polygon class="st2" points="857.7,900.1 799.4,900.1 741.6,612.2 808.2,612.2 		"/>
	</g>
	<g>
		<polygon class="st2" points="741.6,900.1 683.3,900.1 686.8,612.2 753.4,612.2 		"/>
	</g>
	<path class="st10" d="M808.2,621.9H686.8l-11.3-149.1c-0.8-10.2,4.9-19.7,13.5-22.5l39.9-13.2c12.1-4,25.2-4,37.3,0l39.9,13.2
		c8.6,2.9,14.3,12.3,13.5,22.5L808.2,621.9z"/>
	<g>
		<path class="st1" d="M741.6,882.7h-58.3c-1.7,0-3-1.3-3-3s1.3-3,3-3h58.3c1.7,0,3,1.3,3,3S743.3,882.7,741.6,882.7z"/>
	</g>
	<g>
		<path class="st1" d="M854.2,882.7h-58.9c-1.7,0-3-1.3-3-3s1.3-3,3-3h58.9c1.7,0,3,1.3,3,3S855.8,882.7,854.2,882.7z"/>
	</g>
	<g>
		<path class="st1" d="M664.9,814.3h194.7L819.5,632h62.3l-32.6-134.1c-7-28.6-28.7-51.3-57-59.5l-39.8-11.5h-30l-26.1,11.9
			c-30.6,14-59.1,41.7-64.5,76.3c-4.7,29.6,3.7,66,29.8,83.6l19.9,13.5L664.9,814.3z"/>
		<path class="st2" d="M862.6,816.7H662.3l16.6-203.3l-18.7-12.7c-27.7-18.8-35.5-56.7-30.8-86c6-38.1,38-65.3,65.9-78.1
			c0.2-0.1,26.1-11.9,26.1-11.9l0.5-0.2h30.9l40.2,11.6c29.1,8.4,51.6,31.9,58.7,61.3L885,634.5h-62.4L862.6,816.7z M667.5,811.9
			h189l-40.1-182.3h62.3l-31.8-131.1c-6.7-27.7-27.9-49.8-55.3-57.8l-39.5-11.4h-29.2c-18.5,8.5-23.9,10.9-25.6,11.6v0.1
			c-26.8,12.2-57.4,38.2-63.1,74.4c-4.4,27.8,2.8,63.6,28.7,81.2l21.1,14.3l-0.1,1.4L667.5,811.9z"/>
	</g>
	<g>
		<path class="st9" d="M809.8,705.2c-0.5,0-1-0.1-1.4-0.4c-12.3-6.6-20.4-20.3-21.2-35.7l-0.9-19.8h22.9c1.7,0,3,1.3,3,3s-1.3,3-3,3
			h-16.6l0.6,13.5c0.6,13.3,7.5,25.1,18,30.7c1.5,0.8,2,2.6,1.2,4.1C811.9,704.6,810.9,705.2,809.8,705.2z"/>
	</g>
	<g>
		<path class="st2" d="M711.4,944.6h-32.7c-1.7,0-3-1.3-3-3s1.3-3,3-3h28.1l6.8-24.4h25.9c1.7,0,3,1.3,3,3s-1.3,3-3,3h-21.4
			L711.4,944.6z"/>
	</g>
	<g>
		<path class="st2" d="M696.8,923.4L696.8,923.4l-11.9-0.3c-1.7,0-3-1.4-2.9-3.1c0-1.7,1.4-3,3.1-2.9l11.8,0.3c1.7,0,3,1.4,2.9,3.1
			C699.8,922.1,698.5,923.4,696.8,923.4z"/>
	</g>
	<g>
		<path class="st1" d="M791.6,639.5H695c-1.7,0-3-1.3-3-3s1.3-3,3-3h96.6c1.7,0,3,1.3,3,3C794.6,638.1,793.3,639.5,791.6,639.5z"/>
	</g>
	<g>
		<path class="st2" d="M819.5,635c-1.4,0-2.6-0.9-2.9-2.3l-19.8-82.4c-0.4-1.6,0.6-3.2,2.2-3.6c1.6-0.4,3.2,0.6,3.6,2.2l19.8,82.4
			c0.4,1.6-0.6,3.2-2.2,3.6C819.9,635,819.7,635,819.5,635z"/>
	</g>
	<g>
		<path class="st2" d="M665.2,813.5c-0.1,0-0.2,0-0.2,0c-1.7-0.1-2.9-1.6-2.7-3.2L678.4,612l3.4-54.4l-8.6-9.7
			c-1.1-1.2-1-3.1,0.3-4.2c1.2-1.1,3.1-1,4.2,0.3l10.3,11.6l-3.6,56.9l-16.2,198.3C668.1,812.3,666.8,813.5,665.2,813.5z"/>
	</g>
	<g>
		<polygon class="st1" points="709.9,433.5 722.4,420.3 756,420.3 771.8,433.5 		"/>
		<path class="st2" d="M771.7,436c-0.5,0-1.1-0.2-1.6-0.6L755,422.7h-31.6l-11.8,12.5c-0.9,1-2.5,1-3.4,0.1c-1-0.9-1-2.5-0.1-3.4
			l13.2-14h35.5l16.4,13.8c1,0.9,1.2,2.4,0.3,3.4C773.1,435.7,772.4,436,771.7,436z"/>
	</g>
	<g>
		<path class="st1" d="M724,512.1l66.2,100.2L724,512.1z"/>
		<path class="st2" d="M790.3,614.8c-0.8,0-1.6-0.4-2-1.1l-66.2-100.2c-0.7-1.1-0.4-2.6,0.7-3.4c1.1-0.7,2.6-0.4,3.4,0.7L792.4,611
			c0.7,1.1,0.4,2.6-0.7,3.4C791.2,614.6,790.7,614.8,790.3,614.8z"/>
	</g>
	<g>
		<path class="st1" d="M720.8,576.1l30.3,45.8L720.8,576.1z"/>
		<path class="st2" d="M751,624.3c-0.8,0-1.6-0.4-2-1.1l-30.3-45.8c-0.7-1.1-0.4-2.6,0.7-3.4c1.1-0.7,2.6-0.4,3.4,0.7l30.3,45.8
			c0.7,1.1,0.4,2.6-0.7,3.4C752,624.2,751.5,624.3,751,624.3z"/>
	</g>
</g>
</svg>
