<svg id="_ëîé_1" data-name="‘ëîé_1" xmlns="http://www.w3.org/2000/svg" viewBox="0 0 319.01 175.42"><defs><style>.cls-1{fill:#faebff;}.cls-2{fill:#ffa800;}.cls-3{fill:#f9553a;}.cls-4{fill:#f3d7ff;}.cls-5{fill:#fff;}.cls-6{fill:#842489;}.cls-7{fill:#e36eff;}.cls-8{fill:#e5b3ff;}.cls-9{fill:#e397ff;}.cls-10{fill:#ff2e57;}.cls-11{fill:#b92650;}</style></defs><title>Banner Left</title><path class="cls-1" d="M242,173.64a3.52,3.52,0,0,1-4.37-2.2L235.8,167a8.8,8.8,0,0,0-3.78-4.31,7.93,7.93,0,0,1-3.38-3.92l-29.94-74,13-5.26,29.94,74a7.88,7.88,0,0,1,.22,5.4,8.76,8.76,0,0,0,.2,6l1.67,4.12a3.47,3.47,0,0,1-1.56,4.47Z"/><path class="cls-2" d="M218.61,90.72,201.5,97.65,170.78,21.73a6.6,6.6,0,0,1-.48-2A7.66,7.66,0,0,1,171,16a8,8,0,0,0,.36-6.39l-1.71-4.23c-.77-1.89.45-4.16,2.72-5a4.09,4.09,0,0,1,5.36,1.9l1.82,4.51A7.82,7.82,0,0,0,184,11a7.1,7.1,0,0,1,3.91,3.85Z"/><polygon class="cls-3" points="212.36 89.6 174.6 31.18 197.79 88.5 201.49 97.65 212.36 89.6"/><path class="cls-2" d="M200.08,97.67h0a2.88,2.88,0,0,1,1.58-3.74l14.24-5.76a2.87,2.87,0,0,1,3.74,1.58h0a2.87,2.87,0,0,1-1.59,3.73l-14.24,5.77A2.87,2.87,0,0,1,200.08,97.67Z"/><path class="cls-4" d="M242,173.64a3.52,3.52,0,0,1-4.37-2.2L235.8,167a8.8,8.8,0,0,0-3.78-4.31,7.93,7.93,0,0,1-3.38-3.92L204.43,99l6.5-2.63,31.24,77.18Z"/><path class="cls-3" d="M172.13,19.18a9,9,0,0,1-1.83.52A7.66,7.66,0,0,1,171,16a8,8,0,0,0,.36-6.39l-.18-.45c2.46-.12,4.6.89,5.36,2.77C177.62,14.51,175.63,17.76,172.13,19.18Z"/><path class="cls-5" d="M212.88,95.67c-1.11.6-2.24,1.15-3.37,1.73s-2.26,1.11-3.4,1.65c-.56.27-1.12.56-1.68.85a10.73,10.73,0,0,1-1.75.72,16,16,0,0,1-1.84.47,11,11,0,0,1-1.94.24l-.06-.16A10.15,10.15,0,0,1,200.4,100a15.9,15.9,0,0,1,1.65-.94,12.05,12.05,0,0,1,1.75-.7c.6-.18,1.21-.36,1.81-.56,1.19-.4,2.38-.8,3.59-1.18s2.4-.75,3.62-1.1Z"/><path class="cls-5" d="M221.12,86.15a10.84,10.84,0,0,1-1.56,1.18,15.9,15.9,0,0,1-1.65.94,12.05,12.05,0,0,1-1.75.7c-.6.18-1.21.35-1.81.56-1.19.4-2.38.79-3.59,1.17s-2.4.76-3.62,1.1l-.06-.15c1.11-.6,2.25-1.15,3.37-1.73s2.26-1.11,3.4-1.65c.57-.27,1.12-.57,1.68-.85a11.51,11.51,0,0,1,1.75-.72,16,16,0,0,1,1.84-.47,10.09,10.09,0,0,1,1.94-.24Z"/><path class="cls-6" d="M206,102.49c1.61,3.71,3.17,7.44,4.75,11.16l4.66,11.2c.78,1.86,1.57,3.73,2.37,5.58s1.52,3.75,2.19,5.66l1,2.87c.31,1,.63,1.92.91,2.9.59,1.94,1.15,3.89,1.59,5.89l-.2.07c-1-1.78-1.91-3.59-2.77-5.43-.45-.91-.85-1.84-1.27-2.76L218,136.85c-.78-1.87-1.5-3.75-2.17-5.66s-1.32-3.83-2-5.73L209.73,114c-1.32-3.82-2.67-7.64-4-11.47Z"/><rect class="cls-7" x="120.67" y="64.96" width="55.45" height="20.16"/><path class="cls-8" d="M189.41,80.13v91.32a4,4,0,0,1-4,4H111.34a4,4,0,0,1-4-4V80.13a4,4,0,0,1,4-4h74.11A4,4,0,0,1,189.41,80.13Z"/><path class="cls-8" d="M182.25,36.27V69.34h-67.7V36.27a17.4,17.4,0,0,0,12.13-4.87,16.35,16.35,0,0,0,5-11.77,6.87,6.87,0,0,1,7-6.76h19.45a6.88,6.88,0,0,1,7,6.76,16.35,16.35,0,0,0,5,11.77A17.36,17.36,0,0,0,182.25,36.27Z"/><path class="cls-8" d="M182.25,70h-67.7a.64.64,0,0,1-.64-.63V36.27a.64.64,0,0,1,.64-.63A16.7,16.7,0,0,0,126.23,31a15.67,15.67,0,0,0,4.83-11.32,7.52,7.52,0,0,1,7.61-7.39h19.45a7.52,7.52,0,0,1,7.61,7.39A15.7,15.7,0,0,0,170.56,31a16.71,16.71,0,0,0,11.69,4.69.63.63,0,0,1,.63.63V69.34A.63.63,0,0,1,182.25,70ZM115.18,68.7h66.43V36.9a17.93,17.93,0,0,1-11.93-5,16.92,16.92,0,0,1-5.22-12.23,6.24,6.24,0,0,0-6.34-6.12H138.67a6.24,6.24,0,0,0-6.34,6.12,17,17,0,0,1-5.21,12.23,18,18,0,0,1-11.94,5Z"/><path class="cls-9" d="M189.41,80.13v91.32a3.93,3.93,0,0,1-.5,1.93H151V76.17h34.43A4,4,0,0,1,189.41,80.13Z"/><rect class="cls-5" x="107.38" y="101.89" width="58.37" height="51.11"/><rect class="cls-7" x="107.38" y="101.89" width="58.37" height="7.41"/><path class="cls-9" d="M182.25,36.27V69.34H151V12.87h7.1a6.88,6.88,0,0,1,7,6.76,16.35,16.35,0,0,0,5,11.77A17.36,17.36,0,0,0,182.25,36.27Z"/><path class="cls-9" d="M182.25,70H151a.63.63,0,0,1-.63-.63V12.87a.63.63,0,0,1,.63-.63h7.1a7.52,7.52,0,0,1,7.61,7.39A15.7,15.7,0,0,0,170.56,31a16.71,16.71,0,0,0,11.69,4.69.63.63,0,0,1,.63.63V69.34A.63.63,0,0,1,182.25,70Zm-30.6-1.27h30V36.9a17.93,17.93,0,0,1-11.93-5,16.92,16.92,0,0,1-5.22-12.23,6.24,6.24,0,0,0-6.34-6.12h-6.47Z"/><path class="cls-1" d="M148.52,135.83a12,12,0,0,1-23.9,0c0-6.6,11.95-21.12,11.95-21.12S148.52,129.23,148.52,135.83Z"/><path class="cls-6" d="M121.31,69.76c5.08-.22,10.16-.37,15.23-.56l15.23-.45,7.62-.26c2.54-.09,5.07-.12,7.61-.08l3.81.09c1.27,0,2.54.09,3.81.16,2.54.12,5.08.29,7.62.57v.21c-2.54.33-5.08.54-7.61.71-1.27.09-2.54.15-3.81.22l-3.81.16q-3.81.12-7.61,0l-7.62-.13-15.24-.19c-5.08-.1-10.15-.17-15.23-.29Z"/><path class="cls-8" d="M244,156.8a19.92,19.92,0,0,0,3.66,11.94,11.25,11.25,0,0,0,8.93,4.95h49.69c7,0,12.69-7.56,12.72-16.89a19.94,19.94,0,0,0-3.66-11.94,11.27,11.27,0,0,0-8.93-4.94H256.73C249.74,139.92,244,147.48,244,156.8Z"/><path class="cls-10" d="M281.57,139.91l-.12,33.77h24.84c7,0,12.69-7.56,12.72-16.89v-.43c0-.12,0-.23,0-.35s0-.21,0-.31,0-.31,0-.46,0-.18,0-.26l0-.27c-.05-.59-.12-1.17-.22-1.73-.06-.36-.13-.72-.21-1.07l-.08-.35-.18-.7a18.13,18.13,0,0,0-2.88-6,11.27,11.27,0,0,0-8.93-4.94Z"/><path class="cls-7" d="M247.72,156.87a11.25,11.25,0,0,0,8.93,4.94h49.69c5.42,0,10.06-4.55,11.89-10.94a21.85,21.85,0,0,1,.78,5.93c0,9.33-5.73,16.89-12.72,16.89H256.6a11.25,11.25,0,0,1-8.93-4.95A19.92,19.92,0,0,1,244,156.8a22,22,0,0,1,.83-5.94A18.13,18.13,0,0,0,247.72,156.87Z"/><path class="cls-11" d="M281.49,161.81l0,11.87h24.84c7,0,12.69-7.56,12.72-16.89v-.43c0-.12,0-.23,0-.35s0-.21,0-.31,0-.31,0-.46,0-.18,0-.26l0-.27c-.05-.59-.12-1.17-.22-1.73-.06-.36-.13-.72-.21-1.07l-.08-.35-.18-.7c-1.83,6.39-6.47,10.94-11.89,10.95Z"/><path class="cls-5" d="M307.67,149.69a17.15,17.15,0,0,1-4.29,2.06,24.92,24.92,0,0,1-4.3,1,15,15,0,0,1-4.29,0c-1.43-.22-2.86-.51-4.29-.65q-4.28-.41-8.57-1c-2.86-.41-5.72-.82-8.58-1.35V149c2.86-.53,5.72-.94,8.58-1.35s5.72-.74,8.58-1c1.43-.13,2.87-.42,4.3-.64a14.69,14.69,0,0,1,4.29,0,24.54,24.54,0,0,1,4.28,1,16.77,16.77,0,0,1,4.29,2.05Z"/><path class="cls-4" d="M88.66,94.74s14.62-7.59,24.87-7.2,13.56,2.68,15.55,7.5-5.36,9.45-11,9.08S103.16,102,88.66,94.74Z"/><path class="cls-4" d="M96.34,83.26s5.9-15.35,13.87-21.93,12-7.13,16.72-4.94,2.31,10.52-2.13,14S112.14,78.87,96.34,83.26Z"/><path class="cls-4" d="M73.9,107.21s18-3.77,28.93-.23,13.76,7,14.42,12.85-8.64,8.61-14.53,6.51S87.27,119.52,73.9,107.21Z"/><path class="cls-4" d="M70,116.61s17.94,3.69,26.45,11.29,9.74,12,8,17.6-11.31,4.51-15.84.24S77.25,133.29,70,116.61Z"/><path class="cls-4" d="M62.75,118s6.53,8.84,7.3,15.72-.43,9.36-3.45,11.26-6.85-2.44-7.16-6.21S59.34,128.58,62.75,118Z"/><path class="cls-4" d="M85,90.34S95.6,77.72,97.48,67.62s.4-13.86-3.85-16.86-10.38,3.15-11.26,8.69S81.1,74.55,85,90.34Z"/><path class="cls-4" d="M69.59,102s7.65-16.8,6.62-28.23-3.8-15-9.32-16.94S56.61,63.39,57.34,69.6,60.56,86.22,69.59,102Z"/><path class="cls-4" d="M59.57,103.77S60,85.42,54.44,75.42,45,63.25,39.09,63.68,32.2,73.74,35.36,79.11,45,93,59.57,103.77Z"/><path class="cls-4" d="M56.58,110.51s-7.15-8.34-13.67-10.6-9.21-1.65-11.72.88.86,7.23,4.45,8.37S45.57,111.52,56.58,110.51Z"/><path class="cls-4" d="M101.51,78.78c-1.18.94-2.88,2.33-5,4.1-3,2.51-6.91,5.77-11.46,9.62L83.26,94h0q-.27.21-.54.45h0l-.63.54h0c-3.57,3-7.47,6.34-11.62,9.87l-.89.77h0l-.5.43-.33.27-6.09,5.21h0l-.33.27,0,0-.56.48-.64.54h0L61,113c-11.87,10.15-46.56,39.9-54.85,47.1l-1.94,1.67,1.78.49,1.93-1.68c8.59-7.46,42.7-36.69,54-46.36l.47-.4.68-.58.31-.27h0l.12-.1h0l.79-.67h0l5.67-4.83,1.37-1.17h0L83.29,96l1.95-1.65c6.05-5.12,11-9.26,14.32-12h0c1.11-.91,2-1.66,2.77-2.24S102.3,78.15,101.51,78.78Z"/><path class="cls-4" d="M85.62,86.41c-1.14,2.12-1.44,4.54-2.53,6.68a.77.77,0,0,0,1.37.71c1.09-2.14,1.39-4.56,2.52-6.68a.77.77,0,0,0-1.36-.71Z"/><path class="cls-4" d="M92.77,93.94l-10,.5A.78.78,0,0,0,82.84,96l10-.5a.78.78,0,0,0-.06-1.55Z"/><path class="cls-4" d="M76.47,106.49c-2,.23-4.62.17-6.37-.78a.78.78,0,0,0-.74,1.37,13.06,13.06,0,0,0,7.16,1c1-.12.94-1.67,0-1.55Z"/><path class="cls-4" d="M68.88,98.64a25.12,25.12,0,0,0,0,3.47c0,.69.26,2.93-.07,3.27-.72.71.42,1.75,1.13,1s.53-2.23.52-3.12A36.64,36.64,0,0,1,70.39,99c.1-1-1.41-1.33-1.51-.34Z"/><path class="cls-4" d="M73.12,118.43a39.5,39.5,0,0,0-4.72-3.93c-1.55-1-3.41-1.62-4.84-2.83-.76-.63-1.82.51-1.06,1.15a27.09,27.09,0,0,0,4.29,2.52,30.36,30.36,0,0,1,5.28,4.25c.72.67,1.78-.48,1.05-1.16Z"/><path class="cls-4" d="M57.47,101.2c1.3,2,1.58,4.6,2.36,6.75a26.32,26.32,0,0,1,1.08,4.92c.17,1,1.69.53,1.49-.45-.79-3.87-1.45-8.72-3.61-12.07a.79.79,0,0,0-1.32.85Z"/><path class="cls-4" d="M64.08,120c-.22-2.58-.67-5.13-.79-7.72a.78.78,0,0,0-1.55.07c.11,2.6.57,5.14.79,7.72.08,1,1.64.92,1.55-.07Z"/><path class="cls-4" d="M53.8,110.21a10.63,10.63,0,0,1,4.54,1.24,14.3,14.3,0,0,1,3.85,2.25c.73.68,1.78-.48,1.05-1.15a15.62,15.62,0,0,0-4.58-2.65,11.58,11.58,0,0,0-4.91-1.24.78.78,0,0,0,0,1.55Z"/></svg>