<?xml version="1.0" encoding="utf-8"?>
<!-- Generator: Adobe Illustrator 23.0.0, SVG Export Plug-In . SVG Version: 6.00 Build 0)  -->
<svg version="1.1" id="_ëîé_1" xmlns="http://www.w3.org/2000/svg" xmlns:xlink="http://www.w3.org/1999/xlink" x="0px" y="0px"
	 viewBox="0 0 971.5 601.8" style="enable-background:new 0 0 971.5 601.8;" xml:space="preserve">
<style type="text/css">
	.st0{fill:#FFFFFF;}
	.st1{fill:#E397FF;}
	.st2{fill:#FCF2FC;}
	.st3{fill:#F3D7FF;}
	.st4{fill:#FAEBFF;}
	.st5{fill:#D24AFF;}
	.st6{fill:#E36EFF;}
	.st7{fill:#FF2E57;}
	.st8{fill:#FBC922;}
	.st9{fill:#AB37BF;}
	.st10{fill:#A9F7CA;}
	.st11{fill:#BC2650;}
	.st12{fill:#FFA800;}
	.st13{fill:#0981F3;}
	.st14{fill:#1F1440;}
	.st15{fill:#842489;}
	.st16{fill:#582463;}
	.st17{fill:#FFADAE;}
	.st18{fill:#8E288E;}
	.st19{fill:#FF9395;}
	.st20{fill:#53255E;}
	.st21{fill:#E5B3FF;}
	.st22{fill:#AC1548;}
</style>
<title>banner-right-mobile</title>
<circle class="st0" cx="568.7" cy="9.3" r="4.2"/>
<path class="st1" d="M309.8,539.2h19c1.5,0,2.7,1.2,2.7,2.7v23.6c0,1.5-1.2,2.7-2.7,2.7h-19c-1.5,0-2.7-1.2-2.7-2.7v-23.6
	C307.1,540.4,308.3,539.2,309.8,539.2z"/>
<path class="st2" d="M821.7,602l17.5-34.2c44.3-87,98.2-162,93.5-264.2c-4.3-94.2-46.6-185.8-125-240.8
	c-90.2-63.2-228.9-74-318.3-2.7c-37.9,30.3-63,74.2-98.5,107.3c-40.2,37.5-92.6,55.6-144.4,70.7c-36.6,10.6-73,23.4-104.7,44.4
	c-115.2,76.3-76.7,205.9-47.7,317L821.7,602z"/>
<path class="st3" d="M740.3,301.4c0,0,3.2-10.2,1.7-16.8s-3.3-8.4-6.7-9.2s-5.5,4.5-4.6,8S733.8,292.9,740.3,301.4z"/>
<path class="st3" d="M746.8,295.2c0,0,9.2-5.5,12.5-11.3s3.2-8.5,1.2-11.3s-7.1-0.3-8.8,2.9S747.8,284.6,746.8,295.2z"/>
<path class="st3" d="M733.9,312.3c0,0,0.3-12-3.3-18.6s-6.2-8.1-10-7.9s-4.5,6.5-2.5,10S724.4,305,733.9,312.3z"/>
<path class="st3" d="M728.3,315.8c0,0-4.5-11.2-10.4-15.8s-8.9-5-12.3-3.3s-1.6,7.8,1.7,10.2S716.7,312.9,728.3,315.8z"/>
<path class="st3" d="M728.3,320.6c0,0-6.5-3.3-11-3s-6,1.3-6.9,3.4s2.4,4.1,4.8,3.9S721.8,323.9,728.3,320.6z"/>
<path class="st3" d="M743.5,303.3c0,0,6.9-8.2,13.2-10.5s8.9-1.8,11.3,0.7s-0.8,7-4.3,8.2S754.2,304.1,743.5,303.3z"/>
<path class="st3" d="M737.8,314.5c0,0,10-6.8,17.5-7.3s10.1,0.8,12,4.2s-3,7.3-7.1,7.5S749.1,318.6,737.8,314.5z"/>
<path class="st3" d="M737.8,321.1c0,0,11.8-2.2,18.9,0.2s9,4.8,9.4,8.6s-5.7,5.5-9.5,4.1S746.5,329.3,737.8,321.1z"/>
<path class="st3" d="M733.8,323.8c0,0,6.2,3.7,8.5,7.7s2.1,5.8,0.8,7.6s-4.8,0.2-5.9-2S734.5,331,733.8,323.8z"/>
<path class="st3" d="M749.1,291.4c-0.5,0.9-1.2,2.1-2.1,3.7c-1.3,2.2-2.9,5.1-4.9,8.4l-0.8,1.3l-0.2,0.4l-0.3,0.5
	c-1.5,2.6-3.2,5.5-5,8.5l-0.4,0.7l-0.2,0.4l0,0l-0.1,0.2l-2.7,4.5c0,0.1-0.1,0.2-0.1,0.2l0,0l-0.2,0.4l-0.3,0.5l-0.1,0.1
	c-9.4,15.9-20.7,34.9-29.6,49.7l-0.5,0.8c-6.5,10.7-11.6,19.1-13.6,22.2l-0.8-0.6c2-3,6.9-11.1,13.2-21.5c0.2-0.3,0.3-0.5,0.5-0.8
	c8.9-14.8,20.4-34.1,29.9-50.2l0.2-0.3l0.3-0.5l0.1-0.2c0,0,0-0.1,0-0.1l0.3-0.6c0.8-1.4,1.7-2.8,2.5-4.2c0.2-0.3,0.4-0.7,0.6-1
	c1.9-3.2,3.6-6.1,5.2-8.8l0.8-1.4c2.6-4.5,4.7-8.1,6.1-10.5c0.5-0.8,0.8-1.5,1.1-2S749.4,290.8,749.1,291.4z"/>
<path class="st3" d="M746,302.5c-1.2,1-2.8,1.4-4,2.3c-0.5,0.4-1.2-0.4-0.6-0.8c1.3-0.9,2.8-1.4,4-2.3c0.2-0.2,0.5-0.1,0.7,0.1
	C746.3,302,746.2,302.3,746,302.5L746,302.5z"/>
<path class="st3" d="M740.3,298.7c0.3,2.2,0.6,4.3,0.8,6.5c0,0.3-0.2,0.5-0.5,0.5c-0.2,0-0.4-0.2-0.5-0.4c-0.3-2.2-0.6-4.3-0.8-6.5
	c0-0.3,0.2-0.5,0.5-0.5C740,298.3,740.2,298.5,740.3,298.7z"/>
<path class="st3" d="M734.1,310.5c0,1.4,0.5,2.8,1.3,4c0.4,0.5-0.4,1.1-0.8,0.6c-0.9-1.3-1.4-2.9-1.5-4.5
	C733.1,310,734.1,309.8,734.1,310.5L734.1,310.5z"/>
<path class="st3" d="M740.1,314.6c-0.7,0.2-1.5,0.3-2.2,0.4c-0.5,0.1-1.9,0.2-2.1,0.4c-0.4,0.5-1.2-0.1-0.8-0.6s1.4-0.6,2-0.7
	c0.9-0.1,1.9-0.2,2.8-0.4C740.3,313.5,740.7,314.4,740.1,314.6L740.1,314.6z"/>
<path class="st3" d="M726.8,314c1.1,0.8,2.1,1.7,3.1,2.6c0.7,1,1.5,1.9,2.4,2.8c0.5,0.4-0.1,1.2-0.6,0.8c-0.8-0.8-1.5-1.6-2.1-2.5
	c-1-1.1-2.1-2.1-3.4-2.9c-0.2-0.2-0.2-0.5,0-0.7C726.3,313.9,726.6,313.9,726.8,314L726.8,314z"/>
<path class="st3" d="M739.8,322.2c-1.4-0.6-3.2-0.5-4.6-0.8c-1.1-0.2-2.2-0.2-3.3-0.2c-0.7,0-0.5-1,0.1-1c2.6,0.1,5.8,0,8.2,1
	c0.3,0.1,0.4,0.4,0.2,0.7C740.3,322.1,740,322.2,739.8,322.2L739.8,322.2z"/>
<path class="st3" d="M726.9,320c1.7-0.1,3.4-0.1,5.1-0.3c0.3,0,0.5,0.2,0.6,0.4s-0.2,0.5-0.4,0.6c-1.7,0.2-3.4,0.2-5.1,0.3
	C726.3,321,726.2,320,726.9,320L726.9,320z"/>
<path class="st3" d="M734.4,325.5c-0.2-1-0.7-2-1.3-2.8c-0.5-0.8-1.1-1.6-1.9-2.2c-0.2-0.2-0.3-0.5-0.1-0.7c0.2-0.2,0.5-0.3,0.7-0.1
	c0.9,0.8,1.7,1.7,2.3,2.7c0.7,0.9,1.1,1.9,1.4,3c0,0.3-0.2,0.5-0.4,0.6S734.4,325.8,734.4,325.5L734.4,325.5L734.4,325.5z"/>
<path class="st3" d="M757.2,367.3c0,0,7.5-2.1,10.9-5.6s3.8-5.4,2.9-7.7s-4.9-1.5-6.7,0.4S759.8,360,757.2,367.3z"/>
<path class="st3" d="M763.5,368.8c0,0,7,3.4,11.8,3.1s6.4-1.4,7.3-3.8s-2.6-4.4-5.2-4.2S770.4,365.1,763.5,368.8z"/>
<path class="st3" d="M748.1,367.7c0,0,7.4-4.6,10-9.4s2.5-7,0.8-9.2s-5.7-0.2-7.1,2.5S748.7,359.1,748.1,367.7z"/>
<path class="st3" d="M743.7,365.7c0,0,5-7.2,5.5-12.6s-0.5-7.4-2.9-8.8s-5.3,2.1-5.5,5.1S740.8,357.5,743.7,365.7z"/>
<path class="st3" d="M740.8,367.6c0,0-0.6-5.2-2.5-7.9s-3.2-3.1-4.8-2.8s-1.6,3.1-0.5,4.5S736.2,365,740.8,367.6z"/>
<path class="st3" d="M757.3,370c0,0,7.7,0.9,11.6,3.8s4.6,4.7,4.1,7.1s-4.6,2.3-6.7,0.7S761.1,376.8,757.3,370z"/>
<path class="st3" d="M748.3,371c0,0,8,3.4,11.4,7.7s3.5,6.5,2.3,9s-5.6,1.1-7.4-1.3S750.3,379.4,748.3,371z"/>
<path class="st3" d="M744.3,373.6c0,0,6,6.3,7.4,11.6s0.7,7.3-1.5,9.1s-5.6-1.3-6.3-4.2S742.7,382.2,744.3,373.6z"/>
<path class="st3" d="M741.1,372.3c0,0,0.2,5.3-1.3,8.2s-2.6,3.6-4.3,3.5s-2-2.8-1.2-4.4S737,375.5,741.1,372.3z"/>
<path class="st3" d="M766.8,368.6c-0.7,0-1.7,0.1-3,0.2c-1.8,0.1-4.2,0.3-7,0.4l-1.1,0.1h-0.3h-0.4l0,0l-7.2,0.4h-0.5h-0.5l-3.8,0.2
	h-0.2h-0.3h-0.5c-7.3,0.3-15.5,0.7-23.5,1l-16.7,0.7h-1.2c0.2-0.3,0.3-0.5,0.5-0.8h1.2l17.3-0.7c7.6-0.3,15.3-0.7,22.3-1h0.2h0.4
	h0.3h0.5l0,0l3.5-0.2l0.8,0l0,0l7.4-0.4l1.2-0.1c3.7-0.2,6.8-0.4,8.8-0.5l0,0l1.7-0.1C767.1,367.9,767.2,368.6,766.8,368.6z"/>
<path class="st3" d="M758.8,371.2c-1.1-0.4-2-1.1-3-1.5c-0.2-0.1-0.3-0.3-0.2-0.5c0.1-0.2,0.3-0.3,0.5-0.2c1.1,0.4,2,1.1,3,1.5
	c0.2,0.1,0.2,0.3,0.1,0.5C759.2,371.1,759,371.2,758.8,371.2z"/>
<path class="st3" d="M758.9,366.2l-3.6,3.1c-0.2,0.1-0.4,0-0.5-0.1c-0.1-0.1-0.1-0.3,0-0.4l3.6-3.1c0.2-0.1,0.4-0.1,0.5,0.1
	C759,365.8,759,366,758.9,366.2L758.9,366.2z"/>
<path class="st3" d="M749.2,367.2c-0.9,0.6-1.5,1.4-1.9,2.4c-0.1,0.5-0.8,0.2-0.7-0.2c0.4-1.1,1.2-2,2.2-2.7
	C749.1,366.3,749.6,366.9,749.2,367.2z"/>
<path class="st3" d="M749.1,372.4c-0.4-0.4-0.8-0.8-1.1-1.2c-0.2-0.2-0.8-1.1-1.1-1.1c-0.5,0-0.4-0.8,0.1-0.7s0.9,0.6,1.2,0.9
	c0.4,0.5,0.9,1,1.4,1.5C749.9,372.1,749.5,372.7,749.1,372.4L749.1,372.4z"/>
<path class="st3" d="M744.2,364.1c0,1-0.2,2-0.4,2.9c-0.3,0.8-0.5,1.7-0.8,2.6c0,0.5-0.8,0.4-0.7,0c0.1-0.8,0.4-1.5,0.7-2.3
	c0.3-1,0.4-2.1,0.5-3.2c0-0.2,0.2-0.3,0.4-0.3C744.1,363.8,744.2,363.9,744.2,364.1z"/>
<path class="st3" d="M744.4,375.2c-0.3-1.1-0.8-2.1-1.4-3.1c-0.3-0.7-0.7-1.4-1.2-2.1c-0.3-0.4,0.4-0.7,0.7-0.3
	c1,1.6,2.3,3.5,2.7,5.4c0,0.2-0.2,0.4-0.4,0.4C744.6,375.4,744.5,375.3,744.4,375.2L744.4,375.2z"/>
<path class="st3" d="M740.6,366.5c0.8,1,1.4,2,2.2,3c0.1,0.2,0.1,0.4-0.1,0.5c-0.1,0.1-0.3,0.1-0.5,0c-0.8-1-1.5-2-2.2-3
	C739.8,366.6,740.3,366.1,740.6,366.5z"/>
<path class="st3" d="M740.2,373.3c0.5-0.5,0.9-1.2,1.2-1.9c0.3-0.6,0.5-1.3,0.6-2c0-0.2,0.2-0.3,0.4-0.3c0.2,0,0.3,0.2,0.3,0.3
	c-0.1,0.8-0.3,1.7-0.7,2.4c-0.3,0.8-0.7,1.4-1.3,2c-0.2,0.1-0.4,0.1-0.5-0.1C740.1,373.6,740.1,373.4,740.2,373.3L740.2,373.3z"/>
<path class="st3" d="M696.2,65c0,0-3.2-10.2-1.8-16.8s3.4-8.4,6.8-9.2s5.5,4.5,4.7,8S702.7,56.5,696.2,65z"/>
<path class="st3" d="M689.5,58.9c0,0-9.4-5.5-12.7-11.3s-3.2-8.5-1.2-11.3s7.2-0.4,8.9,2.9S688.6,48.2,689.5,58.9z"/>
<path class="st3" d="M702.6,75.9c0,0-0.3-12,3.3-18.6s6.3-8.1,10.2-7.9s4.6,6.5,2.5,10.1S712.2,68.6,702.6,75.9z"/>
<path class="st3" d="M708.3,79.4c0,0,4.5-11.2,10.5-15.8s9-5,12.5-3.3s1.6,7.8-1.7,10.2S720.1,76.6,708.3,79.4z"/>
<path class="st3" d="M708.3,84.2c0,0,6.6-3.3,11.2-3s6.1,1.3,7,3.4s-2.4,4.1-4.9,3.9S714.8,87.6,708.3,84.2z"/>
<path class="st3" d="M692.8,66.9c0,0-7-8.2-13.4-10.5s-9-1.8-11.5,0.7s0.8,7,4.4,8.2S682,67.7,692.8,66.9z"/>
<path class="st3" d="M698.7,78.1c0,0-10.1-6.7-17.7-7.3s-10.3,0.8-12.2,4.2s3.1,7.3,7.2,7.5S687.2,82.2,698.7,78.1z"/>
<path class="st3" d="M698.6,84.7c0,0-12-2.2-19.2,0.2s-9.1,4.8-9.5,8.6s5.8,5.5,9.7,4.1S689.8,93,698.6,84.7z"/>
<path class="st3" d="M702.7,87.4c0,0-6.3,3.7-8.6,7.7s-2.2,5.7-0.8,7.6s4.8,0.2,6-2S702,94.6,702.7,87.4z"/>
<path class="st3" d="M687.2,55c0.5,0.9,1.2,2.1,2.1,3.7c1.3,2.2,3,5.1,4.9,8.4l0.8,1.3l0.2,0.4c0.1,0.2,0.2,0.3,0.3,0.5
	c1.6,2.6,3.3,5.5,5.1,8.5l0.4,0.7l0.2,0.4l0,0c0,0.1,0.1,0.2,0.1,0.2c0.9,1.5,1.8,3,2.7,4.5c0,0.1,0.1,0.2,0.1,0.2l0,0l0.2,0.4
	l0.3,0.5l0.1,0.1c9.5,15.9,21,34.9,30.1,49.7l0.5,0.8c6.6,10.7,11.8,19.1,13.8,22.2l0.8-0.6c-2-3-7-11.1-13.4-21.5
	c-0.2-0.2-0.3-0.5-0.5-0.8c-9.1-14.8-20.7-34.1-30.4-50.2l-0.2-0.3l-0.3-0.5l-0.1-0.2l-0.1-0.1l-0.3-0.6l-2.5-4.2l-0.6-1
	c-1.9-3.2-3.7-6.1-5.3-8.8c-0.3-0.5-0.6-1-0.8-1.4c-2.6-4.5-4.8-8.1-6.2-10.5l-1.1-2C687.9,54.1,686.9,54.5,687.2,55z"/>
<path class="st3" d="M690.3,66.1c1.3,1,2.8,1.4,4.1,2.3c0.5,0.4,1.2-0.4,0.6-0.8c-1.3-0.9-2.8-1.4-4.1-2.3
	C690.4,64.9,689.8,65.7,690.3,66.1z"/>
<path class="st3" d="M696.1,62.3l-0.9,6.5c0,0.3,0.3,0.5,0.6,0.5c0.2,0,0.4-0.1,0.4-0.3c0.3-2.2,0.6-4.3,0.9-6.5
	c0-0.3-0.2-0.5-0.5-0.5C696.4,61.9,696.2,62.1,696.1,62.3L696.1,62.3z"/>
<path class="st3" d="M702.4,74.2c0,1.4-0.5,2.8-1.3,4c-0.4,0.5,0.4,1.1,0.8,0.6c0.9-1.3,1.4-2.9,1.5-4.5
	C703.4,73.6,702.4,73.5,702.4,74.2L702.4,74.2z"/>
<path class="st3" d="M696.4,78.2c0.7,0.2,1.5,0.3,2.3,0.4c0.5,0.1,2,0.2,2.1,0.4c0.4,0.5,1.2-0.1,0.8-0.6s-1.4-0.6-2-0.7
	c-1-0.1-1.9-0.2-2.8-0.4C696.1,77.1,695.7,78,696.4,78.2L696.4,78.2z"/>
<path class="st3" d="M709.8,77.6c-1.1,0.8-2.2,1.7-3.1,2.6c-0.8,1-1.6,1.9-2.4,2.8c-0.5,0.4,0.1,1.2,0.6,0.8
	c0.8-0.8,1.5-1.6,2.2-2.5c1-1.1,2.2-2.1,3.4-2.9C711,78,710.4,77.2,709.8,77.6L709.8,77.6z"/>
<path class="st3" d="M696.7,85.8c1.5-0.6,3.2-0.5,4.7-0.8c1.1-0.2,2.2-0.2,3.3-0.2c0.7,0,0.5-1-0.1-1c-2.6,0.1-5.9,0-8.3,1
	c-0.2,0.1-0.3,0.5-0.2,0.7C696.2,85.8,696.4,85.9,696.7,85.8L696.7,85.8z"/>
<path class="st3" d="M709.8,83.6c-1.7-0.1-3.4-0.1-5.2-0.3c-0.3,0-0.5,0.2-0.5,0.5c0,0.2,0.2,0.4,0.4,0.5c1.7,0.2,3.4,0.2,5.2,0.3
	C710.3,84.6,710.4,83.6,709.8,83.6L709.8,83.6z"/>
<path class="st3" d="M702.1,89.2c0.2-1,0.7-2,1.4-2.8c0.5-0.8,1.2-1.6,1.9-2.2c0.5-0.4-0.1-1.2-0.6-0.8c-0.9,0.8-1.7,1.7-2.3,2.7
	c-0.7,0.9-1.2,1.9-1.4,3c0,0.3,0.2,0.5,0.5,0.5C701.9,89.5,702.1,89.4,702.1,89.2L702.1,89.2z"/>
<path class="st3" d="M679,130.9c0,0-7.6-2.1-11-5.6s-3.9-5.4-3-7.7s5-1.5,6.8,0.4S676.3,123.6,679,130.9z"/>
<path class="st3" d="M672.5,132.4c0,0-7.1,3.4-12,3.1s-6.5-1.4-7.5-3.8s2.6-4.4,5.3-4.2S665.6,128.8,672.5,132.4z"/>
<path class="st3" d="M688.2,131.4c0,0-7.5-4.6-10.2-9.4s-2.5-7-0.8-9.2s5.8-0.2,7.2,2.5S687.6,122.7,688.2,131.4z"/>
<path class="st3" d="M692.7,129.4c0,0-5.1-7.2-5.5-12.6s0.5-7.4,3-8.8s5.4,2.1,5.6,5.1S695.6,121.2,692.7,129.4z"/>
<path class="st3" d="M695.6,131.2c0,0,0.6-5.2,2.6-7.9s3.2-3.1,4.9-2.8s1.6,3.1,0.5,4.5S700.3,128.7,695.6,131.2z"/>
<path class="st3" d="M678.8,133.6c0,0-7.8,0.9-11.8,3.8s-4.7,4.7-4.2,7.2s4.7,2.3,6.8,0.7S675,140.4,678.8,133.6z"/>
<path class="st3" d="M688,134.6c0,0-8.2,3.3-11.5,7.7s-3.6,6.5-2.3,9s5.7,1.1,7.5-1.3S686,143.1,688,134.6z"/>
<path class="st3" d="M692.1,137.3c0,0-6.1,6.3-7.5,11.6s-0.7,7.3,1.5,9.1s5.7-1.3,6.3-4.2S693.6,145.8,692.1,137.3z"/>
<path class="st3" d="M695.3,135.9c0,0-0.2,5.3,1.3,8.2s2.7,3.6,4.4,3.5s2.1-2.8,1.2-4.4S699.5,139.2,695.3,135.9z"/>
<path class="st3" d="M669.3,132.3c0.7,0.1,1.8,0.1,3.1,0.2c1.9,0.1,4.3,0.3,7.1,0.4h1.1l0,0h0.3l0,0h0.4l0,0l7.3,0.4h0.6l0,0h0.3
	h0.2l3.8,0.2h0.6h0.4h0.1c7.5,0.3,15.8,0.7,23.8,1c5.9,0.3,11.7,0.5,16.9,0.7h1.2c-0.2-0.2-0.3-0.5-0.5-0.8h-1.2
	c-5.4-0.2-11.4-0.5-17.5-0.7c-7.7-0.3-15.6-0.7-22.7-1h-0.3h-0.4h-0.3h-0.5l0,0l-3.6-0.2h-0.9l0,0l-7.5-0.4l-1.2,0.1
	c-3.8-0.2-6.9-0.4-8.9-0.5l0,0l-1.7-0.1C668.9,131.5,668.8,132.2,669.3,132.3z"/>
<path class="st3" d="M677.3,134.8c1.1-0.4,2-1.1,3.1-1.5c0.2-0.1,0.2-0.3,0.1-0.5c-0.1-0.1-0.2-0.2-0.4-0.2c-1.1,0.4-2,1.1-3.1,1.5
	c-0.2,0.1-0.3,0.3-0.2,0.5C676.9,134.8,677.1,134.9,677.3,134.8z"/>
<path class="st3" d="M677.3,129.8l3.7,3.1c0.2,0.1,0.4,0.1,0.5,0c0.1-0.2,0.1-0.4,0-0.5l0,0l-3.7-3.1
	C677.4,129,676.9,129.5,677.3,129.8L677.3,129.8z"/>
<path class="st3" d="M687.1,130.8c0.9,0.6,1.6,1.4,2,2.3c0.1,0.5,0.8,0.2,0.7-0.2c-0.5-1.1-1.2-2-2.2-2.7
	C687.2,129.9,686.7,130.5,687.1,130.8L687.1,130.8z"/>
<path class="st3" d="M687.2,136c0.4-0.4,0.8-0.8,1.1-1.2c0.2-0.3,0.9-1.1,1.1-1.1c0.5,0,0.4-0.8-0.1-0.7s-0.9,0.6-1.2,0.9
	c-0.4,0.5-0.9,1-1.4,1.5C686.4,135.7,686.8,136.3,687.2,136z"/>
<path class="st3" d="M692.1,127.7c0,1,0.2,2,0.4,2.9c0.3,0.8,0.6,1.7,0.8,2.6c0,0.5,0.8,0.4,0.7-0.1c-0.1-0.8-0.4-1.5-0.7-2.3
	c-0.3-1-0.4-2.1-0.5-3.2c0-0.2-0.2-0.3-0.4-0.3C692.3,127.4,692.2,127.5,692.1,127.7L692.1,127.7z"/>
<path class="st3" d="M692,138.8c0.4-1.1,0.8-2.1,1.4-3.1c0.3-0.7,0.8-1.4,1.2-2.1c0.3-0.4-0.4-0.7-0.7-0.3c-1,1.6-2.3,3.5-2.7,5.4
	c0,0.2,0.1,0.4,0.3,0.4S692,139.1,692,138.8z"/>
<path class="st3" d="M695.8,130.2c-0.8,1-1.5,2-2.3,3c-0.1,0.2-0.1,0.4,0.1,0.5c0.1,0.1,0.3,0.1,0.5,0c0.8-0.9,1.5-2,2.3-3
	C696.7,130.3,696.1,129.8,695.8,130.2z"/>
<path class="st3" d="M696.2,136.9c-0.5-0.5-0.9-1.2-1.2-1.9c-0.3-0.6-0.5-1.3-0.6-2c0-0.2-0.2-0.4-0.4-0.3c-0.2,0-0.4,0.2-0.3,0.4
	c0.1,0.8,0.3,1.7,0.7,2.4c0.3,0.8,0.7,1.4,1.3,2C696.1,137.7,696.6,137.2,696.2,136.9L696.2,136.9z"/>
<path class="st4" d="M285,411.9c0,0-0.2-11,3.2-17.1s5.8-7.3,9.4-7.1s4.2,6,2.3,9.3S293.9,405.4,285,411.9z"/>
<path class="st4" d="M280.2,403.9c0,0-7.6-8.1-9.3-14.8s-0.7-9.3,2.1-11.5s7.2,1.7,8,5.4S282.4,393.1,280.2,403.9z"/>
<path class="st4" d="M288.1,424.5c0,0,3.2-12,8.7-17.4s8.5-6.2,12.3-4.8s2.7,7.8-0.4,10.7S299.8,420.2,288.1,424.5z"/>
<path class="st4" d="M292.7,429.6c0,0,7.7-9.7,15-12.5s10.3-2.3,13.3,0.4s-0.7,8.1-4.7,9.6S305.2,430.2,292.7,429.6z"/>
<path class="st4" d="M291.4,434.4c0,0,7.4-1.3,11.9,0.3s5.6,3,5.9,5.4s-3.6,3.4-6,2.4S296.8,439.6,291.4,434.4z"/>
<path class="st4" d="M281.1,412.8c0,0-4.5-10.1-10.2-14.3s-8.4-4.3-11.5-2.7s-1.2,7.2,1.9,9.3S270.2,410.5,281.1,412.8z"/>
<path class="st4" d="M283.6,425.5c0,0-8-9.6-15.4-12.4s-10.4-2.2-13.3,0.5s0.9,8.1,4.9,9.5C264,424.7,271.1,426.3,283.6,425.5z"/>
<path class="st4" d="M281.6,432.1c0,0-11.2-5.7-19-5.4s-10.4,2.1-11.9,5.7s4.1,7.1,8.4,6.8S270.5,437.6,281.6,432.1z"/>
<path class="st4" d="M284.9,435.9c0,0-7.3,1.8-10.7,5s-3.8,5-3,7.3s4.7,1.6,6.5-0.2S282.1,442.8,284.9,435.9z"/>
<path class="st4" d="M279.1,399.5c0.2,1,0.5,2.4,1,4.2c0.6,2.6,1.4,5.9,2.4,9.8c0.1,0.5,0.3,1,0.4,1.5l0.1,0.5
	c0,0.2,0.1,0.4,0.1,0.5c0.8,3,1.6,6.4,2.5,9.9c0.1,0.3,0.1,0.5,0.2,0.8s0.1,0.3,0.1,0.4l0,0c0,0.1,0,0.2,0.1,0.3
	c0.4,1.7,0.9,3.4,1.3,5.2c0,0.1,0,0.2,0.1,0.3l0,0l0.1,0.5c0,0.2,0.1,0.4,0.1,0.6v0.1c4.8,18.5,10.6,40.6,15.2,57.8l0.2,0.9
	c3.3,12.5,2.8,12.8,3.9,16.4l1-0.4c-1.1-3.6-0.5-3.5-3.7-15.7l-0.2-0.9c-4.6-17.3-10.5-39.7-15.4-58.4c0-0.1-0.1-0.3-0.1-0.4
	l-0.1-0.6c0-0.1-0.1-0.2-0.1-0.3v-0.1c-0.1-0.2-0.1-0.4-0.2-0.7c-0.4-1.7-0.8-3.3-1.2-4.8l-0.3-1.2c-1-3.7-1.8-7.1-2.6-10.3
	c-0.1-0.6-0.3-1.1-0.4-1.7c-1.3-5.2-2.4-9.4-3-12.2c-0.2-0.9-0.4-1.7-0.5-2.3C280,398.7,278.9,398.8,279.1,399.5z"/>
<path class="st4" d="M278.9,411.3c1,1.3,2.4,2.2,3.3,3.5c0.4,0.5,1.3-0.1,0.9-0.6c-1-1.3-2.4-2.2-3.3-3.5c-0.2-0.2-0.5-0.2-0.7,0
	C278.8,410.8,278.8,411.1,278.9,411.3z"/>
<path class="st4" d="M285.7,409.2c-0.9,2.1-1.8,4.1-2.7,6.2c-0.1,0.3,0,0.6,0.3,0.7c0.3,0.1,0.6,0,0.7-0.3c0.9-2,1.8-4.1,2.7-6.2
	c0.1-0.3,0-0.6-0.3-0.7C286.2,408.8,285.8,408.9,285.7,409.2L285.7,409.2z"/>
<path class="st4" d="M288.5,422.7c-0.4,1.4-1.3,2.7-2.4,3.6c-0.6,0.4,0.1,1.2,0.6,0.8c1.3-1,2.2-2.4,2.8-4
	C289.7,422.5,288.7,422.1,288.5,422.7L288.5,422.7z"/>
<path class="st4" d="M281.3,425c0.7,0.4,1.4,0.7,2.1,1c0.4,0.2,1.9,0.7,2,1c0.1,0.3,0.4,0.4,0.7,0.3c0.3-0.1,0.4-0.4,0.3-0.7l0,0
	c-0.2-0.6-1.2-1-1.8-1.2c-0.9-0.3-1.8-0.7-2.7-1.2C281.4,423.8,280.8,424.6,281.3,425L281.3,425z"/>
<path class="st4" d="M294.8,428.3c-1.3,0.5-2.6,1-3.9,1.7c-1,0.7-2.1,1.4-3.2,2.1c-0.6,0.3-0.2,1.3,0.4,1c1-0.5,2-1.2,2.9-1.9
	c1.3-0.8,2.7-1.4,4.2-1.9c0.3-0.1,0.4-0.4,0.3-0.7C295.4,428.3,295.1,428.2,294.8,428.3L294.8,428.3z"/>
<path class="st4" d="M279.4,432.6c1.6-0.2,3.3,0.4,4.9,0.6c1.1,0.2,2.3,0.4,3.4,0.8c0.7,0.2,0.8-0.9,0.2-1c-2.6-0.7-5.8-1.7-8.5-1.4
	c-0.3,0.1-0.4,0.4-0.3,0.7C279.1,432.4,279.2,432.5,279.4,432.6L279.4,432.6z"/>
<path class="st4" d="M293,434.2c-1.7-0.6-3.4-1.1-5-1.8c-0.3-0.1-0.6,0-0.7,0.3s0,0.6,0.3,0.7c1.6,0.7,3.3,1.2,5,1.8
	C293.2,435.4,293.6,434.5,293,434.2z"/>
<path class="st4" d="M283.9,437.5c0.5-0.9,1.3-1.7,2.1-2.4c0.8-0.7,1.6-1.2,2.6-1.6c0.3-0.1,0.4-0.4,0.3-0.7
	c-0.1-0.3-0.4-0.4-0.7-0.3c-1.1,0.5-2.1,1.2-3,2c-0.9,0.7-1.7,1.6-2.3,2.6c-0.1,0.3,0,0.6,0.3,0.7
	C283.5,437.9,283.8,437.7,283.9,437.5L283.9,437.5L283.9,437.5z"/>
<path class="st4" d="M248.8,471.9c0,0-6.9-4.3-9.3-8.8s-2.2-6.4-0.7-8.5s5.3-0.1,6.6,2.4S248.3,463.9,248.8,471.9z"/>
<path class="st4" d="M242,471.5c0,0-8,1.3-12.8-0.4s-6-3.3-6.3-5.9s3.9-3.6,6.5-2.6S236.2,465.9,242,471.5z"/>
<path class="st4" d="M257.8,475.1c0,0-6.1-6.7-7.3-12.2s-0.4-7.6,1.9-9.3s5.8,1.5,6.4,4.6S259.7,466.3,257.8,475.1z"/>
<path class="st4" d="M262.8,474.4c0,0-2.9-8.5-1.8-14s2.6-7.1,5.5-7.8s4.7,3.7,4,6.7S268,467.2,262.8,474.4z"/>
<path class="st4" d="M265.2,477.1c0,0,2.1-5,4.9-7s4.1-2.2,5.6-1.3s0.7,3.5-0.9,4.6S270.5,475.9,265.2,477.1z"/>
<path class="st4" d="M247.9,474.6c0,0-8-1.4-12.8,0.3s-6,3.3-6.2,5.8s3.9,3.6,6.5,2.6S242.1,480.2,247.9,474.6z"/>
<path class="st4" d="M256.7,478.2c0,0-9,0.9-13.6,4.2s-5.4,5.3-4.9,8.2s5.3,2.7,7.8,0.9S252.2,486,256.7,478.2z"/>
<path class="st4" d="M259.9,482c0,0-7.9,4.4-10.8,9.2s-2.8,7.1-1.1,9.4s6,0.4,7.5-2.3C257,495.7,259,490.9,259.9,482z"/>
<path class="st4" d="M263.5,481.6c0,0-1.8,5.1-1.1,8.4s1.6,4.3,3.3,4.8s2.9-2.2,2.4-4S266.7,486,263.5,481.6z"/>
<path class="st4" d="M238.8,470.4c0.7,0.3,1.7,0.7,3,1.1c1.8,0.7,4.2,1.5,6.9,2.5l1.1,0.4l0,0l0.3,0.1l0,0l0.4,0.1l0,0l7.1,2.5
	l0.5,0.2l0,0l0.3,0.1l0.2,0.1l3.7,1.3l0,0l0.2,0.1l0,0l0.3,0.1l0.4,0.1l0,0h0.1c7.3,2.5,15.3,5.3,23.2,8l16.5,5.6l1.2,0.4l-0.2-0.9
	l-1.2-0.4c-5.3-1.8-11.1-3.8-17.1-5.8c-7.5-2.6-15.2-5.2-22.1-7.6l-0.3-0.1l-0.4-0.1l-0.2-0.1l0,0h-0.1l0,0l-0.5-0.2l0,0l-3.5-1.2
	l-0.8-0.3l0,0l-7.3-2.6l-1.2-0.4c-3.7-1.3-6.7-2.4-8.6-3.1l0,0l-1.6-0.6C238.7,469.6,238.4,470.2,238.8,470.4z"/>
<path class="st4" d="M246,475.3c1.2,0,2.3-0.5,3.5-0.6c0.2,0,0.4-0.2,0.4-0.4s-0.2-0.4-0.4-0.4l0,0c-1.2,0.1-2.3,0.5-3.5,0.6
	c-0.2,0-0.4,0.2-0.4,0.4S245.8,475.3,246,475.3L246,475.3z"/>
<path class="st4" d="M247.5,470.4l2.7,4.1c0.1,0.2,0.3,0.2,0.5,0.1c0.2-0.1,0.2-0.3,0.1-0.5l-2.7-4.1c-0.1-0.2-0.3-0.2-0.5-0.1
	C247.4,470,247.3,470.2,247.5,470.4L247.5,470.4z"/>
<path class="st4" d="M256.8,474.2c0.7,0.8,1.1,1.8,1.3,2.9c0,0.2,0.2,0.4,0.4,0.3c0.2,0,0.3-0.2,0.3-0.3c-0.1-1.2-0.6-2.3-1.4-3.3
	C257.2,473.4,256.5,473.8,256.8,474.2L256.8,474.2z"/>
<path class="st4" d="M255.4,479.3c0.5-0.3,1-0.5,1.5-0.9c0.3-0.2,1.2-0.8,1.4-0.8c0.5,0.1,0.6-0.6,0.2-0.7s-1.1,0.3-1.5,0.6
	c-0.6,0.4-1.2,0.8-1.8,1.1C254.7,478.8,255,479.5,255.4,479.3L255.4,479.3z"/>
<path class="st4" d="M262.8,472.6c-0.2,1-0.4,2-0.5,3c0,0.9,0,1.8,0,2.8c-0.1,0.5,0.7,0.6,0.8,0.2c0.1-0.8,0.1-1.6,0-2.4
	c0-1.1,0.2-2.2,0.5-3.3C263.6,472.3,262.9,472.1,262.8,472.6L262.8,472.6z"/>
<path class="st4" d="M259.3,483.5c0.7-1,1.4-1.9,2.3-2.7c0.6-0.6,1.2-1.2,1.8-1.7c0.4-0.3-0.2-0.8-0.6-0.5c-1.5,1.3-3.3,2.8-4.2,4.6
	c-0.1,0.2,0.1,0.4,0.3,0.5C259.1,483.7,259.2,483.7,259.3,483.5z"/>
<path class="st4" d="M265.6,476.1c-1,0.7-2,1.6-3.1,2.3c-0.2,0.1-0.2,0.4-0.1,0.5c0.1,0.2,0.4,0.2,0.5,0.1c1.1-0.7,2-1.5,3.1-2.3
	C266.5,476.4,266.1,475.8,265.6,476.1z"/>
<path class="st4" d="M264.1,482.9c-0.4-0.7-0.6-1.5-0.6-2.2c-0.1-0.7-0.1-1.5,0-2.2c0-0.2-0.1-0.4-0.3-0.4c-0.2,0-0.4,0.1-0.4,0.3
	c-0.1,0.9-0.1,1.7,0,2.6c0.1,0.8,0.3,1.7,0.7,2.4C263.7,483.7,264.3,483.3,264.1,482.9L264.1,482.9z"/>
<path class="st0" d="M926.7,348.6c14.2,6,20.9,22.3,14.9,36.5c-6,14.2-22.3,20.9-36.5,14.9c-14.2-6-20.9-22.3-14.9-36.5
	C896.1,349.3,912.4,342.7,926.7,348.6C926.6,348.6,926.6,348.6,926.7,348.6z"/>
<path class="st0" d="M864.5,352.8c-4.1,9.7-5.3,20.4-3.5,30.8c1.5,8.6,4.9,16.7,10.1,23.8c5.9,8.1,13.9,14.4,23.2,18.3
	c28.3,11.9,61-1.4,72.9-29.7c11.9-28.3-1.4-61-29.7-72.9S876.5,324.4,864.5,352.8C864.6,352.8,864.6,352.8,864.5,352.8L864.5,352.8z
	 M956,341.3c18.2,22.2,15,55-7.2,73.2c-14.9,12.2-35.3,15.2-53.1,7.8c-7.1-3-13.4-7.5-18.5-13.2c-6.7-7.5-11.1-16.7-12.7-26.7
	c-4.4-28.4,15-55,43.3-59.4C926,320.2,944.3,327.1,956,341.3z"/>
<path class="st0" d="M481.9,56.3c14.2,6,20.9,22.3,14.9,36.5s-22.3,20.9-36.5,14.9c-14.2-6-20.9-22.3-14.9-36.5c0,0,0,0,0,0
	C451.3,57,467.7,50.3,481.9,56.3z"/>
<path class="st0" d="M419.7,60.4c-11.9,28.3,1.5,60.9,29.8,72.8c28.3,11.9,60.9-1.5,72.8-29.8c11.9-28.3-1.4-60.9-29.7-72.8
	c-28.2-12-60.8,1.2-72.7,29.4C419.8,60.2,419.8,60.3,419.7,60.4z M511.2,49c18.2,22.2,15,55-7.2,73.2c-14.9,12.2-35.3,15.2-53.1,7.7
	c-7.1-2.9-13.4-7.4-18.5-13.2c-19.2-21.4-17.4-54.2,4-73.4c14.9-13.4,36.3-17,54.8-9.3C499,37.3,505.9,42.4,511.2,49z"/>
<path class="st0" d="M881.5,284.7c4.3,1.8,6.3,6.7,4.5,11c-1.8,4.3-6.7,6.3-11,4.5c-4.3-1.8-6.3-6.7-4.5-11c0,0,0,0,0,0
	C872.3,284.9,877.3,282.9,881.5,284.7z"/>
<circle class="st0" cx="837.2" cy="286" r="8.4"/>
<path class="st0" d="M805,339.2c2.1,0.9,3.1,3.4,2.2,5.5c-0.9,2.1-3.4,3.1-5.5,2.2c-2.1-0.9-3.1-3.4-2.2-5.5c0,0,0,0,0,0
	C800.4,339.3,802.9,338.3,805,339.2z"/>
<path class="st0" d="M862.8,285.9c-3.6,8.6,0.4,18.4,9,22c8.6,3.6,18.4-0.4,22-9c3.6-8.6-0.4-18.4-9-22c-8.5-3.6-18.3,0.3-21.9,8.8
	C862.8,285.8,862.8,285.9,862.8,285.9z M890.4,282.5c5.5,6.7,4.5,16.6-2.2,22.1c-4.5,3.7-10.7,4.6-16,2.3c-2.1-0.9-4-2.3-5.6-4
	c-2-2.2-3.3-5-3.8-8c-1.3-8.6,4.5-16.6,13.1-18C881.3,276.1,886.9,278.2,890.4,282.5L890.4,282.5z"/>
<path class="st0" d="M815.4,315.8c1.5,0.7,2.2,2.4,1.6,3.9s-2.4,2.2-3.9,1.6c-1.5-0.6-2.2-2.4-1.6-3.9
	C812.1,315.9,813.8,315.2,815.4,315.8C815.4,315.8,815.4,315.8,815.4,315.8z"/>
<path class="st0" d="M803.4,314c-0.9,2.1-1.1,4.3-0.8,6.5c0.3,1.8,1.1,3.5,2.1,5c3.8,5.3,11.2,6.5,16.5,2.7
	c5.3-3.8,6.5-11.2,2.7-16.5c-0.2-0.2-0.3-0.4-0.5-0.6c-1.2-1.5-2.8-2.7-4.6-3.5C812.8,305.2,805.9,308,803.4,314z M822.7,311.6
	c3.9,4.7,3.2,11.6-1.5,15.5c-3.2,2.6-7.5,3.2-11.3,1.7c-1.5-0.6-2.8-1.6-3.9-2.8c-1.4-1.6-2.4-3.5-2.7-5.7c-0.3-2-0.1-4.1,0.7-6
	c2.3-5.6,8.8-8.2,14.4-5.9c0,0,0,0,0,0C820.2,309.1,821.6,310.2,822.7,311.6z"/>
<circle class="st0" cx="855.2" cy="340.8" r="4.2"/>
<path class="st0" d="M594.3,131c-4.1,2.1-9.2,0.5-11.4-3.6c-2.1-4.1-0.5-9.2,3.6-11.4c4.1-2.1,9.2-0.5,11.4,3.6c0,0,0,0,0,0
	C600,123.7,598.4,128.8,594.3,131z"/>
<path class="st0" d="M625.5,103.5c-4.1,2.2-9.2,0.6-11.4-3.6s-0.6-9.2,3.6-11.4c4.1-2.2,9.2-0.6,11.4,3.6c0,0,0,0,0,0
	C631.2,96.3,629.6,101.4,625.5,103.5z"/>
<path class="st0" d="M605.3,115.7c-1.5-2.8-3.7-5.2-6.5-6.8c-2.3-1.3-4.8-2.1-7.5-2.2c-3-0.2-6.1,0.4-8.7,1.8
	c-8.2,4.3-11.5,14.4-7.2,22.7c2.9,5.5,8.5,9,14.7,9.1c2.8,0.1,5.5-0.6,8-1.9C606.4,134.1,609.6,124,605.3,115.7z M590.3,139.2
	c-8.7,0-15.7-7.1-15.6-15.8c0-5.8,3.3-11.2,8.5-13.8c2.1-1.1,4.3-1.7,6.6-1.8c3-0.1,6,0.6,8.7,2.2c7.4,4.4,9.9,14.1,5.4,21.5
	C601,136.3,595.9,139.2,590.3,139.2L590.3,139.2z"/>
<path class="st0" d="M612.6,60.2c-1.5,0.8-3.3,0.2-4-1.3c-0.8-1.5-0.2-3.3,1.3-4c1.5-0.8,3.3-0.2,4,1.3
	C614.7,57.6,614.1,59.4,612.6,60.2C612.6,60.2,612.6,60.2,612.6,60.2z"/>
<path class="st0" d="M621.7,52.1c-1-2-2.6-3.6-4.5-4.8c-1.6-0.9-3.4-1.5-5.2-1.6c-6.5-0.5-12.1,4.4-12.6,10.9
	c-0.5,6.5,4.4,12.1,10.9,12.6c0.3,0,0.5,0,0.8,0c2,0,3.9-0.4,5.6-1.3C622.5,65,624.7,57.9,621.7,52.1z M611.2,68.5
	c-6.1,0-11-5-11-11c0-4.1,2.3-7.9,6-9.7c1.4-0.8,3-1.2,4.7-1.2c6.1-0.1,11.1,4.7,11.2,10.8S617.3,68.4,611.2,68.5L611.2,68.5z"/>
<path class="st0" d="M570.6,71.7c1.8,1.5,2,4.1,0.5,5.9c-1.5,1.8-4.1,2-5.9,0.5c-1.8-1.5-2-4.1-0.5-5.9S568.8,70.2,570.6,71.7
	C570.6,71.7,570.6,71.7,570.6,71.7z"/>
<path class="st0" d="M776.9,384.2c-2.1,0.3-4.1-1.1-4.5-3.2c-0.3-2.1,1.1-4.1,3.2-4.5c2.1-0.3,4.1,1.1,4.5,3.2c0,0,0,0,0,0
	C780.5,381.8,779,383.8,776.9,384.2z"/>
<path class="st5" d="M779.7,493.8c0.9-1.2,2-2.2,3-3.3c0.7-1,1.4-2.1,2-3.2c0.1-0.2,0.1-0.5-0.2-0.6s-0.5-0.1-0.6,0.2
	c-0.7,1.3-1.5,2.5-2.4,3.6c-0.9,0.9-1.8,1.9-2.6,2.9C778.6,493.8,779.3,494.3,779.7,493.8L779.7,493.8z"/>
<path class="st6" d="M783.6,489.5c0,0-19-7.3,3.5-26.4c0,0,6.4-4.4,10.6-3.4C799,460,804,492.8,783.6,489.5z"/>
<path class="st5" d="M768.7,516.1c0,0-12.8-16.1-24.5,6.8c-2.3,4.4-2.6,9.6-0.8,14.2c0,0.1,0,0.1,0.1,0.2c0.1,0.2,0.1,0.3,0.2,0.5
	c0.2,1.2,0.2,2.3-0.1,3.5c-0.2,0.4,0,0.9,0.4,1c0.1,0,0.1,0,0.2,0.1c5.3,0.7,24.4,2.2,29.9-11.7
	C778.5,519.2,768.7,516.1,768.7,516.1z"/>
<path class="st5" d="M789.4,506.4c0,0-7-7.1,2.3-11.3c8.6-3.9,11.9,2.9,16.6,2.6c0.3,0,0.6,0.2,0.7,0.6c0,0.1,0,0.2-0.1,0.3
	C806.8,502.9,798.8,518.1,789.4,506.4z"/>
<path class="st7" d="M774.4,502.3c0,0,6.1-23.7-35.8-20.4C738.6,481.9,738,517.7,774.4,502.3z"/>
<path class="st5" d="M778.6,392.3l3.6,156.4c0.1,1.6-1.1,2.9-2.7,3c-1.6,0.1-2.9-1.1-3-2.7c0-0.1,0-0.2,0-0.3
	c0.2-21.4,1.3-150.8,0-156.5L778.6,392.3z"/>
<path class="st8" d="M776.3,392.9c-0.7,0.1-1.2,0.2-1.2,0.2s-24,4-16-32.9c0-1.6-0.2-3.2-0.6-4.7c-0.1-0.4-0.2-0.7-0.3-1.1
	c0,0,27.5,0.5,32.2,18.5C794.4,388.2,780.5,392.1,776.3,392.9z"/>
<path class="st9" d="M744.6,375.4c0,0,26.3,5.3,24,24.6C768.5,400,757.2,415.7,744.6,375.4z"/>
<path class="st5" d="M781,514.3c1.1-2.5,2.3-5,4.4-6.8c1.8-1.6,4.2-2,6.1-3.5c0.4-0.3-0.2-1-0.6-0.6c-1.1,0.7-2.3,1.3-3.6,1.7
	c-1.1,0.6-2.1,1.4-3,2.2c-1.8,1.9-3.1,4.1-4,6.6C780.1,514.4,780.8,514.9,781,514.3L781,514.3z"/>
<path class="st5" d="M767.1,517.3c2-2.8,8.8-4.1,11.4-1.5c0.4,0.4,1-0.2,0.6-0.6c-3-3.1-10.4-1.7-12.8,1.6
	C766,517.4,766.8,517.8,767.1,517.3z"/>
<path class="st5" d="M780.7,530.7c5-5.9,13.2-5.5,17.4,1c0.3,0.5,1.1,0,0.8-0.4c-4.5-7-13.4-7.5-18.8-1.2
	C779.7,530.5,780.3,531.1,780.7,530.7L780.7,530.7z"/>
<path class="st5" d="M773.4,464.4c1,0.5,2,1,2.9,1.7c0.6,0.7,1.3,1.2,2.1,1.8c0.2,0.1,0.5,0.1,0.6-0.2c0.1-0.2,0.1-0.5-0.2-0.6
	c-0.8-0.6-1.6-1.3-2.3-2c-0.9-0.5-1.8-1-2.7-1.5c-0.2-0.1-0.5,0-0.6,0.2C773.2,464,773.2,464.2,773.4,464.4L773.4,464.4z"/>
<path class="st5" d="M779,456.5c2.3-2.7,5.5-3.8,8.7-4.9c0.5-0.2,0.3-1-0.2-0.8c-3.3,1.2-6.7,2.3-9.1,5.1
	C778,456.3,778.6,456.8,779,456.5z"/>
<path class="st5" d="M756.5,415.5c6.7,4.3,18.5,7.7,21.4,16.1c0.2,0.5,1,0.3,0.8-0.2c-3-8.7-14.9-12.2-21.8-16.7
	C756.5,414.4,756.1,415.2,756.5,415.5L756.5,415.5z"/>
<path class="st5" d="M779,425.9c1-3.4,4.2-7.2,6.5-9.7c2.2-2.4,4.7-5.1,7.5-6.7c0.2-0.1,0.3-0.4,0.2-0.6c-0.1-0.2-0.4-0.3-0.6-0.2
	l0,0c-3.2,1.8-6.1,5-8.4,7.8c-2.2,2.6-5,5.9-6,9.2c-0.1,0.2,0.1,0.5,0.3,0.5C778.6,426.3,778.9,426.1,779,425.9L779,425.9z"/>
<path class="st9" d="M766.1,399.8c1.8,1.3,3.4,2.9,5.5,3.8c1.7,0.8,3.8,1.9,5.7,2.2c0.5,0.1,0.8-0.8,0.2-0.8c-1.7-0.3-4-1.5-5.5-2.2
	c-2-0.9-3.6-2.5-5.4-3.7C766.1,398.7,765.6,399.4,766.1,399.8z"/>
<path class="st6" d="M832.6,430.7c-7.4-5.2-16.5-7.3-25.4-6c-3.6,0.6-7.2,1.7-10.5,3.3c0,0,9.3-16,23.5-10.2
	c0.9,0.3,1.7,0.7,2.4,1.1C834.2,424.5,832.6,430.7,832.6,430.7z"/>
<path class="st10" d="M757.9,416.3c-7.5-1.6-15.3-1.3-22.7,0.7c-8,2.2-15.2,6.8-20.5,13.2c0,0-8-10.6,13.1-22.2
	c11.7-6.4,19.7-3.2,24.5,1C754.5,411.1,756.5,413.6,757.9,416.3z"/>
<path class="st5" d="M831,471.1c-2.9-4.2-6.5-7.9-10.6-10.9c-7.8-5.7-19.9-11-36.4-7.7c4.4-4.1,9.6-7.3,15.2-9.5
	c4.5-1.8,9.4-2,14-0.7C827.5,446.7,830.6,460,831,471.1z"/>
<path class="st6" d="M775.2,465.1c-44.3-7.5-66.5,18.2-66.5,18.2c-0.3-2.5-0.2-5,0.1-7.5c0.1-0.6,0.2-1.2,0.3-1.7
	c2-10.3,9.8-18.5,20-20.9c22.3-5.6,34.8,0.7,41,6C772.1,460.8,773.8,462.8,775.2,465.1z"/>
<path class="st10" d="M774.1,433.5c0,0-12.5,0.3-21.2-2s-12.7,7.7,6.9,25.9c0,0,1.4-4.3,19.3-9.1S796.1,427.2,774.1,433.5z"/>
<path class="st8" d="M809.9,545.5c0,0-0.7,0.1-1.9,0.3c-5.7,0.6-22.1,1.1-21.7-13.2c0.1-2.1,1.4-3.9,3.3-4.6c1.8-0.6,3.8-1,5.7-1.1
	c3.3-0.2,6.5,0.1,9.7,1C816.5,531,802.9,540.5,809.9,545.5z"/>
<path class="st6" d="M747.6,535.1c-0.4,0.5-1.2,0.6-1.7,0.2c-0.3-0.2-0.4-0.5-0.4-0.8c-0.2-2.9,0.5-5.7,1.9-8.2
	c2.1-3.8,4.9-8.3,9-10.3c2.3-1.1,3.3-0.8,5.1,0.8s3.7,1.1,5.4,2.3c2,1.4,1.6,4.7,0.3,6.3c-1.7,2.2-5,1.9-7.5,2.5
	C756,528.8,750.4,531.7,747.6,535.1z"/>
<path class="st11" d="M744.2,488.3c-0.4-0.3-0.9-0.3-1.2,0.1c-0.2,0.3-0.3,0.7-0.1,1c1,1.8,2.1,3.4,3.3,5.1c2.3,3.3,5.5,5.8,9.2,7.3
	c2.5,1,10.4,3.1,10.3-1.6c-0.2-4.4-5.9-5-9-5.9C752.4,492.9,747.9,491.3,744.2,488.3z"/>
<path class="st6" d="M804.2,499.5c-0.2-0.6-0.9-0.9-1.5-0.7c0,0-0.1,0-0.1,0.1c-3.3,1.5-8.9,1.5-9.3,6.2c-0.3,3.3,3.4,2.7,5.5,2.2
	S805.8,504.2,804.2,499.5z"/>
<path class="st0" d="M754.5,435.3c3.5,0.7,7,1.7,10.6,1.5c3.9-0.2,7.7-0.8,11.5-1.2c2.2-0.2,9.7-1.2,7.2,3.3
	c-1.7,3-8.1,4.1-11.2,4.8c-2.1,0.5-4.2,0.8-6.3,1.5c-1.6,0.5-3,1.4-4.6,2c-0.4-2.2-3-5-4.8-6.2C756.2,440.5,750.5,436.9,754.5,435.3
	z"/>
<path class="st6" d="M752.7,384.6c1.8,4,3.1,8.4,5.4,12.2c0.9,1.4,3.4,4.3,5,2.1c1.3-1.8-0.1-4.2-1.2-5.7
	C759.3,390,756.2,387,752.7,384.6z"/>
<path class="st12" d="M776.3,392.9c-0.8-3.5,4.5-5.8,6.5-7.5c2.9-2.2,4.2-5.9,3.2-9.4c-2-7.6-9.6-11.8-15.8-15.6
	c-3.8-1.5-6.7-2.6-9.7-4.1c-0.6-0.3-1.3-0.6-2-0.9c-0.1-0.4-0.2-0.7-0.3-1.1c0,0,27.5,0.5,32.2,18.5
	C794.4,388.2,780.5,392.1,776.3,392.9z"/>
<path class="st13" d="M757.9,416.3c-7.5-1.6-15.3-1.3-22.7,0.7c-0.3-0.2-0.7-0.5-1-0.7c-1-0.4-2.1-0.5-3.2-0.2
	c-2.5,0.4-4.9,1.3-7.4,1.9c-0.9,0.2-3,1-2.7-0.5c0.1-0.7,2.2-2.2,2.8-2.7c4.9-3.7,11.1-5.2,17.2-5.8c2.8-0.4,5.6-0.5,8.4-0.5
	c1,0.1,2,0.2,3,0.5C754.5,411.1,756.5,413.6,757.9,416.3z"/>
<path class="st5" d="M817.6,400.6c-1.2,0.3-2.5,0.3-3.3,0.5c-4.3,0.9-8.5,2.7-12.1,5.3c-3.6,0.6-7.2,1.7-10.5,3.3
	c0,0,9.3-16,23.5-10.2C816,399.9,816.8,400.3,817.6,400.6z"/>
<path class="st5" d="M775.2,465.1c-44.3-7.5-66.5,18.2-66.5,18.2c-0.3-2.5-0.2-5,0.1-7.5c1.9-1.7,3.9-3.2,6-4.5
	c4.9-3.1,9.9-6.3,15.4-8.5c5.2-2,10.3-2.5,15.9-2.5c4.9-0.1,9.8,0.2,14.7,0.8c3,0.4,8.5,1.5,9.4-1.9
	C772.1,460.8,773.8,462.8,775.2,465.1z"/>
<path class="st9" d="M820.4,460.2c-7.8-5.7-19.9-11-36.4-7.7c4.4-4.1,9.6-7.3,15.2-9.5c-0.6,0.5-1,1.2-1.2,2c-0.4,1.8,1,2.2,2.6,2.7
	c3.2,1.1,6.6,0.9,9.7,2.1s4.8,3.8,7,6.2C818.6,457.2,819.7,458.6,820.4,460.2z"/>
<path class="st12" d="M809.9,545.5c0,0-0.7,0.1-1.9,0.3c-1.4-0.6-2.7-1.4-3.9-2.4c-2-1.6-3-3.6-4.5-5.5c-1.3-1.7-2.9-3-2.2-5.2
	c0.6-1.8,1.2-3.7-0.7-5.1c-0.4-0.3-0.9-0.5-1.4-0.7c3.3-0.2,6.5,0.1,9.7,1C816.5,531,802.9,540.5,809.9,545.5z"/>
<path class="st5" d="M771.4,501.3c1,0.5,2,1.3,3,1.8c1.2,0.5,2.3,1.2,3.3,2c0.4,0.4,1.1-0.3,0.6-0.6c-1-0.8-2-1.5-3.1-2
	c-1.2-0.6-2.2-1.4-3.4-2C771.3,500.2,770.8,501,771.4,501.3L771.4,501.3z"/>
<polygon class="st6" points="804.7,548.7 789.4,601.5 767.1,601.5 762.4,585.3 762.2,584.5 751.8,548.7 "/>
<path class="st9" d="M804.7,548.7l-15.3,52.8h-22.3l-4.7-16.2c16.3-6.4,24.2-22.5,28-36.6H804.7z"/>
<rect x="751.8" y="546.6" class="st14" width="52.8" height="4.2"/>
<path class="st0" d="M879.1,210c0,0-52.2,57.3-116.7,57.3S645.8,210,645.8,210c13.2-13.7,28.2-25.5,44.5-35.3
	c19.8-11.8,44.9-22.1,72.2-22.1c20.2,0,39.2,5.6,55.7,13.4C854.5,183,879.1,210,879.1,210z"/>
<path class="st15" d="M819.3,178.3c0,35.7-28.9,64.6-64.5,64.6c-35.7,0-64.6-28.9-64.6-64.5c0,0,0-0.1,0-0.1c0-1.2,0-2.4,0.1-3.6
	c19.8-11.8,41.3-28.3,68.5-28.3c20.2,0,42.8,11.8,59.4,19.6C818.9,170.1,819.3,174.2,819.3,178.3z"/>
<circle class="st14" cx="754.8" cy="186.5" r="31"/>
<circle class="st0" cx="806.5" cy="179.2" r="26.5"/>
<path class="st15" d="M645.8,210c0,0,58.4-59.5,116.7-57.3S879.1,210,879.1,210s-20.6-69.4-116.7-71.9S645.8,210,645.8,210z"/>
<path class="st0" d="M752.2,151.5l1.3-0.1c0.5,0,0.9,0,1.3-0.1c0.9-0.1,1.8-0.1,2.7-0.1s1.8,0,2.7,0c0.5,0,0.9,0,1.3,0l1.3,0.1
	c0.9,0.1,1.8,0.1,2.7,0.2l2.7,0.3l1.3,0.1c0.5,0,0.9,0.1,1.3,0.2l2.7,0.4c7.1,1.1,14.1,2.8,21,5l5.1,1.7c0.9,0.3,1.7,0.6,2.5,0.9
	l2.5,1c3.4,1.3,6.7,2.7,9.9,4.3c1.6,0.8,3.2,1.7,4.8,2.5s3.1,1.8,4.7,2.7s3,2,4.5,2.9s3,2,4.4,3.1l-0.1,0.2
	c-3.3-1.5-6.5-3.1-9.7-4.7c-1.6-0.7-3.2-1.5-4.8-2.3s-3.2-1.6-4.8-2.2c-3.3-1.4-6.5-3-9.8-4.3l-2.4-1.1c-0.8-0.3-1.6-0.7-2.5-1
	l-5-1.9c-6.7-2.4-13.6-4.3-20.5-5.7l-2.6-0.5c-0.4-0.1-0.9-0.2-1.3-0.2l-1.3-0.2l-2.6-0.4c-0.9-0.1-1.8-0.2-2.7-0.3l-1.3-0.1
	c-0.4,0-0.9-0.1-1.3-0.1c-0.9,0-1.8-0.1-2.7-0.1s-1.8-0.1-2.7-0.1c-0.4,0-0.9,0-1.3,0h-1.4L752.2,151.5z"/>
<rect x="310.6" y="168.4" class="st0" width="253.3" height="327.7"/>
<path class="st15" d="M383.8,282.2c-16.8,0-32-10.1-38.6-25.6l9.4-4c6.8,16.1,25.4,23.6,41.5,16.8c16.1-6.8,23.6-25.4,16.8-41.5
	c-6.8-16.1-25.4-23.6-41.5-16.8c-8.6,3.7-15.2,11-18,19.9l-9.7-3c2.6-8.5,7.8-15.9,14.9-21.3c18.5-13.9,44.7-10.2,58.6,8.3
	c5.4,7.2,8.4,16.1,8.4,25.1C425.7,263.4,407,282.1,383.8,282.2z"/>
<path class="st4" d="M563.9,168.4v327.7H310.6v-56.2C527.5,431.2,563.9,168.4,563.9,168.4z"/>
<path class="st15" d="M374.2,344.3c-10.9,0-19.8-8.9-19.8-19.8c0-10.9,8.9-19.8,19.8-19.8c8,0,15.1,4.8,18.2,12.1l-5.1,2.1
	c-3.1-7.3-11.4-10.7-18.7-7.6c-7.3,3.1-10.7,11.4-7.6,18.7c3.1,7.3,11.4,10.7,18.7,7.6c3.9-1.6,6.9-4.9,8.1-9l5.3,1.6
	C390.6,338.6,382.9,344.3,374.2,344.3z"/>
<path class="st15" d="M431.3,343.8c-10.4-3.2-16.3-14.2-13.1-24.7c3.2-10.4,14.2-16.3,24.7-13.1c10.4,3.2,16.3,14.2,13.1,24.7
	c-1.7,5.6-5.8,10.2-11.2,12.4l-2.1-5.1c7.3-3.1,10.7-11.4,7.6-18.7c-3.1-7.3-11.4-10.7-18.7-7.6s-10.7,11.4-7.6,18.7
	c1.6,3.9,4.9,6.9,9,8.1L431.3,343.8z"/>
<path class="st15" d="M500.3,344.3c-0.7,0-1.4,0-2.1-0.1c-7.9-0.8-14.6-6.3-16.9-13.9l5.3-1.6c2.3,7.5,10.3,11.8,17.8,9.5
	c7.5-2.3,11.8-10.3,9.5-17.8c-2.3-7.5-10.3-11.8-17.8-9.5c-4.1,1.2-7.3,4.2-9,8.1l-5.1-2.1c4.2-10.1,15.8-14.8,25.9-10.5
	c10.1,4.2,14.8,15.8,10.5,25.9C515.4,339.5,508.3,344.3,500.3,344.3L500.3,344.3z"/>
<path class="st15" d="M374.1,406.5c-9,0-16.4-7.3-16.4-16.4c0-9,7.3-16.4,16.4-16.4c6.6,0,12.5,3.9,15.1,10l-5.1,2.1
	c-2.3-5.5-8.7-8.1-14.3-5.8c-5.5,2.3-8.1,8.7-5.8,14.3s8.7,8.1,14.3,5.8c3-1.3,5.2-3.8,6.2-6.9l5.3,1.6
	C387.7,401.8,381.3,406.6,374.1,406.5z"/>
<path class="st15" d="M432.2,406.1c-8.6-2.6-13.5-11.8-10.9-20.4c2.6-8.6,11.8-13.5,20.4-10.9s13.5,11.8,10.9,20.4
	c-1.4,4.6-4.8,8.4-9.3,10.3l-2.1-5.1c5.5-2.3,8.1-8.7,5.8-14.2c-2.3-5.5-8.7-8.1-14.2-5.8c-5.5,2.3-8.1,8.7-5.8,14.2
	c1.3,3,3.8,5.2,6.9,6.2L432.2,406.1z"/>
<path class="st15" d="M500.4,406.5c-7.2,0-13.6-4.7-15.7-11.6l5.3-1.6c1.8,5.7,7.8,9,13.6,7.2c5.7-1.8,9-7.8,7.2-13.6
	c-1.8-5.7-7.8-9-13.6-7.2c-3.1,0.9-5.6,3.2-6.8,6.2l-5.1-2.1c3.5-8.3,13.1-12.2,21.4-8.7c8.3,3.5,12.2,13.1,8.7,21.4
	C512.9,402.6,507,406.5,500.4,406.5z"/>
<path class="st15" d="M373.8,464.3c-7.1,0-12.8-5.7-12.8-12.8c0-7.1,5.7-12.8,12.8-12.8c5.1,0,9.8,3.1,11.8,7.8l-5.1,2.1
	c-1.6-3.7-5.9-5.4-9.6-3.9c-3.7,1.6-5.4,5.9-3.9,9.6c1.6,3.7,5.9,5.4,9.6,3.9c2-0.8,3.5-2.5,4.1-4.6l5.3,1.6
	C384.4,460.7,379.4,464.4,373.8,464.3z"/>
<path class="st15" d="M433,464c-6.8-2.1-10.6-9.2-8.5-16c2.1-6.8,9.2-10.6,16-8.5c6.8,2.1,10.6,9.2,8.5,16c-1.1,3.6-3.8,6.6-7.3,8
	l-2.1-5.1c3.7-1.6,5.4-5.9,3.9-9.6c-1.6-3.7-5.9-5.4-9.6-3.9c-3.7,1.6-5.4,5.9-3.9,9.6c0.8,2,2.5,3.5,4.6,4.1L433,464z"/>
<path class="st15" d="M500.2,464.3c-0.5,0-0.9,0-1.4-0.1c-5.1-0.5-9.4-4.1-10.9-9l5.3-1.6c1.2,3.9,5.2,6,9.1,4.9
	c3.9-1.2,6-5.2,4.9-9.1c-0.3-0.9-0.7-1.8-1.3-2.5c-1.2-1.5-3-2.5-4.9-2.7c-3.2-0.3-6.2,1.5-7.5,4.4l-5.1-2.1
	c2.7-6.5,10.2-9.6,16.8-6.8c6.5,2.7,9.6,10.2,6.8,16.8C510,461.2,505.4,464.3,500.2,464.3L500.2,464.3z"/>
<path class="st15" d="M490.7,282.2c-23.1,0-41.9-18.7-41.9-41.9c0-23.1,18.7-41.9,41.9-41.9c16.8,0,32,10.1,38.6,25.6l-9.3,4
	c-6.8-16.1-25.4-23.7-41.5-17c-16.1,6.8-23.7,25.4-17,41.5s25.4,23.7,41.5,17c8.7-3.7,15.3-11,18.1-20l9.7,3
	c-2.6,8.5-7.8,15.9-14.9,21.3C508.6,279.2,499.7,282.2,490.7,282.2z"/>
<rect x="339.2" y="485.8" class="st15" width="196.1" height="17.8"/>
<rect x="302" y="547.5" transform="matrix(0.5271 -0.8498 0.8498 0.5271 -295.2623 568.59)" class="st15" width="122.6" height="4.2"/>
<rect x="509.2" y="488.3" transform="matrix(0.8498 -0.5271 0.5271 0.8498 -212.887 352.0462)" class="st15" width="4.2" height="122.6"/>
<rect x="435.1" y="494.7" class="st15" width="4.2" height="103.2"/>
<rect x="756.6" y="94" class="st15" width="4.2" height="44"/>
<rect x="423.5" y="523.9" class="st15" width="26.4" height="6.9"/>
<circle class="st15" cx="758.7" cy="138" r="7.5"/>
<rect x="231" y="209" class="st15" width="4.2" height="40"/>
<circle class="st15" cx="233.2" cy="249" r="7.5"/>
<path class="st14" d="M715.3,320.5c0.3,0.7,0.5,1.2,0.8,1.8s0.4,1.2,0.6,1.8c1.2,3.6,1.8,7.4,1.8,11.2c0.1,5.1-1.2,10.1-3.7,14.5
	c-1.3,2.2-2.8,4.1-4.5,5.9c-0.4,0.4-0.9,0.8-1.3,1.3l-0.7,0.6l-0.7,0.6l-1.5,1.2l-1.5,1c-4.1,2.7-8.5,4.7-13.2,6.2
	c4.5-1.7,8.8-4,12.7-6.9l1.4-1.1l1.3-1.2l0.7-0.6l0.6-0.7c0.4-0.4,0.8-0.8,1.2-1.3c1.6-1.8,2.9-3.8,4-5.9c2.1-4.2,3-8.9,2.7-13.6
	c-0.2-2.3-0.5-4.6-1.2-6.9c-0.3-1.1-0.7-2.2-1.1-3.3c-0.2-0.5-0.4-1.1-0.7-1.6s-0.5-1.1-0.7-1.5L715.3,320.5z"/>
<path class="st14" d="M640.1,287.4c1.2,3,1.5,6.3,1,9.5c-0.5,3.1-1.6,6.1-3.2,8.8c-3.2,5.5-8.2,9-11.1,13.9
	c-0.7,1.2-1.3,2.5-1.6,3.9c-0.1,0.3-0.1,0.7-0.2,1c-0.1,0.3-0.1,0.7-0.1,1v1c0,0.3,0.1,0.7,0.1,1c0.3,2.9,1.6,5.5,3.5,7.6
	c2,2.1,4.4,3.9,7,5.2c2.6,1.3,5.4,2.3,8.3,3c-2.9-0.5-5.8-1.4-8.5-2.6c-2.8-1.2-5.3-2.9-7.5-5c-2.2-2.2-3.7-5-4.2-8
	c0-0.4-0.1-0.8-0.2-1.2v-1.2c0-0.4,0-0.8,0.1-1.2c0-0.4,0.1-0.8,0.2-1.2c0.3-1.5,0.9-3,1.6-4.4c3-5.4,7.8-9.3,10.4-14.3
	c1.3-2.5,2.2-5.1,2.5-7.9c0.3-2.7-0.1-5.4-1.2-7.9c-0.3-0.9,0.1-1.8,1-2.2c0.8-0.3,1.7,0,2.1,0.8v0.1L640.1,287.4z"/>
<path class="st14" d="M667,288.2c-2.6-2.4-6-3.7-8.5-6.6s-5-6.1-5.5-10c-1.1-9.8,7.9-15.1,16.9-14.2s16.3,5.2,18.8,14.2
	c1.9,7.1,2.3,14.3,6.5,20.7c2.2,3.3,5.4,5.8,8.3,8.5c1,0.9,2,1.8,2.9,2.8c4.3,4.6,7.6,10,9.5,16c0.4,1.5,0.8,3,1,4.5
	c2.3,11.1-4.1,22-12.5,29.1c-6.4,5.1-14.8,5.8-21.2,1.9c-10.9-7.1-10.3-20.5-13.8-31.1c-0.6-2-1.2-3.9-1.8-5.7
	c-0.2-1.3-0.3-2.7-0.2-4c0.3-7.3,4.3-14.2,2-21.6C668.9,290.5,667.7,289.4,667,288.2z"/>
<path class="st14" d="M669.9,322.3l-1.8-5.7v-0.1v-0.1c-0.2-1.4-0.2-2.7-0.2-4.1c0.1-1.3,0.2-2.7,0.5-4c0.5-2.6,1.2-5.1,1.7-7.6
	c0.6-2.4,0.7-4.9,0.5-7.3c-0.1-0.6-0.2-1.2-0.3-1.8c-0.1-0.6-0.3-1.1-0.5-1.6c-0.3-0.5-0.6-1-0.9-1.5c-0.4-0.6-0.8-1.1-1.2-1.7
	l0.2,0.3c-2.2-2.1-5.3-3.4-7.8-5.9c-0.6-0.6-1.1-1.3-1.7-1.9s-1-1.3-1.5-2c-1-1.4-1.9-2.9-2.5-4.5c-0.3-0.8-0.5-1.7-0.7-2.5
	c-0.1-0.5-0.1-0.9-0.1-1.3c0-0.4,0-0.9,0-1.3c0-1.8,0.4-3.5,1-5.1c0.7-1.6,1.8-3.1,3.2-4.2c1.3-1.1,2.9-1.9,4.5-2.5
	c3.2-1,6.6-1.3,10-0.8c3.3,0.4,6.6,1.4,9.5,3c1.5,0.8,2.9,1.8,4.1,3c0.3,0.3,0.6,0.6,0.9,0.9s0.5,0.7,0.8,1l0.7,1
	c0.1,0.2,0.2,0.3,0.3,0.5l0.3,0.6c0.2,0.4,0.4,0.7,0.6,1.1l0.5,1.2c0.2,0.4,0.3,0.8,0.5,1.2s0.3,0.8,0.4,1.2
	c0.5,1.6,0.9,3.2,1.2,4.8c0.7,3.2,1.2,6.4,2.1,9.5c0.5,1.5,1.1,3,1.8,4.4c0.2,0.3,0.4,0.7,0.6,1c0.2,0.3,0.4,0.7,0.6,1l0.7,1
	l0.8,0.9c4.1,5,9.5,8.8,13.5,14.1c2,2.6,3.6,5.5,4.7,8.6c1.2,3.1,1.6,6.4,1.4,9.7c-0.4,3.3-1.6,6.4-3.5,9.1
	c-1.9,2.7-4.1,5.1-6.5,7.2l0,0c-1.1,1.2-2,2.6-2.6,4.1c-0.7,1.5-1,3.1-1.1,4.8c0.1-1.6,0.4-3.3,1.1-4.8c0.7-1.5,1.5-2.9,2.6-4.2l0,0
	c2.4-2.2,4.6-4.6,6.4-7.3c1.8-2.7,3-5.8,3.3-9c0.2-3.2-0.3-6.5-1.5-9.5c-1.2-3-2.7-5.8-4.7-8.4c-3.9-5.1-9.3-8.9-13.6-13.9l-0.8-1
	l-0.7-1c-0.3-0.3-0.5-0.7-0.7-1s-0.5-0.7-0.7-1.1c-0.8-1.5-1.4-3-1.9-4.6c-1-3.2-1.5-6.4-2.2-9.5c-0.3-1.6-0.7-3.1-1.2-4.7
	c-0.5-1.5-1.1-3-1.9-4.3l-0.3-0.5c-0.1-0.2-0.2-0.3-0.3-0.5l-0.7-1c-0.2-0.3-0.5-0.6-0.7-0.9s-0.5-0.5-0.8-0.8
	c-1.2-1.1-2.4-2-3.8-2.7c-2.8-1.5-5.9-2.4-9-2.7c-3.1-0.4-6.3-0.1-9.3,0.9c-1.5,0.5-2.8,1.2-4,2.2c-1.1,1-2,2.2-2.6,3.5
	c-0.6,1.4-0.9,2.9-0.8,4.4c0,0.4,0,0.8,0,1.1c0,0.4,0.1,0.8,0.1,1.1c0.1,0.7,0.3,1.5,0.6,2.2c0.6,1.4,1.3,2.8,2.3,4
	c0.5,0.6,1,1.2,1.5,1.9c0.5,0.6,1,1.2,1.6,1.8c2.1,2.1,5.2,3.4,7.8,5.8l0.1,0.1l0.1,0.2c0.8,1.1,1.5,2.2,2.2,3.3
	c0.3,0.6,0.5,1.3,0.7,2c0.2,0.7,0.3,1.3,0.4,2c0.3,2.7,0.1,5.4-0.4,8.1c-0.5,2.6-1.2,5.1-1.6,7.6c-0.2,1.2-0.4,2.5-0.4,3.7
	c0,1.2,0,2.4,0.2,3.6v-0.2l1.8,5.7L669.9,322.3z"/>
<path class="st16" d="M683.6,300.3c2.8,2.3,5.1,5,7,8c1.9,3.1,3.1,6.6,3.5,10.2c0.3,3.7-0.4,7.4-1.9,10.8c-1.6,3.3-3.7,6.4-6.2,9
	c-0.5,0.6-1.4,0.6-1.9,0.1c-0.6-0.5-0.6-1.4-0.1-1.9l0,0l0.1-0.1c2.5-2.3,4.7-5,6.3-8c1.6-3,2.5-6.4,2.4-9.8
	c-0.1-3.5-1.1-6.9-2.8-9.9C688.4,305.5,686.2,302.6,683.6,300.3z"/>
<path class="st16" d="M698.6,307.2c1.6,1.6,3.1,3.4,4.3,5.3c0.6,1,1.2,2,1.7,3s1,2,1.5,3.1c0.9,2.2,1.5,4.4,1.8,6.7
	c0.3,2.3,0.4,4.7,0.1,7c-0.2,2.4-0.8,4.7-1.5,6.9c-0.8,2.3-1.9,4.4-3.2,6.4c-1.4,2-3,3.8-4.9,5.4c-1.9,1.6-4,2.9-6.3,3.8
	c-1,0.4-2.2,0-2.7-1.1c-0.4-1,0-2.2,1.1-2.7l0.1-0.1l0,0c2-0.7,3.8-1.6,5.6-2.8c1.7-1.2,3.3-2.7,4.6-4.4c1.3-1.7,2.4-3.6,3.3-5.5
	c0.9-2,1.5-4.1,1.9-6.3c0.4-2.2,0.5-4.4,0.4-6.6c-0.2-2.2-0.6-4.4-1.2-6.5c-0.3-1.1-0.8-2.1-1.2-3.1s-0.9-2.1-1.5-3
	C701.3,310.7,700,308.9,698.6,307.2z"/>
<path class="st14" d="M657.3,271c-8.6-2.8-22.7,3.8-21.5,14.2c0.8,7.4,7,14.6,4.5,22.2c-1.7,5-6.9,7.7-9.8,12
	c-3.3,5-3.3,10.5,0.7,15.1c5.8,7.7,14.1,2.6,19.1-1.7c0.8-0.6,1.7-1.1,2.6-1.5c4.9-2.2,9.9-6.5,11.5-11.8c1.9-6.2,0.6-11.7-0.8-17.8
	C662.3,295.3,661.2,287.9,657.3,271z"/>
<path class="st0" d="M620.2,440.3c0.1,0.4,0.1,0.8,0.2,1.2s0.2,0.8,0.3,1.1c2.1,6.6,9,10,15.8,10.2c2.1,0.1,4.1-0.2,6.1-0.8
	c6-1.8,9.1-7,10.7-12.9l0,0c0.9-3.6,1.6-7.4,1.9-11.1c0-0.2,0.1-0.5,0.1-0.7c0.4-3.8,0.5-7.7,0.5-11.6c0-1.4,0-2.7,0-4.1
	c0-0.2,0-0.4,0-0.6c0-0.8,0-1.5-0.1-2.3c0-0.3,0-0.5,0-0.8c-0.1-3.7-0.2-7.3-0.2-11c0-1.5,0-3,0.1-4.5c0.1-2.8,0-5.6-0.2-8.5
	c0-0.6-0.1-1.1-0.1-1.7c-0.3-3.7-0.9-7.4-1.3-11.2c-0.9-7.5-0.9-14.9-1.7-22.4c-0.2-1.6,3.7-2.7,4.8-16c0.1-1.2,0.2-2.5,0.2-3.9
	c0-0.2,0-0.4,0-0.6l0,0c0-1.6,0-3.4,0-5.3c-0.2,0.4-0.4,0.7-0.7,1c-0.2,0.3-0.5,0.5-0.8,0.8l0,0l-0.3,0.2l0,0c-0.5,0.4-1,0.7-1.6,1
	c-1.9,1-3.9,1.8-6,2.3c0,0-0.9,2.5-2.2,6.2l0,0c-2.8,7.6-7.8,20.5-11.9,28.5l0,0l-1,1.8l-0.8,1.3l0,0c-1.4,2.3-2.7,3.8-3.6,4.1
	c0,0.7,2.6,12,4,18.5c0.1,0.3,0.2,0.7,0.2,1l0,0c0.4,2,0.7,3.3,0.7,3.6c0.1,1.9,0,3.9-0.3,5.8c-0.2,1.1-0.3,2.2-0.6,3.3l0,0
	c-1.2,5-3.3,9.7-6.1,13.9c-1.2,1.8-2.3,3.6-3.2,5.5c-0.2,0.4-0.4,0.7-0.5,1.1c-0.1,0.2-0.2,0.4-0.3,0.6s-0.2,0.5-0.3,0.7
	C620,429.2,619.3,434.8,620.2,440.3z"/>
<path class="st0" d="M657.4,321.3c0,0-24.4,2-30.9,28.5s-6.7,31-6.7,31s-6.3-5-26.4-18.2l-9.3,5.8c0,0,15.5,29.4,38.3,32
	c0,0,10.9,0.9,15.4-19.7S657.4,321.3,657.4,321.3z"/>
<path class="st3" d="M620.2,440.3c0.1,0.4,0.1,0.8,0.2,1.2s0.2,0.8,0.3,1.1c2.1,6.6,9,10,15.8,10.2c2.1,0.1,4.1-0.2,6.1-0.8
	c6-1.8,9.1-7,10.7-12.9l0,0c0.9-3.6,1.6-7.4,1.9-11.1c0-0.2,0.1-0.5,0.1-0.7c0.4-3.8,0.5-7.7,0.5-11.6c0-1.4,0-2.7,0-4.1l-0.2-0.6
	l-1-2.5c-0.3-0.7-0.6-1.5-0.8-2.3c-0.1-0.7-4-8.9-6.2-13.3c-0.8-1.5-1.3-2.5-1.4-2.7s-2.4,0.1-4.2,0.4l-1.2,0.3h0l-1.2,0.3
	c0,0,0.2,0.7,0.4,1.9c0.8,4.1,1.4,8.3,1.5,12.5l0,0c0.3,7.2-0.6,15.4-5,20.4c-5.2,5.8-9.9,2.3-13-1.9c-0.1-0.2-0.3-0.4-0.4-0.6
	s-0.3-0.4-0.4-0.6c-0.1,0.2-0.2,0.4-0.3,0.6s-0.2,0.5-0.3,0.7C620,429.3,619.3,434.9,620.2,440.3z"/>
<path class="st3" d="M623.1,425.5c2.8,3.4,6.6,6.3,11,4.1c5-2.4,7.3-8.4,8.2-13.5c0.5-3.1,0.8-6.2,0.7-9.4
	c-0.1-4.3-0.6-8.6-1.5-12.8c-0.1-0.6-0.2-1.1-0.4-1.7l1.1-0.2c0.6-0.1,1.1-0.2,1.7-0.3c0.5,0,1.1-0.1,1.6-0.2
	c0.1,0.1,0.1,0.3,0.2,0.3c0.4,0.5,0.7,1,1,1.6c1.1,1.9,1.9,4.2,2.8,6.1c1.1,2.3,2.3,4.7,3.2,7.1c0.2,0.5,0.4,1.1,0.5,1.6
	c0.3,0.9,0.5,1.7,0.7,2.6c0.3,1.4,0.5,2.9,0.6,4.3c0.2,2.5,0.2,4.9,0,7.4c0,0.8-0.1,1.7-0.1,2.6c-0.1,3.4-0.5,6.8-1.1,10.2l0,0
	c-1.1,5.6-3.2,10.8-7.5,13.8c-2.6,1.7-5.7,2.6-8.8,2.5l0,0c-6.7-0.1-13.5-4-15.2-10.6C620.6,435.9,621.1,430.4,623.1,425.5z"/>
<path class="st17" d="M654.8,330.2c2,5.7,11,1.8,13.6-1.2c3.4-3.9,3-7.3,3.5-12.3c0.3-2.8,0.5-5,0.6-6.7c0.5-8.6-2.5-4-14.8-3.7
	c1.5,3.4,1.9,7.2,1.2,10.8c0,0.1,0,0.3-0.1,0.4C658.1,320.9,653.7,327,654.8,330.2z"/>
<path class="st18" d="M647.2,407.4c0,0-10.6,43.8-13.4,71.5c-0.6,5.7,0.7,11.4,3.5,16.4l48.9,84.2l7.3-4.3c0,0-12.9-68.8-31.8-84
	l23.2-58.3L647.2,407.4z"/>
<path class="st19" d="M658.9,317.2c7.4,0.8,11.5-3.5,13.6-7.1c0.5-8.6-2.5-4-14.8-3.7C659.2,309.8,659.7,313.6,658.9,317.2z"/>
<path class="st20" d="M647.7,407.4c0,0,4.1,20.8,6.3,89.6c0,0-0.4,50.1-4.3,88.7c0,0,1.6,2.2,7.1,1.3c0,0,26.9-74,17.2-91.4
	c0,0,20.4-31.7,17.8-49.2s-36-40.1-36-40.1L647.7,407.4z"/>
<path class="st17" d="M648.5,289.3c0,0.8,0,1.7,0,2.6c0,9.7,7.2,22.6,18.1,18.9c0.9-0.2,1.8-0.5,2.6-0.9c2.6-1.2,4.7-3.2,6-5.8
	c0.6-0.9,1.1-1.8,1.5-2.7c0.7-1.5,1.2-3,1.5-4.6c0.4-1.8,0.3-3.7-0.3-5.4c-1.4-3.6-5.6-7.2-14.9-12.3c-2.6-1.4-5.5-3-8.9-4.7
	c-2.2,4.2-4.4,7-5.2,11.2C648.6,286.7,648.5,288,648.5,289.3z"/>
<path class="st10" d="M671.3,321.9c0,0-15,19.1-14.5,0.6c0,0-22.2,22.2-13.3,79.6c0.5,3.6,3,6.6,6.4,7.8c3.2,1.1,7.9,1.8,14.4,0.7
	L671.3,321.9z"/>
<path class="st14" d="M653,588.2c1.5-6.6,2.9-13.3,4.2-20c1.3-6.7,2.5-13.4,3.5-20.1s2-13.4,2.7-20.2c0.3-3.4,0.6-6.8,0.8-10.2
	c0.2-3.4,0.2-6.8,0.1-10.2c0-0.8-0.1-1.7-0.2-2.5s-0.1-1.7-0.3-2.5l-0.2-1.3c-0.1-0.4-0.1-0.8-0.2-1.2c-0.3-1.1-0.9-2.1-1.8-2.8
	l-0.2-0.2l-0.1-0.1h-0.1c-0.1,0-0.1-0.1-0.2-0.2c-0.3-0.4-0.3-0.9,0.1-1.3c0.1-0.1,0.3-0.2,0.5-0.2h2.6h2.5c0.4,0,1,0,0.9,0l0,0l0,0
	l0,0l0,0l-1.8-1.8l-0.2-0.2l-0.2-0.3c-0.2-0.2-0.3-0.4-0.5-0.6c-0.3-0.5-0.4-1-0.4-1.5c0-0.5,0.1-1.1,0.3-1.6l0.3-0.6l0.3-0.6
	c0.2-0.4,0.4-0.8,0.5-1.1s0.4-0.8,0.5-1.1c1.4-3.1,2.5-6.3,3.4-9.5c0.9-3.2,1.6-6.6,2.1-9.9l0.3-2.5c0.1-0.8,0.2-1.7,0.2-2.5
	c0.2-1.7,0.2-3.4,0.3-5.1c0.2-6.8-0.3-13.6-1.6-20.3h0.1c0.4,1.7,0.7,3.3,1.1,5l0.8,5.1l0.2,2.6l0.1,1.3c0,0.4,0.1,0.8,0.1,1.3
	l0.1,2.6v1.3c0,0.4,0,0.9,0,1.3c0,6.9-0.9,13.7-2.7,20.3c-0.9,3.3-2,6.6-3.4,9.7c-0.2,0.4-0.3,0.8-0.5,1.2s-0.4,0.8-0.6,1.2
	l-0.3,0.6c-0.1,0.2-0.2,0.3-0.3,0.5c-0.1,0.3-0.2,0.6-0.2,0.9c0,0.3,0.1,0.6,0.3,0.9c0.1,0.1,0.2,0.3,0.3,0.4c0,0.1,0.1,0.1,0.2,0.2
	l0.2,0.2l1.8,1.8h0l0.1,0.1c0.1,0.1,0.1,0.2,0.2,0.3c0.1,0.2,0.1,0.4,0.1,0.6c0,0.4-0.2,0.8-0.5,1.1c-0.2,0.1-0.4,0.2-0.6,0.2h-1.1
	h-2.5h-2.5c0.2,0,0.3-0.2,0.3-0.4c0-0.1,0-0.1-0.1-0.2h0h0.1l0.1,0.1l0.3,0.2c0.4,0.3,0.7,0.6,1,1c0.6,0.7,1,1.6,1.2,2.5
	c0.1,0.4,0.2,0.9,0.2,1.3l0.2,1.3c0.1,0.9,0.2,1.7,0.2,2.6s0.1,1.7,0.1,2.6c0.1,3.4,0,6.8-0.2,10.3s-0.5,6.8-0.9,10.2
	c-0.8,6.8-1.7,13.5-2.9,20.2s-2.4,13.4-3.8,20.1s-2.9,13.3-4.5,19.9L653,588.2z"/>
<path class="st0" d="M656.3,426.3c0.4,5.3,3.2,10.5,5.6,15.1c4.7,8.9,12.2,14.9,22.5,14.9c5.6,0,11.5-0.2,15.5-4.7
	c3.4-3.8,5.3-9.7,5.8-14.8c0.8-8.4-1.1-17.8-4.5-25.6c-0.7-1.7-1.5-3.3-2.3-5c-1.4-2.9-2.6-5.9-3.8-8.9c-0.4-1.1-0.7-2.2-1-3.3
	c-0.8-3.4-1.4-6.9-2.3-10.2c-2.6-9.4-2.4-38.9-2.8-48.5c-0.1-2.5-0.5-6.4-17-13.8c-2.2-1-10.4,22.3-11.2,24.6
	c-1.8,4.9-2.8,10.1-2.9,15.3c0,9.3-0.5,18.7,0.4,27.9c0.8,8.4,1,16.3-0.5,24.6C657.1,417.8,656,422.3,656.3,426.3z"/>
<path class="st21" d="M672.6,398.1c8.3,11.6,20.9,9.6,26.4,8.1c-1.4-2.9-2.6-5.9-3.8-8.9c-0.4-1.1-0.7-2.2-1-3.3
	C683.2,388.8,665.5,388.2,672.6,398.1z"/>
<path class="st19" d="M648.9,285.4c1.4-3,3.1-4.4,5,0.1c3.6,8.8,17.9,14.2,22.9,15.8c0.7-1.5,1.2-3,1.5-4.6c0.4-1.8,0.3-3.7-0.3-5.4
	l-10.4-5.1l-4.5-7.2c-2.6-1.4-5.5-3-8.9-4.7C651.9,278.4,649.7,281.3,648.9,285.4z"/>
<path class="st14" d="M682.5,313.1c3.2-5.6-1.9-14.4-6.7-17.7c-2.3-1.6-5-2.6-7.5-3.9c-2.7-1.4-5.2-3-7.6-4.9
	c-5-4.1-11.8-14.1-5.5-20c5.7-5.4,16,2.6,20.2,6.5c3.9,3.5,7,7.8,9.1,12.6C686.6,290.6,685.8,295.1,682.5,313.1z"/>
<path class="st0" d="M676.4,303.2c-3.8,10-19.6,12.3-24.6,2c-0.3-0.7,0.7-1.3,1-0.6c4.5,9.2,19,7.5,22.4-1.7
	C675.5,302.1,676.6,302.4,676.4,303.2L676.4,303.2z"/>
<path class="st0" d="M643.7,380.5l1.1-18.1c0,0,27.6-6.9,42.8-3.9c0,0-6.6,35.2-0.8,57.3c0,0-31.6,0.5-37.4-4
	C649.5,411.9,644.3,389.6,643.7,380.5z"/>
<path class="st21" d="M643.7,380.5l1.1-18.1c0,0,27.6-6.9,42.8-3.9c0,0-6.6,35.2-0.8,57.3c0,0-31.6,0.5-37.4-4
	C649.5,411.9,644.3,389.6,643.7,380.5z"/>
<path class="st3" d="M646.9,383.3l1.1-18.1c0,0,27.6-6.9,42.8-3.9c0,0-6.6,35.2-0.8,57.3c0,0-31.6,0.5-37.4-4
	C652.6,414.7,647.4,392.4,646.9,383.3z"/>
<path class="st17" d="M641.3,393.8c2.7,0.9,6.9-0.7,8.9-2.6c0.2-0.2,0.4-0.4,0.6-0.6c2.4-2.9-0.1-4.3-3.8-8.2
	c-3.1,0.8-4.2-4.7-5-4.5h-0.3C634.7,379.3,635.2,391.7,641.3,393.8z"/>
<path class="st19" d="M641.3,393.8c2.7,0.9,6.9-0.7,8.9-2.6c0.2-0.2,0.4-0.4,0.6-0.6c0-0.6-0.3-1.2-0.7-1.7c0,0-11-3.5-8.5-10.9
	C634.7,379.3,635.2,391.7,641.3,393.8z"/>
<path class="st17" d="M648.1,384.2c-0.6-0.9-1.2-1.8-1.6-2.8c-0.3-1-0.5-2-0.6-3c-0.4-1.7-1.5-1-1.7,0.3c-0.2,0.9-0.3,1.9-0.3,2.9
	C643.8,382.2,644.1,384.3,648.1,384.2z"/>
<path class="st0" d="M671.3,323.3c3.9,2.6,8.8,3,13.1,4.4c5.5,1.7,8.4,7.9,9.9,13.1c2.8,9.9,6.9,18.8,8.4,29
	c0.8,5.2,1.3,10.5,1.8,15.8c0.6,5.8,0.5,9.7-4.8,13c-5.9,3.7-13,2.8-19.6,2.2c-7.1-0.6-14.2-1.6-21.2-2.8c-4-0.7-10.1-0.7-11.2-5.7
	c-0.5-2,0.2-4.3,0.5-6.4c0.1-0.9,0.9-1.7,1.8-1.7c9.4-0.3,18.8,0.3,28.2,0c0.4-9.1-2.8-17.1-3.5-26c-0.6-7.6-1.2-17.2,2.4-24.1
	c1.2-2.3,3.3-3.3,1.1-5.6C677.2,327.3,674.3,325.5,671.3,323.3z"/>
<path class="st0" d="M659.7,302.5l8.6-2.3c0,0,0.8,4.9-3.8,5.7c-2,0.6-4.1-0.6-4.7-2.6C659.8,303.1,659.7,302.8,659.7,302.5z"/>
<path class="st3" d="M683.6,327.7c-3.3,0.6-6.3,2.3-8.4,4.9c-1,1.3-1.8,2.7-2.4,4.3c-0.5,1.5-0.8,3.2-0.9,4.8
	c-0.1,1.6,0,3.3,0.2,4.9c0,0.4,0.1,0.8,0.2,1.2l0.1,0.6c0,0.1,0,0.2,0,0.3l0.1,0.3c0.2,0.8,0.4,1.6,0.6,2.4s0.4,1.6,0.6,2.4
	s0.5,1.6,0.7,2.4c0.5,1.6,1.1,3.1,1.9,4.6l-0.1,0.1c-0.6-0.6-1.2-1.3-1.7-2c-0.2-0.4-0.4-0.8-0.7-1.1s-0.4-0.8-0.6-1.2
	c-0.7-1.6-1.3-3.2-1.8-4.8c-0.3-0.8-0.5-1.6-0.7-2.5l-0.1-0.3c0-0.1,0-0.2,0-0.3l-0.1-0.7c0-0.4-0.1-0.9-0.1-1.3l0-1.3v-1.3
	c0-0.4,0-0.9,0.1-1.3v-0.7l0.1-0.7c0.2-1.7,0.6-3.4,1.3-5c0.6-1.6,1.6-3.1,2.8-4.4c0.6-0.6,1.2-1.2,1.9-1.7c0.7-0.5,1.4-1,2.2-1.3
	c1.5-0.8,3.2-1.2,4.9-1.4L683.6,327.7z"/>
<path class="st16" d="M667.1,261.6c-3.5,0.7-7.3,2.8-8.7,6.2c-0.7,1.7-0.9,3.6-0.6,5.5c0.1,0.9,0.3,1.9,0.7,2.8
	c0.3,0.9,0.8,1.7,1.3,2.5c1.1,1.6,2.5,2.9,4.1,4c1.7,1.1,3.4,2.1,5.2,3c1.8,0.9,3.5,1.9,5.2,2.9c1.7,1.1,3.1,2.5,4.1,4.3
	c-1.1-1.7-2.5-3-4.3-4c-1.7-1-3.5-1.9-5.3-2.7c-1.8-0.8-3.6-1.7-5.3-2.8c-1.8-1.1-3.3-2.5-4.5-4.2c-0.6-0.8-1.1-1.8-1.5-2.7
	c-0.4-1-0.7-2-0.8-3c-0.2-1-0.3-2.1-0.2-3.1c0.1-1.1,0.3-2.1,0.7-3.1c0.8-2,2.2-3.8,3.9-5c0.9-0.6,1.8-1.2,2.8-1.6c1-0.4,2-0.8,3-1
	c0.6-0.1,1.1,0.2,1.2,0.8C668.1,260.9,667.7,261.5,667.1,261.6L667.1,261.6L667.1,261.6z"/>
<path class="st14" d="M654.4,275.4c-0.1,0.1-0.1,0.2-0.1,0.4c0,0.2-0.1,0.3-0.1,0.5c-0.1,0.4-0.1,0.7-0.2,1.1c0,0.7,0,1.5,0.2,2.2
	c0.4,1.5,1.1,3,2,4.3c0.4,0.7,1,1.3,1.5,1.9s1.1,1.2,1.8,1.8c1.2,1.1,2.5,2.2,3.9,3.2c1.4,1,2.8,1.9,4.3,2.7
	c1.5,0.8,3.1,1.5,4.6,2.2c1.6,0.6,3.1,1.5,4.5,2.6c1.3,1.2,2.2,2.7,2.9,4.3c-0.7-1.5-1.8-2.9-3.1-4c-1.4-1-2.9-1.7-4.6-2.3
	c-1.6-0.6-3.2-1.2-4.8-1.9c-1.6-0.7-3.1-1.5-4.6-2.4c-1.5-0.9-2.9-1.9-4.3-3c-0.7-0.5-1.3-1.2-2-1.8c-0.6-0.6-1.2-1.3-1.8-2
	c-1.2-1.5-2-3.1-2.6-4.9c-0.3-0.9-0.4-1.9-0.5-2.9c0-0.5,0-1,0.1-1.5c0-0.3,0.1-0.5,0.2-0.8c0.1-0.3,0.2-0.6,0.3-0.9l0.1-0.2
	c0.3-0.7,1.1-1,1.8-0.7s1,1.1,0.7,1.8C654.5,275.2,654.5,275.3,654.4,275.4z"/>
<path class="st21" d="M669.5,358.2c0,0,12.5-1.4,18.1,0.3l-2.5,26.8l-8.8-1.5l-5.4-7L669.5,358.2z"/>
<path class="st3" d="M690.1,361.4l-2.8,21.3l-0.2,1.6c-0.4,0.3-0.9,0.5-1.4,0.7c0.4,0.2,0.8,0.3,1.2,0.5l-0.1,0.5l-10-1.8h-1.7
	l-6.2-5.8l0.9-17.1C669.8,361.4,684.5,359.7,690.1,361.4z"/>
<path class="st14" d="M656.7,586.9l-0.5,13.2h-26.8c0,0,1.8-7.1,17.3-6.9l3.2-7.3L656.7,586.9z"/>
<path class="st14" d="M693.2,575.3l3.9,8.6c0.6,1.3,0.4,2.7-0.5,3.8L685.9,601h-15.5c0,0,1-8.9,12.2-10l4.2-11.9L693.2,575.3z"/>
<path class="st3" d="M642.1,337.6c-2.7,5.7-4.9,11.6-6.4,17.7l-0.5,2.3l-0.3,1.2l-0.2,1.2l-0.4,2.3l-0.3,2.3l-0.2,1.2
	c-0.1,0.4-0.1,0.8-0.1,1.2l-0.2,2.3v0.6v0.6v1.2c0,0.8,0,1.6,0,2.3l0.1,2.3c0,0.8,0.1,1.6,0.1,2.4c0.1,1.6,0.3,3.2,0.3,4.8
	c0.2,3.2,0.3,6.3,0.3,9.5c0,3.2-0.3,6.4-0.9,9.5c-0.3,1.6-0.8,3.1-1.5,4.5c-0.7,1.4-1.4,2.8-2.3,4.2l-0.2-0.1
	c0.8-1.4,1.5-2.8,2.1-4.2c0.6-1.5,1-3,1.3-4.5c0.5-3.1,0.7-6.3,0.6-9.4c-0.1-3.2-0.3-6.3-0.5-9.5c-0.1-1.6-0.3-3.1-0.5-4.7
	s-0.2-3.2-0.4-4.8c-0.3-6.4,0.4-12.8,2.1-19c0.9-3.1,1.9-6.1,3.2-9c0.7-1.5,1.3-2.9,2.1-4.3l0.6-1l0.6-1
	C641.2,339,641.6,338.3,642.1,337.6L642.1,337.6z"/>
<path class="st0" d="M617.1,380.3c0,0-1.5-7.6,4.8-2.3S619.9,387.7,617.1,380.3z"/>
<path class="st3" d="M620.4,376.8c2.7,1.2,4.5,3.7,4.9,6.6c0,0,0.9-5.1-4.6-8.2L620.4,376.8z"/>
<path class="st3" d="M657.9,413.9c-0.2,1.6-0.3,3.2-0.3,4.7s-0.1,3.2,0,4.7c0.1,3.1,0.5,6.2,1.2,9.3c0.7,3,1.7,6,3.1,8.7l0.5,1
	l0.6,1c0.1,0.2,0.2,0.3,0.3,0.5l0.3,0.5c0.2,0.3,0.4,0.6,0.7,0.9c0.5,0.6,1,1.2,1.5,1.7c0.3,0.3,0.5,0.6,0.8,0.8l0.9,0.8
	c0.3,0.3,0.6,0.5,0.9,0.7s0.6,0.5,0.9,0.7c0.7,0.4,1.3,0.9,2,1.3c1.3,0.8,2.7,1.6,4.1,2.2c2.8,1.3,5.9,2.2,9,2.5
	c3.1,0.3,6.3,0,9.2-1.1c1.5-0.5,2.9-1.2,4.2-2.1c1.3-0.9,2.5-1.9,3.5-3.2l0.1,0.1c-1,1.3-2.2,2.4-3.5,3.4c-1.3,0.9-2.7,1.7-4.2,2.3
	c-3,1.2-6.3,1.6-9.5,1.4c-3.2-0.3-6.4-1.1-9.3-2.4c-1.5-0.6-2.9-1.4-4.3-2.2c-0.7-0.4-1.4-0.8-2-1.3c-0.3-0.2-0.7-0.5-1-0.7
	s-0.7-0.5-1-0.7l-0.9-0.8c-0.3-0.3-0.6-0.6-0.9-0.8c-0.6-0.6-1.1-1.2-1.7-1.8c-0.3-0.3-0.5-0.6-0.8-1l-0.4-0.5
	c-0.1-0.2-0.2-0.3-0.3-0.5c-0.2-0.3-0.5-0.7-0.7-1l-0.6-1.1c-1.6-2.9-2.7-5.9-3.3-9.2c-0.3-1.6-0.5-3.2-0.6-4.8
	c-0.1-1.6-0.1-3.2-0.1-4.8c0.1-1.6,0.2-3.2,0.4-4.8c0.2-1.6,0.5-3.2,1-4.7L657.9,413.9z"/>
<path class="st3" d="M669.8,384.1c1.8-0.3,3.6-0.4,5.3-0.5s3.6-0.1,5.4,0c0.9,0,1.8,0.1,2.7,0.1c0.9,0.1,1.8,0.2,2.7,0.4
	c0.9,0.2,1.8,0.6,2.6,1c0.9,0.4,1.6,0.9,2.3,1.6l-0.1,0.1c-1.7-0.5-3.4-0.8-5.1-1.1c-0.9-0.1-1.7-0.3-2.6-0.4s-1.7-0.3-2.6-0.4
	s-1.8-0.2-2.6-0.3s-1.8-0.1-2.7-0.2c-1.8-0.1-3.6-0.2-5.3-0.2L669.8,384.1z"/>
<path class="st3" d="M684.6,383.1c0.4-0.1,0.7-0.1,1.1-0.2s0.7-0.1,1.1-0.1c0.7,0,1.4,0,2.1,0.1c0.7,0.1,1.4,0.2,2,0.5
	c0.7,0.2,1.3,0.5,1.8,0.9c-0.6-0.2-1.3-0.4-2-0.4c-0.6-0.1-1.3-0.1-1.9,0c-0.6,0.1-1.3,0.2-1.9,0.4c-0.3,0.1-0.6,0.2-0.9,0.3
	s-0.6,0.2-0.8,0.3L684.6,383.1z"/>
<path class="st7" d="M550.6,196.7c-3.9-0.3-7.8-0.3-11.7,0.1c-2.1,0.2-4.2,0.5-6.3,0.9c-3.5,0.7-7,1.7-10.4,3l-1,0.4
	c-1.5,0.6-3,1.3-4.4,2c-5.7,2.8-10.9,6.3-15.5,10.6c-0.3,0.3-0.6,0.6-0.9,0.8c-6.4,6.2-11.5,13.7-14.9,22l-0.1,0.2
	c-1,2.4-1.9,5-2.5,7.5c-0.1,0.4-0.2,0.8-0.3,1.2c-8.7,34.6,12.3,69.7,46.9,78.4c10.9,2.7,22.2,2.6,33-0.4c2.3-0.6,4.5-1.4,6.7-2.3
	c14.4-5.7,26.3-16.5,33.4-30.3c1-1.9,1.9-4,2.7-6c1.2-3.1,2.2-6.2,2.9-9.4c0.5-2.1,0.9-4.2,1.1-6.3c0.3-2.4,0.5-4.8,0.5-7.2
	c0-2.2-0.1-4.4-0.3-6.5c-0.5-5.3-1.6-10.6-3.4-15.6c-0.3-0.9-0.6-1.8-1-2.7c-1.1-2.8-2.4-5.5-3.9-8.1l0,0
	c-4.4-7.7-10.4-14.4-17.5-19.7c-7.8-5.8-16.7-9.7-26.3-11.6C555.2,197.2,552.9,196.9,550.6,196.7z M569.2,205
	c1.8,0.8,3.6,1.7,5.3,2.6c12.4,6.8,22,17.7,27.3,30.8v0.1c1,2.4,1.8,4.9,2.4,7.3c0.8,2.9,1.3,5.8,1.6,8.8c0.2,2.2,0.4,4.4,0.3,6.6
	c0,2.4-0.2,4.8-0.5,7.3c-0.3,2.1-0.6,4.2-1.1,6.3c-0.8,3.2-1.8,6.3-3,9.4c-0.1,0.3-0.3,0.7-0.4,1c-0.7,1.7-1.5,3.4-2.4,5
	c-6.8,12.6-17.7,22.3-31,27.6c-2.5,1-5.1,1.8-7.7,2.4c-32.7,8.2-65.8-11.6-74.1-44.2c-2.5-9.7-2.5-19.9,0-29.6
	c0.1-0.4,0.2-0.8,0.3-1.2c0.5-1.7,1-3.3,1.6-4.9c0.3-0.9,0.7-1.9,1.1-2.8c0.1-0.1,0.1-0.3,0.2-0.4c2.1-5,4.9-9.7,8.3-13.9
	c1.7-2.1,3.5-4.2,5.5-6.1l0.9-0.8c4.2-3.8,8.8-7.1,13.9-9.6c1.6-0.8,3.2-1.5,4.8-2.2l1.1-0.4c3.2-1.2,6.5-2.2,9.8-2.8
	c8.4-1.7,17-1.5,25.4,0.4C562.3,202.4,565.8,203.5,569.2,205z"/>
<path class="st7" d="M549.9,193c-3.9-0.3-7.8-0.2-11.7,0.2c-2.1,0.2-4.2,0.5-6.3,0.9c-4.1,0.8-8.2,2-12.1,3.6
	c-8.1,3.2-15.4,7.9-21.7,13.9l-0.9,0.9c-2.1,2-4,4.2-5.8,6.5c-3.3,4.3-6.2,9-8.4,13.9l-0.5,1.2c-1.1,2.7-2.1,5.4-2.9,8.2
	c-0.1,0.4-0.2,0.8-0.4,1.3c-9.7,36.4,12,73.8,48.4,83.5c12.2,3.2,25,3,37-0.6c2-0.6,3.9-1.3,5.8-2c15.6-6.2,28.4-18,35.8-33
	c1-2,1.9-4,2.7-6.1c1.2-3.1,2.1-6.2,2.8-9.4c0.5-2.1,0.8-4.2,1.1-6.3c0.3-2.4,0.5-4.8,0.5-7.2c0-2.1,0-4.3-0.2-6.5
	c-0.4-5.2-1.4-10.3-2.9-15.2c-0.5-1.7-1.1-3.3-1.8-5s-1.4-3.4-2.2-5c-1.5-3.1-3.3-6-5.2-8.8c-10.5-14.9-26.5-25.1-44.5-28.2
	C554.4,193.4,552.1,193.1,549.9,193z M558.8,201.6c3.6,0.8,7,2,10.4,3.4c1.8,0.8,3.6,1.7,5.3,2.6c12.4,6.8,22,17.7,27.3,30.8v0.1
	c1,2.4,1.8,4.9,2.4,7.3c0.8,2.9,1.3,5.8,1.6,8.8c0.2,2.2,0.4,4.4,0.3,6.6c0,2.4-0.2,4.8-0.5,7.3c-0.3,2.1-0.6,4.2-1.1,6.3
	c-0.8,3.2-1.8,6.3-3,9.4c-0.1,0.3-0.3,0.7-0.4,1c-0.7,1.7-1.5,3.4-2.4,5c-6.8,12.6-17.7,22.3-31,27.6c-2.5,1-5.1,1.8-7.7,2.4
	c-32.7,8.2-65.8-11.6-74.1-44.2c-2.5-9.7-2.5-19.9,0-29.6c0.1-0.4,0.2-0.8,0.3-1.2c0.5-1.7,1-3.3,1.6-4.9c0.3-0.9,0.7-1.9,1.1-2.8
	c0.1-0.1,0.1-0.3,0.2-0.4c2.1-5,4.9-9.7,8.3-13.9c1.7-2.1,3.5-4.2,5.5-6.1l0.9-0.8c4.2-3.8,8.8-7.1,13.9-9.6
	c1.6-0.8,3.2-1.5,4.8-2.2l1.1-0.4c3.2-1.2,6.5-2.2,9.8-2.8C541.8,199.5,550.4,199.6,558.8,201.6L558.8,201.6z"/>
<rect x="558.5" y="321.5" transform="matrix(0.9287 -0.3709 0.3709 0.9287 -81.2226 235.7365)" class="st7" width="27.7" height="15"/>
<polygon class="st7" points="636.1,437 600.4,451.3 569.6,337.4 580,333.2 "/>
<path class="st17" d="M574.6,361.7c-0.7,0.4-1.1,1.1-1.2,1.8c0.1,0.8,0.7,1.4,1.5,1.5c1-0.1,3.5-1.3,3-2.6S575.6,361.1,574.6,361.7z
	"/>
<path class="st17" d="M571.1,357.5c-0.5-0.8-0.3-1.9,0.4-2.6c0.9-0.5,1.9-0.8,2.9-0.7c1.1-0.1,2.2-0.3,2.4,1.1c0.1,1-0.5,2-1.3,2.5
	c-0.6,0.4-1.3,0.6-2,0.6c-0.4,0-0.8-0.1-1.2-0.2C571.9,358.1,571.6,357.8,571.1,357.5z"/>
<path class="st17" d="M571.9,360.2c-0.3-2.9,3.4-2.4,5.2-1.7c0.5,0.1,1.1,0.4,1.5,0.8c0.3,0.4,0,1-0.2,1.3c-0.8,1-2.1,1.4-3.3,1.3
	C573.9,361.7,572.8,361.1,571.9,360.2z"/>
<path class="st17" d="M571.2,354.8c-0.6-0.4-0.6-1.5-0.4-2.2s1-1.1,1.6-1.6s1.4-1.1,1.9-0.4c0.3,0.9,0.3,1.9-0.1,2.8
	C573.6,354.6,572.4,355.2,571.2,354.8z"/>
<path class="st17" d="M594.1,351.3c-0.7-0.6-1.5-1.2-2.3-1.6c-0.9-0.6-1.6-1.6-2.8-1.8c-0.8,0-1.5,0-2.3,0.2c-0.9,0-1.8,0.1-2.6,0.2
	c0.1,1,0.7,1.8,1.6,2.3c0.5,0.3,1,0.4,1.6,0.5c0.6,0.1,1.2-0.2,1.7,0.3c0.5,0.5,0.9,1.1,1.2,1.6c0.4,0.7,0.5,1.5,0.4,2.3
	c-0.1,0.9-0.1,1.7,0,2.6c0,0.5,0.2,1,0.5,1.4c0.8,1,2.9,1.1,4,0.7c1-0.3,1.7-1,1.9-2c0-1-0.4-1.9-1.1-2.7c-0.4-0.7-0.7-1.5-0.9-2.3
	C594.8,352.5,594.5,351.8,594.1,351.3z"/>
<path class="st0" d="M500.7,267.1c6.4-2.1,12.9-3.9,19.4-5.6s13.1-3.2,19.6-4.6s13.2-2.7,19.8-3.9s13.3-2.2,20-2.9
	c-6.4,2.1-12.9,3.9-19.4,5.6s-13.1,3.2-19.7,4.6s-13.2,2.7-19.8,3.9S507.4,266.4,500.7,267.1z"/>
<path class="st0" d="M515.4,282.4c4.5-1.7,9-3.1,13.6-4.3s9.2-2.4,13.8-3.4s9.3-1.9,14-2.6s9.4-1.3,14.2-1.6
	c-4.5,1.7-9,3.1-13.6,4.4s-9.2,2.3-13.8,3.3s-9.3,1.9-14,2.6S520.2,282.2,515.4,282.4z"/>
<path class="st15" d="M777.8,266.3c2.4-0.5,4.8-1.1,7.1-1.7s4.7-1.4,7-2.2c4.6-1.5,9.2-3.3,13.6-5.2c4.5-1.9,8.8-4,13.1-6.3
	c4.3-2.3,8.5-4.6,12.6-7.2s8.1-5.2,12-8.1c2-1.4,3.9-2.9,5.8-4.3c1-0.7,1.9-1.5,2.8-2.3s1.9-1.5,2.8-2.3c7.4-6.2,14.3-12.9,20.8-20
	l4,3.8c-7,7-14.4,13.5-22.3,19.5c-1,0.8-2,1.5-3,2.2s-2,1.5-3,2.2c-2,1.4-4,2.8-6.1,4.1c-4.1,2.7-8.3,5.2-12.6,7.6
	s-8.7,4.6-13.1,6.7s-9,4-13.5,5.7s-9.2,3.3-13.9,4.6c-2.3,0.7-4.7,1.3-7.1,1.8S780.2,265.9,777.8,266.3z"/>
<path class="st15" d="M278.5,372.3c-24.7,0-44.7-20-44.7-44.7s20-44.7,44.7-44.7c24.7,0,44.7,20,44.7,44.7l0,0
	C323.1,352.3,303.2,372.3,278.5,372.3z M278.5,291.9c-19.8,0-35.8,16-35.8,35.8c0,19.8,16,35.8,35.8,35.8s35.8-16,35.8-35.8l0,0
	C314.3,307.9,298.3,291.9,278.5,291.9z"/>
<path class="st15" d="M163.3,372.3c-24.7,0-44.7-20-44.7-44.7c0-24.7,20-44.7,44.7-44.7s44.7,20,44.7,44.7l0,0
	C207.9,352.3,187.9,372.3,163.3,372.3z M163.3,291.9c-19.8,0-35.8,16-35.8,35.8c0,19.8,16,35.8,35.8,35.8s35.8-16,35.8-35.8l0,0
	C199,307.9,183,291.9,163.3,291.9z"/>
<path class="st1" d="M267.7,251.7h20.8c1.5,0,3,0.7,4,1.8l33.3,37.3l-40.2-8.5l-13.5-16.5l-5.9-1.4L267.7,251.7z"/>
<path class="st1" d="M287.6,372.3c-24.7,0-44.7-20-44.7-44.7s20-44.7,44.7-44.7c24.7,0,44.7,20,44.7,44.7l0,0
	C332.3,352.3,312.3,372.3,287.6,372.3z M287.6,291.9c-19.8,0-35.8,16-35.8,35.8c0,19.8,16,35.8,35.8,35.8c19.8,0,35.8-16,35.8-35.8
	c0,0,0,0,0,0C323.4,307.9,307.4,291.9,287.6,291.9z"/>
<path class="st1" d="M325.6,313.2h19c1.5,0,2.7,1.2,2.7,2.7v23.6c0,1.5-1.2,2.7-2.7,2.7h-19c-1.5,0-2.7-1.2-2.7-2.7v-23.6
	C322.9,314.4,324.1,313.2,325.6,313.2z"/>
<path class="st15" d="M193.6,248.5h73.6c2,0,3.7,1.7,3.7,3.7v13.3l-22.8,6.9l-6.9,13.1h-23.6l-6.6-13.7l-19.2-7.4l-1.5-12.2
	c-0.2-1.8,1-3.4,2.8-3.7C193.3,248.5,193.4,248.5,193.6,248.5z"/>
<path class="st1" d="M172.4,372.3c-24.7,0-44.7-20-44.7-44.7c0-24.7,20-44.7,44.7-44.7s44.7,20,44.7,44.7l0,0
	C217,352.3,197,372.3,172.4,372.3z M172.4,291.9c-19.8,0-35.8,16-35.8,35.8c0,19.8,16,35.8,35.8,35.8c19.8,0,35.8-16,35.8-35.8
	c0,0,0,0,0,0C208.2,307.9,192.1,291.9,172.4,291.9z"/>
<path class="st1" d="M203,283.2l11.7-8.9c1.5-1.2,3.7-0.9,4.9,0.7c0.2,0.2,0.3,0.5,0.4,0.8l4.1,9.6l-7.9,20.1L203,283.2z"/>
<path class="st1" d="M256.8,283.2l-11.8-8.9c-1.5-1.1-3.7-0.8-4.8,0.7c-0.2,0.2-0.3,0.5-0.4,0.7l-4.2,9.7l7.9,20.1L256.8,283.2z"/>
<path class="st15" d="M338.3,347.1l-11.8-4.5c8.2-21.4-2.5-45.4-23.9-53.7c-21.4-8.2-45.4,2.5-53.7,23.9c-3.5,9.2-3.7,19.3-0.5,28.5
	l-12,4.2c-9.8-28.3,5.2-59.2,33.5-69s59.2,5.2,69,33.5C343,322,342.8,335.2,338.3,347.1L338.3,347.1z"/>
<path class="st1" d="M190.3,251.7h-20.8c-1.5,0-3,0.7-4,1.8l-33.3,37.3l40.2-8.5l13.4-16.5l5.9-1.4L190.3,251.7z"/>
<path class="st1" d="M110.3,312.3h19c1.5,0,2.7,1.2,2.7,2.7v23.6c0,1.5-1.2,2.7-2.7,2.7h-19c-1.5,0-2.7-1.2-2.7-2.7v-23.6
	C107.6,313.5,108.8,312.3,110.3,312.3z"/>
<path class="st15" d="M222.6,348.2l-11.8-4.8c8.6-21.2-1.6-45.5-22.8-54.1c-21.2-8.6-45.5,1.6-54.1,22.8c-3.7,9.1-4.1,19.2-1,28.6
	l-12,4c-9.4-28.4,6.1-59.1,34.5-68.5c28.4-9.4,59.1,6.1,68.5,34.5C227.9,322.9,227.5,336.2,222.6,348.2z"/>
<path class="st15" d="M244.4,278.2c0,0.7-0.6,1.3-1.3,1.3s-1.3-0.6-1.3-1.3c0-0.7,0.6-1.3,1.3-1.3
	C243.8,276.9,244.3,277.5,244.4,278.2C244.4,278.2,244.4,278.2,244.4,278.2z"/>
<path class="st15" d="M217.9,278.2c0,0.7-0.6,1.3-1.3,1.3s-1.3-0.6-1.3-1.3c0-0.7,0.6-1.3,1.3-1.3S217.9,277.5,217.9,278.2
	L217.9,278.2z"/>
<path class="st0" d="M296.6,554.4c-6-0.3-11.4,2.6-19.8-2.5c-2-6.8-5-14.2-7.6-21.4l3.6,1.7l-4.5-4.3c-0.2-0.6-0.5-1.3-0.7-1.9
	l2.1,0.4l-3.1-3.5c-1.1-3.4-2.1-6.8-2.8-9.9c5.7,6.6,11.8,13.6,17.6,20.7l-0.4,2.9l2-1C287.8,541.5,292.4,547.8,296.6,554.4z"/>
<path class="st22" d="M320.6,529.5l-2.9,1.2l1.9,0.4c-4.4,6.9-7.3,15.1-7.8,22.3c-4.1-0.2-8.3-2.5-12.8-10.4
	c7.4-8.5,16.9-18.1,28.7-21.7C325,523.8,322.7,526.5,320.6,529.5z"/>
<path class="st8" d="M315.8,479.6l-2,2.8l1.7-0.6c-1.4,10-4.2,20.3-5.9,28.1c-0.2,1-0.4,2-0.6,2.9c-0.4,1.9-0.7,3.8-0.9,5.8
	l-3.3,4.7L302,527l5.4-2.3l0.3-0.2c0,0.1,0,0.2,0,0.3c-0.1,6.1,0.4,12.2,0.7,18.3c0.1,2.6,0.2,5.3,0.2,7.9c0,2.6-1.1,5-2.9,6.8
	c-1.9,1.9-4.4,2.9-7.1,2.9c-0.6,0-1.2-0.1-1.9-0.1c-3.8-0.6-6.9-3.4-7.9-7.2c-1.2-4.5-1.5-9.2-1-13.9c0.5-5.1,1.7-10.1,3.6-14.9
	c1.4-3.6,3-7.2,4.9-10.6c0.8-1.4,1.5-2.8,2.3-4.3c4.5-1.9,2.9-3.2,1.8-3.7c0.2-0.4,0.4-0.8,0.5-1.1c2.6,0.2,4.5,0,0.8-1.7
	c0.4-0.8,0.8-1.6,1.2-2.4c1.9-4.1,3.8-8.3,5.4-12.4c3.1-7.3,5.7-14.9,7.7-22.6C316.5,470.3,316.4,475,315.8,479.6z"/>
<path class="st7" d="M284.2,560.3c-0.8-0.1-1.5-0.4-2.1-0.9c-5.6-4.9-10.6-10.8-16.9-15c-2.6-1.6-5.3-3-8.1-4.2l3.1-1.6l-4.9,0.8
	l-1.1-0.5l2.1-1.1l-3.3,0.5c-3.1-1.3-6-3-8.6-5c9.6,1.2,18.9,2.5,27.8,6.9c5.8,2.8,11.3,6.1,16.6,9.8
	C293.6,553.7,290.4,561.2,284.2,560.3z"/>
<path class="st9" d="M335.2,537.9h-4.5l3.3,0.6L333,539c-3,1.4-5.8,3.2-8.3,5.4l-0.3,0.3c-2,2.1-3.6,4.5-4.6,7.2l-5.1,1l2.4,0.7
	l1.9,0.5c-0.3,0.9-0.6,1.7-0.9,2.6c-0.6,2-2.1,3.6-4,4.4c-1.5,0.7-3.1,0.9-4.7,0.7h-0.2c-5.3-0.8-8.2-6.3-5.5-10.6
	c1.8-2.8,4.1-5.3,6.8-7.3c0.9-0.7,1.8-1.3,2.7-1.9c0.4-0.3,0.9-0.6,1.3-0.8s1-0.6,1.5-0.8l1.3,3.8l2-5l0.2-0.5
	c6.8-3,14.2-4.3,21.7-4C339.3,535.9,337.2,536.9,335.2,537.9z"/>
<path class="st9" d="M283.4,561.2c-3.9,3.8-8.9-1.1-13.8-2.6c-2.1-0.7-4.5-1.3-7-1.8l2.3-3.1l-4.8,2.6c-4.6-0.9-9.3-1.2-14-0.8
	c2.5-1.1,5-2.1,7.6-2.9l1.7,0.9l-0.4-1.3c6.8-2.1,14.8-3.6,19.5-2C284.7,552.2,287.2,557.6,283.4,561.2z"/>
<path class="st22" d="M292.9,560.2h-0.2c-6.1,0.1-14.2-2.4-13.4-6.9c0.4-2.8,0.3-5.6-0.6-8.3l3.6,1.8l-4.4-4.3
	c-2.1-5.2-5.9-10.2-9.5-14.5c4.1,2.3,8,4.9,11.7,7.8l1.4,3V537c1,0.8,2,1.7,2.9,2.6l0.8,5.4l1.4-3.3c4,4,7.4,8.5,10.1,13.5
	C298.1,557.7,296.6,560.2,292.9,560.2z"/>
<path class="st22" d="M307.5,524.7l0.3-0.2c0,0.1,0,0.2,0,0.3L307.5,524.7z"/>
<path class="st0" d="M300.7,560.4c0,0-5.4-29.6,6.8-56.5c0,0-12.2,16.2-8.8,56.8C299.4,560.7,300,560.6,300.7,560.4z"/>
<path class="st0" d="M308.4,561.6c0,0,2.5-11.8,12.2-17c0,0-10.3,3-13.8,16.4C307.3,561.4,307.8,561.6,308.4,561.6z"/>
<path class="st7" d="M278.8,538c0,0,12.5,14.1,12.3,22.2c-0.8,0-1.7-0.1-2.5-0.3C287.3,559.7,291.3,554.1,278.8,538z"/>
<path class="st15" d="M326,573.2c0,16.1-13.9,29-31.1,29c-8.6,0.1-16.9-3.3-22.9-9.4c-5.2-5.2-8.2-12.3-8.2-19.7
	c0-4.7,1.2-9.3,3.5-13.4c0.3-0.5,0.5-0.9,0.8-1.3h53.6C324.5,562.8,326,568,326,573.2z"/>
<path class="st1" d="M304.2,576.3c0,9.1-14.4,16.5-32.3,16.6c-5.2-5.2-8.2-12.3-8.2-19.7c0-4.7,1.2-9.3,3.5-13.4
	c1.4-0.1,2.8-0.1,4.3-0.1C289.6,559.7,304.2,567.1,304.2,576.3z"/>
<rect x="265.6" y="556.4" class="st14" width="58.1" height="4.2"/>
<path class="st1" d="M548.5,495.9c2.6-0.3,5.2-0.4,7.7-0.6c1.3-0.1,2.6-0.2,3.9-0.2s2.6-0.2,3.9-0.2l-1.3,1.2
	c-0.1-2.6-0.2-5.2-0.3-7.8l-0.1-3.9l-0.1-3.9c-0.2-5.2-0.2-10.4-0.2-15.6c0-5.2,0.2-10.4,0.3-15.6l0.1-7.8l0.1-7.8
	c0.1-10.4,0.3-20.8,0.5-31.2c0.2-10.4,0.4-20.8,0.7-31.2h0.4c0.3,10.4,0.5,20.8,0.7,31.2s0.4,20.8,0.5,31.2l0.1,7.8l0.2,7.8
	c0.1,5.2,0.3,10.4,0.3,15.6s0,10.4-0.2,15.6l-0.1,3.9l-0.1,3.9c-0.1,2.6-0.2,5.2-0.3,7.8l-0.1,1.3h-1.2c-1.3-0.1-2.6-0.1-3.9-0.2
	s-2.6-0.1-3.9-0.2c-2.6-0.2-5.2-0.4-7.7-0.6L548.5,495.9z"/>
<path class="st1" d="M310.4,232.1c-0.3-5.3-0.5-10.6-0.6-15.9s-0.3-10.6-0.5-15.9l-0.2-8l-0.1-8c-0.1-5.3-0.2-10.6-0.2-15.9v-1.8
	h1.9c17.7-0.2,35.4-0.1,53.1,0.1l53.1,0.5c17.7,0.2,35.4,0.3,53.1,0.5l53.1,0.6v0.4l-53.1,0.6c-17.7,0.2-35.4,0.3-53.1,0.5
	l-53.1,0.5c-17.7,0.2-35.4,0.3-53.1,0.1l1.8-1.8c-0.1,5.3-0.1,10.6-0.2,15.9l-0.1,8l-0.2,8c-0.1,5.3-0.3,10.6-0.5,15.9
	s-0.4,10.6-0.6,15.9L310.4,232.1z"/>
</svg>
