<svg id="_ëîé_1" data-name="‘ëîé_1" xmlns="http://www.w3.org/2000/svg" viewBox="0 0 971.55 1203.66"><defs><style>.cls-1{fill:#fff;}.cls-2{fill:#e397ff;}.cls-3{fill:#fcf2fc;}.cls-4{fill:#f3d7ff;}.cls-5{fill:#faebff;}.cls-6{fill:#d24aff;}.cls-7{fill:#e36eff;}.cls-8{fill:#ff2e57;}.cls-9{fill:#fbc922;}.cls-10{fill:#ab37bf;}.cls-11{fill:#a9f7ca;}.cls-12{fill:#bc2650;}.cls-13{fill:#ffa800;}.cls-14{fill:#0981f3;}.cls-15{fill:#1f1440;}.cls-16{fill:#842489;}.cls-17{fill:#582463;}.cls-18{fill:#ffadae;}.cls-19{fill:#8e288e;}.cls-20{fill:#ff9395;}.cls-21{fill:#53255e;}.cls-22{fill:#e5b3ff;}.cls-23{fill:#ac1548;}</style></defs><title>banner-right</title><circle class="cls-1" cx="568.7" cy="611.14" r="4.19" transform="translate(-12.26 11.64) rotate(-1.16)"/><rect class="cls-2" x="307.1" y="1141.02" width="24.37" height="28.94" rx="2.68"/><path class="cls-3" d="M821.66,1203.8l17.45-34.24c44.31-87,98.18-162,93.46-264.22-4.35-94.2-46.59-185.85-125-240.84-90.22-63.23-228.91-74-318.25-2.68-37.89,30.26-63.05,74.23-98.48,107.26-40.22,37.5-92.64,55.6-144.45,70.66-36.55,10.63-73,23.36-104.73,44.37-115.22,76.3-76.74,205.91-47.74,317Z"/><path class="cls-4" d="M740.26,903.24S743.44,893,742,886.45s-3.33-8.44-6.67-9.19-5.47,4.47-4.58,8S733.85,894.69,740.26,903.24Z"/><path class="cls-4" d="M746.78,897.05s9.22-5.46,12.53-11.3,3.19-8.49,1.22-11.29-7.06-.35-8.78,2.88S747.75,886.41,746.78,897.05Z"/><path class="cls-4" d="M733.94,914.08s.32-12-3.25-18.64-6.16-8.09-10-7.89-4.55,6.49-2.5,10.05S724.42,906.81,733.94,914.08Z"/><path class="cls-4" d="M728.34,917.63s-4.49-11.15-10.4-15.8-8.88-5-12.32-3.27-1.58,7.77,1.71,10.22S716.71,914.75,728.34,917.63Z"/><path class="cls-4" d="M728.26,922.43s-6.48-3.25-11-3-6,1.29-6.87,3.44,2.39,4.14,4.85,3.94S721.85,925.77,728.26,922.43Z"/><path class="cls-4" d="M743.54,905.13s6.9-8.2,13.2-10.5,8.9-1.76,11.34.65-.81,7-4.28,8.19S754.19,905.92,743.54,905.13Z"/><path class="cls-4" d="M737.81,916.3s10-6.75,17.45-7.32,10.14.83,12,4.17-3,7.33-7.12,7.52S749.07,920.4,737.81,916.3Z"/><path class="cls-4" d="M737.85,922.93s11.81-2.22,18.92.24,9,4.79,9.38,8.61-5.68,5.52-9.53,4.07S746.54,931.18,737.85,922.93Z"/><path class="cls-4" d="M733.85,925.59s6.22,3.7,8.46,7.65,2.14,5.75.8,7.64-4.77.23-5.93-2S734.49,932.78,733.85,925.59Z"/><path class="cls-4" d="M749.06,893.24c-.47.87-1.17,2.11-2.06,3.68-1.26,2.21-2.92,5.07-4.86,8.41l-.76,1.3-.23.4-.27.47c-1.54,2.62-3.22,5.49-5,8.54l-.38.66-.22.38h0l-.13.23-2.65,4.48c0,.08-.09.16-.14.24v0l-.24.41-.28.47-.06.1c-9.39,15.9-20.73,34.93-29.63,49.71l-.45.75c-6.47,10.74-11.58,19.11-13.59,22.2l-.8-.62c2-3,6.9-11.11,13.18-21.53.15-.25.3-.5.46-.75,8.92-14.83,20.43-34.13,29.93-50.22l.2-.34.3-.5.13-.23a.41.41,0,0,0,0-.09l.35-.58c.84-1.42,1.65-2.81,2.46-4.17.19-.34.39-.67.59-1,1.86-3.17,3.6-6.14,5.18-8.85l.84-1.43c2.59-4.45,4.69-8.08,6.06-10.52.46-.81.84-1.49,1.13-2S749.38,892.66,749.06,893.24Z"/><path class="cls-4" d="M746,904.3c-1.24,1-2.76,1.41-4,2.34-.53.39-1.15-.41-.63-.8,1.26-.93,2.78-1.39,4-2.35a.51.51,0,0,1,.62.81Z"/><path class="cls-4" d="M740.3,900.5q.42,3.25.85,6.49a.51.51,0,0,1-1,.13c-.28-2.16-.57-4.32-.85-6.49a.51.51,0,0,1,1-.13Z"/><path class="cls-4" d="M734.11,912.35a7.68,7.68,0,0,0,1.25,4c.41.51-.39,1.13-.8.62a8.53,8.53,0,0,1-1.46-4.5c0-.65,1-.79,1-.14Z"/><path class="cls-4" d="M740.07,916.39a15.41,15.41,0,0,1-2.24.38c-.45.06-1.92.15-2.1.4-.38.54-1.18-.08-.81-.62s1.38-.58,2-.67a23.93,23.93,0,0,0,2.8-.42c.62-.18,1,.76.4.93Z"/><path class="cls-4" d="M726.79,915.8a26.5,26.5,0,0,1,3.09,2.61,34.15,34.15,0,0,0,2.4,2.81c.5.42-.12,1.23-.62.81a18.07,18.07,0,0,1-2.13-2.49,20,20,0,0,0-3.36-2.94.51.51,0,0,1,.62-.8Z"/><path class="cls-4" d="M739.76,924c-1.44-.62-3.16-.52-4.64-.79a18.17,18.17,0,0,0-3.3-.17c-.68,0-.55-1,.11-1,2.59.09,5.8,0,8.22,1a.51.51,0,0,1-.39.94Z"/><path class="cls-4" d="M726.87,921.78c1.69-.13,3.39-.12,5.08-.32a.5.5,0,0,1,.13,1c-1.69.21-3.39.19-5.08.33-.65.05-.79-1-.13-1Z"/><path class="cls-4" d="M734.37,927.34a7,7,0,0,0-1.34-2.78,8.85,8.85,0,0,0-1.9-2.23.51.51,0,0,1,.62-.81,10.64,10.64,0,0,1,2.25,2.66,7.56,7.56,0,0,1,1.37,3,.5.5,0,0,1-1,.13Z"/><path class="cls-4" d="M757.2,969.09s7.47-2.14,10.87-5.62,3.8-5.38,2.93-7.71-4.89-1.54-6.69.41S759.84,961.8,757.2,969.09Z"/><path class="cls-4" d="M763.54,970.58s7,3.43,11.84,3.12,6.42-1.44,7.34-3.75-2.59-4.43-5.24-4.18S770.39,966.94,763.54,970.58Z"/><path class="cls-4" d="M748.11,969.57s7.41-4.59,10-9.38,2.46-7,.81-9.21-5.74-.18-7.09,2.48S748.73,960.9,748.11,969.57Z"/><path class="cls-4" d="M743.73,967.57s5-7.15,5.45-12.59-.51-7.36-2.91-8.77-5.35,2.13-5.52,5.1S740.85,959.37,743.73,967.57Z"/><path class="cls-4" d="M740.78,969.43s-.6-5.22-2.55-7.87-3.17-3.12-4.82-2.8-1.57,3.1-.46,4.51S736.21,966.87,740.78,969.43Z"/><path class="cls-4" d="M757.35,971.83s7.72.93,11.63,3.84,4.6,4.7,4.11,7.14-4.59,2.3-6.68.65S761.11,978.61,757.35,971.83Z"/><path class="cls-4" d="M748.3,972.79s8.05,3.36,11.37,7.69,3.54,6.47,2.26,9-5.64,1.08-7.39-1.33S750.29,981.26,748.3,972.79Z"/><path class="cls-4" d="M744.29,975.45s6,6.28,7.37,11.58.66,7.35-1.49,9.12-5.61-1.26-6.26-4.17S742.74,984,744.29,975.45Z"/><path class="cls-4" d="M741.09,974.08s.23,5.25-1.28,8.18-2.64,3.58-4.32,3.52-2-2.8-1.17-4.38S737,977.33,741.09,974.08Z"/><path class="cls-4" d="M766.76,970.46c-.71,0-1.74.13-3,.2-1.85.12-4.24.25-7.05.4l-1.09.06h-.33l-.39,0h0l-7.18.36-.55,0h-.51l-3.78.18h-.22l-.34,0h-.49c-7.35.34-15.51.7-23.45,1l-16.68.67-1.21,0c.15-.25.3-.5.46-.75l1.2,0,17.28-.7c7.58-.32,15.32-.66,22.33-1H742l.43,0h.27l.48,0h0l3.51-.16.85-.05h0l7.42-.36,1.2-.07c3.73-.19,6.76-.36,8.79-.49h0l1.68-.13C767.1,969.69,767.24,970.42,766.76,970.46Z"/><path class="cls-4" d="M758.84,973c-1.08-.37-2-1.11-3-1.5a.37.37,0,0,1,.24-.7c1.06.39,2,1.14,3,1.51a.37.37,0,0,1-.24.69Z"/><path class="cls-4" d="M758.87,968l-3.6,3.1a.37.37,0,0,1-.47-.56l3.59-3.1a.37.37,0,0,1,.48.56Z"/><path class="cls-4" d="M749.22,969a5.64,5.64,0,0,0-1.94,2.36c-.14.45-.84.21-.69-.24a6.19,6.19,0,0,1,2.15-2.68c.38-.28.86.28.48.56Z"/><path class="cls-4" d="M749.14,974.2A11.71,11.71,0,0,1,748,973c-.21-.24-.85-1.11-1.08-1.11-.47,0-.41-.75.06-.74s.9.61,1.18.92a18,18,0,0,0,1.37,1.53c.35.31,0,.92-.41.61Z"/><path class="cls-4" d="M744.22,965.9a17.79,17.79,0,0,1-.36,2.92,26,26,0,0,0-.75,2.57c-.05.47-.79.42-.73,0a13,13,0,0,1,.66-2.29,14.36,14.36,0,0,0,.45-3.2.37.37,0,0,1,.73,0Z"/><path class="cls-4" d="M744.4,977a15.32,15.32,0,0,0-1.37-3.13,13,13,0,0,0-1.21-2.07c-.27-.41.41-.74.65-.33,1,1.61,2.32,3.52,2.65,5.4a.37.37,0,0,1-.72.13Z"/><path class="cls-4" d="M740.62,968.33c.76,1,1.42,2,2.22,3a.37.37,0,0,1-.56.48c-.8-.95-1.46-2-2.22-3-.29-.37.27-.85.56-.48Z"/><path class="cls-4" d="M740.23,975.09a4.94,4.94,0,0,0,1.16-1.91,6.71,6.71,0,0,0,.6-2,.37.37,0,0,1,.73.06,7.73,7.73,0,0,1-.72,2.43,5.5,5.5,0,0,1-1.29,2,.37.37,0,0,1-.48-.56Z"/><path class="cls-4" d="M696.16,666.88s-3.23-10.24-1.75-16.79,3.38-8.44,6.77-9.2,5.55,4.47,4.65,8S702.67,658.33,696.16,666.88Z"/><path class="cls-4" d="M689.55,660.69s-9.36-5.46-12.72-11.3-3.24-8.49-1.24-11.29,7.17-.36,8.91,2.88S688.56,650.05,689.55,660.69Z"/><path class="cls-4" d="M702.58,677.72s-.33-12,3.29-18.64,6.25-8.1,10.15-7.9,4.61,6.5,2.54,10.06S712.24,670.45,702.58,677.72Z"/><path class="cls-4" d="M708.27,681.27s4.55-11.15,10.55-15.81,9-5,12.5-3.26,1.61,7.77-1.74,10.22S720.07,678.39,708.27,681.27Z"/><path class="cls-4" d="M708.34,686.07s6.58-3.25,11.18-3,6.08,1.29,7,3.44-2.42,4.14-4.93,3.94S714.85,689.4,708.34,686.07Z"/><path class="cls-4" d="M692.84,668.77s-7-8.2-13.4-10.51-9-1.75-11.52.66.83,7,4.36,8.18S682,669.56,692.84,668.77Z"/><path class="cls-4" d="M698.65,679.93s-10.1-6.74-17.71-7.31-10.29.82-12.22,4.16,3.06,7.33,7.23,7.53S687.22,684,698.65,679.93Z"/><path class="cls-4" d="M698.61,686.57s-12-2.23-19.2.24-9.11,4.79-9.53,8.61,5.78,5.52,9.68,4.07S689.79,694.81,698.61,686.57Z"/><path class="cls-4" d="M702.67,689.22s-6.32,3.71-8.58,7.66-2.18,5.74-.82,7.64,4.84.22,6-2S702,696.42,702.67,689.22Z"/><path class="cls-4" d="M687.23,656.88c.48.86,1.19,2.11,2.09,3.67,1.28,2.22,3,5.08,4.94,8.42l.77,1.3.23.4c.1.15.19.31.28.46,1.56,2.63,3.26,5.5,5.09,8.55l.39.66.22.37h0c0,.08.1.16.14.24.88,1.45,1.77,2.95,2.69,4.48,0,.08.09.16.14.24l0,0,.24.4.28.48.07.1c9.52,15.9,21,34.93,30.06,49.71l.46.75c6.56,10.73,11.75,19.11,13.79,22.2l.82-.62c-2-3-7-11.11-13.38-21.54-.16-.24-.31-.5-.46-.75-9.06-14.83-20.74-34.13-30.38-50.21l-.21-.34-.3-.51-.13-.22-.06-.1-.35-.58-2.49-4.17-.6-1c-1.89-3.17-3.66-6.14-5.26-8.84-.29-.49-.58-1-.85-1.43-2.64-4.45-4.76-8.08-6.16-10.52l-1.14-2C687.87,655.91,686.91,656.3,687.23,656.88Z"/><path class="cls-4" d="M690.34,667.93c1.25,1,2.8,1.42,4.07,2.35.54.39,1.17-.41.63-.8-1.27-.94-2.82-1.39-4.07-2.35-.53-.4-1.16.4-.63.8Z"/><path class="cls-4" d="M696.13,664.14l-.87,6.49a.52.52,0,0,0,1,.13q.42-3.25.86-6.49a.51.51,0,0,0-1-.13Z"/><path class="cls-4" d="M702.41,676a7.57,7.57,0,0,1-1.28,4c-.41.51.4,1.13.82.62a8.53,8.53,0,0,0,1.48-4.51c0-.65-1-.78-1-.13Z"/><path class="cls-4" d="M696.36,680a19.2,19.2,0,0,0,2.27.38c.45.06,2,.15,2.13.4.38.53,1.2-.09.82-.62s-1.4-.58-2-.67a24.63,24.63,0,0,1-2.84-.43c-.63-.17-1,.76-.4.94Z"/><path class="cls-4" d="M709.84,679.43a27.25,27.25,0,0,0-3.14,2.62,36.26,36.26,0,0,1-2.43,2.81c-.51.42.11,1.22.62.8a17.77,17.77,0,0,0,2.17-2.49,20.36,20.36,0,0,1,3.41-2.93c.53-.4-.1-1.2-.63-.81Z"/><path class="cls-4" d="M696.67,687.64c1.47-.61,3.2-.51,4.71-.78a17.88,17.88,0,0,1,3.35-.17c.69,0,.55-1-.11-1-2.63.09-5.89,0-8.35,1a.51.51,0,0,0,.4.93Z"/><path class="cls-4" d="M709.76,685.42c-1.72-.14-3.44-.12-5.16-.33a.51.51,0,0,0-.13,1c1.71.2,3.44.19,5.15.33.66.05.8-1,.14-1Z"/><path class="cls-4" d="M702.14,691a7,7,0,0,1,1.36-2.79,9.34,9.34,0,0,1,1.93-2.23c.53-.4-.1-1.2-.63-.8a10.38,10.38,0,0,0-2.28,2.66,7.56,7.56,0,0,0-1.4,3,.51.51,0,0,0,1,.13Z"/><path class="cls-4" d="M679,732.73s-7.58-2.14-11-5.63-3.86-5.37-3-7.7,5-1.54,6.79.41S676.29,725.44,679,732.73Z"/><path class="cls-4" d="M672.53,734.22s-7.08,3.43-12,3.11-6.52-1.43-7.45-3.75,2.63-4.42,5.32-4.18S665.59,730.58,672.53,734.22Z"/><path class="cls-4" d="M688.2,733.2s-7.53-4.58-10.17-9.38-2.5-7-.83-9.2,5.83-.18,7.2,2.48S687.56,724.53,688.2,733.2Z"/><path class="cls-4" d="M692.65,731.21s-5.06-7.16-5.54-12.59.51-7.37,3-8.77,5.42,2.12,5.6,5.1S695.57,723,692.65,731.21Z"/><path class="cls-4" d="M695.63,733.07s.62-5.22,2.6-7.87,3.21-3.12,4.89-2.8,1.59,3.09.47,4.51S700.27,730.51,695.63,733.07Z"/><path class="cls-4" d="M678.82,735.47s-7.84.92-11.8,3.83-4.67,4.71-4.17,7.15,4.65,2.29,6.77.65S675,742.25,678.82,735.47Z"/><path class="cls-4" d="M688,736.43s-8.16,3.35-11.54,7.68-3.59,6.48-2.29,9,5.73,1.08,7.5-1.33S686,744.89,688,736.43Z"/><path class="cls-4" d="M692.08,739.09s-6.14,6.28-7.49,11.57-.67,7.35,1.52,9.12,5.69-1.25,6.35-4.16S693.64,747.64,692.08,739.09Z"/><path class="cls-4" d="M695.32,737.72s-.23,5.25,1.31,8.17,2.67,3.59,4.37,3.53,2.07-2.81,1.19-4.38S699.5,741,695.32,737.72Z"/><path class="cls-4" d="M669.26,734.09c.73.06,1.77.13,3.1.21,1.87.12,4.3.25,7.14.4l1.11,0h0l.33,0h0l.4,0h0l7.28.36.56,0h0l.31,0h.2l3.83.18h.58l.4,0h.09c7.46.34,15.75.7,23.8,1,5.91.25,11.69.48,16.93.68l1.23,0c-.16-.24-.31-.5-.46-.75l-1.23,0c-5.43-.21-11.43-.45-17.53-.71-7.7-.32-15.56-.66-22.66-1l-.3,0-.43,0h-.27l-.49,0h0l-3.56-.17-.86,0h0l-7.53-.37L680,734c-3.79-.19-6.87-.37-8.93-.5h0l-1.7-.12C668.92,733.33,668.78,734.05,669.26,734.09Z"/><path class="cls-4" d="M677.31,736.63c1.09-.37,2-1.12,3.06-1.51a.37.37,0,0,0-.24-.69c-1.08.39-2,1.13-3.07,1.5a.37.37,0,0,0,.25.7Z"/><path class="cls-4" d="M677.27,731.66l3.66,3.1a.37.37,0,0,0,.48-.57l-3.65-3.09c-.36-.31-.85.25-.49.56Z"/><path class="cls-4" d="M687.07,732.62a5.61,5.61,0,0,1,2,2.35c.14.46.85.21.7-.24a6.17,6.17,0,0,0-2.19-2.67c-.38-.28-.87.27-.48.56Z"/><path class="cls-4" d="M687.15,737.84a13,13,0,0,0,1.14-1.21c.22-.25.87-1.11,1.09-1.12.48,0,.42-.75-.06-.73s-.91.6-1.19.92a16.81,16.81,0,0,1-1.4,1.52c-.35.31.06.93.42.62Z"/><path class="cls-4" d="M692.14,729.54a19.27,19.27,0,0,0,.37,2.92,26,26,0,0,1,.76,2.57c.05.47.8.42.74-.06a12.38,12.38,0,0,0-.67-2.28,13.87,13.87,0,0,1-.45-3.2.38.38,0,0,0-.75,0Z"/><path class="cls-4" d="M692,740.68a16,16,0,0,1,1.39-3.13,13.13,13.13,0,0,1,1.23-2.07c.28-.41-.41-.74-.66-.33-1,1.61-2.35,3.51-2.69,5.39a.37.37,0,0,0,.73.14Z"/><path class="cls-4" d="M695.8,732c-.77,1-1.45,2-2.25,2.95a.37.37,0,0,0,.56.48c.81-.94,1.49-2,2.25-2.95.3-.37-.27-.86-.56-.48Z"/><path class="cls-4" d="M696.2,738.73a5,5,0,0,1-1.18-1.91,6.54,6.54,0,0,1-.61-2.05.37.37,0,0,0-.74.06,7.37,7.37,0,0,0,.73,2.42,5.5,5.5,0,0,0,1.31,2c.36.31.85-.25.49-.56Z"/><path class="cls-5" d="M285,1013.76s-.21-11,3.16-17.08,5.79-7.35,9.36-7.11,4.18,6,2.25,9.28S293.87,1007.21,285,1013.76Z"/><path class="cls-5" d="M280.24,1005.72s-7.65-8.11-9.27-14.85-.73-9.33,2.07-11.51,7.17,1.74,7.95,5.44S282.36,994.93,280.24,1005.72Z"/><path class="cls-5" d="M288.13,1026.32s3.18-11.95,8.68-17.43,8.53-6.17,12.32-4.84,2.66,7.75-.43,10.66S299.79,1022,288.13,1026.32Z"/><path class="cls-5" d="M292.72,1031.48s7.74-9.67,15-12.52,10.33-2.29,13.28.41-.67,8.14-4.69,9.59S305.21,1032.08,292.72,1031.48Z"/><path class="cls-5" d="M291.4,1036.24s7.43-1.29,11.9.3,5.63,3,5.88,5.42-3.6,3.38-6,2.45S296.84,1041.43,291.4,1036.24Z"/><path class="cls-5" d="M281.13,1014.65s-4.53-10.13-10.17-14.27-8.41-4.35-11.55-2.7-1.23,7.17,1.91,9.35S270.22,1012.29,281.13,1014.65Z"/><path class="cls-5" d="M283.61,1027.37s-8-9.6-15.35-12.38-10.39-2.18-13.27.55.89,8.13,4.94,9.54S271.14,1028.09,283.61,1027.37Z"/><path class="cls-5" d="M281.65,1033.91s-11.18-5.69-19-5.36-10.38,2.08-11.91,5.72,4.09,7.13,8.37,6.84S270.53,1039.47,281.65,1033.91Z"/><path class="cls-5" d="M284.88,1037.71s-7.32,1.81-10.7,5-3.82,5-3,7.3,4.71,1.64,6.51-.18S282.14,1044.62,284.88,1037.71Z"/><path class="cls-5" d="M279.06,1001.29c.22,1,.55,2.42,1,4.23.62,2.56,1.44,5.87,2.42,9.75.13.49.25,1,.38,1.5l.12.46c0,.18.09.36.14.54.77,3.05,1.62,6.38,2.53,9.92.06.26.13.51.19.77s.08.28.11.43h0a2.68,2.68,0,0,0,.07.27q.64,2.53,1.34,5.21c0,.09.05.18.07.28v0l.12.47c.05.18.09.36.14.55l0,.12c4.78,18.46,10.6,40.6,15.21,57.81l.24.88c3.34,12.51,2.81,12.79,3.93,16.43l1-.37c-1.08-3.55-.46-3.51-3.72-15.66l-.24-.88c-4.62-17.27-10.53-39.72-15.36-58.4,0-.13-.07-.26-.1-.4l-.15-.58a2.68,2.68,0,0,1-.07-.27l0-.1c-.06-.23-.11-.45-.18-.68-.42-1.65-.84-3.26-1.24-4.84l-.3-1.16c-.95-3.68-1.83-7.13-2.62-10.26-.14-.57-.28-1.12-.42-1.66-1.31-5.16-2.35-9.36-3-12.17q-.34-1.41-.54-2.34C280,1000.52,278.91,1000.62,279.06,1001.29Z"/><path class="cls-5" d="M278.9,1013.1c1,1.31,2.36,2.21,3.34,3.5.41.55,1.27-.06.86-.6-1-1.3-2.38-2.2-3.34-3.51a.53.53,0,0,0-.86.61Z"/><path class="cls-5" d="M285.72,1011c-.91,2.06-1.83,4.11-2.74,6.16a.53.53,0,0,0,1,.42q1.38-3.07,2.74-6.15a.53.53,0,0,0-1-.43Z"/><path class="cls-5" d="M288.47,1024.57a7.68,7.68,0,0,1-2.43,3.59c-.56.38.07,1.23.63.85a8.74,8.74,0,0,0,2.77-4c.23-.63-.74-1.07-1-.43Z"/><path class="cls-5" d="M281.33,1026.79a16.77,16.77,0,0,0,2.13,1c.43.19,1.88.71,2,1a.53.53,0,0,0,1-.37c-.22-.64-1.21-1-1.76-1.23A28.4,28.4,0,0,1,282,1026c-.57-.36-1.24.44-.66.8Z"/><path class="cls-5" d="M294.8,1030.13a26.93,26.93,0,0,0-3.86,1.67,35.12,35.12,0,0,1-3.22,2.06c-.62.27-.24,1.25.39,1A19.53,19.53,0,0,0,291,1033a20.56,20.56,0,0,1,4.22-1.9.53.53,0,0,0-.39-1Z"/><path class="cls-5" d="M279.42,1034.4c1.62-.18,3.31.42,4.87.59a18.72,18.72,0,0,1,3.36.82c.68.2.84-.86.18-1-2.62-.68-5.81-1.73-8.54-1.42a.52.52,0,0,0,.13,1Z"/><path class="cls-5" d="M293,1036c-1.66-.63-3.36-1.12-5-1.82a.53.53,0,0,0-.43,1c1.63.7,3.34,1.18,5,1.82.64.24,1.07-.71.43-1Z"/><path class="cls-5" d="M283.85,1039.29a7.1,7.1,0,0,1,2.14-2.36,9.47,9.47,0,0,1,2.56-1.64.53.53,0,0,0-.38-1,10.88,10.88,0,0,0-3,2,7.73,7.73,0,0,0-2.25,2.58.53.53,0,0,0,1,.43Z"/><path class="cls-5" d="M248.82,1073.74s-6.86-4.31-9.25-8.76-2.24-6.43-.69-8.47,5.34-.08,6.58,2.38S248.3,1065.77,248.82,1073.74Z"/><path class="cls-5" d="M242,1073.34s-8,1.32-12.76-.42-6-3.32-6.26-5.87,3.88-3.6,6.47-2.58S236.24,1067.73,242,1073.34Z"/><path class="cls-5" d="M257.79,1076.9s-6.09-6.72-7.3-12.22-.45-7.59,1.86-9.33,5.81,1.53,6.38,4.55S259.69,1068.16,257.79,1076.9Z"/><path class="cls-5" d="M262.76,1076.23s-2.9-8.54-1.8-14,2.65-7.12,5.47-7.8,4.74,3.68,4.05,6.67S268,1069,262.76,1076.23Z"/><path class="cls-5" d="M265.17,1078.93s2.12-5,4.85-7,4.08-2.15,5.64-1.34.67,3.51-.85,4.59S270.49,1077.76,265.17,1078.93Z"/><path class="cls-5" d="M247.87,1076.4s-8-1.36-12.76.35-6,3.29-6.2,5.84,3.93,3.62,6.5,2.61S242.13,1082,247.87,1076.4Z"/><path class="cls-5" d="M256.66,1080s-9,.93-13.63,4.22-5.43,5.35-4.87,8.17,5.34,2.74,7.79.88S252.2,1087.79,256.66,1080Z"/><path class="cls-5" d="M259.9,1083.84s-7.88,4.41-10.76,9.24-2.8,7.06-1.15,9.44,6,.42,7.48-2.26S259,1092.74,259.9,1083.84Z"/><path class="cls-5" d="M263.51,1083.43s-1.76,5.11-1.1,8.45,1.6,4.31,3.3,4.75,2.85-2.17,2.44-4S266.68,1087.85,263.51,1083.43Z"/><path class="cls-5" d="M238.84,1072.26c.7.27,1.71.65,3,1.11,1.81.66,4.17,1.5,6.93,2.47l1.08.38h0l.32.11h0l.38.13h0l7.08,2.47.55.19h0l.31.11.19.07,3.73,1.29h0l.2.07h0l.34.12.39.14h0l.08,0c7.27,2.51,15.34,5.27,23.19,8l16.52,5.6,1.19.4-.24-.88-1.19-.4c-5.31-1.78-11.15-3.77-17.1-5.8-7.5-2.55-15.16-5.18-22.08-7.57l-.29-.1-.41-.14-.19-.07h0l-.06,0h0l-.48-.17h0l-3.47-1.2-.83-.29h0l-7.33-2.56-1.19-.41c-3.68-1.3-6.66-2.36-8.65-3.09h0l-1.64-.62C238.73,1071.41,238.38,1072.08,238.84,1072.26Z"/><path class="cls-5" d="M246,1077.11c1.19,0,2.29-.52,3.47-.59a.38.38,0,0,0,0-.76c-1.18.07-2.28.54-3.46.59a.38.38,0,0,0,0,.76Z"/><path class="cls-5" d="M247.46,1072.2l2.7,4.11a.38.38,0,0,0,.64-.41l-2.7-4.11a.38.38,0,0,0-.64.41Z"/><path class="cls-5" d="M256.84,1076a5.69,5.69,0,0,1,1.26,2.9.39.39,0,0,0,.77,0,6.48,6.48,0,0,0-1.38-3.28c-.3-.39-.94,0-.65.41Z"/><path class="cls-5" d="M255.41,1081.17a13.44,13.44,0,0,0,1.47-.86c.29-.18,1.18-.85,1.4-.79.48.13.64-.61.16-.74s-1.07.33-1.45.56a17.59,17.59,0,0,1-1.82,1.1c-.44.2-.21.93.24.73Z"/><path class="cls-5" d="M262.75,1074.43a18.83,18.83,0,0,0-.49,3,25.41,25.41,0,0,1,0,2.76c-.08.48.67.64.76.16a14.32,14.32,0,0,0,0-2.45,14.87,14.87,0,0,1,.49-3.3c.11-.47-.64-.63-.75-.16Z"/><path class="cls-5" d="M259.33,1085.37a15.84,15.84,0,0,1,2.28-2.68,13.26,13.26,0,0,1,1.82-1.69c.39-.32-.2-.85-.56-.52-1.45,1.3-3.34,2.79-4.23,4.55a.39.39,0,0,0,.69.34Z"/><path class="cls-5" d="M265.65,1077.89c-1,.74-2,1.57-3.08,2.26a.38.38,0,0,0,.42.64c1.07-.69,2-1.52,3.08-2.26.4-.28,0-.92-.42-.64Z"/><path class="cls-5" d="M264.07,1084.68a5.08,5.08,0,0,1-.6-2.23,6.77,6.77,0,0,1,0-2.2.39.39,0,0,0-.76-.16,7.89,7.89,0,0,0,0,2.61,5.7,5.7,0,0,0,.7,2.39c.27.41.92,0,.64-.41Z"/><path class="cls-1" d="M926.65,950.47a27.88,27.88,0,1,1-36.51,14.9A27.88,27.88,0,0,1,926.65,950.47Z"/><path class="cls-1" d="M864.52,954.61A55.29,55.29,0,0,0,861,985.43a55.92,55.92,0,0,0,10.09,23.75,55.07,55.07,0,0,0,23.21,18.32,55.69,55.69,0,1,0-29.75-72.89ZM956,943.16a52,52,0,0,1-60.31,80.94,51.2,51.2,0,0,1-18.48-13.17,52.21,52.21,0,0,1-12.72-26.67A52,52,0,0,1,956,943.16Z"/><path class="cls-1" d="M481.87,658.1A27.89,27.89,0,1,1,445.36,673,27.89,27.89,0,0,1,481.87,658.1Z"/><path class="cls-1" d="M419.73,662.24a55.64,55.64,0,1,0,72.91-29.78A55.48,55.48,0,0,0,419.73,662.24Zm91.5-11.44a52,52,0,0,1-60.31,80.93,51.09,51.09,0,0,1-18.49-13.17,52,52,0,0,1,58.78-82.7A51.48,51.48,0,0,1,511.23,650.8Z"/><path class="cls-1" d="M881.54,886.5a8.42,8.42,0,1,1-11,4.51A8.43,8.43,0,0,1,881.54,886.5Z"/><circle class="cls-1" cx="837.23" cy="887.86" r="8.42" transform="translate(-330.56 1242.14) rotate(-63.56)"/><path class="cls-1" d="M805,941a4.19,4.19,0,1,1-5.48,2.23A4.19,4.19,0,0,1,805,941Z"/><path class="cls-1" d="M862.78,887.75a16.8,16.8,0,1,0,22-9A16.71,16.71,0,0,0,862.78,887.75Zm27.63-3.45a15.7,15.7,0,0,1-18.21,24.44,15.5,15.5,0,0,1-5.59-4,15.84,15.84,0,0,1-3.84-8,15.7,15.7,0,0,1,27.64-12.41Z"/><path class="cls-1" d="M815.4,917.64a3,3,0,1,1-3.95,1.61A3,3,0,0,1,815.4,917.64Z"/><path class="cls-1" d="M803.36,915.85a11.73,11.73,0,0,0-.76,6.53,12.1,12.1,0,0,0,2.14,5A11.79,11.79,0,1,0,823.41,913a11.59,11.59,0,0,0-4.61-3.48A11.81,11.81,0,0,0,803.36,915.85Zm19.37-2.43A11,11,0,0,1,810,930.57a10.79,10.79,0,0,1-3.91-2.79,11.13,11.13,0,0,1-2.7-5.65,10.9,10.9,0,0,1,.73-6,11,11,0,0,1,14.41-5.89A10.9,10.9,0,0,1,822.73,913.42Z"/><circle class="cls-1" cx="855.28" cy="942.64" r="4.19" transform="translate(-258.65 1558.47) rotate(-76.72)"/><path class="cls-1" d="M594.3,732.8a8.42,8.42,0,1,1,3.59-11.35A8.43,8.43,0,0,1,594.3,732.8Z"/><path class="cls-1" d="M625.47,705.32A8.42,8.42,0,1,1,629.06,694,8.4,8.4,0,0,1,625.47,705.32Z"/><path class="cls-1" d="M605.33,717.57a16.65,16.65,0,0,0-6.47-6.77,16.83,16.83,0,0,0-7.46-2.24,16.57,16.57,0,0,0-8.74,1.85,16.81,16.81,0,0,0,7.5,31.73,16.59,16.59,0,0,0,8-1.89A16.83,16.83,0,0,0,605.33,717.57Zm-15,23.46a15.7,15.7,0,0,1-7.16-29.63,15.42,15.42,0,0,1,6.63-1.75,15.78,15.78,0,0,1,8.65,2.19A15.69,15.69,0,0,1,590.33,741Z"/><path class="cls-1" d="M612.63,662a3,3,0,1,1,1.29-4.06A3,3,0,0,1,612.63,662Z"/><path class="cls-1" d="M621.7,653.91a11.69,11.69,0,0,0-4.54-4.75,11.88,11.88,0,0,0-5.23-1.57,11.79,11.79,0,1,0-.87,23.55,11.59,11.59,0,0,0,5.63-1.32A11.81,11.81,0,0,0,621.7,653.91Zm-10.52,16.46a11,11,0,0,1-5-20.78,10.89,10.89,0,0,1,4.65-1.23,11,11,0,1,1,.37,22Z"/><path class="cls-1" d="M570.59,673.5a4.19,4.19,0,1,1-5.9.55A4.19,4.19,0,0,1,570.59,673.5Z"/><path class="cls-1" d="M776.92,986a3.9,3.9,0,1,1,3.22-4.47A3.9,3.9,0,0,1,776.92,986Z"/><path class="cls-6" d="M779.65,1095.66c.9-1.23,2-2.18,3-3.34a24.51,24.51,0,0,0,2-3.2.44.44,0,0,0-.76-.45,17.8,17.8,0,0,1-2.42,3.63,26.22,26.22,0,0,0-2.57,2.91c-.33.46.43.9.76.45Z"/><path class="cls-7" d="M783.6,1091.34s-19-7.32,3.5-26.36c0,0,6.41-4.37,10.57-3.45C799,1061.83,804,1094.66,783.6,1091.34Z"/><path class="cls-6" d="M768.66,1117.94s-12.84-16.07-24.51,6.84a17.74,17.74,0,0,0-.85,14.23c0,.06.05.13.07.2a2.23,2.23,0,0,1,.15.52,7.64,7.64,0,0,1-.14,3.48.8.8,0,0,0,.65,1.1c5.25.68,24.44,2.17,29.92-11.74C778.5,1121.05,768.66,1117.94,768.66,1117.94Z"/><path class="cls-6" d="M789.36,1108.19s-7-7.1,2.28-11.31c8.59-3.91,11.88,2.88,16.57,2.63a.62.62,0,0,1,.63.87C806.85,1104.68,798.77,1119.9,789.36,1108.19Z"/><path class="cls-8" d="M774.38,1104.09s6.11-23.73-35.79-20.4C738.59,1083.69,738,1119.51,774.38,1104.09Z"/><path class="cls-6" d="M778.63,994.14l3.57,156.42a2.87,2.87,0,1,1-5.73,0c.19-21.45,1.3-150.85,0-156.47Z"/><path class="cls-9" d="M776.33,994.7c-.73.14-1.16.18-1.16.18s-23.95,4-16-32.91a21.91,21.91,0,0,0-.58-4.7c-.09-.37-.2-.72-.31-1.07,0,0,27.49.55,32.15,18.51C794.44,990,780.52,993.89,776.33,994.7Z"/><path class="cls-10" d="M744.57,977.26s26.28,5.32,23.95,24.61C768.52,1001.87,757.21,1017.5,744.57,977.26Z"/><path class="cls-6" d="M781,1116.17c1.08-2.5,2.27-5,4.37-6.84,1.85-1.61,4.23-2,6.1-3.49.44-.35-.19-1-.63-.63a20.14,20.14,0,0,1-3.56,1.72,13.05,13.05,0,0,0-3,2.24,19.59,19.59,0,0,0-4,6.55c-.22.52.54,1,.76.45Z"/><path class="cls-6" d="M767.13,1119.16c2-2.85,8.81-4.09,11.39-1.46.39.4,1-.22.62-.62-3-3.09-10.4-1.68-12.78,1.64-.33.46.44.9.77.44Z"/><path class="cls-6" d="M780.69,1132.55c5-5.89,13.18-5.51,17.38,1,.31.48,1.07,0,.76-.44-4.47-7-13.41-7.54-18.76-1.2-.36.43.26,1.06.62.62Z"/><path class="cls-6" d="M773.4,1066.22a17.74,17.74,0,0,1,2.9,1.67,13.37,13.37,0,0,0,2.08,1.76.44.44,0,0,0,.45-.76,22.48,22.48,0,0,1-2.31-2,25,25,0,0,0-2.68-1.48.44.44,0,0,0-.44.76Z"/><path class="cls-6" d="M779,1058.28c2.27-2.65,5.48-3.75,8.67-4.88.53-.18.31-1-.23-.85-3.33,1.18-6.7,2.34-9.06,5.11-.37.42.25,1,.62.62Z"/><path class="cls-6" d="M756.55,1017.33c6.71,4.3,18.53,7.73,21.41,16.14.18.54,1,.31.85-.23-3-8.7-14.9-12.24-21.82-16.67-.48-.31-.92.45-.44.76Z"/><path class="cls-6" d="M779,1027.71c1-3.39,4.24-7.2,6.53-9.74,2.15-2.38,4.67-5.14,7.46-6.74a.44.44,0,0,0-.45-.76c-3.2,1.83-6.07,5-8.43,7.78-2.21,2.62-5,5.92-6,9.22a.44.44,0,0,0,.85.24Z"/><path class="cls-10" d="M766.08,1001.59c1.83,1.26,3.43,2.87,5.48,3.79,1.74.78,3.81,1.94,5.71,2.24.55.08.79-.76.23-.85-1.72-.27-4-1.49-5.55-2.2-2-.9-3.61-2.49-5.43-3.74-.46-.33-.9.44-.44.76Z"/><path class="cls-7" d="M832.59,1032.58a35.54,35.54,0,0,0-25.42-6,36.52,36.52,0,0,0-10.5,3.35s9.31-16,23.5-10.21c.86.35,1.68.72,2.43,1.07C834.15,1026.33,832.59,1032.58,832.59,1032.58Z"/><path class="cls-11" d="M757.87,1018.17a48.56,48.56,0,0,0-22.69.73,40.52,40.52,0,0,0-20.54,13.24s-8-10.64,13.08-22.18c11.68-6.39,19.68-3.17,24.48,1A24,24,0,0,1,757.87,1018.17Z"/><path class="cls-6" d="M831.05,1072.91A44.89,44.89,0,0,0,820.41,1062c-7.8-5.74-19.91-11-36.37-7.74a47.56,47.56,0,0,1,15.22-9.46,22,22,0,0,1,14-.73C827.5,1048.52,830.6,1061.82,831.05,1072.91Z"/><path class="cls-7" d="M775.17,1066.94c-44.34-7.54-66.52,18.18-66.52,18.18a31.86,31.86,0,0,1,.09-7.53q.1-.88.27-1.74a26.78,26.78,0,0,1,20-20.94c22.26-5.58,34.78.65,41,6A23,23,0,0,1,775.17,1066.94Z"/><path class="cls-11" d="M774.11,1035.35s-12.5.28-21.22-2-12.71,7.65,6.92,25.94c0,0,1.36-4.32,19.29-9.06S796.06,1029.08,774.11,1035.35Z"/><path class="cls-9" d="M809.88,1147.32s-.71.13-1.9.26c-5.67.58-22.09,1.08-21.71-13.19a5,5,0,0,1,3.34-4.59,21.76,21.76,0,0,1,5.7-1.14,28.54,28.54,0,0,1,9.7,1C816.54,1132.85,802.91,1142.33,809.88,1147.32Z"/><path class="cls-7" d="M747.62,1136.89a1.2,1.2,0,0,1-2.13-.67,14,14,0,0,1,1.93-8.2c2.09-3.77,4.87-8.32,9-10.28,2.33-1.11,3.33-.78,5.14.82s3.67,1.12,5.43,2.34c2,1.37,1.58,4.66.3,6.35-1.65,2.18-5,1.89-7.45,2.46C756,1130.59,750.43,1133.54,747.62,1136.89Z"/><path class="cls-12" d="M744.24,1090.15a.84.84,0,0,0-1.27,1.06,53.64,53.64,0,0,0,3.35,5.07,20.29,20.29,0,0,0,9.21,7.31c2.46,1,10.41,3.14,10.25-1.62-.16-4.45-5.9-5-9-5.93C752.43,1094.7,747.87,1093.13,744.24,1090.15Z"/><path class="cls-7" d="M804.21,1101.28a1.16,1.16,0,0,0-1.61-.63c-3.26,1.52-8.86,1.54-9.31,6.16-.31,3.25,3.44,2.7,5.47,2.23S805.82,1106,804.21,1101.28Z"/><path class="cls-1" d="M754.47,1037.12c3.51.71,7,1.66,10.64,1.47,3.89-.19,7.7-.79,11.55-1.17,2.2-.22,9.66-1.22,7.16,3.34-1.65,3-8.06,4.07-11.16,4.84-2.11.53-4.24.85-6.3,1.54-1.58.53-3,1.45-4.57,2-.37-2.19-3-5-4.77-6.2C756.21,1042.38,750.54,1038.72,754.47,1037.12Z"/><path class="cls-7" d="M752.7,986.48c1.75,4,3.07,8.4,5.44,12.21.88,1.42,3.4,4.34,5.05,2.1,1.27-1.75-.13-4.24-1.24-5.65A41.23,41.23,0,0,0,752.7,986.48Z"/><path class="cls-13" d="M776.33,994.7c-.84-3.55,4.49-5.77,6.54-7.47a8.87,8.87,0,0,0,3.2-9.41c-2-7.56-9.56-11.8-15.75-15.57-3.81-1.55-6.68-2.63-9.67-4.11-.59-.3-1.29-.58-2-.87-.09-.37-.2-.72-.31-1.07,0,0,27.49.55,32.15,18.51C794.44,990,780.52,993.89,776.33,994.7Z"/><path class="cls-14" d="M757.87,1018.17a48.56,48.56,0,0,0-22.69.73,10.22,10.22,0,0,0-1-.65A5.19,5.19,0,0,0,731,1018c-2.48.36-4.92,1.29-7.4,1.89-.86.21-3,1-2.71-.54.13-.74,2.18-2.22,2.77-2.68,4.92-3.72,11.13-5.15,17.18-5.79a56.63,56.63,0,0,1,8.36-.51,13.4,13.4,0,0,1,3,.53A24,24,0,0,1,757.87,1018.17Z"/><path class="cls-6" d="M817.56,1002.46c-1.18.25-2.49.33-3.34.54a32.4,32.4,0,0,0-12.09,5.25,36.71,36.71,0,0,0-10.5,3.35s9.32-16,23.5-10.21C816,1001.74,816.81,1002.11,817.56,1002.46Z"/><path class="cls-6" d="M775.17,1066.94c-44.34-7.54-66.52,18.18-66.52,18.18a31.86,31.86,0,0,1,.09-7.53,43.79,43.79,0,0,1,6-4.54c4.94-3.14,9.86-6.34,15.39-8.49,5.21-2,10.33-2.49,15.88-2.49a101.13,101.13,0,0,1,14.68.77c3,.45,8.45,1.54,9.37-1.91A23,23,0,0,1,775.17,1066.94Z"/><path class="cls-10" d="M820.41,1062c-7.8-5.74-19.91-11-36.37-7.74a47.56,47.56,0,0,1,15.22-9.46,3.68,3.68,0,0,0-1.16,2c-.36,1.77,1,2.17,2.56,2.71,3.19,1.11,6.57.93,9.73,2.13s4.79,3.78,7,6.2A13.71,13.71,0,0,1,820.41,1062Z"/><path class="cls-13" d="M809.88,1147.32s-.71.13-1.9.26a18.19,18.19,0,0,1-3.9-2.41c-2-1.59-3-3.6-4.47-5.51-1.34-1.68-2.87-3-2.17-5.21.57-1.84,1.24-3.74-.7-5.09a5.6,5.6,0,0,0-1.43-.7,28.54,28.54,0,0,1,9.7,1C816.54,1132.85,802.91,1142.33,809.88,1147.32Z"/><path class="cls-6" d="M771.4,1103.13c1.05.54,2,1.27,3,1.81a17.35,17.35,0,0,1,3.33,2c.43.36,1.06-.26.62-.63a15.85,15.85,0,0,0-3.14-2c-1.17-.6-2.21-1.4-3.38-2-.5-.25-1,.51-.44.76Z"/><polygon class="cls-7" points="804.68 1150.54 789.4 1203.37 767.13 1203.37 762.44 1187.13 762.19 1186.28 751.85 1150.54 804.68 1150.54"/><path class="cls-10" d="M804.68,1150.54l-15.28,52.83H767.13l-4.69-16.24c16.34-6.37,24.22-22.47,28-36.59Z"/><rect class="cls-15" x="751.85" y="1148.42" width="52.83" height="4.23"/><path class="cls-1" d="M879.11,811.84s-52.23,57.34-116.67,57.34-116.68-57.34-116.68-57.34a214.61,214.61,0,0,1,44.51-35.26c19.85-11.84,44.92-22.09,72.17-22.09,20.18,0,39.17,5.63,55.73,13.36C854.47,784.79,879.11,811.84,879.11,811.84Z"/><path class="cls-16" d="M819.33,780.14a64.58,64.58,0,1,1-129.16,0c0-1.2,0-2.38.1-3.56,19.85-11.84,41.25-28.29,68.49-28.29,20.19,0,42.85,11.83,59.41,19.56A65.41,65.41,0,0,1,819.33,780.14Z"/><circle class="cls-15" cx="754.75" cy="788.28" r="30.99"/><circle class="cls-1" cx="806.52" cy="780.99" r="26.5"/><path class="cls-16" d="M645.76,811.83s58.36-59.53,116.68-57.34,116.68,57.34,116.68,57.34-20.6-69.41-116.68-71.93S645.76,811.83,645.76,811.83Z"/><path class="cls-1" d="M752.17,753.38l1.32-.12c.45,0,.89,0,1.34-.08.9-.07,1.8-.07,2.69-.09s1.8,0,2.7,0c.45,0,.9,0,1.34,0l1.35.08c.89.06,1.79.09,2.69.17l2.68.26,1.34.14c.45.05.89.12,1.34.18l2.67.38a146.77,146.77,0,0,1,21,5l5.13,1.7c.86.26,1.7.6,2.54.91l2.53,1a102.26,102.26,0,0,1,9.89,4.35c1.63.76,3.19,1.67,4.76,2.54s3.14,1.76,4.69,2.68,3,2,4.52,2.94,3,2,4.43,3.07l-.14.22c-3.29-1.47-6.47-3.08-9.66-4.66-1.64-.73-3.24-1.51-4.85-2.26s-3.19-1.58-4.84-2.24c-3.27-1.41-6.46-3-9.75-4.32l-2.44-1.06c-.82-.35-1.63-.73-2.46-1l-5-1.88a146.18,146.18,0,0,0-20.55-5.7l-2.62-.5c-.44-.08-.88-.17-1.32-.24l-1.32-.19-2.64-.38c-.89-.12-1.77-.19-2.66-.29l-1.33-.14c-.44,0-.89-.06-1.33-.09-.89,0-1.78-.14-2.67-.14s-1.79-.08-2.68-.06c-.44,0-.89,0-1.33,0l-1.37,0Z"/><rect class="cls-1" x="310.58" y="770.21" width="253.32" height="327.72"/><path class="cls-16" d="M383.82,884a41.8,41.8,0,0,1-38.57-25.56l9.35-4a31.67,31.67,0,1,0-1.13-21.56l-9.71-3a42.25,42.25,0,0,1,14.9-21.28,41.86,41.86,0,0,1,67,33.45A41.9,41.9,0,0,1,383.82,884Z"/><path class="cls-5" d="M563.91,770.21v327.72H310.58v-56.2C527.54,1033,563.91,770.21,563.91,770.21Z"/><path class="cls-16" d="M374.2,946.1a19.78,19.78,0,1,1,18.22-27.47l-5.06,2.14a14.28,14.28,0,1,0,.5,9.71l5.27,1.6A19.68,19.68,0,0,1,374.2,946.1Z"/><path class="cls-16" d="M431.25,945.61a19.76,19.76,0,1,1,13.45-.7l-2.14-5.07a14.27,14.27,0,1,0-9.71.51Z"/><path class="cls-16" d="M500.32,946.1c-.69,0-1.39,0-2.09-.11a19.76,19.76,0,0,1-16.87-13.9l5.26-1.6a14.28,14.28,0,1,0,.51-9.72l-5.07-2.13a19.77,19.77,0,1,1,18.26,27.46Z"/><path class="cls-16" d="M374.12,1008.36a16.37,16.37,0,1,1,15.08-22.74l-5.06,2.14a10.88,10.88,0,1,0,.38,7.4l5.26,1.59A16.28,16.28,0,0,1,374.12,1008.36Z"/><path class="cls-16" d="M432.24,1007.93a16.37,16.37,0,1,1,11.13-.58l-2.14-5.06a10.88,10.88,0,1,0-7.39.38Z"/><path class="cls-16" d="M500.38,1008.36a16.39,16.39,0,0,1-15.67-11.6l5.26-1.6a10.86,10.86,0,1,0,.38-7.4l-5.07-2.13a16.37,16.37,0,1,1,15.1,22.73Z"/><path class="cls-16" d="M373.79,1066.16a12.79,12.79,0,1,1,11.78-17.77l-5.06,2.14a7.29,7.29,0,1,0,.26,5l5.26,1.59A12.72,12.72,0,0,1,373.79,1066.16Z"/><path class="cls-16" d="M433,1065.8a12.78,12.78,0,1,1,8.7-.45l-2.14-5.07a7.29,7.29,0,1,0-5,.26Z"/><path class="cls-16" d="M500.24,1066.16a12.21,12.21,0,0,1-1.35-.07,12.75,12.75,0,0,1-10.91-9l5.25-1.6a7.3,7.3,0,1,0,12.65-6.72,7.22,7.22,0,0,0-4.91-2.66,7.34,7.34,0,0,0-7.48,4.41l-5.07-2.13a12.8,12.8,0,1,1,11.82,17.76Z"/><path class="cls-16" d="M490.67,884a41.86,41.86,0,1,1,38.56-58.15l-9.34,4A31.71,31.71,0,1,0,521,851.33l9.72,2.95a42.21,42.21,0,0,1-14.91,21.28A41.43,41.43,0,0,1,490.67,884Z"/><rect class="cls-16" x="339.17" y="1087.66" width="196.15" height="17.82"/><rect class="cls-16" x="301.96" y="1149.35" width="122.56" height="4.23" transform="translate(-806.73 853.16) rotate(-58.19)"/><rect class="cls-16" x="509.13" y="1090.18" width="4.23" height="122.56" transform="translate(-530.11 442.37) rotate(-31.81)"/><rect class="cls-16" x="435.13" y="1096.57" width="4.23" height="103.19"/><rect class="cls-16" x="756.57" y="-15.21" width="4.23" height="755.05"/><rect class="cls-16" x="423.47" y="1125.68" width="26.42" height="6.94"/><circle class="cls-16" cx="758.68" cy="739.85" r="7.55"/><rect class="cls-16" x="231.04" y="-9.21" width="4.23" height="860.05"/><circle class="cls-16" cx="233.16" cy="850.84" r="7.55"/><path class="cls-15" d="M715.35,922.29c.31.65.53,1.21.76,1.82s.44,1.2.62,1.8a38,38,0,0,1,1.79,11.18,28.43,28.43,0,0,1-3.71,14.47,30.09,30.09,0,0,1-4.52,5.93c-.42.44-.9.84-1.35,1.27l-.68.63-.72.57-1.45,1.15-1.52,1a53.38,53.38,0,0,1-13.21,6.18,52.78,52.78,0,0,0,12.72-6.87l1.43-1.09,1.34-1.2.67-.59.62-.65c.41-.43.84-.84,1.23-1.29a28.81,28.81,0,0,0,4-5.87,26.56,26.56,0,0,0,2.67-13.6,34.24,34.24,0,0,0-1.17-6.89,33,33,0,0,0-1.08-3.32c-.2-.54-.43-1.08-.66-1.6s-.49-1.08-.72-1.5Z"/><path class="cls-15" d="M640.11,889.26a18.39,18.39,0,0,1,1,9.55,24.8,24.8,0,0,1-3.24,8.76c-3.17,5.45-8.19,9-11.13,13.88a14.88,14.88,0,0,0-1.63,3.86c-.09.33-.12.68-.18,1a5.1,5.1,0,0,0-.11,1l0,1c0,.35.06.7.09,1.05a13.51,13.51,0,0,0,3.55,7.62,24,24,0,0,0,7,5.16,36.85,36.85,0,0,0,8.32,3,37,37,0,0,1-8.5-2.6,24.82,24.82,0,0,1-7.45-5,14.56,14.56,0,0,1-4.18-8c-.05-.38-.12-.77-.16-1.15l0-1.17a6.57,6.57,0,0,1,.07-1.17c0-.39.07-.78.15-1.16a16.78,16.78,0,0,1,1.6-4.38c3-5.43,7.85-9.25,10.39-14.28a22.05,22.05,0,0,0,2.53-7.92,15.28,15.28,0,0,0-1.16-7.86,1.69,1.69,0,0,1,3.08-1.38l0,.07Z"/><path class="cls-15" d="M667,890c-2.61-2.41-6-3.74-8.45-6.57s-5-6.14-5.48-10c-1.08-9.78,7.86-15.13,16.88-14.23s16.35,5.22,18.76,14.22c1.9,7.08,2.25,14.31,6.5,20.7,2.19,3.3,5.36,5.83,8.34,8.5,1,.89,2,1.8,2.87,2.76a43.64,43.64,0,0,1,9.55,16,30,30,0,0,1,1,4.5c2.29,11.13-4.13,22-12.47,29.11-6.42,5.13-14.77,5.77-21.19,1.92-10.91-7.06-10.27-20.54-13.82-31.14-.62-2-1.22-3.88-1.81-5.67a22.17,22.17,0,0,1-.2-4c.35-7.27,4.25-14.15,2-21.58C668.89,892.3,667.65,891.25,667,890Z"/><path class="cls-15" d="M669.86,924.11l-1.77-5.67,0-.13v-.1a23.33,23.33,0,0,1-.19-4.1,31.25,31.25,0,0,1,.49-4c.48-2.62,1.2-5.13,1.7-7.61a22.9,22.9,0,0,0,.52-7.34,13.14,13.14,0,0,0-.33-1.77,7.08,7.08,0,0,0-.52-1.63,9.38,9.38,0,0,0-.9-1.49,17.25,17.25,0,0,1-1.16-1.73l.22.28c-2.18-2.06-5.28-3.42-7.77-5.93-.63-.64-1.14-1.28-1.66-1.91s-1-1.3-1.52-2a19.15,19.15,0,0,1-2.47-4.49,13.07,13.07,0,0,1-.65-2.55c-.07-.45-.08-.87-.11-1.3a9.23,9.23,0,0,1,0-1.29,12.68,12.68,0,0,1,1.05-5.09,11.16,11.16,0,0,1,3.17-4.18,14.16,14.16,0,0,1,4.53-2.45,22.8,22.8,0,0,1,10-.82,26.57,26.57,0,0,1,9.51,3,19.69,19.69,0,0,1,4.09,3c.29.31.6.6.88.92s.55.66.81,1l.7,1.05c.11.17.23.34.34.52l.3.56c.2.37.4.73.59,1.11l.5,1.15c.17.38.31.77.45,1.16s.28.79.4,1.18c.48,1.59.87,3.19,1.19,4.79.66,3.2,1.15,6.4,2.09,9.47a25.38,25.38,0,0,0,1.81,4.41,10.62,10.62,0,0,0,.6,1c.22.33.4.68.64,1l.71,1,.75.94c4.1,5,9.49,8.83,13.45,14.11a33.44,33.44,0,0,1,4.69,8.6,22.81,22.81,0,0,1,1.39,9.68,19.43,19.43,0,0,1-3.46,9.09,38.77,38.77,0,0,1-6.53,7.24h0a16.47,16.47,0,0,0-2.64,4.11,14.18,14.18,0,0,0-1.14,4.75,14.38,14.38,0,0,1,1.08-4.78,16.56,16.56,0,0,1,2.6-4.17h0a38.57,38.57,0,0,0,6.4-7.29,19.1,19.1,0,0,0,3.29-9,22.34,22.34,0,0,0-1.49-9.46,32.73,32.73,0,0,0-4.72-8.39c-3.94-5.12-9.35-8.9-13.62-13.92l-.79-1-.74-1c-.26-.33-.46-.7-.69-1s-.47-.69-.65-1.07a26.57,26.57,0,0,1-1.94-4.57c-1-3.15-1.54-6.39-2.24-9.54-.34-1.58-.74-3.13-1.22-4.65a23.78,23.78,0,0,0-1.9-4.35l-.29-.51c-.1-.17-.22-.33-.32-.49l-.67-1c-.24-.3-.49-.59-.74-.89s-.55-.55-.82-.83a18,18,0,0,0-3.83-2.68,25.18,25.18,0,0,0-9-2.72,21.29,21.29,0,0,0-9.27.87,12.5,12.5,0,0,0-4,2.21,9.4,9.4,0,0,0-2.63,3.55,11,11,0,0,0-.83,4.4,8.75,8.75,0,0,0,0,1.14,10.06,10.06,0,0,0,.11,1.13,11,11,0,0,0,.58,2.16,17.72,17.72,0,0,0,2.27,4q.71.94,1.47,1.86c.52.61,1,1.24,1.56,1.75,2.12,2.14,5.18,3.42,7.79,5.77l.12.11.1.18a31.15,31.15,0,0,1,2.16,3.3,9.71,9.71,0,0,1,.71,2,17.93,17.93,0,0,1,.4,2,25.45,25.45,0,0,1-.44,8.1c-.5,2.61-1.18,5.1-1.59,7.58a29.33,29.33,0,0,0-.41,3.69,21.19,21.19,0,0,0,.22,3.64l0-.23,1.85,5.68Z"/><path class="cls-17" d="M683.63,902.08a32.05,32.05,0,0,1,7,8,23.82,23.82,0,0,1,3.53,10.2,21.45,21.45,0,0,1-1.93,10.78,33.49,33.49,0,0,1-6.23,9,1.35,1.35,0,0,1-2-1.84l.06-.07a31.32,31.32,0,0,0,6.32-8,19.76,19.76,0,0,0,2.4-9.82,22.65,22.65,0,0,0-2.76-9.94A31.81,31.81,0,0,0,683.63,902.08Z"/><path class="cls-17" d="M698.56,909a32.43,32.43,0,0,1,4.3,5.31c.62,1,1.19,2,1.72,3s1,2,1.47,3.12a29.46,29.46,0,0,1,1.79,6.73,31.08,31.08,0,0,1,.13,7,30.11,30.11,0,0,1-1.53,6.91,28.84,28.84,0,0,1-3.21,6.4,26.48,26.48,0,0,1-4.88,5.38,25.87,25.87,0,0,1-6.27,3.82,2,2,0,0,1-1.6-3.71l.14-.06h0a22.5,22.5,0,0,0,5.56-2.85,23.16,23.16,0,0,0,4.59-4.37,25.56,25.56,0,0,0,3.31-5.54,28.63,28.63,0,0,0,1.88-6.26,28.93,28.93,0,0,0,.36-6.58,28.17,28.17,0,0,0-1.23-6.54c-.34-1.06-.78-2.09-1.21-3.14s-.93-2.06-1.47-3.05A31.28,31.28,0,0,0,698.56,909Z"/><path class="cls-15" d="M657.32,872.85c-8.6-2.76-22.65,3.8-21.45,14.21.85,7.37,7,14.59,4.54,22.18-1.67,5-6.93,7.67-9.78,12-3.26,5-3.26,10.45.7,15.07,5.77,7.7,14.12,2.57,19.07-1.66a18.78,18.78,0,0,1,2.62-1.49c4.9-2.19,9.93-6.55,11.54-11.82,1.89-6.2.62-11.7-.78-17.81C662.31,897.16,661.18,889.71,657.32,872.85Z"/><path class="cls-1" d="M620.21,1042.1c.06.4.13.8.22,1.2s.19.77.32,1.14c2.09,6.64,9,10,15.84,10.17a19.24,19.24,0,0,0,6.13-.81c6-1.82,9.06-7,10.71-12.87h0a65.4,65.4,0,0,0,1.88-11.13c0-.24.06-.49.08-.73a107,107,0,0,0,.48-11.58c0-1.37,0-2.73,0-4.08,0-.19,0-.37,0-.56,0-.76,0-1.5-.07-2.26,0-.25,0-.5,0-.76-.11-3.66-.22-7.33-.19-11q0-2.28.09-4.53a67.48,67.48,0,0,0-.2-8.45c0-.57-.08-1.14-.14-1.71-.33-3.7-.87-7.38-1.34-11.2-.93-7.48-.91-14.87-1.66-22.38-.16-1.62,3.73-2.7,4.84-16,.11-1.2.18-2.5.23-3.92,0-.19,0-.37,0-.59,0,0,0,0,0,0,.05-1.63.05-3.41,0-5.35a5.48,5.48,0,0,1-.65,1,6.09,6.09,0,0,1-.77.75h0l-.25.22h0a11.08,11.08,0,0,1-1.56,1,25.54,25.54,0,0,1-6,2.27s-.86,2.48-2.24,6.21h0c-2.81,7.61-7.76,20.46-11.94,28.53a0,0,0,0,0,0,0l-.95,1.79-.8,1.35v0c-1.41,2.3-2.66,3.81-3.63,4.09,0,.72,2.61,12,4,18.53.08.33.15.66.23,1v0c.42,2,.71,3.35.71,3.59a33.29,33.29,0,0,1-.28,5.82c-.15,1.13-.35,2.24-.61,3.35,0,0,0,0,0,0a43.17,43.17,0,0,1-6.12,13.9,45.67,45.67,0,0,0-3.19,5.49c-.19.37-.36.73-.53,1.1-.1.21-.19.41-.28.63s-.21.47-.31.71A28,28,0,0,0,620.21,1042.1Z"/><path class="cls-1" d="M657.39,923.1s-24.44,1.95-30.93,28.48-6.67,31-6.67,31-6.25-5-26.37-18.18l-9.35,5.78s15.47,29.36,38.35,32.05c0,0,10.92.94,15.44-19.73S657.39,923.1,657.39,923.1Z"/><path class="cls-4" d="M620.21,1042.1c.06.4.13.8.22,1.2s.19.77.32,1.14c2.09,6.64,9,10,15.84,10.17a19.24,19.24,0,0,0,6.13-.81c6-1.82,9.06-7,10.71-12.87h0a65.4,65.4,0,0,0,1.88-11.13c0-.24.06-.49.08-.73a107,107,0,0,0,.48-11.58c0-1.37,0-2.73,0-4.08l-.24-.57-1-2.46a24.27,24.27,0,0,1-.83-2.29c-.06-.7-4-8.92-6.15-13.28-.75-1.5-1.29-2.55-1.38-2.67s-2.38.09-4.17.44l-1.22.25-.05,0-1.17.25s.17.7.42,1.94a78.45,78.45,0,0,1,1.54,12.46h0c.3,7.21-.57,15.43-5,20.36-5.24,5.81-9.91,2.27-13-1.88-.14-.19-.27-.39-.41-.57s-.29-.42-.42-.63c-.1.21-.19.41-.28.63s-.21.47-.31.71A28,28,0,0,0,620.21,1042.1Z"/><path class="cls-4" d="M623.06,1027.29c2.75,3.38,6.57,6.26,11,4.13,4.95-2.36,7.26-8.42,8.16-13.45a48.84,48.84,0,0,0,.72-9.39,65.63,65.63,0,0,0-1.46-12.85c-.11-.57-.23-1.14-.37-1.7l1.06-.22c.57-.11,1.14-.22,1.73-.31a5.62,5.62,0,0,0,1.56-.2c.06.13.11.27.15.33a14.94,14.94,0,0,1,1,1.6c1.06,1.94,1.87,4.19,2.77,6.09,1.11,2.34,2.27,4.67,3.16,7.1.2.54.39,1.07.55,1.6.28.88.5,1.74.69,2.61a32.22,32.22,0,0,1,.64,4.34,56.68,56.68,0,0,1,0,7.39c0,.82-.08,1.7-.13,2.6a73.69,73.69,0,0,1-1.12,10.21v0c-1.07,5.56-3.17,10.85-7.53,13.82a15.2,15.2,0,0,1-8.83,2.52h0c-6.7-.1-13.52-4-15.22-10.58A28.66,28.66,0,0,1,623.06,1027.29Z"/><path class="cls-18" d="M654.78,932.05c2,5.68,11,1.78,13.6-1.17,3.42-3.91,3-7.35,3.51-12.28.31-2.81.54-5,.64-6.66.48-8.58-2.47-4-14.81-3.7a17.85,17.85,0,0,1,1.2,10.81c0,.14,0,.29-.08.42C658.08,922.76,653.65,928.87,654.78,932.05Z"/><path class="cls-19" d="M647.19,1009.19s-10.57,43.76-13.38,71.49a27.15,27.15,0,0,0,3.54,16.39l48.89,84.16,7.32-4.33s-12.94-68.78-31.78-84l23.16-58.33Z"/><path class="cls-20" d="M658.92,919.05c7.44.77,11.52-3.53,13.61-7.11.48-8.58-2.47-4-14.81-3.7A17.85,17.85,0,0,1,658.92,919.05Z"/><path class="cls-21" d="M647.66,1009.21s4.14,20.77,6.25,89.61c0,0-.44,50.09-4.25,88.69,0,0,1.63,2.15,7.07,1.26,0,0,26.93-74,17.16-91.4,0,0,20.42-31.73,17.78-49.23s-36-40.06-36-40.06Z"/><path class="cls-18" d="M648.47,891.12c0,.81,0,1.67,0,2.56,0,9.73,7.19,22.6,18.08,18.89a15.28,15.28,0,0,0,2.64-.92,12.1,12.1,0,0,0,6-5.78,17.6,17.6,0,0,0,1.49-2.73,21.93,21.93,0,0,0,1.48-4.64,9.4,9.4,0,0,0-.27-5.4c-1.38-3.63-5.61-7.2-14.89-12.34-2.58-1.43-5.54-3-8.94-4.69-2.23,4.2-4.38,7-5.23,11.16A19.22,19.22,0,0,0,648.47,891.12Z"/><path class="cls-11" d="M671.26,923.72s-15,19.1-14.48.64c0,0-22.21,22.16-13.3,79.58a9.73,9.73,0,0,0,6.39,7.77c3.18,1.08,7.86,1.75,14.42.67Z"/><path class="cls-15" d="M653,1190q2.29-9.95,4.24-20c1.3-6.68,2.5-13.38,3.55-20.1s2-13.45,2.67-20.21q.5-5.07.77-10.16c.15-3.38.21-6.78.08-10.15,0-.85-.07-1.69-.15-2.53s-.14-1.68-.25-2.51l-.18-1.25c-.07-.41-.11-.85-.21-1.2a5.45,5.45,0,0,0-1.84-2.84l-.23-.17-.12-.08-.06,0a.85.85,0,0,1-.17-.16.91.91,0,0,1,.55-1.51h2.64l2.55,0c.38,0,1,0,.86,0v0h0s0,0,0,0l0,0-1.8-1.82-.22-.23-.24-.25a3.25,3.25,0,0,1-.46-.64,3.37,3.37,0,0,1-.43-1.52,3.44,3.44,0,0,1,.28-1.55l.31-.61.28-.56c.19-.37.36-.76.54-1.14s.36-.76.52-1.14a69.9,69.9,0,0,0,3.4-9.51,77.77,77.77,0,0,0,2.14-9.89l.34-2.51c.11-.84.16-1.69.24-2.53.19-1.68.23-3.37.31-5.06a93.1,93.1,0,0,0-1.6-20.25l.13,0c.36,1.66.72,3.33,1.06,5l.77,5.06.24,2.55.11,1.28c0,.43.09.85.09,1.28l.1,2.56,0,1.28c0,.43,0,.86,0,1.29a79.78,79.78,0,0,1-2.68,20.32,71.33,71.33,0,0,1-3.41,9.72c-.16.4-.35.79-.53,1.18s-.37.78-.57,1.16l-.29.58a5.36,5.36,0,0,0-.27.53,2,2,0,0,0-.18.93,2.11,2.11,0,0,0,.25.92,2.14,2.14,0,0,0,.28.39c0,.06.13.14.2.22l.22.22,1.78,1.84.05,0,.1.11a1.4,1.4,0,0,1,.16.26,1.24,1.24,0,0,1,.13.62,1.35,1.35,0,0,1-.55,1.06,1.41,1.41,0,0,1-.58.24h-1.06l-2.55,0h-2.47a.32.32,0,0,0,.19-.54l-.05,0,.07,0,.14.1.28.21a7.12,7.12,0,0,1,1,1,6.5,6.5,0,0,1,1.23,2.5,11.24,11.24,0,0,1,.21,1.32l.17,1.28c.11.86.15,1.71.22,2.57s.08,1.71.12,2.57c.11,3.42,0,6.84-.18,10.25s-.5,6.8-.87,10.19c-.75,6.77-1.73,13.52-2.87,20.23s-2.44,13.4-3.83,20.07-2.88,13.3-4.5,19.91Z"/><path class="cls-1" d="M656.27,1028.09c.4,5.33,3.21,10.46,5.61,15.06,4.66,8.92,12.19,14.89,22.52,14.94,5.6,0,11.5-.19,15.54-4.68,3.44-3.81,5.26-9.72,5.77-14.75.84-8.45-1.08-17.85-4.49-25.61-.73-1.67-1.51-3.33-2.29-5a96.85,96.85,0,0,1-3.75-8.93c-.37-1.08-.69-2.18-1-3.29-.85-3.39-1.37-6.87-2.28-10.22-2.56-9.41-2.38-38.9-2.84-48.55-.13-2.47-.52-6.37-17-13.77-2.16-1-10.36,22.3-11.2,24.61a45.15,45.15,0,0,0-2.87,15.3c0,9.33-.47,18.66.38,27.94.78,8.4,1,16.33-.52,24.59C657.12,1019.65,656,1024.1,656.27,1028.09Z"/><path class="cls-22" d="M672.57,999.92c8.32,11.57,20.94,9.64,26.36,8.12a96.85,96.85,0,0,1-3.75-8.93c-.37-1.08-.69-2.18-1-3.29C683.15,990.6,665.49,990.06,672.57,999.92Z"/><path class="cls-20" d="M648.87,887.23c1.39-3.05,3.12-4.38,5,.1,3.62,8.8,17.88,14.16,22.88,15.81a21.93,21.93,0,0,0,1.48-4.64,9.4,9.4,0,0,0-.27-5.4L667.51,888,663,880.76c-2.58-1.43-5.54-3-8.94-4.69C651.87,880.27,649.72,883.1,648.87,887.23Z"/><path class="cls-15" d="M682.52,914.94c3.19-5.58-1.89-14.38-6.65-17.71-2.28-1.59-5-2.56-7.48-3.87a45.33,45.33,0,0,1-7.56-4.91c-5-4.11-11.75-14.11-5.54-20,5.66-5.39,16,2.57,20.15,6.46a37.44,37.44,0,0,1,9.06,12.58C686.58,892.41,685.76,896.92,682.52,914.94Z"/><path class="cls-1" d="M676.4,905c-3.78,10-19.62,12.26-24.63,1.95-.34-.69.7-1.3,1-.6,4.49,9.24,19,7.46,22.42-1.67.27-.72,1.44-.41,1.17.32Z"/><path class="cls-1" d="M643.73,982.3l1.13-18.06s27.6-6.89,42.75-3.93c0,0-6.62,35.21-.77,57.34,0,0-31.61.53-37.38-4C649.46,1013.69,644.28,991.4,643.73,982.3Z"/><path class="cls-22" d="M643.73,982.3l1.13-18.06s27.6-6.89,42.75-3.93c0,0-6.62,35.21-.77,57.34,0,0-31.61.53-37.38-4C649.46,1013.69,644.28,991.4,643.73,982.3Z"/><path class="cls-4" d="M646.89,985.11,648,967.05s27.6-6.9,42.75-3.93c0,0-6.62,35.2-.77,57.34,0,0-31.61.52-37.38-4C652.62,1016.5,647.44,994.2,646.89,985.11Z"/><path class="cls-18" d="M641.33,995.67c2.68.94,6.93-.66,8.93-2.64a8,8,0,0,0,.58-.63c2.44-2.87-.12-4.31-3.83-8.18-3.07.79-4.24-4.74-5-4.46l-.35,0C634.74,981.12,635.15,993.5,641.33,995.67Z"/><path class="cls-20" d="M641.33,995.67c2.68.94,6.93-.66,8.93-2.64a8,8,0,0,0,.58-.63,2.86,2.86,0,0,0-.7-1.73s-11-3.51-8.46-10.86C634.74,981.12,635.15,993.5,641.33,995.67Z"/><path class="cls-18" d="M648.1,986a13.81,13.81,0,0,1-1.57-2.78,17.22,17.22,0,0,1-.63-3.05c-.36-1.74-1.46-1-1.74.3a18.46,18.46,0,0,0-.35,2.86C643.77,984.06,644.06,986.15,648.1,986Z"/><path class="cls-1" d="M671.26,925.13c3.87,2.62,8.8,3,13.12,4.36,5.54,1.73,8.41,7.86,9.87,13.06,2.75,9.87,6.88,18.81,8.39,29,.77,5.18,1.34,10.51,1.85,15.76.56,5.79.53,9.65-4.8,13-5.89,3.7-13,2.78-19.56,2.19-7.12-.64-14.18-1.62-21.24-2.77-4-.66-10.1-.73-11.22-5.65-.47-2,.22-4.26.48-6.39A1.9,1.9,0,0,1,650,986c9.39-.34,18.85.31,28.23,0,.44-9.11-2.77-17.11-3.51-26-.63-7.63-1.22-17.21,2.42-24.13,1.23-2.34,3.29-3.34,1.14-5.64C677.21,929.1,674.34,927.33,671.26,925.13Z"/><path class="cls-1" d="M659.73,904.36l8.63-2.28s.78,4.9-3.76,5.7A3.81,3.81,0,0,1,659.73,904.36Z"/><path class="cls-4" d="M683.6,929.54a14.21,14.21,0,0,0-8.44,4.88,13.56,13.56,0,0,0-2.37,4.25,18.16,18.16,0,0,0-.94,4.79,25.29,25.29,0,0,0,.17,4.92c0,.41.11.81.16,1.21l.08.61c0,.09,0,.21,0,.29l.06.28c.19.8.38,1.62.58,2.42s.4,1.62.62,2.42.46,1.61.7,2.4a21,21,0,0,0,1.91,4.6l-.13.11a10.22,10.22,0,0,1-1.65-2c-.23-.37-.44-.75-.66-1.12s-.4-.77-.58-1.15a38.34,38.34,0,0,1-1.83-4.81c-.25-.82-.47-1.64-.67-2.48l-.07-.34c0-.12,0-.22,0-.33l-.08-.66c0-.43-.1-.87-.11-1.3l-.05-1.3v-1.3c0-.43,0-.87.06-1.3l0-.65.08-.65a19.28,19.28,0,0,1,1.26-5.05,14.49,14.49,0,0,1,2.76-4.42,13.87,13.87,0,0,1,1.94-1.73,14.62,14.62,0,0,1,2.21-1.34,14.31,14.31,0,0,1,4.9-1.42Z"/><path class="cls-17" d="M667.12,863.42c-3.54.72-7.25,2.78-8.66,6.2a10.22,10.22,0,0,0-.6,5.5,14.43,14.43,0,0,0,.66,2.78,13.56,13.56,0,0,0,1.29,2.55,15.42,15.42,0,0,0,4.14,4,47.44,47.44,0,0,0,5.15,3,54.87,54.87,0,0,1,5.23,2.93,12.43,12.43,0,0,1,4.14,4.27,12.21,12.21,0,0,0-4.28-4,54,54,0,0,0-5.31-2.7,45.14,45.14,0,0,1-5.34-2.78A16.08,16.08,0,0,1,659,881a14,14,0,0,1-1.53-2.72,16.43,16.43,0,0,1-.85-3,14.17,14.17,0,0,1-.21-3.13,10.59,10.59,0,0,1,.65-3.13,10.92,10.92,0,0,1,3.93-5,15.06,15.06,0,0,1,2.75-1.58,15.23,15.23,0,0,1,3-1,1,1,0,0,1,.45,2h-.09Z"/><path class="cls-15" d="M654.4,877.2a2.47,2.47,0,0,0-.14.37c0,.16-.1.32-.14.49a9.19,9.19,0,0,0-.15,1.07,8.84,8.84,0,0,0,.21,2.22,12.34,12.34,0,0,0,2,4.27c.43.69,1,1.29,1.5,1.94s1.13,1.22,1.76,1.77a40.2,40.2,0,0,0,3.92,3.17,36.75,36.75,0,0,0,4.32,2.65c1.5.8,3.07,1.47,4.64,2.18a17.1,17.1,0,0,1,4.47,2.64,11.52,11.52,0,0,1,2.86,4.28,11.3,11.3,0,0,0-3.07-4A16.85,16.85,0,0,0,672,898c-1.6-.6-3.24-1.17-4.82-1.89a37,37,0,0,1-4.62-2.44,40.48,40.48,0,0,1-4.29-3c-.7-.54-1.33-1.17-2-1.76a26.6,26.6,0,0,1-1.79-2A14.49,14.49,0,0,1,651.9,882a11.31,11.31,0,0,1-.45-2.86,9.45,9.45,0,0,1,.1-1.5c0-.25.1-.5.16-.76A4.82,4.82,0,0,1,652,876l.08-.17a1.36,1.36,0,0,1,2.49,1.11A1.2,1.2,0,0,1,654.4,877.2Z"/><path class="cls-22" d="M669.53,960s12.51-1.4,18.08.27l-2.52,26.79-8.76-1.55-5.38-7Z"/><path class="cls-4" d="M690.1,963.24l-2.81,21.26-.22,1.62a10.77,10.77,0,0,1-1.39.73,10.32,10.32,0,0,1,1.22.55l-.06.48-10.05-1.81-1.72,0-6.24-5.81.94-17.07S684.53,961.57,690.1,963.24Z"/><path class="cls-15" d="M656.73,1188.77l-.45,13.23h-26.8s1.8-7.06,17.33-6.89l3.15-7.31Z"/><path class="cls-15" d="M693.18,1177.13l3.94,8.63a3.62,3.62,0,0,1-.48,3.79l-10.75,13.3-15.53,0s.95-8.88,12.16-10l4.23-11.88Z"/><path class="cls-4" d="M642.08,939.42a88.74,88.74,0,0,0-6.36,17.73l-.51,2.29-.25,1.15-.21,1.15-.43,2.31-.32,2.32-.17,1.16c-.06.39-.08.78-.12,1.17l-.2,2.34,0,.59v.58l0,1.18c0,.78,0,1.56,0,2.35l.11,2.34c0,.79.06,1.57.13,2.36.11,1.59.25,3.17.33,4.75.2,3.17.3,6.35.28,9.53a49,49,0,0,1-.9,9.51,24,24,0,0,1-1.48,4.55,37.6,37.6,0,0,1-2.28,4.19l-.15-.09a35.54,35.54,0,0,0,2.1-4.24,23.51,23.51,0,0,0,1.3-4.51,49.33,49.33,0,0,0,.57-9.41c-.06-3.15-.25-6.3-.53-9.45-.12-1.57-.3-3.14-.46-4.72s-.24-3.18-.36-4.78a63.37,63.37,0,0,1,2.06-19,68.27,68.27,0,0,1,3.22-9c.65-1.46,1.35-2.9,2.11-4.3l.59-1,.61-1c.41-.68.85-1.35,1.31-2Z"/><path class="cls-1" d="M617.08,982.12s-1.48-7.64,4.83-2.31S619.89,989.52,617.08,982.12Z"/><path class="cls-4" d="M620.38,978.67a8.57,8.57,0,0,1,4.94,6.56s.86-5.09-4.64-8.16Z"/><path class="cls-4" d="M657.93,1015.74c-.18,1.57-.29,3.15-.34,4.73s-.06,3.15,0,4.72a50.54,50.54,0,0,0,1.15,9.28,35.86,35.86,0,0,0,3.1,8.71l.55,1,.61,1c.1.17.2.33.31.49l.33.47c.23.31.44.63.68.93a21,21,0,0,0,1.53,1.73c.27.28.52.57.81.82l.86.78c.28.26.6.48.9.72s.61.48.93.7c.65.43,1.29.89,2,1.29a36.27,36.27,0,0,0,4.11,2.23,27.56,27.56,0,0,0,9,2.52,21.45,21.45,0,0,0,9.23-1.06,19.15,19.15,0,0,0,4.2-2.09,14.35,14.35,0,0,0,3.48-3.16l.13.09A14.46,14.46,0,0,1,698,1055a19.64,19.64,0,0,1-4.23,2.29,22.31,22.31,0,0,1-9.48,1.41,28.74,28.74,0,0,1-9.34-2.36,36.19,36.19,0,0,1-4.3-2.19c-.71-.39-1.37-.84-2-1.27-.34-.22-.66-.48-1-.71s-.67-.47-1-.74l-.93-.79c-.32-.26-.6-.56-.89-.84a21.7,21.7,0,0,1-1.67-1.79c-.27-.31-.51-.64-.76-1l-.38-.49c-.12-.16-.23-.33-.34-.5-.23-.34-.47-.68-.69-1l-.62-1.06a30.11,30.11,0,0,1-3.28-9.15,41.36,41.36,0,0,1-.62-4.81,45.64,45.64,0,0,1-.07-4.82,47.85,47.85,0,0,1,.41-4.79,36.23,36.23,0,0,1,.95-4.7Z"/><path class="cls-4" d="M669.78,985.94c1.77-.25,3.56-.38,5.35-.48s3.59-.12,5.4-.05c.9,0,1.8.06,2.71.13a13.7,13.7,0,0,1,2.7.44,14.24,14.24,0,0,1,2.6,1,7.61,7.61,0,0,1,2.28,1.61l-.09.14a36.26,36.26,0,0,0-5.13-1.06c-.86-.14-1.72-.27-2.58-.44s-1.72-.33-2.6-.44-1.75-.19-2.64-.26-1.77-.14-2.65-.19c-1.78-.12-3.56-.17-5.34-.19Z"/><path class="cls-4" d="M684.62,984.92c.4-.08.74-.12,1.1-.16s.71-.06,1.07-.06a13.63,13.63,0,0,1,2.12.1,10.23,10.23,0,0,1,2,.47,7.55,7.55,0,0,1,1.84.92,7.41,7.41,0,0,0-1.95-.43,9,9,0,0,0-1.94,0,13.18,13.18,0,0,0-1.89.38c-.31.09-.61.19-.91.3s-.61.23-.85.34Z"/><path class="cls-8" d="M550.61,798.51a63.86,63.86,0,0,0-11.73.06q-3.17.3-6.31.92a66,66,0,0,0-10.38,3l-1,.4q-2.26.9-4.44,2a63.88,63.88,0,0,0-15.5,10.63c-.31.28-.61.57-.9.85a64.63,64.63,0,0,0-14.91,21.95l-.06.16a66.21,66.21,0,0,0-2.55,7.5c-.11.4-.21.8-.31,1.2a64.58,64.58,0,0,0,79.87,78,65.74,65.74,0,0,0,6.73-2.27,64.27,64.27,0,0,0,33.36-30.27,60.22,60.22,0,0,0,2.74-6,64.44,64.44,0,0,0,2.92-9.41,63.17,63.17,0,0,0,1.12-6.29,66.47,66.47,0,0,0,.51-7.21,62,62,0,0,0-.25-6.52,63.24,63.24,0,0,0-3.36-15.59c-.31-.89-.64-1.78-1-2.67a65.35,65.35,0,0,0-3.91-8.12h0a64.21,64.21,0,0,0-17.5-19.72,65,65,0,0,0-26.25-11.6A63.44,63.44,0,0,0,550.61,798.51Zm18.58,8.32c1.83.79,3.62,1.65,5.34,2.6a60.67,60.67,0,0,1,27.25,30.83l0,.09a61.79,61.79,0,0,1,2.4,7.35,60,60,0,0,1,1.6,8.77,58.06,58.06,0,0,1,.34,6.59,58.69,58.69,0,0,1-.46,7.25,59.4,59.4,0,0,1-1.12,6.3,62.44,62.44,0,0,1-3,9.36c-.14.33-.27.65-.41,1-.73,1.71-1.54,3.38-2.41,5a60.6,60.6,0,0,1-31,27.59A62.17,62.17,0,0,1,560,922a61,61,0,0,1-74.1-73.88c.1-.4.21-.79.31-1.19.46-1.66,1-3.3,1.58-4.94.34-.94.71-1.88,1.1-2.81.06-.13.11-.26.17-.4a61.1,61.1,0,0,1,8.29-13.91,59.86,59.86,0,0,1,5.51-6.07l.9-.84a60.57,60.57,0,0,1,13.9-9.59q2.35-1.18,4.83-2.17l1.06-.41a61.09,61.09,0,0,1,9.84-2.82,60.84,60.84,0,0,1,25.39.41A62.38,62.38,0,0,1,569.19,806.83Z"/><path class="cls-8" d="M549.91,794.8a68.33,68.33,0,0,0-11.7.18q-3.15.33-6.29.94a69.2,69.2,0,0,0-12.09,3.59,68,68,0,0,0-21.73,13.92l-.93.9a66.53,66.53,0,0,0-5.76,6.48A68.36,68.36,0,0,0,483,834.74l-.54,1.22a67.64,67.64,0,0,0-2.9,8.16c-.12.42-.24.84-.35,1.26a68.22,68.22,0,0,0,85.42,82.91q2.94-.88,5.84-2a68,68,0,0,0,35.81-33c1-2,1.87-4,2.65-6.08a67.1,67.1,0,0,0,2.85-9.44q.69-3.12,1.1-6.3a68.74,68.74,0,0,0,.53-7.18q.06-3.22-.18-6.48a68.34,68.34,0,0,0-2.93-15.22c-.52-1.66-1.11-3.32-1.76-5s-1.43-3.37-2.23-5a66.78,66.78,0,0,0-5.22-8.83,68.49,68.49,0,0,0-44.51-28.16A66.48,66.48,0,0,0,549.91,794.8Zm8.9,8.62a62.38,62.38,0,0,1,10.38,3.41c1.83.79,3.62,1.65,5.34,2.6a60.67,60.67,0,0,1,27.25,30.83l0,.09a61.79,61.79,0,0,1,2.4,7.35,60,60,0,0,1,1.6,8.77,58.06,58.06,0,0,1,.34,6.59,58.69,58.69,0,0,1-.46,7.25,59.4,59.4,0,0,1-1.12,6.3,62.44,62.44,0,0,1-3,9.36c-.14.33-.27.65-.41,1-.73,1.71-1.54,3.38-2.41,5a60.6,60.6,0,0,1-31,27.59A62.17,62.17,0,0,1,560,922a61,61,0,0,1-74.1-73.88c.1-.4.21-.79.31-1.19.46-1.66,1-3.3,1.58-4.94.34-.94.71-1.88,1.1-2.81.06-.13.11-.26.17-.4a61.1,61.1,0,0,1,8.29-13.91,59.86,59.86,0,0,1,5.51-6.07l.9-.84a60.57,60.57,0,0,1,13.9-9.59q2.35-1.18,4.83-2.17l1.06-.41a61.09,61.09,0,0,1,9.84-2.82,60.84,60.84,0,0,1,25.39.41Z"/><rect class="cls-8" x="558.45" y="923.4" width="27.72" height="15.04" transform="translate(-304.42 278.62) rotate(-21.77)"/><polygon class="cls-8" points="636.08 1038.86 600.42 1053.1 569.63 939.19 579.95 935.07 636.08 1038.86"/><path class="cls-18" d="M574.59,963.57a2.15,2.15,0,0,0-1.15,1.84,1.65,1.65,0,0,0,1.51,1.47c1-.06,3.53-1.28,3-2.59S575.64,962.89,574.59,963.57Z"/><path class="cls-18" d="M571.14,959.38a2.09,2.09,0,0,1,.37-2.57,4.85,4.85,0,0,1,2.88-.73c1.07-.08,2.2-.25,2.38,1.08a2.68,2.68,0,0,1-1.34,2.5,3.34,3.34,0,0,1-2,.6,3.1,3.1,0,0,1-1.17-.2C571.94,959.91,571.64,959.6,571.14,959.38Z"/><path class="cls-18" d="M571.93,962c-.29-2.94,3.38-2.42,5.22-1.69a4.13,4.13,0,0,1,1.49.76c.26.36,0,1-.23,1.35a3.59,3.59,0,0,1-3.29,1.25A5.46,5.46,0,0,1,571.93,962Z"/><path class="cls-18" d="M571.2,956.67c-.63-.39-.59-1.51-.4-2.15s1-1.14,1.62-1.56,1.42-1.14,1.89-.39a3.52,3.52,0,0,1-.13,2.77A2.51,2.51,0,0,1,571.2,956.67Z"/><path class="cls-18" d="M594.08,953.1a10.89,10.89,0,0,0-2.28-1.59c-.94-.61-1.64-1.61-2.84-1.76a9,9,0,0,0-2.25.19,16.3,16.3,0,0,0-2.64.23,3.17,3.17,0,0,0,1.57,2.32,5,5,0,0,0,1.57.52c.59.09,1.21-.2,1.67.3a10.8,10.8,0,0,1,1.23,1.64,3.8,3.8,0,0,1,.36,2.28,17.63,17.63,0,0,0,0,2.62,2.7,2.7,0,0,0,.48,1.38c.85,1,2.86,1.11,4,.73a2.59,2.59,0,0,0,1.88-2,4.32,4.32,0,0,0-1.06-2.65,8,8,0,0,1-.93-2.26A3.81,3.81,0,0,0,594.08,953.1Z"/><path class="cls-1" d="M500.66,868.93c6.42-2.14,12.91-3.91,19.43-5.6s13.07-3.2,19.64-4.62,13.17-2.71,19.8-3.87,13.28-2.18,20-2.87c-6.41,2.14-12.91,3.92-19.42,5.61s-13.07,3.19-19.65,4.6-13.17,2.71-19.8,3.87S507.39,868.24,500.66,868.93Z"/><path class="cls-1" d="M515.42,884.25c4.48-1.72,9-3.09,13.61-4.35s9.18-2.37,13.82-3.37,9.29-1.87,14-2.61,9.4-1.35,14.19-1.63c-4.48,1.72-9,3.09-13.61,4.36S548.23,879,543.59,880s-9.29,1.87-14,2.61S520.21,884,515.42,884.25Z"/><path class="cls-16" d="M777.82,868.11c2.4-.46,4.76-1.07,7.1-1.72s4.67-1.39,7-2.15q6.92-2.32,13.61-5.22t13.13-6.28c4.3-2.25,8.51-4.64,12.62-7.21s8.14-5.24,12-8.09c2-1.39,3.88-2.88,5.8-4.35,1-.72,1.89-1.5,2.84-2.26s1.89-1.49,2.8-2.29a217.76,217.76,0,0,0,20.84-20l4,3.79a223.3,223.3,0,0,1-22.25,19.46c-1,.76-2,1.46-3,2.2s-2,1.46-3,2.16c-2,1.4-4,2.82-6.11,4.14-4.1,2.71-8.31,5.24-12.6,7.63s-8.65,4.62-13.1,6.69-8.95,4-13.53,5.7-9.22,3.27-13.92,4.6c-2.35.66-4.71,1.29-7.09,1.83S780.24,867.76,777.82,868.11Z"/><path class="cls-16" d="M278.5,974.18a44.67,44.67,0,1,1,44.67-44.67A44.71,44.71,0,0,1,278.5,974.18Zm0-80.46a35.79,35.79,0,1,0,35.79,35.79A35.82,35.82,0,0,0,278.5,893.72Z"/><path class="cls-16" d="M163.27,974.18a44.67,44.67,0,1,1,44.67-44.67A44.72,44.72,0,0,1,163.27,974.18Zm0-80.46a35.79,35.79,0,1,0,35.79,35.79A35.82,35.82,0,0,0,163.27,893.72Z"/><path class="cls-2" d="M267.67,853.53h20.79a5.36,5.36,0,0,1,4,1.79l33.32,37.29-40.23-8.49L272.1,867.59l-5.91-1.37Z"/><path class="cls-2" d="M287.62,974.18a44.67,44.67,0,1,1,44.67-44.67A44.72,44.72,0,0,1,287.62,974.18Zm0-80.46a35.79,35.79,0,1,0,35.78,35.79A35.82,35.82,0,0,0,287.62,893.72Z"/><rect class="cls-2" x="322.9" y="915.04" width="24.37" height="28.94" rx="2.68"/><path class="cls-16" d="M193.55,850.31h73.64a3.71,3.71,0,0,1,3.7,3.71v13.26l-22.8,6.89L241.2,887.3H217.6L211,873.64l-19.22-7.42L190.32,854A3.26,3.26,0,0,1,193.55,850.31Z"/><path class="cls-2" d="M172.39,974.18a44.67,44.67,0,1,1,44.67-44.67A44.72,44.72,0,0,1,172.39,974.18Zm0-80.46a35.79,35.79,0,1,0,35.78,35.79A35.82,35.82,0,0,0,172.39,893.72Z"/><path class="cls-2" d="M203,885.06l11.71-8.86a3.51,3.51,0,0,1,5.36,1.42l4.13,9.62-7.87,20.11Z"/><path class="cls-2" d="M256.78,885.06,245,876.14a3.45,3.45,0,0,0-5.25,1.39l-4.16,9.71,7.86,20.11Z"/><path class="cls-16" d="M338.25,948.92l-11.84-4.54a41.53,41.53,0,1,0-78-1.24l-12,4.16a54.21,54.21,0,1,1,101.86,1.62Z"/><path class="cls-2" d="M190.27,853.53H169.48a5.36,5.36,0,0,0-4,1.79l-33.32,37.29,40.23-8.49,13.45-16.53,5.91-1.37Z"/><rect class="cls-2" x="107.63" y="914.09" width="24.37" height="28.94" rx="2.68"/><path class="cls-16" d="M222.59,950l-11.75-4.8a41.52,41.52,0,1,0-77.92-2.73l-12,4A54.21,54.21,0,1,1,222.59,950Z"/><path class="cls-16" d="M244.35,880a1.26,1.26,0,1,1-1.26-1.26A1.25,1.25,0,0,1,244.35,880Z"/><path class="cls-16" d="M217.85,880a1.26,1.26,0,1,1-1.26-1.26A1.26,1.26,0,0,1,217.85,880Z"/><path class="cls-1" d="M296.64,1156.18c-6-.3-11.44,2.55-19.83-2.48-2-6.85-5-14.22-7.63-21.44l3.58,1.71-4.55-4.32c-.22-.64-.45-1.26-.67-1.89l2.1.42-3.14-3.49c-1.14-3.42-2.12-6.75-2.83-9.91,5.66,6.63,11.77,13.56,17.61,20.68l-.39,2.9,2-1A209.23,209.23,0,0,1,296.64,1156.18Z"/><path class="cls-23" d="M320.64,1131.38l-2.94,1.24,1.87.39c-4.36,6.94-7.25,15.1-7.76,22.26-4.11-.17-8.33-2.51-12.76-10.4,7.41-8.54,16.9-18.07,28.7-21.66A42.52,42.52,0,0,0,320.64,1131.38Z"/><path class="cls-9" d="M315.82,1081.4l-2,2.83,1.67-.61c-1.38,10-4.17,20.25-5.94,28.07-.22,1-.44,2-.63,2.9a57,57,0,0,0-.86,5.75l-3.33,4.66-2.73,3.82,5.41-2.33.3-.16a2.26,2.26,0,0,0,0,.26c-.11,6.14.41,12.23.71,18.3.14,2.63.24,5.26.22,7.87a9.59,9.59,0,0,1-2.91,6.78,10.07,10.07,0,0,1-7.09,2.9,13.5,13.5,0,0,1-1.86-.14,9.88,9.88,0,0,1-7.92-7.16,39.1,39.1,0,0,1-1-13.89,58.88,58.88,0,0,1,3.57-14.89,87.28,87.28,0,0,1,4.86-10.62q1.13-2.1,2.27-4.34c4.51-1.94,2.91-3.18,1.84-3.66.19-.38.37-.76.55-1.14,2.64.17,4.53,0,.81-1.69.4-.8.78-1.61,1.16-2.43,1.91-4.1,3.75-8.3,5.44-12.4a160.09,160.09,0,0,0,7.74-22.55A62.07,62.07,0,0,1,315.82,1081.4Z"/><path class="cls-8" d="M284.23,1162.16a3.65,3.65,0,0,1-2.06-.89c-5.56-4.9-10.56-10.77-16.88-15a58.31,58.31,0,0,0-8.08-4.22l3.12-1.59-4.95.76-1.11-.5,2.11-1.06-3.33.5a37.49,37.49,0,0,1-8.59-5c9.56,1.17,18.87,2.47,27.76,6.9a113.14,113.14,0,0,1,16.57,9.82C293.64,1155.52,290.37,1163.07,284.23,1162.16Z"/><path class="cls-10" d="M335.19,1139.71h-4.54l3.26.63-.92.45a32.43,32.43,0,0,0-8.26,5.41l-.32.29a21.36,21.36,0,0,0-4.6,7.23l-5.11,1,2.43.7,1.85.53c-.3.86-.58,1.73-.85,2.61a7.34,7.34,0,0,1-3.95,4.43,8.22,8.22,0,0,1-4.71.67l-.17,0c-5.27-.8-8.21-6.27-5.54-10.58a28.29,28.29,0,0,1,6.77-7.34c.86-.66,1.75-1.29,2.67-1.87.44-.29.89-.56,1.34-.83s1-.57,1.49-.84l1.27,3.8,1.95-5,.19-.48a48.72,48.72,0,0,1,21.66-4C339.25,1137.68,337.22,1138.69,335.19,1139.71Z"/><path class="cls-10" d="M283.42,1163.06c-3.93,3.8-8.91-1.12-13.76-2.64-2.15-.67-4.53-1.31-7-1.84l2.29-3.09-4.75,2.58a49,49,0,0,0-14-.78,68.79,68.79,0,0,1,7.57-2.9l1.73.88-.42-1.3c6.79-2.08,14.8-3.58,19.46-2C284.71,1154,287.2,1159.4,283.42,1163.06Z"/><path class="cls-23" d="M292.92,1162.06h-.18c-6.11.14-14.19-2.44-13.41-6.88a18.51,18.51,0,0,0-.56-8.3l3.56,1.82-4.43-4.34c-2.11-5.24-5.89-10.18-9.46-14.53a86.32,86.32,0,0,1,11.66,7.78l1.44,3,0-1.81c1,.84,2,1.69,2.93,2.57l.82,5.41,1.37-3.31a56.93,56.93,0,0,1,10.1,13.48C298.11,1159.5,296.6,1162,292.92,1162.06Z"/><path class="cls-23" d="M307.45,1126.49l.3-.16a2.26,2.26,0,0,0,0,.26Z"/><path class="cls-1" d="M300.69,1162.23s-5.42-29.61,6.76-56.54c0,0-12.22,16.19-8.78,56.75A4.05,4.05,0,0,0,300.69,1162.23Z"/><path class="cls-1" d="M308.42,1163.47s2.5-11.75,12.21-17c0,0-10.31,3-13.76,16.36A2.24,2.24,0,0,0,308.42,1163.47Z"/><path class="cls-8" d="M278.82,1139.8s12.51,14.09,12.26,22.23a17.56,17.56,0,0,1-2.47-.25C287.32,1161.54,291.26,1155.9,278.82,1139.8Z"/><path class="cls-16" d="M326,1175.05c0,16.06-13.94,29-31.14,29a32.11,32.11,0,0,1-22.93-9.39,27.85,27.85,0,0,1-8.21-19.66,27.38,27.38,0,0,1,3.5-13.41c.26-.46.54-.91.81-1.35h53.65A27.45,27.45,0,0,1,326,1175.05Z"/><path class="cls-2" d="M304.23,1178.11c0,9.1-14.44,16.49-32.34,16.6a27.85,27.85,0,0,1-8.21-19.66,27.38,27.38,0,0,1,3.5-13.41c1.4-.09,2.83-.14,4.28-.14C289.56,1161.5,304.23,1168.93,304.23,1178.11Z"/><rect class="cls-15" x="265.64" y="1158.18" width="58.14" height="4.23"/><path class="cls-2" d="M548.45,1097.74c2.57-.25,5.15-.44,7.73-.61,1.29-.1,2.57-.16,3.86-.24s2.58-.15,3.87-.2l-1.25,1.24c-.12-2.6-.24-5.2-.32-7.79l-.14-3.9-.1-3.89q-.23-7.78-.16-15.58c0-5.19.2-10.39.3-15.58l.14-7.79.12-7.79q.21-15.58.54-31.16c.22-10.38.41-20.77.68-31.16h.38c.27,10.39.45,20.78.68,31.16s.39,20.77.54,31.16l.11,7.79.15,7.79c.1,5.19.26,10.39.29,15.58s0,10.39-.16,15.58l-.09,3.89-.14,3.9c-.08,2.59-.21,5.19-.33,7.79l-.06,1.29-1.18,0c-1.29-.05-2.58-.13-3.87-.21s-2.57-.14-3.86-.23c-2.58-.18-5.16-.36-7.73-.61Z"/><path class="cls-2" d="M310.39,833.93c-.26-5.31-.45-10.62-.63-15.93s-.34-10.62-.45-15.93l-.19-8-.14-8c-.11-5.31-.16-10.62-.23-15.93l0-1.81,1.86,0c17.71-.24,35.42-.13,53.13.11l53.12.47c17.71.16,35.41.27,53.12.48l53.12.59v.38L470,771c-17.71.21-35.41.32-53.12.48l-53.12.47c-17.71.24-35.42.35-53.13.11l1.84-1.84c-.07,5.31-.12,10.62-.23,15.93l-.14,8-.19,8c-.12,5.31-.29,10.62-.45,15.93s-.38,10.62-.64,15.93Z"/></svg>