<?xml version="1.0" encoding="utf-8"?>
<!-- Generator: Adobe Illustrator 23.0.0, SVG Export Plug-In . SVG Version: 6.00 Build 0)  -->
<svg version="1.1" id="Capa_1" xmlns="http://www.w3.org/2000/svg" xmlns:xlink="http://www.w3.org/1999/xlink" x="0px" y="0px"
	 viewBox="0 0 23.4 30" style="enable-background:new 0 0 23.4 30;" xml:space="preserve">
<style type="text/css">
	.st0{fill:#E938E1;}
	.st1{fill:#E996E4;}
</style>
<path class="st0" d="M11.7,0.9c-6,0-10.9,4.9-10.9,10.9c0,2.5,0.6,4.9,1.7,7.2c0.9,1.9,2.1,3.7,3.7,5.3c2.7,2.9,5.3,4.5,5.3,4.5
	l0.2,0.1l0.2-0.1c0.3-0.2,2.8-1.7,5.3-4.5c1.5-1.7,2.8-3.5,3.7-5.3c1.1-2.3,1.7-4.8,1.7-7.2C22.6,5.8,17.7,0.9,11.7,0.9z"/>
<path class="st1" d="M11.7,0.1C5.3,0.1,0,5.4,0,11.8c0,2.6,0.6,5.1,1.8,7.6c0.9,1.9,2.2,3.8,3.8,5.5c2.8,3,5.5,4.6,5.5,4.6l0.6,0.4
	l0.6-0.4c0.3-0.2,2.9-1.8,5.5-4.6c1.6-1.7,2.9-3.6,3.8-5.5c1.2-2.4,1.8-5,1.8-7.6C23.4,5.4,18.2,0.1,11.7,0.1z M11.5,28.9
	c0,0-2.7-1.6-5.3-4.5c-1.5-1.7-2.8-3.5-3.7-5.3c-1.1-2.3-1.7-4.8-1.7-7.2c0-6,4.9-10.9,10.9-10.9c6,0,10.9,4.9,10.9,10.9
	c0,2.5-0.6,4.9-1.7,7.2c-0.9,1.9-2.1,3.7-3.7,5.3c-2.5,2.8-5.1,4.3-5.3,4.5L11.7,29L11.5,28.9z"/>
</svg>
