<?xml version="1.0" encoding="utf-8"?>
<!-- Generator: Adobe Illustrator 23.0.0, SVG Export Plug-In . SVG Version: 6.00 Build 0)  -->
<svg version="1.1" xmlns="http://www.w3.org/2000/svg" xmlns:xlink="http://www.w3.org/1999/xlink" x="0px" y="0px"
	 viewBox="0 0 794.1 500" style="enable-background:new 0 0 794.1 500;" xml:space="preserve">
<style type="text/css">
	.st0{fill:#EFE0EE;}
	.st1{fill:#AA5BA8;}
	.st2{fill:#57226D;}
	.st3{fill:#662F84;}
	.st4{fill:#F1F2F2;}
	.st5{fill:#D0D2D3;}
	.st6{fill:#BBBDBF;}
	.st7{fill:#E6E7E8;}
	.st8{fill:#F4E9F4;}
	.st9{fill:#C43771;}
	.st10{fill:#DA4179;}
	.st11{fill:#FFFFFF;}
	.st12{fill:#EE477B;}
	.st13{fill:#F128F7;}
	.st14{fill:#FFC8AB;}
	.st15{fill-rule:evenodd;clip-rule:evenodd;fill:#662F84;}
	.st16{fill-rule:evenodd;clip-rule:evenodd;fill:#AA5BA8;}
	.st17{fill:url(#SVGID_1_);}
	.st18{fill:#421542;}
	.st19{fill:#4E1660;}
	.st20{fill:#53156D;}
	.st21{fill:#EFBBA3;}
	.st22{fill:#7D2D8E;}
	.st23{enable-background:new    ;}
	.st24{fill:#6D296B;}
	.st25{fill:url(#SVGID_2_);}
	.st26{clip-path:url(#SVGID_4_);enable-background:new    ;}
	.st27{fill:#6D6A77;}
</style>
<g id="Layer_2">
</g>
<g id="Layer_1">
	<g>
		<path class="st0" d="M359.9,250.3C359.9,250.3,359.9,250.3,359.9,250.3L794.1-1.3v500H681.2L346.3,305
			C332.7,295.3,316.7,275.3,359.9,250.3z"/>
		<g>
			<g>
				<g>
					<g>
						<path class="st1" d="M446.1,238.1c1.3-0.8,2.4-0.1,2.4,1.3c0,1.5-1.1,3.3-2.4,4.1l-5.2,3c-1.3,0.8-2.4,0.1-2.4-1.4
							c0-1.5,1.1-3.3,2.4-4.1L446.1,238.1z"/>
					</g>
				</g>
				<path class="st2" d="M448.5,239.5c0-1.5-1.1-2.1-2.4-1.3l-0.2,0.1c1.3-0.7,2.3-0.1,2.3,1.4c0,1.4-0.9,3.1-2.1,3.9
					C447.5,242.7,448.5,240.9,448.5,239.5z"/>
				<g>
					<g>
						<path class="st0" d="M464.6,132.6c0.8-0.4,1.4-0.1,1.4,0.8l0.3,89.7c0,0.9-0.6,2-1.4,2.5l-42.6,24.6c-0.8,0.5-1.4,0.1-1.4-0.8
							l-0.3-89.7c0-0.9,0.6-2,1.4-2.5L464.6,132.6z"/>
					</g>
				</g>
				<g>
					<g>
						<path class="st3" d="M464.5,128.5c1.8-1,3.3-0.2,3.3,1.9l0.3,98.3c0,2.1-1.5,4.7-3.3,5.7l-42.6,24.6c-1.8,1.1-3.3,0.2-3.3-1.9
							l-0.3-98.3c0-2.1,1.5-4.7,3.3-5.7L464.5,128.5z M466.2,223.1l-0.3-89.7c0-0.9-0.6-1.3-1.4-0.8L422,157.2
							c-0.8,0.5-1.4,1.6-1.4,2.5l0.3,89.7c0,0.9,0.6,1.3,1.4,0.8l42.6-24.6C465.6,225.1,466.2,224,466.2,223.1 M446.1,243.6
							c1.3-0.8,2.4-2.6,2.4-4.1c0-1.5-1.1-2.1-2.4-1.3l-5.2,3c-1.3,0.8-2.4,2.6-2.4,4.1c0,1.5,1.1,2.1,2.4,1.4L446.1,243.6
							 M432.8,148.2c-0.3,0.2-0.6,0.6-0.6,1c0,0.4,0.3,0.5,0.6,0.3l20.8-12c0.3-0.2,0.6-0.6,0.6-1c0-0.4-0.3-0.5-0.6-0.3
							L432.8,148.2"/>
					</g>
				</g>
				<g>
					<g>
						<path class="st1" d="M453.7,136.2c0.3-0.2,0.6,0,0.6,0.3c0,0.4-0.3,0.8-0.6,1l-20.8,12c-0.3,0.2-0.6,0-0.6-0.3
							c0-0.4,0.3-0.8,0.6-1L453.7,136.2z"/>
					</g>
				</g>
				<path class="st4" d="M418.9,257.2l-0.3-98.3l-5.2-3l0.3,98.3c0,1,0.4,1.8,1,2.1c1.7,1,3.5,2,5.2,3
					C419.3,259,418.9,258.2,418.9,257.2z"/>
				<path class="st4" d="M461.7,125.3c-0.6-0.3-1.4-0.3-2.3,0.2l-42.6,24.6c-1.8,1.1-3.3,3.6-3.3,5.7l5.2,3c0-2.1,1.5-4.7,3.3-5.7
					l42.6-24.6c0.9-0.5,1.7-0.6,2.3-0.2L461.7,125.3z"/>
			</g>
			<g>
				<g>
					<path class="st0" d="M416.2,179.4l0.4-0.2c0.1,0,0.1-0.2,0.1-0.3l-0.4,0.2C416.3,179.3,416.3,179.4,416.2,179.4z"/>
					<polygon class="st0" points="416.3,179.1 416.7,178.9 416.8,171.3 416.4,171.5 					"/>
					<path class="st0" d="M416,170.5c-0.1,0.1-0.3,0.2-0.4,0.2c0.1,0,0.2,0,0.3,0l0.4-0.2C416.2,170.4,416,170.4,416,170.5z"/>
					<path class="st0" d="M416.4,171.5l0.4-0.2c0-0.3-0.2-0.7-0.5-0.8l-0.4,0.2C416.2,170.9,416.4,171.2,416.4,171.5z"/>
				</g>
				<g>
					<path class="st3" d="M415.9,170.7c-0.3-0.1-0.5,0-0.5,0.3l0,7.6c0,0.3,0.2,0.7,0.5,0.8c0.3,0.1,0.5,0,0.5-0.3l0-7.6
						C416.4,171.2,416.2,170.9,415.9,170.7z"/>
				</g>
				<g>
					<path class="st0" d="M416.2,190.2l0.4-0.2c0.1,0,0.1-0.2,0.1-0.3l-0.4,0.2C416.3,190,416.3,190.1,416.2,190.2z"/>
					<polygon class="st0" points="416.3,189.9 416.7,189.7 416.8,182.1 416.4,182.3 					"/>
					<path class="st0" d="M416,181.2c-0.1,0.1-0.3,0.2-0.4,0.2c0.1,0,0.2,0,0.3,0l0.4-0.2C416.2,181.2,416,181.2,416,181.2z"/>
					<path class="st0" d="M416.4,182.3l0.4-0.2c0-0.3-0.2-0.7-0.5-0.8l-0.4,0.2C416.2,181.6,416.4,182,416.4,182.3z"/>
				</g>
				<g>
					<path class="st3" d="M415.9,181.5c-0.3-0.2-0.5,0-0.5,0.3l0,7.6c0,0.3,0.2,0.7,0.5,0.8c0.3,0.2,0.5,0,0.5-0.3l0-7.6
						C416.4,182,416.2,181.6,415.9,181.5z"/>
				</g>
			</g>
		</g>
		<g>
			<path class="st5" d="M548.2,294.8l27.4-14.6c0,0,3.4-2.1,2.6-6c-0.8-3.7,5-3.4,5-3.4l13.5,6.9l6.8,4c0,0,8.6,7.8,9.1,11.6
				c0.6,4.4-3.1,6.7-3.1,6.7l-27.2,15.8c-0.7,0.4-1.9,0.4-2.6,0l-31.4-18.2C547.3,296.9,547.5,295.2,548.2,294.8z"/>
			<path class="st4" d="M609.6,298.6l-27.2,15.8c-0.7,0.4-1.9,0.4-2.6,0l-31.4-18.2c-0.7-0.4-0.7-1.1,0-1.5l27.2-15.8
				c0,0,0.9-0.6,1.6-1.8l34,19.6C610.5,297.9,609.6,298.6,609.6,298.6z"/>
			<path class="st6" d="M577.7,273c-0.8-3.7,5.5-3.5,5.5-3.5l13.5,6.9l6.8,4c0,0,7.4,8.6,8.2,12.3c0.2,0.8,0.2,1.5,0,2.1
				c-0.1,0.8-0.4,1.4-0.7,2l-34-19.6c0.3-0.5,0.6-1.2,0.7-2C577.9,274.5,577.9,273.8,577.7,273z"/>
			<g>
				<g>
					<path class="st1" d="M663.6,178.1c4.9,2.8,8.9,9.8,8.9,15.5l-0.3,113.1l-180.1-104l0.3-113.1c0-5.7,4.1-8,9-5.1L663.6,178.1z
						 M498.8,198.8L665.5,295l0.3-107.9L499.1,90.9L498.8,198.8"/>
				</g>
			</g>
			<g>
				<polygon class="st1" points="499.1,90.9 498.8,198.8 665.5,295 665.8,187.1 				"/>
			</g>
			<g>
				<path class="st4" d="M672.5,193.6l-0.3,113.1l-180.1-104l0,11.5c0,5.7,4,12.6,8.9,15.5l162.2,93.7c4.9,2.8,9,0.5,9-5.1
					L672.5,193.6z"/>
			</g>
			<path class="st7" d="M675.7,191.7l-0.3,113.1l0,11.5c0,2.8-1,4.8-2.6,5.7c-1,0.6-2.1,1.2-3.1,1.8c1.6-0.9,2.6-2.9,2.6-5.7
				l0.4-124.5h0c0-5.7-4-12.6-8.9-15.5l3.1-1.8C671.7,179.1,675.7,186.1,675.7,191.7z"/>
			<path class="st7" d="M495,83.8c1-0.6,2.1-1.2,3.1-1.8c1.6-0.9,3.9-0.8,6.4,0.6l162.3,93.7l-3.1,1.8L501.4,84.4
				C498.9,83,496.6,82.9,495,83.8z"/>
			<g>
				<g>
					<g>
						<path class="st8" d="M502,92.6c-1.6-0.9-2.9-0.2-2.9,1.7l-0.3,101.2c0,1.9,1.3,4.1,2.9,5.1l160.9,92.9
							c1.6,0.9,2.9,0.2,2.9-1.7l0.3-101.2c0-1.9-1.3-4.1-2.9-5.1L502,92.6z"/>
					</g>
				</g>
			</g>
		</g>
		<g>
			<path class="st9" d="M487,91.4c0.2-0.1,0.4-0.2,0.6-0.4c0.2-0.1,0.5-0.3,0.7-0.4c0.2-0.1,0.5-0.1,0.9,0.1l165.6,95.6
				c0.7,0.4,1.2,1.3,1.2,2.1l0,5c0,0.4-0.1,0.7-0.4,0.8c-0.5,0.3-1,0.6-1.5,0.9c0.2-0.1,0.4-0.4,0.4-0.8l0-5c0-0.8-0.5-1.7-1.2-2.1
				L487.7,91.6c-0.3-0.2-0.6-0.2-0.9-0.1C486.9,91.5,487,91.5,487,91.4z"/>
			<path class="st10" d="M486.4,97.3l0-5c0-0.8,0.6-1.1,1.2-0.7l12.7,7.3v7.8l-12.7-7.3C487,99.1,486.4,98.1,486.4,97.3z"/>
			<g>
				<path class="st11" d="M491.1,98.2c0.1-0.1,0.2,0,0.4,0c0,0,0.1,0,0.1,0.1l0.6-0.3c-0.4-0.9-0.4-1.8,0.2-2.1
					c0.3-0.2,0.7-0.1,1.1,0.1c0.4,0.2,0.8,0.6,1.1,1.1c0.6,1,0.6,2.1,0,2.4c-0.3,0.2-0.7,0.1-1.1-0.1c-0.3-0.2-0.5-0.4-0.8-0.7
					l-0.6,0.3c0,0.2,0,0.3-0.1,0.4l-1.2,0.7c-0.1,0.1-0.2,0-0.4,0c-0.1-0.1-0.3-0.2-0.4-0.4c-0.2-0.3-0.2-0.7,0-0.8L491.1,98.2z
					 M492.4,98.1c0.2,0.4,0.5,0.7,0.8,0.9c0.3,0.2,0.6,0.2,0.8,0.1c0.5-0.3,0.5-1.1,0-2c-0.2-0.4-0.5-0.7-0.8-0.9
					c-0.3-0.2-0.6-0.2-0.8-0.1C492,96.4,492,97.3,492.4,98.1"/>
			</g>
			<path class="st12" d="M653.3,187.3c0.7,0.4,1.2,1.3,1.2,2.1l0,5c0,0.8-0.6,1.1-1.2,0.7l-153-88.3v-7.8L653.3,187.3z"/>
			<g>
				<g>
					<path class="st11" d="M629.9,175.5l1.3,5.5l0.7,0.4l0.7-2.5l0.2-0.7l0.8,4.1l0.7,0.4l1.3-4l-0.7-0.4l-0.7,2.4l-0.2,0.9
						c0-0.1-0.1-0.4-0.2-1.1l-0.6-3.2l-0.7-0.4l-0.6,2.4l-0.2,0.8l-0.2-1.1l-0.7-3.2L629.9,175.5z"/>
				</g>
				<g>
					<path class="st11" d="M635.7,178.8l1.3,5.5l0.7,0.4l0.7-2.5l0.2-0.7l0.8,4.1l0.7,0.4l1.3-4l-0.7-0.4l-0.7,2.4l-0.2,0.9
						c0-0.1-0.1-0.4-0.2-1.1l-0.6-3.2l-0.7-0.4l-0.6,2.4l-0.2,0.8l-0.2-1.1l-0.7-3.2L635.7,178.8z"/>
				</g>
				<g>
					<path class="st11" d="M641.4,182.1l1.3,5.5l0.7,0.4l0.7-2.5l0.2-0.7l0.8,4.1l0.7,0.4l1.3-4l-0.7-0.4l-0.7,2.4l-0.2,0.9
						c0-0.1-0.1-0.4-0.2-1.1l-0.7-3.2l-0.7-0.4l-0.6,2.4l-0.2,0.8l-0.2-1.1l-0.7-3.2L641.4,182.1z"/>
				</g>
			</g>
		</g>
		<g>
			<path class="st9" d="M502.1,263.2c0,1.2,0,2.4,0,3.6c0-3.1-2-6.2-6.1-8.5c-8.1-4.7-21.2-4.7-29.2,0c-4,2.3-6,5.4-6,8.4l0-3.6
				c0-3,2-6.1,6-8.4c8.1-4.7,21.1-4.7,29.2,0C500.1,257,502.1,260.1,502.1,263.2z"/>
			<path class="st9" d="M455.5,266.7l0-3.6c0,2.7,1.2,5.4,3.7,7.8l0,3.6C456.8,272.1,455.5,269.4,455.5,266.7z"/>
			<path class="st9" d="M499.8,273.7c-9.1,5.3-23.3,5.8-33.4,1.6l0,3.6c10.1,4.2,24.3,3.7,33.4-1.6c5-2.9,7.5-6.7,7.5-10.6
				c0-1.2,0-2.4,0-3.6C507.3,267,504.8,270.8,499.8,273.7z"/>
			<polygon class="st9" points="466.4,275.3 466.4,278.9 456.8,284.5 456.8,280.9 			"/>
			<path class="st9" d="M454.4,285.3l-21,12.2c-3.4,2-9,2-12.4,0c-1.7-1-2.6-2.3-2.6-3.6c0,1.2,0,2.4,0,3.6c0,1.3,0.9,2.6,2.6,3.6
				c3.4,2,9,2,12.4,0l21-12.2c1.7-1,2.5-2.3,2.5-3.6l0-3.6C456.9,283,456.1,284.3,454.4,285.3z"/>
			<g>
				<path class="st12" d="M499.8,273.7c-9.1,5.3-23.3,5.8-33.4,1.6l-9.6,5.6c0.4,1.6-0.4,3.2-2.4,4.4l-21,12.2c-3.4,2-9,2-12.4,0
					c-3.4-2-3.4-5.2,0-7.2l21-12.2c2-1.1,4.7-1.6,7.3-1.4l10-5.8c-6-5.8-4.8-13.4,3.8-18.3c10.1-5.9,26.5-5.9,36.6,0
					C509.8,258.4,509.9,267.9,499.8,273.7z M466.9,271.6c8.1,4.7,21.2,4.7,29.2,0c8.1-4.7,8-12.3-0.1-16.9c-8.1-4.7-21.2-4.7-29.2,0
					C458.7,259.4,458.8,267,466.9,271.6"/>
			</g>
		</g>
		<g>
			<path class="st9" d="M442.9,211.1l-0.1-0.7c-0.1-0.3-0.2-0.5-0.4-0.6l-2.9-1.7c0.2,0.1,0.3,0.3,0.4,0.6l0.1,0.7
				c0,0.3,0.2,0.5,0.4,0.7l2.9,1.7C443.1,211.6,442.9,211.4,442.9,211.1z"/>
			<path class="st9" d="M451.2,183.3c-0.5-0.3-1-0.6-1.4-0.8c-0.5-0.3-1-0.6-1.4-0.8c1.4,0.8,2.3,2.6,2.3,5.1c0,5-3.5,11.2-7.9,13.7
				c-2.2,1.3-4.2,1.4-5.6,0.5c1,0.6,1.9,1.1,2.9,1.7c1.4,0.8,3.4,0.7,5.6-0.5c4.4-2.5,7.9-8.7,7.9-13.7
				C453.5,185.8,452.6,184.1,451.2,183.3z"/>
			<path class="st10" d="M432.9,210.6l-1.4-2c-0.3-0.5-0.2-1.4,0.3-2.2l0.5-0.8l-2.9-1.7l-0.5,0.8c-0.5,0.8-0.7,1.7-0.3,2.2l1.4,2
				c0.1,0.1,0.1,0.2,0.2,0.2l2.9,1.7C433,210.8,432.9,210.7,432.9,210.6z"/>
			<path class="st10" d="M456.7,174.2c-0.4-0.2-0.9-0.5-1.3-0.7c0,0-0.1-0.1-0.1-0.1c-0.3-0.2-0.6-0.1-1,0.1
				c-0.2,0.1-0.3,0.2-0.5,0.4l-0.7,0.7c-0.2,0.2-0.3,0.3-0.5,0.4c-0.3,0.2-0.7,0.2-0.9,0.1c-1.4-0.7-3.2-0.9-5.1-0.4
				c-0.2,0.1-0.4,0-0.6-0.1l2.9,1.7c0.2,0.1,0.4,0.1,0.6,0.1c1.9-0.4,3.7-0.3,5.1,0.4c0.3,0.1,0.6,0.1,0.9-0.1
				c0.2-0.1,0.3-0.2,0.5-0.4l0.7-0.7c0.2-0.2,0.3-0.3,0.5-0.4c0.4-0.2,0.7-0.2,1-0.1C457.6,174.7,457.2,174.5,456.7,174.2z"/>
			<path class="st10" d="M445.1,172.5c-0.3-0.1-0.6-0.1-1,0.1l-2.8,1.6c-0.7,0.4-1.3,1.3-1.4,2.1l-0.1,0.9c-0.1,0.7-0.4,1.3-1,1.8
				c-1.9,1.8-3.7,4-5.1,6.3c-0.3,0.4-0.6,0.8-0.9,1c-0.2,0.1-0.3,0.2-0.5,0.2l-0.7,0.1l2.9,1.7l0.7-0.1c0.2,0,0.3-0.1,0.5-0.2
				c0.3-0.2,0.7-0.5,0.9-1c1.4-2.4,3.2-4.5,5.1-6.3c0.5-0.5,0.9-1.2,1-1.8l0.1-0.9c0.1-0.8,0.7-1.7,1.4-2.1l2.8-1.6
				c0.4-0.2,0.7-0.2,1-0.1L445.1,172.5z"/>
			<path class="st10" d="M432.8,203.7c-0.2-1-0.3-2-0.3-3.2c0-1.2,0.1-2.4,0.3-3.6c0.1-0.6,0-1.1-0.4-1.3c-0.3-0.2-0.7-0.4-1-0.6
				c-0.2-0.4-0.2-0.9,0.1-1.5l-2.9-1.7c-0.3,0.8-0.2,1.6,0.2,1.8c0.3,0.2,0.7,0.4,1,0.6c0.1,0.2,0.2,0.6,0.1,1
				c-0.2,1.2-0.3,2.4-0.3,3.6c0,1.2,0.1,2.2,0.3,3.2c0.1,0.5-0.1,1.2-0.5,1.9l2.9,1.7C432.8,204.9,432.9,204.2,432.8,203.7z"/>
			<g>
				<g>
					<path class="st12" d="M459.5,190.4c0.5,0.2,0.7,1,0.3,1.9l-1.4,3.6c-0.3,0.7-0.7,1.2-1.2,1.5c-0.2,0.1-0.3,0.2-0.5,0.2
						l-0.7,0.1c-0.2,0-0.3,0.1-0.5,0.2c-0.3,0.2-0.7,0.5-0.9,1c-1.4,2.4-3.2,4.5-5.1,6.3c-0.5,0.5-0.9,1.2-1,1.8l-0.1,0.9
						c-0.1,0.8-0.7,1.7-1.4,2.1l-2.8,1.6c-0.7,0.4-1.3,0.2-1.4-0.6l-0.1-0.7c-0.1-0.6-0.5-0.8-1-0.7c-1.9,0.4-3.7,0.3-5.1-0.4
						c-0.3-0.1-0.6-0.1-0.9,0.1c-0.2,0.1-0.3,0.2-0.5,0.4l-0.7,0.7c-0.2,0.2-0.3,0.3-0.5,0.4c-0.5,0.3-0.9,0.3-1.2-0.1l-1.4-2
						c-0.3-0.5-0.2-1.4,0.3-2.2l0.5-0.8c0.4-0.6,0.6-1.3,0.5-1.9c-0.2-1-0.3-2-0.3-3.2c0-1.2,0.1-2.4,0.3-3.6
						c0.1-0.7-0.1-1.2-0.5-1.3l-0.5-0.2c-0.5-0.2-0.7-1-0.3-1.9l1.4-3.6c0.3-0.7,0.7-1.2,1.2-1.5c0.2-0.1,0.3-0.2,0.5-0.2l0.7-0.1
						c0.2,0,0.3-0.1,0.5-0.2c0.3-0.2,0.7-0.5,0.9-1c1.4-2.4,3.2-4.5,5.1-6.3c0.5-0.5,0.9-1.2,1-1.8l0.1-0.9c0.1-0.8,0.7-1.7,1.4-2.1
						l2.8-1.6c0.7-0.4,1.3-0.2,1.4,0.6l0.1,0.7c0.1,0.6,0.5,0.8,1,0.7c1.9-0.4,3.7-0.3,5.1,0.4c0.3,0.1,0.6,0.1,0.9-0.1
						c0.2-0.1,0.3-0.2,0.5-0.4l0.7-0.7c0.2-0.2,0.3-0.3,0.5-0.4c0.5-0.3,0.9-0.3,1.2,0.1l1.4,2c0.3,0.5,0.2,1.4-0.3,2.2l-0.5,0.8
						c-0.4,0.6-0.6,1.3-0.5,1.9c0.2,1,0.3,2,0.3,3.2c0,1.2-0.1,2.4-0.3,3.6c-0.1,0.7,0.1,1.2,0.5,1.3L459.5,190.4z M445.6,202
						c4.4-2.5,7.9-8.7,7.9-13.7c0-5-3.6-7.1-7.9-4.5c-4.4,2.5-7.9,8.7-7.9,13.7C437.7,202.5,441.3,204.6,445.6,202"/>
				</g>
			</g>
			<path class="st10" d="M431.7,186.6c-0.2,0-0.3,0.1-0.5,0.2c-0.5,0.3-0.9,0.8-1.2,1.5l-1.4,3.6l2.9,1.7l1.4-3.6
				c0.3-0.7,0.7-1.2,1.2-1.5c0.2-0.1,0.3-0.2,0.5-0.2L431.7,186.6z"/>
		</g>
		<g>
			<g>
				<g>
					<path class="st3" d="M549.9,356.4c0.8-0.2,1.5-1,1.7-2L573,200.2c0.2-1.2-0.5-2.1-1.4-2.2c-0.9,0-1.8,0.9-2,2.1l-21.4,154.2
						c-0.2,1.2,0.5,2.1,1.4,2.2C549.7,356.5,549.8,356.5,549.9,356.4z"/>
				</g>
				<g>
					<path class="st3" d="M513.3,338.2c0.8-0.2,1.5-1,1.7-2L536.4,182c0.2-1.2-0.5-2.1-1.4-2.2c-0.9,0-1.8,0.9-2,2.1L511.6,336
						c-0.2,1.2,0.5,2.1,1.4,2.2C513.1,338.2,513.2,338.2,513.3,338.2z"/>
				</g>
				<g>
					<path class="st3" d="M566.5,232.6c0.6-0.1,1.1-0.6,1.4-1.2c0.5-1.1,0.3-2.3-0.5-2.8l-37-21.7c-0.8-0.5-1.9,0-2.3,1.1
						c-0.5,1.1-0.3,2.3,0.5,2.8l37,21.7C565.9,232.6,566.2,232.6,566.5,232.6z"/>
				</g>
				<g>
					<path class="st3" d="M563,260c0.6-0.1,1.1-0.6,1.4-1.2c0.5-1.1,0.3-2.3-0.5-2.8l-37-21.7c-0.8-0.5-1.9,0-2.3,1.1
						c-0.5,1.1-0.3,2.3,0.5,2.8l37,21.7C562.3,260,562.7,260.1,563,260z"/>
				</g>
				<g>
					<path class="st3" d="M559.4,287.4c0.6-0.1,1.1-0.6,1.4-1.2c0.5-1.1,0.3-2.3-0.5-2.8l-37-21.7c-0.8-0.5-1.9,0-2.3,1.1
						c-0.5,1.1-0.3,2.3,0.5,2.8l37,21.7C558.8,287.5,559.1,287.5,559.4,287.4z"/>
				</g>
				<g>
					<path class="st3" d="M555.9,314.9c0.6-0.1,1.1-0.6,1.4-1.2c0.5-1.1,0.3-2.3-0.5-2.8l-37-21.7c-0.8-0.5-1.9,0-2.3,1.1
						c-0.5,1.1-0.3,2.3,0.5,2.8l37,21.7C555.2,314.9,555.5,315,555.9,314.9z"/>
				</g>
				<g>
					<path class="st3" d="M552.3,342.3c0.6-0.1,1.1-0.6,1.4-1.2c0.5-1.1,0.3-2.3-0.5-2.8l-37-21.7c-0.8-0.5-1.9,0-2.3,1.1
						c-0.5,1.1-0.3,2.3,0.5,2.8l37,21.7C551.7,342.3,552,342.4,552.3,342.3z"/>
				</g>
			</g>
		</g>
		<g>
			<g>
				<path class="st13" d="M619.3,260.4c0,0-0.9-0.5-1.7-0.3c-0.7,0.2-0.4,0.9-0.4,0.9s1.2,1.6,1.6,2c0.4,0.4,0.6,1.3,1.1,1.9
					c0.4,0.5,1.3,0.2,1.5-0.2c0.2-0.4-0.1-1.6,0-3.2C621.3,261.3,619.3,260.4,619.3,260.4z"/>
				<path class="st14" d="M626,248.9c0,0-3-1.2-3.2-0.2c-0.2,1-1.5,13.7-1.5,13.7s-2.4-0.4-2.7-1.9c-0.2-1.5-1.8-18.2,2.4-18
					c6.8,0.3,8.4,1.8,8.4,1.8L626,248.9z"/>
			</g>
			<g>
				<path class="st3" d="M610.4,261.8c-1.8,0-3.7-0.5-4.1-0.3c-0.5,0.2-0.8,1.2,0.2,1.8c1,0.6,5.2,2.1,5.7,1.9
					c0.5-0.1,0.7-1.8,0.7-1.8S611.2,261.8,610.4,261.8z"/>
				<path class="st14" d="M617.6,250.1c0,0-3-1.2-3.2-0.2c-0.2,1-1.5,13.7-1.5,13.7s-2.4-0.4-2.7-1.9c-0.2-1.5-1.8-18.2,2.4-18
					c6.8,0.3,8.4,1.8,8.4,1.8L617.6,250.1z"/>
			</g>
			<g>
				<g>
					<g>
						<polygon class="st9" points="629.9,338.1 647.6,327.8 647.9,250.8 630.2,261.1 						"/>
					</g>
				</g>
				<g>
					<g>
						<polygon class="st12" points="630.2,261.1 647.9,250.8 630.3,240.7 612.6,251 						"/>
					</g>
				</g>
				<g>
					<g>
						<polygon class="st10" points="612.6,251 612.4,327.9 629.9,338.1 630.2,261.1 						"/>
					</g>
				</g>
				<g>
					<g>
						<polygon class="st9" points="661.3,356.1 679,345.8 679.1,286.4 661.4,296.7 						"/>
					</g>
				</g>
				<g>
					<g>
						<polygon class="st12" points="661.4,296.7 679.1,286.4 661.6,276.3 643.9,286.6 						"/>
					</g>
				</g>
				<g>
					<g>
						<polygon class="st10" points="643.9,286.6 643.7,346 661.3,356.1 661.4,296.7 						"/>
					</g>
				</g>
				<g>
					<g>
						<polygon class="st9" points="692.6,374.2 710.3,363.9 710.4,315.2 692.7,325.5 						"/>
					</g>
				</g>
				<g>
					<g>
						<polygon class="st12" points="692.7,325.5 710.4,315.2 692.8,305 675.2,315.3 						"/>
					</g>
				</g>
				<g>
					<g>
						<polygon class="st10" points="675.2,315.3 675,364 692.6,374.2 692.7,325.5 						"/>
					</g>
				</g>
			</g>
			<path class="st14" d="M615,249.5c0,0,2,0.3,2.4,0.5c0.4,0.2,0.9-2.3,0.9-2.3l-3.4-0.3L615,249.5z"/>
			<g>
				<path class="st3" d="M632.3,237.6c0,0.1-0.1,0.2-0.2,0.3l-13.5,7.8c-0.3,0.2-0.8,0.2-1.1,0l0,0.5c0.3,0.2,0.8,0.2,1.1,0
					l13.4-7.7c0.3-0.2,0.4-0.6,0.4-0.7C632.3,237.7,632.3,237.8,632.3,237.6z"/>
				<g>
					<g>
						<path class="st0" d="M608.9,240.8l8.6,5c0.3,0.2,0.8,0.2,1.1,0l13.5-7.8c0.3-0.2,0.3-0.5,0-0.6l-8.6-5L608.9,240.8z"/>
					</g>
				</g>
				<path class="st15" d="M620.2,241.2l3.6-2.1c0.1-0.1,0.3-0.1,0.4,0l2.1,1.2c0.1,0.1,0.1,0.2,0,0.2l-3.6,2.1
					c-0.1,0.1-0.3,0.1-0.4,0l-2.1-1.2C620.1,241.3,620.1,241.2,620.2,241.2L620.2,241.2z"/>
				<g>
					<path class="st16" d="M615.4,242.8l0.7-0.4c0.1,0,0.1,0,0.2,0l0.5,0.3c0.1,0,0.1,0.1,0,0.1l-0.7,0.4c-0.1,0-0.1,0-0.2,0
						l-0.5-0.3C615.4,242.8,615.4,242.8,615.4,242.8L615.4,242.8z"/>
					<path class="st16" d="M609.8,240.6l0.7-0.4c0,0,0.1,0,0.1,0l0.4,0.2c0,0,0,0.1,0,0.1l-0.7,0.4c0,0-0.1,0-0.1,0L609.8,240.6
						C609.8,240.7,609.8,240.7,609.8,240.6L609.8,240.6z"/>
					<path class="st16" d="M610.9,240.1l0.6-0.4c0,0,0.1,0,0.1,0l0.4,0.2c0,0,0,0.1,0,0.1l-0.6,0.4c0,0-0.1,0-0.1,0L610.9,240.1
						C610.8,240.1,610.8,240.1,610.9,240.1L610.9,240.1z"/>
					<path class="st16" d="M611.8,239.5l0.6-0.4c0,0,0.1,0,0.1,0l0.4,0.2c0,0,0,0.1,0,0.1l-0.6,0.4c0,0-0.1,0-0.1,0L611.8,239.5
						C611.7,239.6,611.7,239.5,611.8,239.5L611.8,239.5z"/>
					<path class="st16" d="M612.7,239l0.6-0.4c0,0,0.1,0,0.1,0l0.4,0.2c0,0,0,0.1,0,0.1l-0.6,0.4c0,0-0.1,0-0.1,0L612.7,239
						C612.6,239.1,612.6,239,612.7,239L612.7,239z"/>
					<path class="st16" d="M613.6,238.5l0.6-0.4c0,0,0.1,0,0.1,0l0.4,0.2c0,0,0,0.1,0,0.1l-0.6,0.4c0,0-0.1,0-0.1,0L613.6,238.5
						C613.6,238.5,613.6,238.5,613.6,238.5L613.6,238.5z"/>
					<path class="st16" d="M614.5,237.9l0.6-0.4c0,0,0.1,0,0.1,0l0.4,0.2c0,0,0,0.1,0,0.1l-0.6,0.4c0,0-0.1,0-0.1,0L614.5,237.9
						C614.5,238,614.5,238,614.5,237.9L614.5,237.9z"/>
					<path class="st16" d="M615.4,237.4l0.6-0.4c0,0,0.1,0,0.1,0l0.4,0.2c0,0,0,0.1,0,0.1l-0.6,0.4c0,0-0.1,0-0.1,0L615.4,237.4
						C615.4,237.5,615.4,237.4,615.4,237.4L615.4,237.4z"/>
					<path class="st16" d="M616.3,236.9l0.6-0.4c0,0,0.1,0,0.1,0l0.4,0.2c0,0,0,0.1,0,0.1l-0.6,0.4c0,0-0.1,0-0.1,0L616.3,236.9
						C616.3,236.9,616.3,236.9,616.3,236.9L616.3,236.9z"/>
					<path class="st16" d="M617.3,236.4l0.6-0.4c0,0,0.1,0,0.1,0l0.4,0.2c0,0,0,0.1,0,0.1l-0.6,0.4c0,0-0.1,0-0.1,0L617.3,236.4
						C617.2,236.4,617.2,236.4,617.3,236.4L617.3,236.4z"/>
					<path class="st16" d="M618.2,235.8l0.6-0.4c0,0,0.1,0,0.1,0l0.4,0.2c0,0,0,0.1,0,0.1l-0.6,0.4c0,0-0.1,0-0.1,0L618.2,235.8
						C618.1,235.9,618.1,235.8,618.2,235.8L618.2,235.8z"/>
					<path class="st16" d="M619.1,235.3l0.6-0.4c0,0,0.1,0,0.1,0l0.4,0.2c0,0,0,0.1,0,0.1l-0.6,0.4c0,0-0.1,0-0.1,0L619.1,235.3
						C619.1,235.4,619.1,235.3,619.1,235.3L619.1,235.3z"/>
					<path class="st16" d="M620,234.8l0.6-0.4c0,0,0.1,0,0.1,0l0.4,0.2c0,0,0,0.1,0,0.1l-0.6,0.4c0,0-0.1,0-0.1,0L620,234.8
						C620,234.8,620,234.8,620,234.8L620,234.8z"/>
					<path class="st16" d="M620.9,234.2l0.6-0.4c0,0,0.1,0,0.1,0l0.4,0.2c0,0,0,0.1,0,0.1l-0.6,0.4c0,0-0.1,0-0.1,0L620.9,234.2
						C620.9,234.3,620.9,234.3,620.9,234.2L620.9,234.2z"/>
					<path class="st16" d="M621.8,233.7l0.6-0.4c0,0,0.1,0,0.1,0l0.4,0.2c0,0,0,0.1,0,0.1l-0.6,0.4c0,0-0.1,0-0.1,0L621.8,233.7
						C621.8,233.8,621.8,233.7,621.8,233.7L621.8,233.7z"/>
					<path class="st16" d="M622.8,233.2l0.6-0.4c0,0,0.1,0,0.1,0l0.4,0.2c0,0,0,0.1,0,0.1l-0.6,0.4c0,0-0.1,0-0.1,0L622.8,233.2
						C622.7,233.2,622.7,233.2,622.8,233.2L622.8,233.2z"/>
					<path class="st16" d="M622.9,234.1l1.4-0.8c0.1,0,0.1,0,0.2,0l0.5,0.3c0.1,0,0.1,0.1,0,0.1l-1.4,0.8c-0.1,0-0.1,0-0.2,0
						l-0.5-0.3C622.8,234.2,622.8,234.2,622.9,234.1L622.9,234.1z"/>
					<path class="st16" d="M610.7,241.1l0.5-0.3c0.1,0,0.1,0,0.2,0l0.5,0.3c0.1,0,0.1,0.1,0,0.1l-0.5,0.3c-0.1,0-0.1,0-0.2,0
						l-0.5-0.3C610.7,241.2,610.7,241.2,610.7,241.1L610.7,241.1z"/>
					<path class="st16" d="M611.7,240.6c0.2-0.1,0.3-0.2,0.5-0.3c0.1,0,0.1,0,0.2,0c0.2,0.1,0.3,0.2,0.5,0.3c0.1,0,0.1,0.1,0,0.1
						c-0.2,0.1-0.3,0.2-0.5,0.3c-0.1,0-0.1,0-0.2,0c-0.2-0.1-0.3-0.2-0.5-0.3C611.6,240.7,611.6,240.6,611.7,240.6L611.7,240.6z"/>
					<path class="st16" d="M612.6,240.1c0.2-0.1,0.3-0.2,0.5-0.3c0.1,0,0.1,0,0.2,0c0.2,0.1,0.3,0.2,0.5,0.3c0.1,0,0.1,0.1,0,0.1
						c-0.2,0.1-0.3,0.2-0.5,0.3c-0.1,0-0.1,0-0.2,0c-0.2-0.1-0.3-0.2-0.5-0.3C612.6,240.1,612.6,240.1,612.6,240.1L612.6,240.1z"/>
					<path class="st16" d="M613.5,239.5c0.2-0.1,0.3-0.2,0.5-0.3c0.1,0,0.1,0,0.2,0c0.2,0.1,0.3,0.2,0.5,0.3c0.1,0,0.1,0.1,0,0.1
						c-0.2,0.1-0.3,0.2-0.5,0.3c-0.1,0-0.1,0-0.2,0c-0.2-0.1-0.3-0.2-0.5-0.3C613.5,239.6,613.5,239.5,613.5,239.5L613.5,239.5z"/>
					<path class="st16" d="M614.5,239c0.2-0.1,0.3-0.2,0.5-0.3c0.1,0,0.1,0,0.2,0c0.2,0.1,0.3,0.2,0.5,0.3c0.1,0,0.1,0.1,0,0.1
						c-0.2,0.1-0.3,0.2-0.5,0.3c-0.1,0-0.1,0-0.2,0c-0.2-0.1-0.3-0.2-0.5-0.3C614.4,239.1,614.4,239,614.5,239L614.5,239z"/>
					<path class="st16" d="M615.4,238.4c0.2-0.1,0.3-0.2,0.5-0.3c0.1,0,0.1,0,0.2,0c0.2,0.1,0.3,0.2,0.5,0.3c0.1,0,0.1,0.1,0,0.1
						c-0.2,0.1-0.3,0.2-0.5,0.3c-0.1,0-0.1,0-0.2,0c-0.2-0.1-0.3-0.2-0.5-0.3C615.4,238.5,615.4,238.5,615.4,238.4L615.4,238.4z"/>
					<path class="st16" d="M616.3,237.9c0.2-0.1,0.3-0.2,0.5-0.3c0.1,0,0.1,0,0.2,0c0.2,0.1,0.3,0.2,0.5,0.3c0.1,0,0.1,0.1,0,0.1
						c-0.2,0.1-0.3,0.2-0.5,0.3c-0.1,0-0.1,0-0.2,0c-0.2-0.1-0.3-0.2-0.5-0.3C616.3,238,616.3,237.9,616.3,237.9L616.3,237.9z"/>
					<path class="st16" d="M617.3,237.4c0.2-0.1,0.3-0.2,0.5-0.3c0.1,0,0.1,0,0.2,0c0.2,0.1,0.3,0.2,0.5,0.3c0.1,0,0.1,0.1,0,0.1
						c-0.2,0.1-0.3,0.2-0.5,0.3c-0.1,0-0.1,0-0.2,0c-0.2-0.1-0.3-0.2-0.5-0.3C617.2,237.4,617.2,237.4,617.3,237.4L617.3,237.4z"/>
					<path class="st16" d="M618.2,236.8c0.2-0.1,0.3-0.2,0.5-0.3c0.1,0,0.1,0,0.2,0c0.2,0.1,0.3,0.2,0.5,0.3c0.1,0,0.1,0.1,0,0.1
						c-0.2,0.1-0.3,0.2-0.5,0.3c-0.1,0-0.1,0-0.2,0c-0.2-0.1-0.3-0.2-0.5-0.3C618.1,236.9,618.1,236.9,618.2,236.8L618.2,236.8z"/>
					<path class="st16" d="M619.1,236.3c0.2-0.1,0.3-0.2,0.5-0.3c0.1,0,0.1,0,0.2,0c0.2,0.1,0.3,0.2,0.5,0.3c0.1,0,0.1,0.1,0,0.1
						c-0.2,0.1-0.3,0.2-0.5,0.3c-0.1,0-0.1,0-0.2,0c-0.2-0.1-0.3-0.2-0.5-0.3C619.1,236.4,619.1,236.3,619.1,236.3L619.1,236.3z"/>
					<path class="st16" d="M620.1,235.8c0.2-0.1,0.3-0.2,0.5-0.3c0.1,0,0.1,0,0.2,0c0.2,0.1,0.3,0.2,0.5,0.3c0.1,0,0.1,0.1,0,0.1
						c-0.2,0.1-0.3,0.2-0.5,0.3c-0.1,0-0.1,0-0.2,0c-0.2-0.1-0.3-0.2-0.5-0.3C620,235.8,620,235.8,620.1,235.8L620.1,235.8z"/>
					<path class="st16" d="M621,235.2c0.2-0.1,0.3-0.2,0.5-0.3c0.1,0,0.1,0,0.2,0c0.2,0.1,0.3,0.2,0.5,0.3c0.1,0,0.1,0.1,0,0.1
						c-0.2,0.1-0.3,0.2-0.5,0.3c-0.1,0-0.1,0-0.2,0c-0.2-0.1-0.3-0.2-0.5-0.3C620.9,235.3,620.9,235.2,621,235.2L621,235.2z"/>
					<path class="st16" d="M621.9,234.7l0.5-0.3c0.1,0,0.1,0,0.2,0l0.5,0.3c0.1,0,0.1,0.1,0,0.1l-0.5,0.3c-0.1,0-0.1,0-0.2,0
						l-0.5-0.3C621.9,234.8,621.9,234.7,621.9,234.7L621.9,234.7z"/>
					<path class="st16" d="M624.3,234.4l0.9-0.5c0.1,0,0.1,0,0.2,0l0.5,0.3c0.1,0,0.1,0.1,0,0.1l-0.9,0.5c-0.1,0-0.1,0-0.2,0
						l-0.5-0.3C624.2,234.5,624.2,234.4,624.3,234.4L624.3,234.4z"/>
					<path class="st16" d="M611.7,241.7l0.9-0.5c0.1,0,0.1,0,0.2,0l0.5,0.3c0.1,0,0.1,0.1,0,0.1l-0.9,0.5c-0.1,0-0.1,0-0.2,0
						l-0.5-0.3C611.6,241.8,611.6,241.7,611.7,241.7L611.7,241.7z"/>
					<path class="st16" d="M613.1,240.9c0.2-0.1,0.3-0.2,0.5-0.3c0.1,0,0.1,0,0.2,0c0.2,0.1,0.3,0.2,0.5,0.3c0.1,0,0.1,0.1,0,0.1
						c-0.2,0.1-0.3,0.2-0.5,0.3c-0.1,0-0.1,0-0.2,0c-0.2-0.1-0.3-0.2-0.5-0.3C613,240.9,613,240.9,613.1,240.9L613.1,240.9z"/>
					<path class="st16" d="M614,240.3c0.2-0.1,0.3-0.2,0.5-0.3c0.1,0,0.1,0,0.2,0c0.2,0.1,0.3,0.2,0.5,0.3c0.1,0,0.1,0.1,0,0.1
						c-0.2,0.1-0.3,0.2-0.5,0.3c-0.1,0-0.1,0-0.2,0c-0.2-0.1-0.3-0.2-0.5-0.3C614,240.4,614,240.4,614,240.3L614,240.3z"/>
					<path class="st16" d="M614.9,239.8c0.2-0.1,0.3-0.2,0.5-0.3c0.1,0,0.1,0,0.2,0c0.2,0.1,0.3,0.2,0.5,0.3c0.1,0,0.1,0.1,0,0.1
						c-0.2,0.1-0.3,0.2-0.5,0.3c-0.1,0-0.1,0-0.2,0c-0.2-0.1-0.3-0.2-0.5-0.3C614.9,239.9,614.9,239.8,614.9,239.8L614.9,239.8z"/>
					<path class="st16" d="M615.9,239.3c0.2-0.1,0.3-0.2,0.5-0.3c0.1,0,0.1,0,0.2,0c0.2,0.1,0.3,0.2,0.5,0.3c0.1,0,0.1,0.1,0,0.1
						c-0.2,0.1-0.3,0.2-0.5,0.3c-0.1,0-0.1,0-0.2,0c-0.2-0.1-0.3-0.2-0.5-0.3C615.8,239.3,615.8,239.3,615.9,239.3L615.9,239.3z"/>
					<path class="st16" d="M616.8,238.7c0.2-0.1,0.3-0.2,0.5-0.3c0.1,0,0.1,0,0.2,0c0.2,0.1,0.3,0.2,0.5,0.3c0.1,0,0.1,0.1,0,0.1
						c-0.2,0.1-0.3,0.2-0.5,0.3c-0.1,0-0.1,0-0.2,0c-0.2-0.1-0.3-0.2-0.5-0.3C616.8,238.8,616.8,238.7,616.8,238.7L616.8,238.7z"/>
					<path class="st16" d="M617.7,238.2c0.2-0.1,0.3-0.2,0.5-0.3c0.1,0,0.1,0,0.2,0c0.2,0.1,0.3,0.2,0.5,0.3c0.1,0,0.1,0.1,0,0.1
						c-0.2,0.1-0.3,0.2-0.5,0.3c-0.1,0-0.1,0-0.2,0c-0.2-0.1-0.3-0.2-0.5-0.3C617.7,238.3,617.7,238.2,617.7,238.2L617.7,238.2z"/>
					<path class="st16" d="M618.7,237.6c0.2-0.1,0.3-0.2,0.5-0.3c0.1,0,0.1,0,0.2,0c0.2,0.1,0.3,0.2,0.5,0.3c0.1,0,0.1,0.1,0,0.1
						c-0.2,0.1-0.3,0.2-0.5,0.3c-0.1,0-0.1,0-0.2,0c-0.2-0.1-0.3-0.2-0.5-0.3C618.6,237.7,618.6,237.7,618.7,237.6L618.7,237.6z"/>
					<path class="st16" d="M619.6,237.1c0.2-0.1,0.3-0.2,0.5-0.3c0.1,0,0.1,0,0.2,0c0.2,0.1,0.3,0.2,0.5,0.3c0.1,0,0.1,0.1,0,0.1
						c-0.2,0.1-0.3,0.2-0.5,0.3c-0.1,0-0.1,0-0.2,0c-0.2-0.1-0.3-0.2-0.5-0.3C619.6,237.2,619.6,237.1,619.6,237.1L619.6,237.1z"/>
					<path class="st16" d="M620.5,236.6c0.2-0.1,0.3-0.2,0.5-0.3c0.1,0,0.1,0,0.2,0c0.2,0.1,0.3,0.2,0.5,0.3c0.1,0,0.1,0.1,0,0.1
						c-0.2,0.1-0.3,0.2-0.5,0.3c-0.1,0-0.1,0-0.2,0c-0.2-0.1-0.3-0.2-0.5-0.3C620.5,236.6,620.5,236.6,620.5,236.6L620.5,236.6z"/>
					<path class="st16" d="M621.5,236c0.2-0.1,0.3-0.2,0.5-0.3c0.1,0,0.1,0,0.2,0c0.2,0.1,0.3,0.2,0.5,0.3c0.1,0,0.1,0.1,0,0.1
						c-0.2,0.1-0.3,0.2-0.5,0.3c-0.1,0-0.1,0-0.2,0c-0.2-0.1-0.3-0.2-0.5-0.3C621.4,236.1,621.4,236,621.5,236L621.5,236z"/>
					<path class="st16" d="M622.4,235.5c0.2-0.1,0.3-0.2,0.5-0.3c0.1,0,0.1,0,0.2,0c0.2,0.1,0.3,0.2,0.5,0.3c0.1,0,0.1,0.1,0,0.1
						c-0.2,0.1-0.3,0.2-0.5,0.3c-0.1,0-0.1,0-0.2,0c-0.2-0.1-0.3-0.2-0.5-0.3C622.3,235.6,622.3,235.5,622.4,235.5L622.4,235.5z"/>
					<path class="st16" d="M623.3,234.9l0.5-0.3c0.1,0,0.1,0,0.2,0l0.5,0.3c0.1,0,0.1,0.1,0,0.1l-0.5,0.3c-0.1,0-0.1,0-0.2,0
						l-0.5-0.3C623.3,235,623.3,235,623.3,234.9L623.3,234.9z"/>
					<path class="st16" d="M624.5,235.3l1.6-0.9c0.1,0,0.1,0,0.2,0l0.5,0.3c0.1,0,0.1,0.1,0,0.1l-1.6,0.9c-0.1,0-0.1,0-0.2,0
						l-0.5-0.3C624.5,235.4,624.5,235.4,624.5,235.3L624.5,235.3z"/>
					<path class="st16" d="M612.6,242.2l1.2-0.7c0.1,0,0.1,0,0.2,0l0.5,0.3c0.1,0,0.1,0.1,0,0.1l-1.2,0.7c-0.1,0-0.1,0-0.2,0
						l-0.5-0.3C612.6,242.3,612.6,242.2,612.6,242.2L612.6,242.2z"/>
					<path class="st16" d="M614.3,241.2c0.2-0.1,0.3-0.2,0.5-0.3c0.1,0,0.1,0,0.2,0c0.2,0.1,0.3,0.2,0.5,0.3c0.1,0,0.1,0.1,0,0.1
						c-0.2,0.1-0.3,0.2-0.5,0.3c-0.1,0-0.1,0-0.2,0c-0.2-0.1-0.3-0.2-0.5-0.3C614.2,241.3,614.2,241.3,614.3,241.2L614.3,241.2z"/>
					<path class="st16" d="M615.2,240.7c0.2-0.1,0.3-0.2,0.5-0.3c0.1,0,0.1,0,0.2,0c0.2,0.1,0.3,0.2,0.5,0.3c0.1,0,0.1,0.1,0,0.1
						c-0.2,0.1-0.3,0.2-0.5,0.3c-0.1,0-0.1,0-0.2,0c-0.2-0.1-0.3-0.2-0.5-0.3C615.2,240.8,615.2,240.7,615.2,240.7L615.2,240.7z"/>
					<path class="st16" d="M616.1,240.2c0.2-0.1,0.3-0.2,0.5-0.3c0.1,0,0.1,0,0.2,0c0.2,0.1,0.3,0.2,0.5,0.3c0.1,0,0.1,0.1,0,0.1
						c-0.2,0.1-0.3,0.2-0.5,0.3c-0.1,0-0.1,0-0.2,0c-0.2-0.1-0.3-0.2-0.5-0.3C616.1,240.3,616.1,240.2,616.1,240.2L616.1,240.2z"/>
					<path class="st16" d="M617.1,239.6c0.2-0.1,0.3-0.2,0.5-0.3c0.1,0,0.1,0,0.2,0c0.2,0.1,0.3,0.2,0.5,0.3c0.1,0,0.1,0.1,0,0.1
						c-0.2,0.1-0.3,0.2-0.5,0.3c-0.1,0-0.1,0-0.2,0c-0.2-0.1-0.3-0.2-0.5-0.3C617,239.7,617,239.7,617.1,239.6L617.1,239.6z"/>
					<path class="st16" d="M618,239.1c0.2-0.1,0.3-0.2,0.5-0.3c0.1,0,0.1,0,0.2,0c0.2,0.1,0.3,0.2,0.5,0.3c0.1,0,0.1,0.1,0,0.1
						c-0.2,0.1-0.3,0.2-0.5,0.3c-0.1,0-0.1,0-0.2,0c-0.2-0.1-0.3-0.2-0.5-0.3C618,239.2,618,239.1,618,239.1L618,239.1z"/>
					<path class="st16" d="M618.9,238.6c0.2-0.1,0.3-0.2,0.5-0.3c0.1,0,0.1,0,0.2,0c0.2,0.1,0.3,0.2,0.5,0.3c0.1,0,0.1,0.1,0,0.1
						c-0.2,0.1-0.3,0.2-0.5,0.3c-0.1,0-0.1,0-0.2,0c-0.2-0.1-0.3-0.2-0.5-0.3C618.9,238.6,618.9,238.6,618.9,238.6L618.9,238.6z"/>
					<path class="st16" d="M619.9,238c0.2-0.1,0.3-0.2,0.5-0.3c0.1,0,0.1,0,0.2,0c0.2,0.1,0.3,0.2,0.5,0.3c0.1,0,0.1,0.1,0,0.1
						c-0.2,0.1-0.3,0.2-0.5,0.3c-0.1,0-0.1,0-0.2,0c-0.2-0.1-0.3-0.2-0.5-0.3C619.8,238.1,619.8,238,619.9,238L619.9,238z"/>
					<path class="st16" d="M620.8,237.5c0.2-0.1,0.3-0.2,0.5-0.3c0.1,0,0.1,0,0.2,0c0.2,0.1,0.3,0.2,0.5,0.3c0.1,0,0.1,0.1,0,0.1
						c-0.2,0.1-0.3,0.2-0.5,0.3c-0.1,0-0.1,0-0.2,0c-0.2-0.1-0.3-0.2-0.5-0.3C620.8,237.6,620.8,237.5,620.8,237.5L620.8,237.5z"/>
					<path class="st16" d="M621.7,236.9c0.2-0.1,0.3-0.2,0.5-0.3c0.1,0,0.1,0,0.2,0c0.2,0.1,0.3,0.2,0.5,0.3c0.1,0,0.1,0.1,0,0.1
						c-0.2,0.1-0.3,0.2-0.5,0.3c-0.1,0-0.1,0-0.2,0c-0.2-0.1-0.3-0.2-0.5-0.3C621.7,237,621.7,237,621.7,236.9L621.7,236.9z"/>
					<path class="st16" d="M622.7,236.4c0.2-0.1,0.3-0.2,0.5-0.3c0.1,0,0.1,0,0.2,0c0.2,0.1,0.3,0.2,0.5,0.3c0.1,0,0.1,0.1,0,0.1
						c-0.2,0.1-0.3,0.2-0.5,0.3c-0.1,0-0.1,0-0.2,0c-0.2-0.1-0.3-0.2-0.5-0.3C622.6,236.5,622.6,236.4,622.7,236.4L622.7,236.4z"/>
					<path class="st16" d="M623.6,235.9c0.2-0.1,0.3-0.2,0.5-0.3c0.1,0,0.1,0,0.2,0c0.2,0.1,0.3,0.2,0.5,0.3c0.1,0,0.1,0.1,0,0.1
						c-0.2,0.1-0.3,0.2-0.5,0.3c-0.1,0-0.1,0-0.2,0c-0.2-0.1-0.3-0.2-0.5-0.3C623.6,235.9,623.6,235.9,623.6,235.9L623.6,235.9z"/>
					<path class="st16" d="M625,236.1l2-1.2c0.1,0,0.1,0,0.2,0l0.5,0.3c0.1,0,0.1,0.1,0,0.1l-2,1.2c-0.1,0-0.1,0-0.2,0l-0.5-0.3
						C625,236.2,625,236.2,625,236.1L625,236.1z"/>
					<path class="st16" d="M613.5,242.8l1.7-1c0.1,0,0.1,0,0.2,0l0.5,0.3c0.1,0,0.1,0.1,0,0.1l-1.7,1c-0.1,0-0.1,0-0.2,0l-0.5-0.3
						C613.5,242.8,613.5,242.8,613.5,242.8L613.5,242.8z"/>
					<path class="st16" d="M615.7,241.5c0.2-0.1,0.3-0.2,0.5-0.3c0.1,0,0.1,0,0.2,0c0.2,0.1,0.3,0.2,0.5,0.3c0.1,0,0.1,0.1,0,0.1
						c-0.2,0.1-0.3,0.2-0.5,0.3c-0.1,0-0.1,0-0.2,0c-0.2-0.1-0.3-0.2-0.5-0.3C615.6,241.6,615.6,241.5,615.7,241.5L615.7,241.5z"/>
					<path class="st16" d="M616.6,241c0.2-0.1,0.3-0.2,0.5-0.3c0.1,0,0.1,0,0.2,0c0.2,0.1,0.3,0.2,0.5,0.3c0.1,0,0.1,0.1,0,0.1
						c-0.2,0.1-0.3,0.2-0.5,0.3c-0.1,0-0.1,0-0.2,0c-0.2-0.1-0.3-0.2-0.5-0.3C616.6,241.1,616.6,241,616.6,241L616.6,241z"/>
					<path class="st16" d="M617.5,240.4c0.2-0.1,0.3-0.2,0.5-0.3c0.1,0,0.1,0,0.2,0c0.2,0.1,0.3,0.2,0.5,0.3c0.1,0,0.1,0.1,0,0.1
						c-0.2,0.1-0.3,0.2-0.5,0.3c-0.1,0-0.1,0-0.2,0c-0.2-0.1-0.3-0.2-0.5-0.3C617.5,240.5,617.5,240.5,617.5,240.4L617.5,240.4z"/>
					<path class="st16" d="M618.5,239.9c0.2-0.1,0.3-0.2,0.5-0.3c0.1,0,0.1,0,0.2,0c0.2,0.1,0.3,0.2,0.5,0.3c0.1,0,0.1,0.1,0,0.1
						c-0.2,0.1-0.3,0.2-0.5,0.3c-0.1,0-0.1,0-0.2,0c-0.2-0.1-0.3-0.2-0.5-0.3C618.4,240,618.4,239.9,618.5,239.9L618.5,239.9z"/>
					<path class="st16" d="M619.4,239.4c0.2-0.1,0.3-0.2,0.5-0.3c0.1,0,0.1,0,0.2,0c0.2,0.1,0.3,0.2,0.5,0.3c0.1,0,0.1,0.1,0,0.1
						c-0.2,0.1-0.3,0.2-0.5,0.3c-0.1,0-0.1,0-0.2,0c-0.2-0.1-0.3-0.2-0.5-0.3C619.4,239.4,619.4,239.4,619.4,239.4L619.4,239.4z"/>
					<path class="st16" d="M620.3,238.8c0.2-0.1,0.3-0.2,0.5-0.3c0.1,0,0.1,0,0.2,0c0.2,0.1,0.3,0.2,0.5,0.3c0.1,0,0.1,0.1,0,0.1
						c-0.2,0.1-0.3,0.2-0.5,0.3c-0.1,0-0.1,0-0.2,0c-0.2-0.1-0.3-0.2-0.5-0.3C620.3,238.9,620.3,238.9,620.3,238.8L620.3,238.8z"/>
					<path class="st16" d="M621.3,238.3c0.2-0.1,0.3-0.2,0.5-0.3c0.1,0,0.1,0,0.2,0c0.2,0.1,0.3,0.2,0.5,0.3c0.1,0,0.1,0.1,0,0.1
						c-0.2,0.1-0.3,0.2-0.5,0.3c-0.1,0-0.1,0-0.2,0c-0.2-0.1-0.3-0.2-0.5-0.3C621.2,238.4,621.2,238.3,621.3,238.3L621.3,238.3z"/>
					<path class="st16" d="M622.2,237.8c0.2-0.1,0.3-0.2,0.5-0.3c0.1,0,0.1,0,0.2,0c0.2,0.1,0.3,0.2,0.5,0.3c0.1,0,0.1,0.1,0,0.1
						c-0.2,0.1-0.3,0.2-0.5,0.3c-0.1,0-0.1,0-0.2,0c-0.2-0.1-0.3-0.2-0.5-0.3C622.2,237.8,622.2,237.8,622.2,237.8L622.2,237.8z"/>
					<path class="st16" d="M623.1,237.2c0.2-0.1,0.3-0.2,0.5-0.3c0.1,0,0.1,0,0.2,0c0.2,0.1,0.3,0.2,0.5,0.3c0.1,0,0.1,0.1,0,0.1
						c-0.2,0.1-0.3,0.2-0.5,0.3c-0.1,0-0.1,0-0.2,0c-0.2-0.1-0.3-0.2-0.5-0.3C623.1,237.3,623.1,237.2,623.1,237.2L623.1,237.2z"/>
					<path class="st16" d="M624.1,236.7c0.2-0.1,0.3-0.2,0.5-0.3c0.1,0,0.1,0,0.2,0c0.2,0.1,0.3,0.2,0.5,0.3c0.1,0,0.1,0.1,0,0.1
						c-0.2,0.1-0.3,0.2-0.5,0.3c-0.1,0-0.1,0-0.2,0c-0.2-0.1-0.3-0.2-0.5-0.3C624,236.8,624,236.7,624.1,236.7L624.1,236.7z"/>
					<path class="st16" d="M616.6,242.1c0.2-0.1,0.3-0.2,0.5-0.3c0.1,0,0.1,0,0.2,0c0.2,0.1,0.3,0.2,0.5,0.3c0.1,0,0.1,0.1,0,0.1
						c-0.2,0.1-0.3,0.2-0.5,0.3c-0.1,0-0.1,0-0.2,0c-0.2-0.1-0.3-0.2-0.5-0.3C616.6,242.1,616.6,242.1,616.6,242.1L616.6,242.1z"/>
					<path class="st16" d="M617.5,241.5c0.2-0.1,0.3-0.2,0.5-0.3c0.1,0,0.1,0,0.2,0c0.2,0.1,0.3,0.2,0.5,0.3c0.1,0,0.1,0.1,0,0.1
						c-0.2,0.1-0.3,0.2-0.5,0.3c-0.1,0-0.1,0-0.2,0c-0.2-0.1-0.3-0.2-0.5-0.3C617.5,241.6,617.5,241.5,617.5,241.5L617.5,241.5z"/>
					<path class="st16" d="M614.5,243.3c0.2-0.1,0.3-0.2,0.5-0.3c0.1,0,0.1,0,0.2,0c0.2,0.1,0.3,0.2,0.5,0.3c0.1,0,0.1,0.1,0,0.1
						c-0.2,0.1-0.3,0.2-0.5,0.3c-0.1,0-0.1,0-0.2,0c-0.2-0.1-0.3-0.2-0.5-0.3C614.4,243.4,614.4,243.3,614.5,243.3L614.5,243.3z"/>
					<path class="st16" d="M618.5,241l4.8-2.8c0.1,0,0.1,0,0.2,0l0.5,0.3c0.1,0,0.1,0.1,0,0.1l-4.8,2.8c-0.1,0-0.1,0-0.2,0l-0.5-0.3
						C618.4,241.1,618.4,241,618.5,241L618.5,241z"/>
					<path class="st16" d="M623.7,237.9l0.7-0.4c0.1,0,0.1,0,0.2,0l0.5,0.3c0.1,0,0.1,0.1,0,0.1l-0.7,0.4c-0.1,0-0.1,0-0.2,0
						l-0.5-0.3C623.7,238,623.7,238,623.7,237.9L623.7,237.9z"/>
					<path class="st16" d="M626.5,236.2l0.5-0.3c0,0,0.1,0,0.1,0l0.2,0.1c0,0,0,0,0,0.1l-0.5,0.3c0,0-0.1,0-0.1,0L626.5,236.2
						C626.5,236.2,626.5,236.2,626.5,236.2L626.5,236.2z"/>
					<path class="st16" d="M627,236.4l0.5-0.3c0,0,0.1,0,0.1,0l0.2,0.1c0,0,0,0,0,0.1l-0.5,0.3c0,0-0.1,0-0.1,0L627,236.4
						C627,236.5,627,236.4,627,236.4L627,236.4z"/>
					<path class="st16" d="M624.9,237.2c0.2-0.1,0.3-0.2,0.5-0.3c0.1,0,0.1,0,0.2,0c0.2,0.1,0.3,0.2,0.5,0.3c0.1,0,0.1,0.1,0,0.1
						c-0.2,0.1-0.3,0.2-0.5,0.3c-0.1,0-0.1,0-0.2,0c-0.2-0.1-0.3-0.2-0.5-0.3C624.9,237.3,624.9,237.3,624.9,237.2L624.9,237.2z"/>
					<path class="st16" d="M627.8,236l0.5-0.3c0,0,0.1,0,0.1,0l0.2,0.1c0,0,0,0,0,0.1l-0.5,0.3c0,0-0.1,0-0.1,0L627.8,236
						C627.8,236,627.8,236,627.8,236L627.8,236z"/>
					<path class="st16" d="M626.2,236.9l0.5-0.3c0,0,0.1,0,0.1,0l0.2,0.1c0,0,0,0,0,0.1l-0.5,0.3c0,0-0.1,0-0.1,0L626.2,236.9
						C626.2,236.9,626.2,236.9,626.2,236.9L626.2,236.9z"/>
				</g>
				<g>
					<g>
						<path class="st1" d="M622.9,222.1c0.3-0.2,0.6,0,0.6,0.3l0,9.9l-14.6,8.4l0-9.9c0-0.4,0.2-0.8,0.6-1L622.9,222.1z"/>
					</g>
				</g>
				<g>
					<path class="st8" d="M622.7,222.9c0.2-0.1,0.4,0,0.4,0.2l0,8.3c0,0.3-0.2,0.6-0.4,0.7l-13,7.5c-0.2,0.1-0.4,0-0.4-0.2l0-8.3
						c0-0.3,0.2-0.6,0.4-0.7L622.7,222.9z"/>
				</g>
				<path class="st3" d="M609.2,241.4L609.2,241.4l8.2,4.8l0-0.5l-8.6-5C608.9,240.8,608.8,241.1,609.2,241.4z"/>
				<path class="st3" d="M623.2,222C623.2,222,623.2,222,623.2,222c-0.2-0.1-0.3-0.1-0.5,0l-13.5,7.8c-0.3,0.2-0.6,0.6-0.6,1l0,9.6
					l0,0c0,0.2,0.1,0.4,0.2,0.4l0,0l0-9.9c0-0.4,0.2-0.8,0.6-1l13.5-7.8c0.2-0.1,0.3-0.1,0.4,0C623.3,222,623.2,222,623.2,222z"/>
				
					<linearGradient id="SVGID_1_" gradientUnits="userSpaceOnUse" x1="2038.2316" y1="241.4228" x2="2038.5988" y2="241.3994" gradientTransform="matrix(1 0 0 1 -1428.844 0)">
					<stop  offset="0" style="stop-color:#642B68"/>
					<stop  offset="1" style="stop-color:#AD5CAB"/>
				</linearGradient>
				<path class="st17" d="M609.5,241.4c0-0.1,0.1-0.1,0.1-0.1c0,0,0,0,0,0C609.5,241.2,609.4,241.3,609.5,241.4c0,0.1,0,0.2,0.1,0.2
					c0,0,0,0,0,0C609.5,241.5,609.5,241.4,609.5,241.4z"/>
				<path class="st18" d="M609.7,241.5c0-0.1,0-0.2-0.1-0.2c-0.1,0-0.1,0-0.1,0.1c0,0.1,0,0.2,0.1,0.2
					C609.6,241.6,609.7,241.6,609.7,241.5z"/>
				<g>
					<path class="st8" d="M610,241.6c0.1,0,0.1,0.1,0.1,0.2c0,0.1,0,0.1-0.1,0.1C609.9,241.8,609.9,241.7,610,241.6
						C609.9,241.6,609.9,241.5,610,241.6z"/>
				</g>
				<g>
					<path d="M609.6,241.3c0.1,0,0.1,0.1,0.1,0.2c0,0.1,0,0.1-0.1,0.1C609.5,241.5,609.5,241.4,609.6,241.3
						C609.5,241.3,609.5,241.3,609.6,241.3z"/>
				</g>
				<g>
					<g>
						<path class="st12" d="M610.3,241.7c0.1,0,0.1,0.1,0.1,0.2c0,0.1,0,0.1-0.1,0.1C610.2,241.9,610.2,241.8,610.3,241.7
							C610.2,241.7,610.2,241.7,610.3,241.7z"/>
					</g>
				</g>
			</g>
			<g>
				<path class="st14" d="M640.8,227.7c0,0-2.6,0.1-4-0.3c0,0,0.1,4.9-0.4,5.4c-0.5,0.5-3.4,1.2-4.2,1.3c-0.8,0.1-2.1-0.1-2.8-0.4
					c-0.7-0.3-3.4,1.4-3.4,1.9c0,0.5,0.5,1.3,1.7,0.7c1.2-0.6,1.6-0.7,2.6-0.3c1,0.4,0.5,0.6,2.3,0.5c1.8-0.1,5.9-0.1,5.9-0.1
					s1.8,0.2,1.9-2.1C640.5,231.8,640.8,227.7,640.8,227.7z"/>
				<path class="st1" d="M635.5,220.9c0,0,3.8-1.2,4.7,1.9c0.8,3.1,1.6,5.3,0.4,6.2c-1.2,0.9-1.6,1.4-1.6,1.4s-1.6,6.8-0.1,12.6
					c1.5,5.8,2.2,11.8-4.6,13c-6.8,1.2-17.2-4.3-17.2-5.3c0,0,0.4-5.9,7.8-7.3l-0.1-11.1c0,0-1.3,0-1.4-0.9
					c-0.1-0.9,0.4-6.5,1.9-8.1c1.5-1.5,4.9-2.3,4.9-2.3L635.5,220.9z"/>
				<path class="st14" d="M626,212.6c0,0-0.5,4.3,1.2,3.9C629,216.1,626,212.6,626,212.6z"/>
				<path class="st12" d="M636.7,218c-0.7-1-0.4-2.4-0.6-3.9c-0.1-0.8-0.2-1.6-0.2-2.2c-0.2-3.6-5.4-4.9-8.7-3.5
					c-1.8,1-1.6,2.4-1.6,3c0.4,5.8,2.1,6.6,2.2,6.8l0,0h0c0.1,0.2,0.9,1.4-0.5,2.8c-0.6,0.5-0.8,0.2-1.7,0.4c-1,0.2-0.5,1.8-0.5,1.8
					s3.4-2.7,4.7,1c0.8,2.3,2.3,6.4,4.2,6.6c2.5,0.2,3.7-1.2,3.7-1.2s1.2-1.3,1.4-3.7C639.3,223.7,638.9,221.3,636.7,218z"/>
				<path class="st14" d="M627.9,232.4c0,0-2.6,0.1-4-0.3c0,0,0.1,4.9-0.4,5.4c-0.5,0.5-3.4,1.2-4.2,1.3c-0.8,0.1-2.1-0.1-2.8-0.4
					c-0.7-0.3-3.4,1.4-3.4,1.9c0,0.5,0.5,1.3,1.7,0.7c1.2-0.6,1.6-0.7,2.6-0.3c1,0.4,0.5,0.6,2.3,0.5c1.8-0.1,5.9-0.1,5.9-0.1
					s1.8,0.2,1.9-2.1C627.6,236.5,627.9,232.4,627.9,232.4z"/>
			</g>
		</g>
		<g>
			<path class="st9" d="M535.7,330.9c1,0.3,2.9,0.1,3.9-0.4c0.8,0,4.1-1.7,4.7-0.2c0.5,1.3-1.3,2.5-2.2,2.7
				c-2.1,0.5-3.6,1.5-4.4,1.7c-0.6,0.1-1.4,0.2-1.9-0.3C535,333.8,535.1,331.7,535.7,330.9z"/>
			<path class="st19" d="M523.6,300.7c0,0-2.5,21.2-4.6,28.1c-2.1,7-8.1,21.5-8.1,21.5s-5.3,1.7-6.3-3.8c0,0,7.4-19.8,7.3-24
				c-0.1-4.2,1.8-22.5,3.1-24.3C516.2,296.6,523.6,300.7,523.6,300.7z"/>
			<path class="st20" d="M530.1,298.8c0,0,17.8,8.8,16.8,11.9c-1,3.1-5.5,20.8-5.5,20.8s-3,1.5-6.3-0.5c-1.9-1.2,4.1-17,3.1-18
				c-0.9-1-16.7-4.9-18-11.4C518.8,294.9,530.1,298.8,530.1,298.8z"/>
			<path class="st14" d="M524.6,256.4l7-16.1c0,0,0.1,0-0.3-1c-0.4-1,0.1-2.7,0.3-3.2c0.2-0.5,3.9,1,4.1,1.9c0.3,0.9-1.3,2.2-1.8,3
				c-0.4,0.8-4,16-4.9,17.7C528.2,260.4,524.6,256.4,524.6,256.4z"/>
			<path class="st10" d="M522.5,258.4c0,0,2.8-7.2,4.1-6.6c1.3,0.6,4.2,1.6,3.7,4.2c-0.5,2.6-4.8,10.2-4.8,10.2L522.5,258.4z"/>
			<path class="st14" d="M541.4,265.5l7-16.1c0,0,0.1,0-0.3-1c-0.4-1,0.1-2.7,0.3-3.2c0.2-0.5,3.9,0.9,4.1,1.9
				c0.3,0.9-1.3,2.2-1.8,3c-0.4,0.8-4,16-4.9,17.7C545,269.4,541.4,265.5,541.4,265.5z"/>
			<path class="st12" d="M523.2,273.6c0,0,6.7,2.6,6.7,6.7c0.1,4.1-1.8,13.9,1.3,19.7c0,0-12.6,6.7-18.5-0.8c0,0,4-7.3-0.1-16.7
				c0,0-5-14.8,2.6-12.9C522.7,271.4,523.2,273.6,523.2,273.6z"/>
			<path class="st21" d="M524.8,268.4l-1.4,6.8c0,0-3.7,0.5-4.9-2.4c-1.2-2.9,3.2-4.2,3.2-4.2L524.8,268.4z"/>
			<path class="st14" d="M522.5,258.1c0,0,2.9,0.8,3.8,4.5c0.9,3.8-0.4,7.4-4,7C518.6,269.1,522.5,258.1,522.5,258.1z"/>
			<path class="st10" d="M541.2,264.5c0,0-3.8,10.4-7.4,11.7c-3.6,1.3-7,0.1-7.6,3.3c-0.5,3.2,1.3,6.8,5.3,5.8
				c3-0.7,8.5-2.4,11.5-10c3-7.6,3.1-7.8,3.1-7.8S545.2,263.9,541.2,264.5z"/>
			<path class="st22" d="M510.1,276.9c4.2-5.6,1.6-8.5,1.5-10.7c-0.1-2.2,0.6-11.2,8.6-9.6c0,0,4.7,0.6,4.9,5.8c0,0-0.1,1.4-0.8,0.9
				c-0.5-0.3-2.6-0.8-2.2,1.3c0.4,2.1,2.5,1.9,2.2,2.7c-0.1,0.3-0.8,1.5-1.7,3.2l0,0c-2.4,8.2,0.1,8.5-0.5,12.9
				c-0.6,4.4-6.9,3.6-6.9,3.6l0,0C512.7,286.8,506.8,281.3,510.1,276.9z"/>
			<path class="st9" d="M508.4,349.3c0,0-1,2.2-0.9,5.5c0,3.3,0.4,5.6-4,4.6c0,0-1.2-0.4-0.5-4c0.8-3.6,2.4-7.3,3.1-7.7
				C506.8,347.3,508.4,349.3,508.4,349.3z"/>
		</g>
		<g>
			<g>
				<g>
					<path class="st0" d="M582.8,186.9c-1,0-1.8,0.2-2.6,0.6c-2.4,1.1-3.8,3.8-3.9,7.8c0,2.1,0.4,4.3,1.1,6.5c0.2-0.3,0.2-0.9,0-1.5
						l-0.3-1c-0.3-0.8-0.1-1.5,0.3-1.7l0.1-0.1c0.3-0.2,0.7-0.1,1.1,0.1c0.2,0.1,0.4,0.3,0.6,0.5l0.7,0.8c0.2,0.2,0.4,0.4,0.6,0.5
						c0.5,0.3,1,0.3,1.3-0.1l0.3-0.5l0.2-0.3l0.1-0.2c0.4-0.5,0.3-1.4-0.2-2.2c-0.1-0.1-0.1-0.2-0.2-0.3l-0.6-0.9
						c-0.5-0.7-0.7-1.6-0.5-2.2l0-0.1c0.2-0.6,0.7-0.8,1.3-0.6l0.3,0.1l0.5,0.2c0.8,0.3,1.3-0.1,1.3-1l0-0.8l0-0.8
						c0-0.9-0.6-2-1.3-2.5L582.8,186.9z"/>
				</g>
				<g>
					<path class="st0" d="M548.1,197.8c0.4,0.2,0.7,0,0.8-0.3c0,0,0-0.1,0-0.1c0.1-0.4,0-0.9-0.3-1.4l-0.4-0.6
						c-0.4-0.6-0.5-1.2-0.2-1.6l0.2-0.3l0.2-0.3c0.2-0.2,0.5-0.3,0.8-0.1c0.1,0.1,0.3,0.2,0.4,0.3l0.5,0.5c0.1,0.1,0.3,0.2,0.4,0.3
						c0.2,0.1,0.5,0.2,0.7,0.1c0,0,0,0,0.1,0c0.3-0.2,0.4-0.6,0.2-1.1l-0.2-0.6c-0.2-0.6,0-1.1,0.4-1.1l0.4,0l0.4,0
						c0.1,0,0.3,0,0.5,0.1c0.3,0.2,0.6,0.5,0.8,0.9l0.3,0.6c0.2,0.4,0.5,0.7,0.7,0.9c0.1,0,0.2,0.1,0.3,0.1c0,0,0.1,0,0.1,0
						c0.4,0.1,0.7-0.1,0.7-0.5l0.1-0.5c0.1-0.5,0.5-0.7,0.9-0.4l0.4,0.2l0.4,0.2c0.5,0.3,0.9,0.9,0.9,1.5l0.1,0.6
						c0,0.5,0.3,1,0.7,1.3c0,0,0.1,0.1,0.1,0.1c0.1,0.1,0.2,0.1,0.3,0.2c0.3,0.2,0.6,0.2,0.8,0l0.3-0.3c0.2-0.2,0.5-0.2,0.8,0
						c0.2,0.1,0.3,0.2,0.5,0.4l0.4,0.5l0.4,0.5c0.4,0.5,0.6,1.2,0.4,1.6l-0.2,0.4c-0.2,0.3-0.1,0.8,0.2,1.3c0,0,0,0.1,0.1,0.1
						c0.2,0.3,0.4,0.6,0.7,0.7c0.1,0.1,0.3,0.1,0.4,0.1l0.4,0c0.1,0,0.2,0.1,0.4,0.1c0.3,0.2,0.6,0.6,0.8,1l0.2,0.5l0.2,0.5
						c0.2,0.6,0.1,1.2-0.3,1.3l-0.4,0.1c-0.3,0.1-0.4,0.5-0.3,1c0,0,0,0.1,0,0.1c0.1,0.5,0.4,1,0.8,1.3l0.5,0.3
						c0.5,0.3,0.8,1,0.8,1.6l0,0.5l0,0.5c0,0.5-0.4,0.8-0.8,0.6l-0.5-0.2c-0.4-0.2-0.7,0-0.8,0.3c0,0,0,0.1,0,0.1
						c-0.1,0.4,0,0.9,0.3,1.4l0.4,0.6c0.4,0.6,0.5,1.2,0.2,1.6l-0.2,0.3l-0.2,0.3c-0.2,0.2-0.5,0.3-0.8,0.1
						c-0.1-0.1-0.2-0.2-0.4-0.3l-0.4-0.5c-0.1-0.1-0.3-0.2-0.4-0.3c-0.2-0.1-0.5-0.2-0.7-0.1c0,0,0,0-0.1,0
						c-0.3,0.2-0.4,0.6-0.2,1.1l0.2,0.6c0.2,0.6,0,1.1-0.4,1.1l-0.4,0l-0.4,0c-0.1,0-0.3,0-0.5-0.1c-0.3-0.2-0.6-0.5-0.8-0.9
						l-0.3-0.6c-0.2-0.4-0.5-0.7-0.7-0.9c-0.1,0-0.2-0.1-0.3-0.1c0,0-0.1,0-0.1,0c-0.4-0.1-0.6,0.1-0.7,0.5l-0.1,0.5
						c-0.1,0.5-0.5,0.7-0.9,0.4l-0.4-0.2l-0.4-0.2c-0.5-0.3-0.9-0.9-0.9-1.5l-0.1-0.6c0-0.5-0.3-1-0.7-1.3c0,0-0.1-0.1-0.1-0.1
						c-0.1-0.1-0.2-0.1-0.3-0.2c-0.3-0.2-0.6-0.2-0.7,0l-0.3,0.3c-0.2,0.2-0.5,0.2-0.8,0c-0.2-0.1-0.3-0.2-0.5-0.4l-0.4-0.5
						l-0.4-0.4c-0.4-0.5-0.6-1.2-0.4-1.6l0.2-0.4c0.2-0.3,0.1-0.8-0.2-1.3c0,0,0-0.1-0.1-0.1c-0.2-0.3-0.4-0.6-0.7-0.7
						c-0.1-0.1-0.3-0.1-0.4-0.1l-0.5,0c-0.1,0-0.2-0.1-0.4-0.1c-0.3-0.2-0.6-0.6-0.8-1l-0.2-0.5l-0.2-0.5c-0.2-0.6-0.1-1.2,0.3-1.3
						l0.4-0.1c0.3-0.1,0.5-0.5,0.3-1c0,0,0-0.1,0-0.1c-0.1-0.5-0.4-1-0.8-1.3l-0.5-0.3c-0.5-0.3-0.8-1-0.8-1.6l0-0.5l0-0.5
						c0-0.6,0.4-0.8,0.8-0.6L548.1,197.8z M557,211.2c3.2,1.8,5.8,0.4,5.8-3.3c0-3.7-2.6-8.2-5.8-10c-3.2-1.8-5.8-0.4-5.8,3.3
						C551.2,204.9,553.8,209.4,557,211.2"/>
				</g>
				<g class="st23">
					<g>
						<path class="st0" d="M567.5,161.5c-0.8-0.4-1.4-0.2-1.5,0.7l-0.1,0.8c-0.1,0.7-0.5,1-1.1,0.8l-0.1,0c-0.1,0-0.3-0.1-0.4-0.2
							c-0.5-0.3-0.9-0.8-1.2-1.4l-0.5-1c-0.3-0.6-0.8-1.1-1.2-1.4c-0.3-0.2-0.5-0.2-0.8-0.2l-0.6,0.1l-0.6,0.1
							c-0.7,0.1-1,0.8-0.7,1.8l0.3,1c0.2,0.8,0.1,1.5-0.3,1.7l-0.1,0.1c-0.3,0.2-0.7,0.1-1.1-0.1c-0.2-0.1-0.4-0.3-0.6-0.5l-0.7-0.8
							c-0.2-0.2-0.4-0.4-0.6-0.5c-0.5-0.3-1-0.3-1.3,0.1l-0.3,0.5l-0.3,0.5c-0.4,0.5-0.2,1.6,0.4,2.5l0.4,0.6l0.2,0.3
							c0.5,0.7,0.7,1.6,0.6,2.2l0,0.1c-0.2,0.6-0.7,0.8-1.3,0.6l-0.8-0.3c-0.1,0-0.2-0.1-0.2-0.1c-0.6-0.2-1.1,0.3-1.1,1.1l0,0.3
							l0,0.5l0,0.8c0,0.9,0.6,2,1.3,2.5l0.8,0.6c0.6,0.5,1.1,1.2,1.3,2.1l0,0.2c0.2,0.8-0.1,1.4-0.6,1.5l-0.6,0.2
							c-0.6,0.2-0.8,1.1-0.4,2.1l0.3,0.9l0.3,0.9c0.3,0.7,0.8,1.3,1.3,1.6c0.1,0.1,0.3,0.1,0.4,0.2c0.1,0,0.1,0,0.2,0l0.7,0.1
							c0.2,0,0.4,0.1,0.6,0.2c0.4,0.2,0.8,0.6,1.1,1.2l0.1,0.2c0.5,0.8,0.6,1.6,0.3,2.1l-0.3,0.7c-0.3,0.6,0,1.8,0.6,2.6l0.6,0.7
							l0.6,0.7c0.2,0.3,0.5,0.5,0.8,0.7c0.5,0.3,0.9,0.3,1.2,0l0.5-0.4c0.3-0.3,0.7-0.3,1.2,0c0.1,0.1,0.3,0.2,0.4,0.3l0.1,0.1
							c0.6,0.5,1.1,1.4,1.1,2.1l0.1,0.9c0,0.5,0.3,1.1,0.6,1.5c0.2-0.3,0.6-0.6,1-0.7l0.9-0.3c0.3-0.1,0.4-0.4,0.3-0.8l-0.1-0.3
							c-0.1-0.4-0.3-0.8-0.7-1l-1.1-0.8c-1.8-1.3-3.1-3.7-3.1-5.8l0-1c-1.8-2.1-3.2-4.6-4.1-7.2c-0.6-1.8-0.9-3.5-0.9-5.2
							c0-2,0.5-3.6,1.3-4.7c0.4-0.5,0.8-0.9,1.3-1.2c0.8-0.5,1.6-0.7,2.6-0.7c1.3,0,2.7,0.4,4.2,1.3c2.2,1.3,4.2,3.3,5.8,5.7l-0.3-1
							c-0.7-2.3,0-4.1,1.5-4.2l1.7-0.1c0.2,0,0.4,0,0.5,0c-0.1-0.2-0.2-0.4-0.4-0.5l-0.6-0.7l-0.6-0.7c-0.2-0.3-0.5-0.5-0.8-0.7
							c-0.5-0.3-0.9-0.3-1.2,0l-0.5,0.5c-0.3,0.3-0.7,0.3-1.2,0c-0.1-0.1-0.3-0.2-0.4-0.3l-0.1-0.1c-0.6-0.5-1.1-1.4-1.1-2.1
							l-0.1-0.9c-0.1-0.9-0.7-2-1.5-2.4l-0.7-0.4L567.5,161.5z"/>
					</g>
					<g>
						<path class="st0" d="M568,186.7c0.9,0.4,1.6,0.1,1.8-0.8c0-0.1,0-0.1,0.1-0.2c0.2-0.9-0.1-2-0.8-3.1l-0.9-1.3
							c-0.9-1.3-1.1-2.8-0.6-3.5l0.5-0.7l0.5-0.7c0.4-0.6,1.1-0.6,1.9-0.2c0.3,0.2,0.6,0.4,0.8,0.7l1,1.1c0.3,0.3,0.6,0.5,0.9,0.7
							c0.6,0.3,1.1,0.4,1.5,0.1c0.1,0,0.1-0.1,0.1-0.1c0.6-0.4,0.8-1.3,0.5-2.4l-0.4-1.4c-0.4-1.4,0-2.5,0.9-2.6l0.8-0.1l0.8-0.1
							c0.3,0,0.7,0.1,1.1,0.3c0.7,0.4,1.3,1.1,1.7,2l0.7,1.4c0.4,0.9,1,1.6,1.7,2c0.2,0.1,0.4,0.2,0.6,0.2c0.1,0,0.1,0,0.2,0.1
							c0.9,0.2,1.5-0.2,1.6-1.2l0.1-1.2c0.1-1.2,1-1.6,2.1-0.9l1,0.6l1,0.6c1.1,0.6,2,2.1,2.1,3.4l0.1,1.3c0.1,1.1,0.7,2.2,1.6,3
							c0.1,0.1,0.1,0.1,0.2,0.2c0.2,0.2,0.4,0.3,0.6,0.4c0.7,0.4,1.3,0.4,1.7,0l0.7-0.6c0.4-0.4,1.1-0.4,1.7,0
							c0.4,0.2,0.7,0.5,1.1,1l0.8,1l0.8,1c0.9,1.2,1.3,2.7,0.9,3.6l-0.4,0.9c-0.4,0.8-0.2,1.9,0.5,3c0.1,0.1,0.1,0.2,0.1,0.3
							c0.4,0.7,1,1.3,1.5,1.6c0.3,0.2,0.6,0.3,0.8,0.3l1,0.1c0.3,0,0.6,0.1,0.8,0.3c0.7,0.4,1.5,1.3,1.8,2.3l0.5,1.2l0.5,1.2
							c0.5,1.4,0.3,2.6-0.6,2.9l-0.9,0.3c-0.7,0.2-1,1-0.8,2.2c0,0.1,0,0.2,0.1,0.3c0.2,1.1,0.9,2.2,1.8,2.9l1.1,0.8
							c1.1,0.8,1.9,2.3,1.9,3.5l0,1.1l0,1.1c0,1.3-0.8,1.8-1.9,1.4l-1.1-0.5c-0.9-0.4-1.6-0.1-1.8,0.8c0,0.1,0,0.1-0.1,0.2
							c-0.2,0.9,0.1,2,0.8,3.1l0.9,1.3c0.9,1.3,1.1,2.8,0.6,3.5l-0.5,0.7l-0.5,0.7c-0.4,0.6-1.1,0.6-1.9,0.2
							c-0.3-0.2-0.6-0.4-0.8-0.7l-1-1.1c-0.3-0.3-0.6-0.5-0.9-0.7c-0.6-0.3-1.1-0.4-1.5-0.1c-0.1,0-0.1,0.1-0.1,0.1
							c-0.6,0.4-0.8,1.3-0.5,2.4l0.4,1.4c0.4,1.4,0,2.5-0.9,2.6l-0.8,0.1l-0.8,0.1c-0.3,0-0.7-0.1-1.1-0.3c-0.7-0.4-1.3-1.1-1.7-2
							l-0.7-1.4c-0.4-0.9-1-1.6-1.7-2c-0.2-0.1-0.4-0.2-0.6-0.2c-0.1,0-0.1,0-0.2-0.1c-0.9-0.2-1.5,0.2-1.6,1.2l-0.1,1.2
							c-0.1,1.2-1,1.6-2.1,0.9l-1-0.6l-1-0.6c-1.1-0.6-2-2.1-2.1-3.4l-0.1-1.3c-0.1-1.1-0.7-2.2-1.6-3c-0.1-0.1-0.1-0.1-0.2-0.2
							c-0.2-0.2-0.4-0.3-0.6-0.4c-0.7-0.4-1.3-0.4-1.7,0l-0.7,0.6c-0.4,0.4-1.1,0.4-1.7,0c-0.4-0.2-0.7-0.5-1.1-1l-0.8-1l-0.8-1
							c-0.9-1.2-1.3-2.7-0.9-3.6l0.4-0.9c0.4-0.7,0.2-1.9-0.5-3c-0.1-0.1-0.1-0.2-0.1-0.3c-0.4-0.7-0.9-1.3-1.5-1.6
							c-0.3-0.2-0.6-0.3-0.9-0.3l-1-0.1c-0.3,0-0.6-0.1-0.8-0.3c-0.7-0.4-1.5-1.3-1.8-2.3l-0.5-1.2l-0.5-1.2
							c-0.5-1.4-0.3-2.6,0.6-2.9l0.9-0.3c0.7-0.2,1-1,0.8-2.2c0-0.1,0-0.2-0.1-0.3c-0.2-1.1-0.9-2.2-1.8-2.9l-1.1-0.8
							c-1.1-0.8-1.9-2.3-1.9-3.5l0-1.1l0-1.1c0-1.3,0.8-1.8,1.9-1.4L568,186.7z M588.1,217.2c7.3,4.2,13.2,0.8,13.2-7.5
							c0-8.4-5.8-18.5-13.1-22.7c-7.3-4.2-13.2-0.8-13.2,7.5C575,202.8,580.9,213,588.1,217.2"/>
					</g>
				</g>
			</g>
		</g>
		<g>
			<g>
				<path class="st24" d="M482.7,271.2c0-0.3,0.1-0.6,0.4-0.9c1.2-1.2,4.6-3.2,4.6-5.7c-0.1-2.5,3.6,0.9,3.6,0.9s0.5,1.7,0.4,2.7
					c-0.9,0.6-4.4,3-6.8,3.3C483.4,271.7,482.9,271.8,482.7,271.2z"/>
				<path class="st24" d="M483.5,272.1c0,0-0.8-0.1-0.9-0.8c0.2,0.3,0.4,0.5,1.9,0.4c2.4-0.3,6.3-2.8,7.2-3.4c0,0.2,0,0.3-0.1,0.4
					C491.3,269.2,486.1,272.1,483.5,272.1z"/>
				<path class="st24" d="M471.6,264.3c0-0.3,0.1-0.6,0.4-0.9c1.2-1.2,4.6-3.2,4.6-5.7c-0.1-2.5,3.6,0.9,3.6,0.9s0.5,1.7,0.4,2.7
					c-0.9,0.6-4.4,3-6.8,3.3C472.4,264.8,471.9,264.9,471.6,264.3z"/>
				<path class="st24" d="M472.5,265.1c0,0-0.8-0.1-0.9-0.8c0.2,0.3,0.4,0.5,1.9,0.3c2.4-0.3,6.3-2.8,7.2-3.4c0,0.2,0,0.3-0.1,0.4
					C480.3,262.3,475.1,265.2,472.5,265.1z"/>
				<path class="st3" d="M484.3,222.5c0,0-2.4,37.1-3.3,37.2c-0.8,0.1-4.1-1.7-4.6-2.6c-0.5-0.9,0.3-32.9,0.3-32.9L484.3,222.5z"/>
				<path class="st3" d="M483.2,224.8l9.1,2.6l-1.8,4.3h1.7c0,0,0.7,34.2-0.1,34.4c-0.8,0.2-4.2-0.9-4.8-1.7
					c-0.5-0.6-1.6-17.9-2.2-27.1c-1.1-0.6-2.3-1.5-3.4-3.2C479,230.4,483.2,224.8,483.2,224.8z"/>
				<path class="st14" d="M469.3,231.4c-0.1-0.3-1.7,1.3-2.1,0.8c-0.3-0.3,2.5-3.2,3.6-3.2c0,0,0.9,0.5,1.4,1.4c0,0-0.1,0-0.1,0
					c-0.5,0.4-0.5,1.8-1.3,3c-0.8,1.2-2.7,1.9-2.9,1.7C467.2,233.8,469.8,232.8,469.3,231.4z"/>
				<path class="st1" d="M475.3,225.9l-2.5,5.2l-3.4-2.4c0,0,3.6-9.3,3.8-11.6c0.2-2.3,0.3-16.2,2.4-17.5c2.2-1.3,1.6,22.9,1.6,22.9
					s-0.3,0.6-0.7,1.5l-1-6.2L475.3,225.9z"/>
				<path class="st3" d="M472.9,231.1l2.5-5.2l0.3-8.1l1,6.2C475.5,226.4,473.4,230.7,472.9,231.1z"/>
				<path class="st1" d="M485.2,200.5c0,0,7.2,2.6,8.1,5.3c0.9,2.8,1.6,9.7,1.7,11.3c0.1,1.6,0.7,3.9-1.4,5.4c0,0-0.4,0.3,1.1,8.4
					c0,0-6.3,4.2-12,2.7l-0.8-5.9l-0.6,5.5c0,0-4-0.8-6.5-2.4c0,0,1.4-6.3,0.7-14.5c-0.7-8.2-2-17.6,1.6-17.3
					c3.6,0.2,4.3,0.7,4.3,0.7L485.2,200.5z"/>
				<polygon class="st0" points="480.9,213.6 484.9,203 485.5,200.6 481.4,200.2 479.5,199.2 				"/>
				<path class="st21" d="M484.6,196.2l0.8,4.4c0,0-4.8,4.7-5.6,0.7c-0.8-4,0-5.1,0-5.1H484.6z"/>
				<path class="st14" d="M486.4,193.7c0,0-0.9,4.1-4.3,4.9c-3,0.6-4.5,0.4-5.2-1.4c-0.6-1.8-1.1-5.8,0.1-6.9
					c1.2-1.1,6.2-3.1,6.3-3.1c0.1,0,3.2,2.3,3.2,2.3L486.4,193.7z"/>
				<path class="st3" d="M487.1,193.2c0,0-1,2-1.9,0.8c-0.8-1.2,0.1-3.4,0.1-3.9c0-0.6-0.9-1.9-2-0.8c-1.1,1.1-1.3,2.4-5,2.1
					c0,0-2.7-0.3-3.1-2.5c-0.4-2.3,0.5-7.6,2.3-6.7c1.8,0.9,3.8,3.6,6.3,2.8c2.5-0.8,4,1.9,4,3.9
					C487.7,190.2,487.7,191.9,487.1,193.2z"/>
				<polygon class="st3" points="487.3,203.6 485.8,205.6 486.4,206 480.9,213.6 485.5,200.6 				"/>
				<polygon class="st3" points="477.7,200.6 478.3,203.2 478,203.5 480.9,213.6 479.5,199.1 				"/>
				<path class="st3" d="M488.1,213.6c0,0,2.1,3.9,1.3,4.6c-0.7,0.8-9.2,6.6-9.2,6.6l8.9-6.7C489.2,218.1,489.8,217.9,488.1,213.6z"
					/>
				<path class="st3" d="M481.7,228.1c0,0,5.1-0.9,11.8-5.6l-0.1,0.5C493.5,223,489,226.8,481.7,228.1z"/>
				<path class="st14" d="M475.1,227.8c0.1-0.1,1-0.5,2.1-1.1c1-0.6,1.5-1.1,2.4-1.2c0.2,0,0.6-0.3,1.1-0.4c0.7,0.7,0.9,1.7,1,2.3
					c-0.4,0.1-0.9,0.5-1,0.4c0,0-1.4,1.3-2,1.6c-0.7,0.3-2.8-0.1-3.1-0.3C475.2,229,474.9,228.1,475.1,227.8z"/>
			</g>
			<g>
				<path class="st3" d="M470.6,224.6c0,0.1,0.1,0.2,0.2,0.3l10.7,6.2c0.2,0.1,0.6,0.1,0.9,0l0,0.4c-0.2,0.1-0.6,0.1-0.9,0
					l-10.5-6.1c-0.3-0.2-0.3-0.4-0.3-0.5C470.6,224.7,470.6,224.7,470.6,224.6z"/>
				<g>
					<g>
						<path class="st8" d="M489,227.1l-6.7,3.9c-0.2,0.1-0.6,0.1-0.9,0l-10.7-6.2c-0.2-0.1-0.2-0.4,0-0.5l6.7-3.9L489,227.1z"/>
					</g>
				</g>
				<path class="st15" d="M483.7,224.5l-2.8-1.6c-0.1,0-0.2,0-0.3,0l-1.6,0.9c-0.1,0-0.1,0.1,0,0.2l2.8,1.6c0.1,0,0.2,0,0.3,0
					l1.6-0.9C483.8,224.6,483.8,224.5,483.7,224.5L483.7,224.5z"/>
				<g>
					<path class="st16" d="M475.5,223l0.6,0.3c0,0,0.1,0,0.1,0l0.4-0.2c0,0,0-0.1,0-0.1l-0.6-0.3c0,0-0.1,0-0.1,0L475.5,223
						C475.4,222.9,475.4,222.9,475.5,223L475.5,223z"/>
					<path class="st16" d="M471.1,224.6l0.5,0.3c0,0,0.1,0,0.1,0l0.3-0.2c0,0,0,0,0-0.1l-0.5-0.3c0,0-0.1,0-0.1,0L471.1,224.6
						C471.1,224.6,471.1,224.6,471.1,224.6L471.1,224.6z"/>
					<path class="st16" d="M471.9,225.1l0.5,0.3c0,0,0.1,0,0.1,0l0.3-0.2c0,0,0,0,0-0.1l-0.5-0.3c0,0-0.1,0-0.1,0L471.9,225.1
						C471.9,225,471.9,225.1,471.9,225.1L471.9,225.1z"/>
					<path class="st16" d="M472.6,225.5l0.5,0.3c0,0,0.1,0,0.1,0l0.3-0.2c0,0,0,0,0-0.1l-0.5-0.3c0,0-0.1,0-0.1,0L472.6,225.5
						C472.6,225.5,472.6,225.5,472.6,225.5L472.6,225.5z"/>
					<path class="st16" d="M473.3,225.9l0.5,0.3c0,0,0.1,0,0.1,0l0.3-0.2c0,0,0,0,0-0.1l-0.5-0.3c0,0-0.1,0-0.1,0L473.3,225.9
						C473.3,225.9,473.3,225.9,473.3,225.9L473.3,225.9z"/>
					<path class="st16" d="M474.1,226.3l0.5,0.3c0,0,0.1,0,0.1,0l0.3-0.2c0,0,0,0,0-0.1l-0.5-0.3c0,0-0.1,0-0.1,0L474.1,226.3
						C474,226.3,474,226.3,474.1,226.3L474.1,226.3z"/>
					<path class="st16" d="M474.8,226.8l0.5,0.3c0,0,0.1,0,0.1,0l0.3-0.2c0,0,0,0,0-0.1l-0.5-0.3c0,0-0.1,0-0.1,0L474.8,226.8
						C474.7,226.7,474.7,226.7,474.8,226.8L474.8,226.8z"/>
					<path class="st16" d="M475.5,227.2l0.5,0.3c0,0,0.1,0,0.1,0l0.3-0.2c0,0,0,0,0-0.1l-0.5-0.3c0,0-0.1,0-0.1,0L475.5,227.2
						C475.5,227.1,475.5,227.2,475.5,227.2L475.5,227.2z"/>
					<path class="st16" d="M476.2,227.6l0.5,0.3c0,0,0.1,0,0.1,0l0.3-0.2c0,0,0,0,0-0.1l-0.5-0.3c0,0-0.1,0-0.1,0L476.2,227.6
						C476.2,227.5,476.2,227.6,476.2,227.6L476.2,227.6z"/>
					<path class="st16" d="M476.9,228l0.5,0.3c0,0,0.1,0,0.1,0l0.3-0.2c0,0,0,0,0-0.1l-0.5-0.3c0,0-0.1,0-0.1,0L476.9,228
						C476.9,228,476.9,228,476.9,228L476.9,228z"/>
					<path class="st16" d="M477.7,228.4l0.5,0.3c0,0,0.1,0,0.1,0l0.3-0.2c0,0,0,0,0-0.1l-0.5-0.3c0,0-0.1,0-0.1,0L477.7,228.4
						C477.6,228.4,477.6,228.4,477.7,228.4L477.7,228.4z"/>
					<path class="st16" d="M478.4,228.8l0.5,0.3c0,0,0.1,0,0.1,0l0.3-0.2c0,0,0,0,0-0.1l-0.5-0.3c0,0-0.1,0-0.1,0L478.4,228.8
						C478.4,228.8,478.4,228.8,478.4,228.8L478.4,228.8z"/>
					<path class="st16" d="M479.1,229.3l0.5,0.3c0,0,0.1,0,0.1,0l0.3-0.2c0,0,0,0,0-0.1l-0.5-0.3c0,0-0.1,0-0.1,0L479.1,229.3
						C479.1,229.2,479.1,229.2,479.1,229.3L479.1,229.3z"/>
					<path class="st16" d="M479.8,229.7l0.5,0.3c0,0,0.1,0,0.1,0l0.3-0.2c0,0,0,0,0-0.1l-0.5-0.3c0,0-0.1,0-0.1,0L479.8,229.7
						C479.8,229.6,479.8,229.7,479.8,229.7L479.8,229.7z"/>
					<path class="st16" d="M480.6,230.1l0.5,0.3c0,0,0.1,0,0.1,0l0.3-0.2c0,0,0,0,0-0.1l-0.5-0.3c0,0-0.1,0-0.1,0L480.6,230.1
						C480.5,230,480.5,230.1,480.6,230.1L480.6,230.1z"/>
					<path class="st16" d="M481.3,230.5l0.5,0.3c0,0,0.1,0,0.1,0l0.3-0.2c0,0,0,0,0-0.1l-0.5-0.3c0,0-0.1,0-0.1,0L481.3,230.5
						C481.2,230.5,481.2,230.5,481.3,230.5L481.3,230.5z"/>
					<path class="st16" d="M481.4,229.8l1.1,0.6c0,0,0.1,0,0.1,0l0.4-0.2c0,0,0-0.1,0-0.1l-1.1-0.6c0,0-0.1,0-0.1,0L481.4,229.8
						C481.3,229.7,481.3,229.7,481.4,229.8L481.4,229.8z"/>
					<path class="st16" d="M471.8,224.2l0.4,0.2c0,0,0.1,0,0.1,0l0.4-0.2c0,0,0-0.1,0-0.1l-0.4-0.2c0,0-0.1,0-0.1,0L471.8,224.2
						C471.8,224.2,471.8,224.2,471.8,224.2L471.8,224.2z"/>
					<path class="st16" d="M472.5,224.7c0.1,0.1,0.2,0.1,0.4,0.2c0,0,0.1,0,0.1,0c0.1-0.1,0.3-0.1,0.4-0.2c0,0,0-0.1,0-0.1
						c-0.1-0.1-0.2-0.1-0.4-0.2c0,0-0.1,0-0.1,0C472.8,224.4,472.7,224.5,472.5,224.7C472.5,224.6,472.5,224.6,472.5,224.7
						L472.5,224.7z"/>
					<path class="st16" d="M473.3,225.1c0.1,0.1,0.2,0.1,0.4,0.2c0,0,0.1,0,0.1,0c0.1-0.1,0.2-0.1,0.4-0.2c0,0,0-0.1,0-0.1
						c-0.1-0.1-0.2-0.1-0.4-0.2c0,0-0.1,0-0.1,0C473.5,224.9,473.4,224.9,473.3,225.1C473.2,225,473.2,225.1,473.3,225.1
						L473.3,225.1z"/>
					<path class="st16" d="M474,225.5c0.1,0.1,0.2,0.1,0.4,0.2c0,0,0.1,0,0.1,0c0.1-0.1,0.2-0.1,0.4-0.2c0,0,0-0.1,0-0.1
						c-0.1-0.1-0.2-0.1-0.4-0.2c0,0-0.1,0-0.1,0C474.3,225.3,474.1,225.3,474,225.5C474,225.4,474,225.5,474,225.5L474,225.5z"/>
					<path class="st16" d="M474.7,225.9c0.1,0.1,0.2,0.1,0.4,0.2c0,0,0.1,0,0.2,0c0.1-0.1,0.2-0.1,0.4-0.2c0,0,0-0.1,0-0.1
						c-0.1-0.1-0.2-0.1-0.4-0.2c0,0-0.1,0-0.1,0C475,225.7,474.9,225.8,474.7,225.9C474.7,225.9,474.7,225.9,474.7,225.9
						L474.7,225.9z"/>
					<path class="st16" d="M475.5,226.4c0.1,0.1,0.2,0.1,0.4,0.2c0,0,0.1,0,0.1,0c0.1-0.1,0.2-0.1,0.4-0.2c0,0,0-0.1,0-0.1
						c-0.1-0.1-0.2-0.1-0.4-0.2c0,0-0.1,0-0.1,0C475.7,226.1,475.6,226.2,475.5,226.4C475.4,226.3,475.4,226.3,475.5,226.4
						L475.5,226.4z"/>
					<path class="st16" d="M476.2,226.8c0.1,0.1,0.2,0.1,0.4,0.2c0,0,0.1,0,0.1,0c0.1-0.1,0.2-0.1,0.4-0.2c0,0,0-0.1,0-0.1
						c-0.1-0.1-0.2-0.1-0.4-0.2c0,0-0.1,0-0.1,0C476.5,226.6,476.3,226.6,476.2,226.8C476.2,226.7,476.2,226.8,476.2,226.8
						L476.2,226.8z"/>
					<path class="st16" d="M476.9,227.2c0.1,0.1,0.2,0.1,0.4,0.2c0,0,0.1,0,0.2,0c0.1-0.1,0.2-0.1,0.4-0.2c0,0,0-0.1,0-0.1
						c-0.1-0.1-0.2-0.1-0.4-0.2c0,0-0.1,0-0.1,0C477.2,227,477.1,227,476.9,227.2C476.9,227.1,476.9,227.2,476.9,227.2L476.9,227.2z
						"/>
					<path class="st16" d="M477.7,227.6c0.1,0.1,0.2,0.1,0.4,0.2c0,0,0.1,0,0.1,0c0.1-0.1,0.2-0.1,0.4-0.2c0,0,0-0.1,0-0.1
						c-0.1-0.1-0.2-0.1-0.4-0.2c0,0-0.1,0-0.1,0C477.9,227.4,477.8,227.5,477.7,227.6C477.6,227.6,477.6,227.6,477.7,227.6
						L477.7,227.6z"/>
					<path class="st16" d="M478.4,228.1c0.1,0.1,0.2,0.1,0.4,0.2c0,0,0.1,0,0.1,0c0.1-0.1,0.2-0.1,0.4-0.2c0,0,0-0.1,0-0.1
						c-0.1-0.1-0.2-0.1-0.4-0.2c0,0-0.1,0-0.1,0C478.7,227.8,478.5,227.9,478.4,228.1C478.4,228,478.4,228,478.4,228.1L478.4,228.1z
						"/>
					<path class="st16" d="M479.2,228.5c0.1,0.1,0.2,0.1,0.4,0.2c0,0,0.1,0,0.1,0c0.1-0.1,0.2-0.1,0.4-0.2c0,0,0-0.1,0-0.1
						c-0.1-0.1-0.2-0.1-0.4-0.2c0,0-0.1,0-0.1,0C479.4,228.2,479.3,228.3,479.2,228.5C479.1,228.4,479.1,228.5,479.2,228.5
						L479.2,228.5z"/>
					<path class="st16" d="M479.9,228.9c0.1,0.1,0.2,0.1,0.4,0.2c0,0,0.1,0,0.1,0c0.1-0.1,0.2-0.1,0.4-0.2c0,0,0-0.1,0-0.1
						c-0.1-0.1-0.2-0.1-0.4-0.2c0,0-0.1,0-0.1,0C480.1,228.7,480,228.7,479.9,228.9C479.8,228.8,479.8,228.9,479.9,228.9
						L479.9,228.9z"/>
					<path class="st16" d="M480.6,229.3l0.4,0.2c0,0,0.1,0,0.1,0l0.4-0.2c0,0,0-0.1,0-0.1l-0.4-0.2c0,0-0.1,0-0.1,0L480.6,229.3
						C480.6,229.3,480.6,229.3,480.6,229.3L480.6,229.3z"/>
					<path class="st16" d="M482.5,229.5l0.7,0.4c0,0,0.1,0,0.1,0l0.4-0.2c0,0,0-0.1,0-0.1l-0.7-0.4c0,0-0.1,0-0.1,0L482.5,229.5
						C482.4,229.5,482.4,229.5,482.5,229.5L482.5,229.5z"/>
					<path class="st16" d="M472.5,223.8l0.7,0.4c0,0,0.1,0,0.1,0l0.4-0.2c0,0,0-0.1,0-0.1l-0.7-0.4c0,0-0.1,0-0.1,0L472.5,223.8
						C472.5,223.7,472.5,223.8,472.5,223.8L472.5,223.8z"/>
					<path class="st16" d="M473.6,224.4c0.1,0.1,0.2,0.1,0.4,0.2c0,0,0.1,0,0.1,0c0.1-0.1,0.3-0.1,0.4-0.2c0,0,0-0.1,0-0.1
						c-0.1-0.1-0.2-0.1-0.4-0.2c0,0-0.1,0-0.1,0C473.9,224.2,473.8,224.3,473.6,224.4C473.6,224.4,473.6,224.4,473.6,224.4
						L473.6,224.4z"/>
					<path class="st16" d="M474.4,224.9c0.1,0.1,0.3,0.1,0.4,0.2c0,0,0.1,0,0.1,0c0.1-0.1,0.2-0.1,0.4-0.2c0,0,0-0.1,0-0.1
						c-0.1-0.1-0.2-0.1-0.4-0.2c0,0-0.1,0-0.1,0C474.6,224.6,474.5,224.7,474.4,224.9C474.3,224.8,474.3,224.8,474.4,224.9
						L474.4,224.9z"/>
					<path class="st16" d="M475.1,225.3c0.1,0.1,0.2,0.1,0.4,0.2c0,0,0.1,0,0.1,0c0.1-0.1,0.2-0.1,0.4-0.2c0,0,0-0.1,0-0.1
						c-0.1-0.1-0.2-0.1-0.4-0.2c0,0-0.1,0-0.1,0C475.4,225.1,475.2,225.1,475.1,225.3C475.1,225.2,475.1,225.3,475.1,225.3
						L475.1,225.3z"/>
					<path class="st16" d="M475.8,225.7c0.1,0.1,0.2,0.1,0.4,0.2c0,0,0.1,0,0.1,0c0.1-0.1,0.2-0.1,0.4-0.2c0,0,0-0.1,0-0.1
						c-0.1-0.1-0.2-0.1-0.4-0.2c0,0-0.1,0-0.1,0C476.1,225.5,476,225.6,475.8,225.7C475.8,225.7,475.8,225.7,475.8,225.7
						L475.8,225.7z"/>
					<path class="st16" d="M476.6,226.1c0.1,0.1,0.2,0.1,0.4,0.2c0,0,0.1,0,0.1,0c0.1-0.1,0.2-0.1,0.4-0.2c0,0,0-0.1,0-0.1
						c-0.1-0.1-0.2-0.1-0.4-0.2c0,0-0.1,0-0.1,0C476.8,225.9,476.7,226,476.6,226.1C476.5,226.1,476.5,226.1,476.6,226.1
						L476.6,226.1z"/>
					<path class="st16" d="M477.3,226.6c0.1,0.1,0.2,0.1,0.4,0.2c0,0,0.1,0,0.1,0c0.1-0.1,0.2-0.1,0.4-0.2c0,0,0-0.1,0-0.1
						c-0.1-0.1-0.2-0.1-0.4-0.2c0,0-0.1,0-0.1,0C477.6,226.3,477.4,226.4,477.3,226.6C477.3,226.5,477.3,226.5,477.3,226.6
						L477.3,226.6z"/>
					<path class="st16" d="M478.1,227c0.1,0.1,0.2,0.1,0.4,0.2c0,0,0.1,0,0.1,0c0.1-0.1,0.2-0.1,0.4-0.2c0,0,0-0.1,0-0.1
						c-0.1-0.1-0.2-0.1-0.4-0.2c0,0-0.1,0-0.1,0C478.3,226.8,478.2,226.8,478.1,227C478,226.9,478,227,478.1,227L478.1,227z"/>
					<path class="st16" d="M478.8,227.4c0.1,0.1,0.2,0.1,0.4,0.2c0,0,0.1,0,0.1,0c0.1-0.1,0.2-0.1,0.4-0.2c0,0,0-0.1,0-0.1
						c-0.1-0.1-0.2-0.1-0.4-0.2c0,0-0.1,0-0.1,0C479,227.2,478.9,227.3,478.8,227.4C478.7,227.4,478.7,227.4,478.8,227.4
						L478.8,227.4z"/>
					<path class="st16" d="M479.5,227.8c0.1,0.1,0.3,0.1,0.4,0.2c0,0,0.1,0,0.1,0c0.1-0.1,0.2-0.1,0.4-0.2c0,0,0-0.1,0-0.1
						c-0.1-0.1-0.2-0.1-0.4-0.2c0,0-0.1,0-0.1,0C479.8,227.6,479.6,227.7,479.5,227.8C479.5,227.8,479.5,227.8,479.5,227.8
						L479.5,227.8z"/>
					<path class="st16" d="M480.3,228.3c0.1,0.1,0.3,0.1,0.4,0.2c0,0,0.1,0,0.1,0c0.1-0.1,0.2-0.1,0.4-0.2c0,0,0-0.1,0-0.1
						c-0.1-0.1-0.2-0.1-0.4-0.2c0,0-0.1,0-0.1,0C480.5,228,480.4,228.1,480.3,228.3C480.2,228.2,480.2,228.2,480.3,228.3
						L480.3,228.3z"/>
					<path class="st16" d="M481,228.7c0.1,0.1,0.2,0.1,0.4,0.2c0,0,0.1,0,0.1,0c0.1-0.1,0.2-0.1,0.4-0.2c0,0,0-0.1,0-0.1
						c-0.1-0.1-0.3-0.1-0.4-0.2c0,0-0.1,0-0.1,0C481.2,228.5,481.1,228.5,481,228.7C481,228.6,481,228.7,481,228.7L481,228.7z"/>
					<path class="st16" d="M481.7,229.1l0.4,0.2c0,0,0.1,0,0.1,0l0.4-0.2c0,0,0-0.1,0-0.1l-0.4-0.2c0,0-0.1,0-0.1,0L481.7,229.1
						C481.7,229.1,481.7,229.1,481.7,229.1L481.7,229.1z"/>
					<path class="st16" d="M482.7,228.8l1.2,0.7c0,0,0.1,0,0.1,0l0.4-0.2c0,0,0-0.1,0-0.1l-1.2-0.7c0,0-0.1,0-0.1,0L482.7,228.8
						C482.6,228.8,482.6,228.8,482.7,228.8L482.7,228.8z"/>
					<path class="st16" d="M473.3,223.4l1,0.6c0,0,0.1,0,0.1,0l0.4-0.2c0,0,0-0.1,0-0.1l-1-0.6c0,0-0.1,0-0.1,0L473.3,223.4
						C473.2,223.3,473.2,223.4,473.3,223.4L473.3,223.4z"/>
					<path class="st16" d="M474.6,224.1c0.1,0.1,0.2,0.1,0.4,0.2c0,0,0.1,0,0.1,0c0.1-0.1,0.2-0.1,0.4-0.2c0,0,0-0.1,0-0.1
						c-0.1-0.1-0.2-0.1-0.4-0.2c0,0-0.1,0-0.1,0C474.8,223.9,474.7,224,474.6,224.1C474.5,224.1,474.5,224.1,474.6,224.1
						L474.6,224.1z"/>
					<path class="st16" d="M475.3,224.6c0.1,0.1,0.2,0.1,0.4,0.2c0,0,0.1,0,0.1,0c0.1-0.1,0.2-0.1,0.4-0.2c0,0,0-0.1,0-0.1
						c-0.1-0.1-0.2-0.1-0.4-0.2c0,0-0.1,0-0.1,0C475.6,224.3,475.5,224.4,475.3,224.6C475.3,224.5,475.3,224.5,475.3,224.6
						L475.3,224.6z"/>
					<path class="st16" d="M476.1,225c0.1,0.1,0.2,0.1,0.4,0.2c0,0,0.1,0,0.1,0c0.1-0.1,0.2-0.1,0.4-0.2c0,0,0-0.1,0-0.1
						c-0.1-0.1-0.2-0.1-0.4-0.2c0,0-0.1,0-0.1,0C476.3,224.8,476.2,224.8,476.1,225C476,224.9,476,225,476.1,225L476.1,225z"/>
					<path class="st16" d="M476.8,225.4c0.1,0.1,0.2,0.1,0.4,0.2c0,0,0.1,0,0.1,0c0.1-0.1,0.2-0.1,0.4-0.2c0,0,0-0.1,0-0.1
						c-0.1-0.1-0.2-0.1-0.4-0.2c0,0-0.1,0-0.1,0C477,225.2,476.9,225.3,476.8,225.4C476.8,225.4,476.8,225.4,476.8,225.4
						L476.8,225.4z"/>
					<path class="st16" d="M477.5,225.8c0.1,0.1,0.2,0.1,0.4,0.2c0,0,0.1,0,0.1,0c0.1-0.1,0.2-0.1,0.4-0.2c0,0,0-0.1,0-0.1
						c-0.1-0.1-0.2-0.1-0.4-0.2c0,0-0.1,0-0.2,0C477.8,225.6,477.7,225.7,477.5,225.8C477.5,225.8,477.5,225.8,477.5,225.8
						L477.5,225.8z"/>
					<path class="st16" d="M478.3,226.3c0.1,0.1,0.2,0.1,0.4,0.2c0,0,0.1,0,0.1,0c0.1-0.1,0.2-0.1,0.4-0.2c0,0,0-0.1,0-0.1
						c-0.1-0.1-0.2-0.1-0.4-0.2c0,0-0.1,0-0.1,0C478.5,226,478.4,226.1,478.3,226.3C478.2,226.2,478.2,226.2,478.3,226.3
						L478.3,226.3z"/>
					<path class="st16" d="M479,226.7c0.1,0.1,0.2,0.1,0.4,0.2c0,0,0.1,0,0.1,0c0.1-0.1,0.2-0.1,0.4-0.2c0,0,0-0.1,0-0.1
						c-0.1-0.1-0.2-0.1-0.4-0.2c0,0-0.1,0-0.1,0C479.3,226.5,479.1,226.5,479,226.7C479,226.6,479,226.7,479,226.7L479,226.7z"/>
					<path class="st16" d="M479.7,227.1c0.1,0.1,0.2,0.1,0.4,0.2c0,0,0.1,0,0.1,0c0.1-0.1,0.2-0.1,0.4-0.2c0,0,0-0.1,0-0.1
						c-0.1-0.1-0.2-0.1-0.4-0.2c0,0-0.1,0-0.1,0C480,226.9,479.9,227,479.7,227.1C479.7,227.1,479.7,227.1,479.7,227.1L479.7,227.1z
						"/>
					<path class="st16" d="M480.5,227.5c0.1,0.1,0.2,0.1,0.4,0.2c0,0,0.1,0,0.1,0c0.1-0.1,0.2-0.1,0.4-0.2c0,0,0-0.1,0-0.1
						c-0.1-0.1-0.2-0.1-0.4-0.2c0,0-0.1,0-0.1,0C480.7,227.3,480.6,227.4,480.5,227.5C480.4,227.5,480.4,227.5,480.5,227.5
						L480.5,227.5z"/>
					<path class="st16" d="M481.2,228c0.1,0.1,0.2,0.1,0.4,0.2c0,0,0.1,0,0.1,0c0.1-0.1,0.2-0.1,0.4-0.2c0,0,0-0.1,0-0.1
						c-0.1-0.1-0.2-0.1-0.4-0.2c0,0-0.1,0-0.1,0C481.5,227.7,481.3,227.8,481.2,228C481.2,227.9,481.2,227.9,481.2,228L481.2,228z"
						/>
					<path class="st16" d="M481.9,228.4c0.1,0.1,0.2,0.1,0.4,0.2c0,0,0.1,0,0.1,0c0.1-0.1,0.3-0.1,0.4-0.2c0,0,0-0.1,0-0.1
						c-0.1-0.1-0.2-0.1-0.4-0.2c0,0-0.1,0-0.2,0C482.2,228.2,482.1,228.2,481.9,228.4C481.9,228.3,481.9,228.4,481.9,228.4
						L481.9,228.4z"/>
					<path class="st16" d="M483,228.2l1.6,0.9c0,0,0.1,0,0.1,0l0.4-0.2c0,0,0-0.1,0-0.1l-1.6-0.9c0,0-0.1,0-0.1,0L483,228.2
						C483,228.1,483,228.2,483,228.2L483,228.2z"/>
					<path class="st16" d="M474,223l1.3,0.8c0,0,0.1,0,0.1,0l0.4-0.2c0,0,0-0.1,0-0.1l-1.3-0.8c0,0-0.1,0-0.1,0L474,223
						C474,222.9,474,222.9,474,223L474,223z"/>
					<path class="st16" d="M475.7,223.9c0.1,0.1,0.2,0.1,0.4,0.2c0,0,0.1,0,0.1,0c0.1-0.1,0.3-0.1,0.4-0.2c0,0,0-0.1,0-0.1
						c-0.1-0.1-0.2-0.1-0.4-0.2c0,0-0.1,0-0.1,0C475.9,223.7,475.8,223.8,475.7,223.9C475.7,223.9,475.7,223.9,475.7,223.9
						L475.7,223.9z"/>
					<path class="st16" d="M476.4,224.4c0.1,0.1,0.3,0.1,0.4,0.2c0,0,0.1,0,0.1,0c0.1-0.1,0.3-0.1,0.4-0.2c0,0,0-0.1,0-0.1
						c-0.1-0.1-0.2-0.1-0.4-0.2c0,0-0.1,0-0.1,0C476.7,224.1,476.6,224.2,476.4,224.4C476.4,224.3,476.4,224.3,476.4,224.4
						L476.4,224.4z"/>
					<path class="st16" d="M477.2,224.8c0.1,0.1,0.2,0.1,0.4,0.2c0,0,0.1,0,0.1,0c0.1-0.1,0.2-0.1,0.4-0.2c0,0,0-0.1,0-0.1
						c-0.1-0.1-0.2-0.1-0.4-0.2c0,0-0.1,0-0.1,0C477.4,224.5,477.3,224.6,477.2,224.8C477.1,224.7,477.1,224.8,477.2,224.8
						L477.2,224.8z"/>
					<path class="st16" d="M477.9,225.2c0.1,0.1,0.2,0.1,0.4,0.2c0,0,0.1,0,0.1,0c0.1-0.1,0.3-0.1,0.4-0.2c0,0,0-0.1,0-0.1
						c-0.1-0.1-0.2-0.1-0.4-0.2c0,0-0.1,0-0.1,0C478.1,225,478,225,477.9,225.2C477.9,225.1,477.9,225.2,477.9,225.2L477.9,225.2z"
						/>
					<path class="st16" d="M478.6,225.6c0.1,0.1,0.2,0.1,0.4,0.2c0,0,0.1,0,0.1,0c0.1-0.1,0.2-0.1,0.4-0.2c0,0,0-0.1,0-0.1
						c-0.1-0.1-0.2-0.1-0.4-0.2c0,0-0.1,0-0.2,0C478.9,225.4,478.8,225.5,478.6,225.6C478.6,225.6,478.6,225.6,478.6,225.6
						L478.6,225.6z"/>
					<path class="st16" d="M479.4,226.1c0.1,0.1,0.2,0.1,0.4,0.2c0,0,0.1,0,0.1,0c0.1-0.1,0.2-0.1,0.4-0.2c0,0,0-0.1,0-0.1
						c-0.1-0.1-0.2-0.1-0.4-0.2c0,0-0.1,0-0.2,0C479.6,225.8,479.5,225.9,479.4,226.1C479.3,226,479.3,226,479.4,226.1L479.4,226.1z
						"/>
					<path class="st16" d="M480.1,226.5c0.1,0.1,0.2,0.1,0.4,0.2c0,0,0.1,0,0.1,0c0.1-0.1,0.3-0.1,0.4-0.2c0,0,0-0.1,0-0.1
						c-0.1-0.1-0.2-0.1-0.4-0.2c0,0-0.1,0-0.1,0C480.4,226.2,480.2,226.3,480.1,226.5C480.1,226.4,480.1,226.5,480.1,226.5
						L480.1,226.5z"/>
					<path class="st16" d="M480.8,226.9c0.1,0.1,0.2,0.1,0.4,0.2c0,0,0.1,0,0.1,0c0.1-0.1,0.2-0.1,0.4-0.2c0,0,0-0.1,0-0.1
						c-0.1-0.1-0.2-0.1-0.4-0.2c0,0-0.1,0-0.1,0C481.1,226.7,481,226.7,480.8,226.9C480.8,226.8,480.8,226.9,480.8,226.9
						L480.8,226.9z"/>
					<path class="st16" d="M481.6,227.3c0.1,0.1,0.2,0.1,0.4,0.2c0,0,0.1,0,0.1,0c0.1-0.1,0.2-0.1,0.4-0.2c0,0,0-0.1,0-0.1
						c-0.1-0.1-0.2-0.1-0.4-0.2c0,0-0.1,0-0.1,0C481.8,227.1,481.7,227.2,481.6,227.3C481.5,227.3,481.5,227.3,481.6,227.3
						L481.6,227.3z"/>
					<path class="st16" d="M482.3,227.8c0.1,0.1,0.3,0.1,0.4,0.2c0,0,0.1,0,0.1,0c0.1-0.1,0.2-0.1,0.4-0.2c0,0,0-0.1,0-0.1
						c-0.1-0.1-0.2-0.1-0.4-0.2c0,0-0.1,0-0.1,0C482.6,227.5,482.4,227.6,482.3,227.8C482.3,227.7,482.3,227.7,482.3,227.8
						L482.3,227.8z"/>
					<path class="st16" d="M476.4,223.5c0.1,0.1,0.2,0.1,0.4,0.2c0,0,0.1,0,0.1,0c0.1-0.1,0.2-0.1,0.4-0.2c0,0,0-0.1,0-0.1
						c-0.1-0.1-0.2-0.1-0.4-0.2c0,0-0.1,0-0.2,0C476.7,223.3,476.6,223.3,476.4,223.5C476.4,223.4,476.4,223.5,476.4,223.5
						L476.4,223.5z"/>
					<path class="st16" d="M477.2,223.9c0.1,0.1,0.2,0.1,0.4,0.2c0,0,0.1,0,0.1,0c0.1-0.1,0.2-0.1,0.4-0.2c0,0,0-0.1,0-0.1
						c-0.1-0.1-0.2-0.1-0.4-0.2c0,0-0.1,0-0.1,0C477.4,223.7,477.3,223.8,477.2,223.9C477.1,223.9,477.1,223.9,477.2,223.9
						L477.2,223.9z"/>
					<path class="st16" d="M474.7,222.5c0.1,0.1,0.2,0.1,0.4,0.2c0,0,0.1,0,0.1,0c0.1-0.1,0.3-0.1,0.4-0.2c0,0,0-0.1,0-0.1
						c-0.1-0.1-0.2-0.1-0.4-0.2c0,0-0.1,0-0.1,0C475,222.3,474.9,222.4,474.7,222.5C474.7,222.5,474.7,222.5,474.7,222.5
						L474.7,222.5z"/>
					<path class="st16" d="M477.9,224.4l3.8,2.2c0,0,0.1,0,0.1,0l0.4-0.2c0,0,0-0.1,0-0.1l-3.8-2.2c0,0-0.1,0-0.1,0L477.9,224.4
						C477.9,224.3,477.9,224.3,477.9,224.4L477.9,224.4z"/>
					<path class="st16" d="M482,226.8l0.6,0.3c0,0,0.1,0,0.1,0l0.4-0.2c0,0,0-0.1,0-0.1l-0.6-0.3c0,0-0.1,0-0.1,0L482,226.8
						C482,226.7,482,226.7,482,226.8L482,226.8z"/>
					<path class="st16" d="M484.3,228.2l0.4,0.2c0,0,0.1,0,0.1,0l0.2-0.1c0,0,0,0,0,0l-0.4-0.2c0,0-0.1,0-0.1,0L484.3,228.2
						C484.2,228.1,484.2,228.1,484.3,228.2L484.3,228.2z"/>
					<path class="st16" d="M484.6,227.9l0.4,0.2c0,0,0.1,0,0.1,0l0.2-0.1c0,0,0,0,0,0l-0.4-0.2c0,0-0.1,0-0.1,0L484.6,227.9
						C484.6,227.9,484.6,227.9,484.6,227.9L484.6,227.9z"/>
					<path class="st16" d="M483,227.3c0.1,0.1,0.2,0.1,0.4,0.2c0,0,0.1,0,0.1,0c0.1-0.1,0.2-0.1,0.4-0.2c0,0,0-0.1,0-0.1
						c-0.1-0.1-0.2-0.1-0.4-0.2c0,0-0.1,0-0.1,0C483.2,227.1,483.1,227.1,483,227.3C483,227.2,483,227.3,483,227.3L483,227.3z"/>
					<path class="st16" d="M485.3,228.3l0.4,0.2c0,0,0.1,0,0.1,0l0.2-0.1c0,0,0,0,0,0l-0.4-0.2c0,0-0.1,0-0.1,0L485.3,228.3
						C485.2,228.3,485.2,228.3,485.3,228.3L485.3,228.3z"/>
					<path class="st16" d="M484,227.6l0.4,0.2c0,0,0.1,0,0.1,0l0.2-0.1c0,0,0,0,0,0l-0.4-0.2c0,0-0.1,0-0.1,0L484,227.6
						C484,227.6,484,227.6,484,227.6L484,227.6z"/>
				</g>
				<path class="st3" d="M488.8,227.6L488.8,227.6l-6.5,3.8l0-0.4l6.7-3.9C489,227.1,489.1,227.4,488.8,227.6z"/>
				<g>
					<g>
						<g>
							<path class="st8" d="M470.4,216.7c-0.2-0.1-0.4,0-0.4,0.3l0,7.8l11.5,6.7l0-7.8c0-0.3-0.2-0.6-0.4-0.8L470.4,216.7z"/>
						</g>
						<path class="st3" d="M470.2,216.7C470.2,216.6,470.2,216.6,470.2,216.7c0.1-0.1,0.2-0.1,0.4,0l10.7,6.2
							c0.2,0.1,0.4,0.5,0.4,0.8l0,7.6l0,0c0,0.2-0.1,0.3-0.1,0.3l0,0l0-7.8c0-0.3-0.2-0.6-0.4-0.8l-10.7-6.2
							C470.3,216.7,470.2,216.7,470.2,216.7C470.2,216.7,470.2,216.7,470.2,216.7z"/>
					</g>
				</g>
				
					<linearGradient id="SVGID_2_" gradientUnits="userSpaceOnUse" x1="3718.594" y1="231.0161" x2="3718.8833" y2="230.9978" gradientTransform="matrix(-1 0 0 1 4201.3945 0)">
					<stop  offset="0" style="stop-color:#642B68"/>
					<stop  offset="1" style="stop-color:#AD5CAB"/>
				</linearGradient>
				<path class="st25" d="M482.7,231c0-0.1,0-0.1-0.1-0.1C482.6,230.9,482.7,230.9,482.7,231C482.7,230.9,482.8,230.9,482.7,231
					c0,0,0,0.1-0.1,0.2c0,0,0,0,0,0C482.7,231.1,482.7,231,482.7,231z"/>
				<path class="st18" d="M482.6,231.1c0-0.1,0-0.1,0.1-0.2c0.1,0,0.1,0,0.1,0.1c0,0.1,0,0.1-0.1,0.2
					C482.6,231.2,482.6,231.1,482.6,231.1z"/>
				<g>
					<path class="st8" d="M483.3,230.5c0,0-0.1,0.1-0.1,0.1c0,0,0,0.1,0.1,0C483.4,230.7,483.4,230.6,483.3,230.5
						C483.4,230.5,483.4,230.5,483.3,230.5z"/>
				</g>
				<g>
					<path d="M482.6,230.9c0,0-0.1,0.1-0.1,0.1c0,0,0,0.1,0.1,0C482.7,231.1,482.7,231,482.6,230.9
						C482.7,230.9,482.7,230.9,482.6,230.9z"/>
				</g>
				<g>
					<g>
						<path class="st12" d="M483.1,230.7c0,0-0.1,0.1-0.1,0.1c0,0,0,0.1,0.1,0C483.1,230.8,483.2,230.7,483.1,230.7
							C483.2,230.7,483.1,230.6,483.1,230.7z"/>
					</g>
				</g>
			</g>
		</g>
		<g>
			<g>
				<path class="st1" d="M582.2,348.9c0,1.8,0,3.6,0,5.4c0,0.4,0.2,0.7,0.7,1l0-5.4C582.4,349.6,582.2,349.3,582.2,348.9z"/>
				<g>
					<polygon class="st1" points="582.9,349.9 582.9,355.3 588.5,358.5 588.5,353.1 					"/>
				</g>
				<path class="st1" d="M589.2,359.5c0-1.8,0-3.6,0-5.4c0-0.4-0.2-0.7-0.7-1l0,5.4C589,358.8,589.2,359.2,589.2,359.5z"/>
			</g>
			<g>
				<path class="st3" d="M600.1,359.4c0-1.8,0-3.6,0-5.4c0,0.1,0,0.3-0.1,0.4l0,5.4C600,359.6,600.1,359.5,600.1,359.4z"/>
				<polygon class="st3" points="598.4,357.6 598.5,363 600,359.7 600,354.3 				"/>
			</g>
			<g class="st23">
				<defs>
					<path id="SVGID_3_" class="st23" d="M598.4,358c0,1.8,0,3.6,0,5.4c0-0.1,0-0.3,0.1-0.4l0-5.4
						C598.4,357.7,598.4,357.8,598.4,358z"/>
				</defs>
				<clipPath id="SVGID_4_">
					<use xlink:href="#SVGID_3_"  style="overflow:visible;"/>
				</clipPath>
				<g class="st26">
					<path class="st27" d="M598.4,358l0,5.4c0-0.1,0-0.3,0.1-0.4l0-5.4C598.4,357.7,598.4,357.8,598.4,358"/>
				</g>
			</g>
			<g>
				<path class="st1" d="M568.8,358.1c0,1.8,0,3.6,0,5.4c0,0.4,0.2,0.7,0.7,1l0-5.4C569,358.8,568.8,358.4,568.8,358.1z"/>
				<path class="st1" d="M587.1,364.1l0,5.4c0.9-0.1,1.7,0,2.4,0.4l0-5.4C588.8,364.1,588,364,587.1,364.1z"/>
				<polygon class="st1" points="574.3,361.8 579.1,364.6 579.1,370.1 574.3,367.3 569.5,364.5 569.5,359 				"/>
				<polygon class="st1" points="581.5,365 581.5,370.4 587.1,369.5 587.1,364.1 				"/>
				<path class="st1" d="M579.1,364.6l0,5.4c0.6,0.4,1.5,0.5,2.4,0.4l0-5.4C580.6,365.1,579.7,365,579.1,364.6z"/>
				<g>
					<polygon class="st1" points="589.5,364.5 589.5,369.9 640.2,399.4 640.2,394 					"/>
				</g>
				<path class="st1" d="M640.9,400.4c0-1.8,0-3.6,0-5.4c0-0.4-0.2-0.7-0.7-1l0,5.4C640.7,399.7,640.9,400,640.9,400.4z"/>
			</g>
			<g>
				<path class="st1" d="M670.5,400.3c0-1.8,0-3.6,0-5.4c0,0.1,0,0.3-0.1,0.4l0,5.4C670.5,400.6,670.5,400.4,670.5,400.3z"/>
				<polygon class="st1" points="669.5,397.2 669.5,402.6 670.5,400.7 670.4,395.3 				"/>
				<g>
					<polygon class="st1" points="659.9,394.6 659.9,400 665.5,403.3 665.4,397.8 					"/>
				</g>
				<path class="st1" d="M665.4,397.8l0,5.4c0.6,0.4,1.5,0.5,2.4,0.4c0.4-0.1,0.8-0.2,1.1-0.4c0.3-0.2,0.5-0.4,0.6-0.6l0-5.4
					c-0.1,0.3-0.3,0.5-0.6,0.6c-0.3,0.2-0.7,0.3-1.1,0.4C666.9,398.3,666.1,398.2,665.4,397.8z"/>
				<g>
					<g>
						<polygon class="st1" points="655.3,394.6 655.3,400 657.5,399.6 657.5,394.2 						"/>
					</g>
					<path class="st1" d="M657.5,394.2l0,5.4c0.9-0.1,1.7,0,2.4,0.4l0-5.4C659.2,394.2,658.4,394.1,657.5,394.2z"/>
					<g>
						<polygon class="st1" points="653.1,394.9 653.1,400.3 655.3,400 655.3,394.6 						"/>
					</g>
					<path class="st1" d="M651.4,395.9l0,5.4c0.1-0.3,0.3-0.5,0.6-0.6c0.3-0.2,0.7-0.3,1.1-0.4l0-5.4c-0.4,0.1-0.8,0.2-1.1,0.4
						C651.7,395.4,651.5,395.6,651.4,395.9z"/>
					<polygon class="st1" points="650.8,397.2 650.8,402.6 651.4,401.3 651.4,395.9 					"/>
					<polygon class="st1" points="650.2,398.5 650.2,403.9 650.8,402.6 650.8,397.2 					"/>
					<path class="st1" d="M650.1,398.8c0,1.8,0,3.6,0,5.4c0-0.1,0-0.3,0.1-0.4l0-5.4C650.1,398.6,650.1,398.7,650.1,398.8z"/>
				</g>
			</g>
			<g>
				<path class="st8" d="M570.4,355.1c-0.3,0.2-0.5,0.4-0.6,0.6l-0.9,1.9c-0.2,0.5,0,1,0.6,1.4l4.8,2.8l4.8,2.8
					c0.6,0.4,1.5,0.5,2.4,0.4l5.7-0.9c0.9-0.1,1.7,0,2.4,0.4l50.7,29.5c0.6,0.4,0.9,0.9,0.6,1.4l-1.5,3.3c-0.2,0.5,0,1,0.6,1.4
					l4.8,2.8l4.8,2.8c0.6,0.4,1.5,0.5,2.4,0.4l3.3-0.5c0.4-0.1,0.8-0.2,1.1-0.4c0.3-0.2,0.5-0.4,0.6-0.6c0.2-0.5,0-1-0.6-1.4
					l-5.6-3.2c-0.6-0.4-0.9-0.9-0.6-1.4l0.6-1.3l0.6-1.3c0.1-0.3,0.3-0.5,0.6-0.6c0.3-0.2,0.7-0.3,1.1-0.4l2.2-0.3l2.2-0.3
					c0.9-0.1,1.7,0,2.4,0.4l5.6,3.2c0.6,0.4,1.5,0.5,2.4,0.4c0.4-0.1,0.8-0.2,1.1-0.4c0.3-0.2,0.5-0.4,0.6-0.6l0.9-1.9
					c0.2-0.5,0-1-0.6-1.4l-4.8-2.8l-4.8-2.8c-0.6-0.4-1.5-0.5-2.4-0.4l-5.7,0.9c-0.9,0.1-1.7,0-2.4-0.4L599.1,359
					c-0.6-0.4-0.9-0.9-0.6-1.4l1.5-3.3c0.2-0.5,0-1-0.6-1.4l-4.8-2.8l-4.8-2.8c-0.6-0.4-1.5-0.5-2.4-0.4l-3.3,0.5
					c-0.4,0.1-0.8,0.2-1.1,0.4c-0.3,0.2-0.5,0.4-0.6,0.6c-0.2,0.5,0,1,0.6,1.4l5.6,3.2c0.6,0.4,0.9,0.9,0.6,1.4l-0.6,1.3l-0.6,1.3
					c-0.1,0.3-0.3,0.5-0.6,0.6c-0.3,0.2-0.7,0.3-1.1,0.4l-2.2,0.3l-2.2,0.3c-0.9,0.1-1.7,0-2.4-0.4l-5.6-3.2
					c-0.6-0.4-1.5-0.5-2.4-0.4C571.1,354.8,570.7,354.9,570.4,355.1z"/>
			</g>
			<g>
				<path class="st1" d="M639.2,399c0,1.8,0,3.6,0,5.4c0,0.4,0.2,0.7,0.7,1l0-5.4C639.5,399.7,639.2,399.4,639.2,399z"/>
				<polygon class="st1" points="639.9,400 640,405.4 644.8,408.2 644.8,402.8 				"/>
				<path class="st1" d="M657.1,409.5c0-1.8,0-3.6,0-5.4c0,0.1,0,0.3-0.1,0.4c-0.1,0.3-0.3,0.5-0.6,0.6c-0.3,0.2-0.7,0.3-1.1,0.4
					l0,5.4c0.4-0.1,0.8-0.2,1.1-0.4c0.3-0.2,0.5-0.4,0.6-0.6C657.1,409.7,657.1,409.6,657.1,409.5z"/>
				<polygon class="st1" points="644.8,402.8 644.8,408.2 649.6,411 649.6,405.6 				"/>
				<polygon class="st1" points="651.9,405.9 652,411.4 655.3,410.9 655.3,405.4 				"/>
				<path class="st1" d="M649.6,405.6l0,5.4c0.6,0.4,1.5,0.5,2.4,0.4l0-5.4C651.1,406.1,650.2,405.9,649.6,405.6z"/>
			</g>
		</g>
	</g>
</g>
<g id="Layer_3">
</g>
</svg>
